<svg width="282" height="27" viewBox="0 0 282 27" fill="none" xmlns="http://www.w3.org/2000/svg">
<g clip-path="url(#clip0_1990_4531)">
<path d="M147.967 10.24L150.07 13.9704H150.17L152.298 10.24H156.179L152.348 16.6493L156.329 23.0586H152.348L150.17 19.2531H150.07L147.892 23.0586H143.936L147.867 16.6493L144.061 10.24H147.967Z" fill="white"/>
<path d="M17.3501 10.7404C17.295 9.91424 17.0747 9.08804 16.6341 8.37201L12.8886 1.81753C12.6132 1.32181 12.3929 0.771012 12.2828 0.220215L12.1175 0.495613C11.1812 2.09292 11.1812 4.13087 12.1175 5.72818L15.1469 10.9608C16.0833 12.5581 16.0833 14.596 15.1469 16.1933L14.9817 16.4687C14.8715 15.9179 14.6512 15.3671 14.3758 14.8714L11.6218 10.0795L9.85926 6.99502C9.58386 6.4993 9.36355 5.9485 9.25339 5.39771L9.08815 5.6731C8.15179 7.27041 8.15179 9.25328 9.08815 10.9057L12.1175 16.1382C13.0539 17.7356 13.0539 19.7735 12.1175 21.3708L11.9523 21.6462C11.8421 21.0954 11.6218 20.5446 11.3464 20.0489L7.54592 13.4944C7.0502 12.6131 6.82988 11.6217 6.82988 10.6303C2.80906 11.6768 0 13.9351 0 16.5238C0 20.1591 5.39781 23.0783 12.0624 23.0783C18.7271 23.0783 24.1249 20.1591 24.1249 16.5238C24.18 14.0452 21.426 11.7869 17.3501 10.7404ZM28.7516 21.9216C28.8067 20.9853 28.9168 20.3794 29.1922 19.6083C30.4591 20.2141 32.1115 20.4895 33.3232 20.4895C35.4162 20.4895 36.628 19.8286 36.628 18.4516C36.628 17.1297 35.7467 16.5238 33.6537 15.5874L32.497 15.1468C30.3489 14.2105 28.9168 12.9987 28.9168 10.6303C28.9168 8.04153 30.7345 6.38914 34.3697 6.38914C35.8569 6.38914 37.2339 6.60946 38.5007 7.0501C38.4456 7.93137 38.2804 8.64741 38.0601 9.30836C36.8483 8.86772 35.3612 8.64741 34.3146 8.64741C32.3318 8.64741 31.4505 9.41852 31.4505 10.6303C31.4505 11.7869 32.3318 12.503 33.9291 13.1639L35.1408 13.6597C38.005 14.8714 39.2167 16.1933 39.2167 18.3965C39.2167 20.9853 37.2339 22.8029 33.3783 22.8029C31.5607 22.8029 30.0184 22.5275 28.7516 21.9216ZM51.3893 11.0709V22.4173H49.076L48.9658 21.0403C48.3049 22.0318 47.3685 22.6927 45.7712 22.6927C42.7969 22.6927 40.759 20.4895 40.759 16.689C40.759 12.7233 42.9071 10.41 47.0931 10.41C48.7455 10.465 50.1225 10.6303 51.3893 11.0709ZM48.9108 19.8286V12.7233C48.415 12.6131 47.8092 12.6131 47.0931 12.6131C44.5044 12.6131 43.2926 14.2105 43.2926 16.7441C43.2926 19.0575 44.229 20.7099 46.4322 20.7099C47.4787 20.6548 48.2498 20.3243 48.9108 19.8286ZM64.1678 14.8163V22.4173H61.6892V15.257C61.6892 13.4393 61.0834 12.6131 58.6048 12.6131C57.9989 12.6131 57.3379 12.6682 56.6219 12.7784V22.4173H54.1433V11.0709C55.7406 10.6854 57.5032 10.41 58.6599 10.41C62.8459 10.465 64.1678 12.0623 64.1678 14.8163ZM71.1079 20.5997C71.8239 20.5997 72.5399 20.4895 73.0357 20.2692C72.9806 20.9302 72.8704 21.7013 72.7603 22.3622C72.0993 22.6376 71.3282 22.7478 70.6672 22.7478C68.2437 22.7478 66.7015 21.6462 66.7015 18.8922V6.93994C67.4726 6.66454 68.409 6.55438 69.1801 6.55438V10.8506H73.1458C73.0907 11.6217 73.0357 12.3377 72.9255 12.9987H69.1801V18.5617C69.1801 19.9938 69.8961 20.5997 71.1079 20.5997ZM84.4922 11.0709V22.4173H82.1789L82.0687 21.0403C81.4078 22.0318 80.4714 22.6927 78.8741 22.6927C75.8998 22.6927 73.8619 20.4895 73.8619 16.689C73.8619 12.7233 76.01 10.41 80.196 10.41C81.8484 10.465 83.1703 10.6303 84.4922 11.0709ZM81.9586 19.8286V12.7233C81.4629 12.6131 80.857 12.6131 80.1409 12.6131C77.5522 12.6131 76.3404 14.2105 76.3404 16.7441C76.3404 19.0575 77.2768 20.7099 79.48 20.7099C80.5265 20.6548 81.3527 20.3243 81.9586 19.8286ZM97.2707 14.8163V22.4173H94.7371V15.257C94.7371 13.4393 94.1312 12.6131 91.6526 12.6131C91.0467 12.6131 90.3858 12.6682 89.6697 12.7784V22.4173H87.1911V11.0709C88.7884 10.6854 90.551 10.41 91.7077 10.41C95.8937 10.465 97.2707 12.0623 97.2707 14.8163ZM109.884 6.55438V22.4173H107.571L107.46 20.9853C106.8 22.0318 105.863 22.6927 104.211 22.6927C101.236 22.6927 99.1985 20.4895 99.1985 16.689C99.1985 12.7233 101.347 10.41 105.533 10.41C106.194 10.41 106.799 10.465 107.405 10.5752V6.82978C108.176 6.60946 109.058 6.55438 109.884 6.55438ZM107.405 19.8286V12.8335C106.744 12.7233 106.083 12.6131 105.423 12.6131C102.944 12.6131 101.787 14.1554 101.787 16.7441C101.787 19.0575 102.724 20.7099 104.927 20.7099C105.918 20.6548 106.744 20.3243 107.405 19.8286ZM122.442 17.5703H114.456C114.786 19.6083 115.943 20.5446 118.201 20.5446C119.578 20.5446 120.955 20.2692 122.167 19.6633C122.057 20.3243 121.946 21.2056 121.781 21.9216C120.625 22.4173 119.468 22.6376 118.091 22.6376C113.905 22.6376 111.922 20.3243 111.922 16.4687C111.922 13.1089 113.464 10.41 117.43 10.41C121.01 10.41 122.552 12.7233 122.552 15.5874C122.552 16.3586 122.552 16.9094 122.442 17.5703ZM114.456 15.4773H120.074C120.074 13.6046 119.082 12.503 117.375 12.503C115.557 12.5581 114.621 13.5495 114.456 15.4773ZM131.2 10.5752C131.2 11.3463 131.09 12.2276 130.979 12.7233C130.374 12.6682 129.823 12.6131 129.107 12.6131C128.501 12.6131 127.895 12.6682 127.289 12.7233V22.4173H124.811V11.0709C125.857 10.6854 127.675 10.41 129.052 10.41C129.768 10.465 130.649 10.465 131.2 10.5752Z" fill="white"/>
<g clip-path="url(#clip1_1990_4531)">
<path fill-rule="evenodd" clip-rule="evenodd" d="M184.723 3.85547C183.626 3.85547 182.546 4.09334 181.783 4.40721C181.02 4.09334 179.939 3.85547 178.842 3.85547C174.009 3.85547 169.645 8.42796 169.645 14.6986C169.645 21.5375 175.231 26.8236 181.783 26.8236C188.334 26.8236 193.921 21.5375 193.921 14.6986C193.921 8.42796 189.557 3.85547 184.723 3.85547ZM181.783 7.57887C182.714 8.13392 183.943 9.73957 183.943 11.5501C183.943 12.8782 183.068 13.9255 181.783 13.9255C180.498 13.9255 179.622 12.8815 179.622 11.5501C179.622 9.73957 180.851 8.13392 181.783 7.57887ZM181.783 23.837C176.771 23.837 172.628 19.8063 172.628 14.6391C172.628 9.92128 176.034 6.69675 178.71 6.81569C177.442 8.07775 176.675 9.91798 176.675 11.702C176.675 14.7647 179.107 16.9122 181.786 16.9122C184.465 16.9122 186.897 14.7647 186.897 11.702C186.897 9.92128 186.127 8.08106 184.862 6.81569C187.538 6.69675 190.944 9.91798 190.944 14.6391C190.944 19.8063 186.798 23.837 181.789 23.837H181.783Z" fill="white"/>
<path d="M211.4 9.08887V11.5866H215.21V20.9628H217.906V11.5866H221.715V9.08887H211.4Z" fill="white"/>
<path d="M255.796 9.08887H249.003V11.6064H255.614C256.582 11.6064 256.962 12.0491 256.962 13.1856V13.6052H251.484C249.399 13.6052 248.365 14.6459 248.365 17.0015V17.5632C248.365 19.9849 249.439 20.9595 251.6 20.9595H259.635V13.1559C259.635 10.1659 258.647 9.08887 255.796 9.08887ZM251.88 18.4222C251.471 18.4222 251.015 18.214 251.015 17.1964C251.015 16.1789 251.468 16.0005 251.88 16.0005H256.965V18.4255H251.88V18.4222Z" fill="white"/>
<path d="M278.188 9.08887H271.399V11.6064H278.01C278.981 11.6064 279.358 12.0491 279.358 13.1856C279.358 13.1922 279.358 13.5094 279.358 13.6052H273.877C271.792 13.6052 270.758 14.6459 270.758 17.0015V17.5632C270.758 19.9849 271.832 20.9595 273.992 20.9595H282.027V13.1559C282.027 10.1659 281.039 9.08887 278.188 9.08887ZM274.273 18.4222C273.863 18.4222 273.407 18.214 273.407 17.1964C273.407 16.1789 273.86 16.0005 274.273 16.0005H279.358V18.4255H274.273V18.4222Z" fill="white"/>
<path d="M222.57 9.08887V11.5866H226.38V20.9628H229.079V11.5866H232.888V9.08887H222.57Z" fill="white"/>
<path d="M260.176 9.08887V11.5866H263.985V20.9628H266.684V11.5866H270.494V9.08887H260.179H260.176Z" fill="white"/>
<path d="M247.316 16.8V13.2484C247.316 10.1362 246.111 9.08887 243.388 9.08887H236.166V20.9595H243.514C246.401 20.9595 247.316 19.5256 247.316 16.8ZM244.561 16.8528C244.561 17.9894 244.178 18.4321 243.206 18.4321H238.862V11.6163H243.206C244.174 11.6163 244.561 12.059 244.561 13.1955V16.8528Z" fill="white"/>
<path d="M207.595 18.1311C207.538 18.0221 203.934 10.9982 203.491 10.3077C202.983 9.50817 202.365 8.95312 201.179 8.95312C200.078 8.95312 198.773 9.44209 198.773 12.0851V20.9625H201.433V13.5587C201.433 13.0267 201.4 12.2404 201.393 12.0818C201.387 11.953 201.393 11.8274 201.459 11.7911C201.535 11.7482 201.611 11.8175 201.664 11.9167C201.717 12.0158 205.057 18.6234 205.768 19.7401C206.276 20.5396 206.894 21.0947 208.08 21.0947C209.18 21.0947 210.485 20.6057 210.485 17.9626V9.08528H207.826V16.4891C207.826 17.0211 207.859 17.8074 207.866 17.9659C207.872 18.0948 207.866 18.2203 207.799 18.2567C207.723 18.2996 207.648 18.2303 207.595 18.1311Z" fill="white"/>
</g>
</g>
<defs>
<clipPath id="clip0_1990_4531">
<rect width="282" height="26.8937" fill="white"/>
</clipPath>
<clipPath id="clip1_1990_4531">
<rect width="112.383" height="22.9682" fill="white" transform="translate(169.645 3.85547)"/>
</clipPath>
</defs>
</svg>
