<svg width="104" height="104" viewBox="0 0 104 104" fill="none" xmlns="http://www.w3.org/2000/svg">
<g clip-path="url(#clip0_2190_4764)">
<g clip-path="url(#clip1_2190_4764)">
<path d="M98.0521 30.8097V71.0772C98.0521 74.4247 96.0371 77.2847 93.1446 78.4872C92.1696 78.9097 91.1296 79.1372 90.0246 79.1372H44.0696L29.8021 93.9572C29.0221 94.8022 27.9171 95.2897 26.8121 95.2897C26.3246 95.2897 25.8371 95.1922 25.3821 94.9972C23.8221 94.4122 22.7821 92.9172 22.7821 91.2597V79.0397H21.2221C16.7696 79.0397 13.1621 75.4322 13.1621 71.0122V30.8097C13.1621 26.3572 16.7696 22.7822 21.2221 22.7822H43.6796C42.4121 25.8697 41.6971 29.2497 41.6971 32.7922C41.6971 47.2872 53.4296 59.0197 67.9246 59.0197C82.4196 59.0197 94.1846 47.2872 94.1846 32.7922C94.1846 29.3797 93.5346 26.1297 92.3321 23.1397C93.2421 23.3997 94.0546 23.8222 94.7696 24.3422C96.7521 25.8047 98.0521 28.1447 98.0521 30.8097Z" fill="#0072BC"/>
<path d="M59.9955 55.3804C59.9955 55.3804 60.1255 55.3154 60.223 55.3154C60.028 55.3804 59.833 55.4779 59.6055 55.5754C59.7355 55.5104 59.8655 55.4454 59.9955 55.3804Z" fill="#0072BC"/>
<path d="M94.1848 32.7922C94.1848 47.2872 82.4198 59.0197 67.9248 59.0197C53.4298 59.0197 41.6973 47.2872 41.6973 32.7922C41.6973 29.2497 42.4123 25.8697 43.6798 22.7822H90.0248C90.8373 22.7822 91.6173 22.9122 92.3323 23.1397C93.5348 26.1297 94.1848 29.3797 94.1848 32.7922Z" fill="#262626"/>
<path d="M92.3322 23.1404C91.6172 22.9129 90.8372 22.7829 90.0247 22.7829H43.6797C47.6122 13.2604 56.9722 6.56543 67.9247 6.56543C78.8772 6.56543 88.4972 13.4229 92.3322 23.1404Z" fill="#00F0FF"/>
<path d="M70.2641 36.8877H65.6816V52.0002H70.2641V36.8877Z" fill="white"/>
<path d="M70.2979 31.4601C70.2979 30.1601 69.3229 29.1201 68.1204 29.1201H67.8279C66.6254 29.1201 65.6504 30.1601 65.6504 31.4601C65.6504 32.7601 66.6254 33.8001 67.8279 33.8001H68.1204C69.3229 33.8001 70.2979 32.7601 70.2979 31.4601Z" fill="white"/>
</g>
</g>
<defs>
<clipPath id="clip0_2190_4764">
<rect width="104" height="104" fill="white"/>
</clipPath>
<clipPath id="clip1_2190_4764">
<rect width="104" height="104" fill="white"/>
</clipPath>
</defs>
</svg>
