<svg width="100" height="100" viewBox="0 0 100 100" fill="none" xmlns="http://www.w3.org/2000/svg">
<rect width="100" height="100" fill="#1E1E1E"/>
<g id="Negative ilustration">
<rect x="-200" y="-198" width="926" height="2354" rx="20" fill="#E8EAEA"/>
<g id="table">
<g id="row-2">
<g id="eb-illu-hug_neg">
<path id="Vector" d="M57.879 77.465L75.765 64.317C75.765 64.317 76.148 65.258 76.62 66.419C76.641 66.469 76.661 66.52 76.678 66.57C76.735 66.71 76.794 66.85 76.855 66.989C76.885 67.059 76.906 67.119 76.925 67.18C77.146 67.562 77.354 67.955 77.548 68.358C77.58 68.425 77.612 68.493 77.643 68.56C77.861 69.152 78.261 69.752 78.375 70.448C78.397 70.52 78.419 70.592 78.441 70.664C78.457 70.718 78.473 70.773 78.488 70.827C78.503 70.881 78.518 70.936 78.533 70.991C78.57 71.135 79.353 72.648 80.067 74.484C80.087 74.535 80.107 74.586 80.125 74.636C80.142 74.712 80.16 74.787 80.179 74.862C80.198 74.937 80.212 75.001 80.23 75.071C80.361 75.853 81.161 76.453 81.271 77.203C81.3 77.27 81.331 77.339 81.363 77.407C81.581 77.887 81.797 78.366 81.977 78.858C81.996 78.905 82.015 78.951 82.033 78.998C82.599 80.44 83.014 81.495 83.014 81.495H78.623C78.567 81.495 78.511 81.495 78.455 81.495C77.061 81.453 75.761 81.453 74.341 81.495H69.336C68.061 81.652 66.761 81.352 65.459 81.495H64.763C63.761 81.352 62.761 81.752 61.727 81.497C61.668 81.497 61.609 81.495 61.55 81.495H60.674C60.616 81.495 60.559 81.495 60.501 81.495C58.761 81.752 57.161 81.352 55.461 81.495H54.838L57.879 77.464V77.465Z" fill="#FF4242"/>
<path id="Vector_2" d="M37.586 20.741C37.586 20.741 34.705 23.017 34.336 25.617C33.951 28.331 34.82 29.681 34.392 30.714C33.894 31.915 32.841 32.196 32.92 32.954C32.99 33.622 34.149 33.711 34.304 34.071C34.459 34.431 33.676 35.072 33.817 35.463C33.958 35.854 34.559 35.958 34.559 35.958C34.559 35.958 33.88 36.525 34.133 36.965C34.386 37.405 34.939 37.33 34.898 37.933C34.857 38.536 35.007 40.755 37.434 40.675C37.783 40.664 38.273 40.646 38.602 40.635C38.795 40.628 38.955 40.782 38.955 40.975C38.957 41.545 38.891 42.561 38.856 43.25C38.786 44.632 49.831 42.883 49.831 42.883C49.831 42.883 47.647 37.443 48.161 35.969C48.675 34.495 53.581 27.69 49.487 23.361C45.393 19.032 39.601 19.614 37.588 20.742L37.586 20.741Z" fill="white"/>
<path id="Vector_3" d="M43.035 39.11C45.2878 39.11 47.114 37.2838 47.114 35.031C47.114 32.7783 45.2878 30.952 43.035 30.952C40.7822 30.952 38.956 32.7783 38.956 35.031C38.956 37.2838 40.7822 39.11 43.035 39.11Z" fill="#0168FF"/>
<path id="Vector_4" d="M46.136 27.258H33.78C33.51 27.258 33.288 27.046 33.274 26.776C33.165 24.639 33.355 16.122 43.299 16.122C56.973 16.122 56.555 27.257 56.555 27.257H46.135L46.136 27.258Z" fill="#212932"/>
<path id="Vector_5" d="M37.727 40.839C37.727 40.839 28.626 48.571 26.261 58.727C24.794 65.028 21.255 81.496 21.255 81.496H54.838L62.338 60.228C62.338 60.228 56.658 52.038 48.467 49.792C40.277 47.546 37.727 40.839 37.727 40.839Z" fill="#0168FF"/>
<path id="Vector_6" d="M56.109 40.418C56.109 40.418 54.939 40.418 53.08 40.418C53.009 40.418 52.95 40.419 52.891 40.421C49.561 40.054 46.261 40.354 43.001 40.419C42.947 40.419 42.892 40.419 42.837 40.419C42.782 40.419 42.728 40.419 42.673 40.419C42.618 40.419 42.526 40.382 42.474 40.385C41.924 40.417 40.467 40.403 39.867 40.403C38.167 40.403 37.361 40.455 35.694 40.42C35.645 40.42 35.596 40.42 35.548 40.419C34.431 40.419 33.392 40.419 32.471 40.419C32.426 40.419 32.386 40.422 32.346 40.424C31.262 40.454 30.162 40.754 28.962 40.554C28.162 40.354 27.362 40.654 26.567 40.779C26.498 40.811 26.429 40.843 26.36 40.877C25.572 41.26 24.828 41.738 24.211 42.345C24.16 42.396 24.109 42.447 24.059 42.499C23.861 42.854 23.561 43.154 23.276 43.548C23.238 43.61 23.203 43.675 23.168 43.741C23.145 43.785 23.123 43.83 23.101 43.875C22.861 44.455 22.761 45.055 22.61 45.604C22.602 45.671 22.596 45.739 22.591 45.807C22.586 45.875 22.582 45.943 22.579 46.012C22.568 46.266 22.574 46.518 22.595 46.766C22.602 46.849 22.611 46.931 22.621 47.012C22.635 47.089 22.651 47.165 22.667 47.241C22.711 47.387 22.758 47.532 22.81 47.675C22.836 47.747 22.862 47.818 22.89 47.884C23.261 48.355 23.361 48.955 23.715 49.499C23.752 49.559 23.793 49.621 23.835 49.683C24.088 50.053 24.368 50.403 24.67 50.726C24.728 50.776 24.787 50.825 24.847 50.873C25.087 51.065 25.345 51.24 25.622 51.397C25.693 51.435 25.764 51.473 25.836 51.508C26.415 51.793 27.05 51.986 27.724 52.067C27.724 52.067 28.347 52.151 29.38 52.29C29.449 52.299 29.52 52.309 29.592 52.319C30.403 52.332 31.192 52.429 31.976 52.557C32.054 52.57 32.131 52.577 32.207 52.584C33.261 52.555 34.261 52.655 35.287 53.119C35.367 53.129 35.448 53.139 35.529 53.149C35.61 53.159 35.691 53.167 35.772 53.176C36.462 53.154 37.062 53.254 37.662 53.454C38.062 53.654 38.462 52.954 38.962 53.154C39.262 53.354 39.562 53.554 39.862 53.654C41.362 53.754 42.862 53.654 44.134 54.281C44.186 54.288 44.237 54.295 44.289 54.302C47.114 54.683 49.158 54.959 49.158 54.959C49.158 54.959 49.714 55.94 50.54 57.397C50.563 57.437 50.586 57.478 50.61 57.519C50.847 57.938 51.084 58.356 51.322 58.772C51.362 58.841 51.392 58.876 51.428 58.922C52.063 60.253 52.191 60.308 52.924 61.601C53.035 61.796 52.57 62.507 52.743 62.663C52.781 62.732 53.881 63.718 53.92 63.787C54.822 65.36 55.841 66.66 56.696 68.251C56.732 68.319 56.769 68.385 56.805 68.449C57.277 69.282 57.567 69.794 57.567 69.794L74.688 60.392C74.688 60.392 73.574 58.631 72.111 56.319L72.032 56.195C71.731 55.565 71.356 54.977 70.953 54.405C70.908 54.341 70.863 54.278 70.818 54.215C70.458 53.807 69.858 53.607 69.828 52.894C69.794 52.832 69.75 52.77 69.704 52.706C69.059 51.82 68.455 50.904 68.061 49.854C67.761 49.154 66.561 48.854 66.717 47.809C66.687 47.748 66.645 47.681 66.603 47.614C66.349 47.213 66.122 46.853 65.929 46.548C65.893 46.49 65.857 46.435 65.823 46.381C65.561 45.955 65.261 45.555 64.959 45.041C64.914 44.975 64.87 44.909 64.823 44.844C64.682 44.651 64.535 44.463 64.382 44.281C64.331 44.22 64.282 44.194 64.231 44.161C63.945 43.91 63.663 43.663 63.379 43.423C63.322 43.375 63.266 43.328 63.219 43.286C63.173 43.243 63.128 43.2 63.083 43.158C62.561 42.655 62.061 42.255 61.496 41.971C61.448 41.942 61.399 41.913 61.351 41.885C61.253 41.828 61.154 41.773 61.053 41.718C60.988 41.679 60.923 41.641 60.858 41.604C60.53 41.416 60.187 41.241 59.825 41.079C59.752 41.052 59.678 41.026 59.604 41.001C59.53 40.976 59.456 40.951 59.381 40.927C59.061 40.755 58.661 40.755 58.241 40.633C58.164 40.616 58.087 40.602 58.009 40.588C57.388 40.477 56.752 40.42 56.109 40.42V40.418Z" fill="#FF4242"/>
<path id="Vector_7" d="M52.922 61.601L57.566 69.794L74.035 59.458L73.178 58.013C75.007 57.345 76.744 58.265 77.481 59.133C78.454 60.277 79.731 63.489 77.538 65.597C74.563 68.457 61.937 78.293 58.831 80.181C55.456 82.232 53.008 81.901 50.361 79.056C48.474 77.027 41.031 68.674 41.031 68.674L52.921 61.601H52.922Z" fill="white"/>
<path id="Vector_8" d="M43.094 36.508C43.094 36.508 42.902 32.203 42.902 29.104C42.902 25.616 41.823 19.48 46.085 16.38C51.946 12.118 60.687 15.909 60.687 15.909C60.687 15.909 62.327 14.31 65.458 16.302C67.556 17.636 66.883 20.126 66.883 20.126C66.883 20.126 69.272 20.58 68.627 23.291C67.982 26.002 65.195 26.737 65.195 26.737L43.094 36.508Z" fill="#212932"/>
<path id="Vector_9" d="M61.041 24.288C58.162 23.11 56.256 22.622 54.304 25.457C52.264 28.42 50.179 27.657 50.179 27.657C50.179 27.657 49.524 22.473 45.887 24.36C43.081 25.815 46.211 29.701 44.902 31.883C43.593 34.064 39.867 40.402 39.867 40.402C39.867 40.402 40.191 40.405 40.736 40.409C40.804 40.409 40.861 40.42 40.926 40.431C41.658 40.706 42.258 40.406 42.934 40.428C42.989 40.428 43.045 40.428 43.101 40.429C43.225 40.43 43.347 40.433 43.451 40.447C43.957 40.606 44.557 40.606 45.088 40.447C45.14 40.464 45.197 40.472 45.257 40.478C45.324 40.48 45.391 40.482 45.459 40.484C45.527 40.486 45.595 40.488 45.664 40.489C46.156 40.505 46.656 40.905 47.18 40.535C47.235 40.51 47.283 40.486 47.352 40.484C47.491 40.48 47.627 40.475 47.761 40.469C47.82 40.469 47.878 40.47 47.936 40.471C48.293 40.474 48.644 40.477 48.982 40.48C49.095 40.48 49.206 40.481 49.313 40.475C49.7 40.24 49.964 40.21 50.316 40.255C48.456 39.024 47.954 37.549 48.157 35.969C49.819 38.963 52.802 40.513 52.802 40.513C52.802 40.513 55.816 42.552 57.803 40.703C58.279 40.26 58.955 39.354 59.807 39.179C60.263 39.085 60.119 38.071 60.119 38.071C60.119 38.071 60.958 37.8 60.947 37.406C60.924 36.567 61.379 35.74 61.379 35.74C61.379 35.74 62.101 35.938 62.614 35.285C62.968 34.834 62.548 32.938 63.259 31.16C63.467 30.64 63.899 31.17 64.654 29.082C65.44 26.905 65.53 25.245 65.53 25.245C65.53 25.245 63.918 25.467 61.039 24.289L61.041 24.288Z" fill="white"/>
</g>
</g>
</g>
</g>
</svg>
