<svg width="32" height="32" viewBox="0 0 32 32" fill="none" xmlns="http://www.w3.org/2000/svg">
<rect width="32" height="32" fill="#1E1E1E"/>
<g id="Pictograms">
<rect x="-392" y="-386" width="1144" height="1538" rx="20" fill="white"/>
<g id="table">
<g id="row-2">
<g id="eb-picto_illu-error">
<path id="Union" d="M20.8075 11.3333C21.4781 11.3333 22.0218 11.877 22.0218 12.5476V16.6666C22.0218 19.9803 19.3355 22.6666 16.0218 22.6666C12.7081 22.6666 10.0218 19.9803 10.0218 16.6666V12.5476C10.0218 11.877 10.5655 11.3333 11.2361 11.3333H20.8075Z" fill="#0168FF"/>
<path id="Union_2" d="M19.3333 5.33331C20.0697 5.33331 20.6667 5.93027 20.6667 6.66665V9.99998H22.3333C22.8856 9.99998 23.3333 10.4477 23.3333 11V11.6666C23.3333 12.2189 22.8856 12.6666 22.3333 12.6666H9.66666C9.11437 12.6666 8.66666 12.2189 8.66666 11.6666V11C8.66666 10.4477 9.11437 9.99998 9.66666 9.99998H11.3333V6.66665C11.3333 5.93027 11.9303 5.33331 12.6667 5.33331C13.403 5.33331 14 5.93027 14 6.66665V9.99998H18V6.66665C18 5.93027 18.5969 5.33331 19.3333 5.33331Z" fill="#FF4242"/>
<path id="Intersect" d="M20.7192 11.3333C21.4293 11.3333 22.0049 11.9089 22.0049 12.619V12.6666H10.0049V12.619C10.0049 11.9089 10.5805 11.3333 11.2906 11.3333H20.7192Z" fill="#212932"/>
<path id="Vector 111 (Stroke)" d="M24.5833 28.9167C24.5833 28.1803 23.9864 27.5833 23.25 27.5833H18.1667C16.6939 27.5833 15.5 26.3894 15.5 24.9167V21.5H16.8333V24.9167C16.8333 25.653 17.4303 26.25 18.1667 26.25H23.25C24.7228 26.25 25.9167 27.4439 25.9167 28.9167V30.75H24.5833V28.9167Z" fill="#0168FF"/>
<path id="Ellipse 12" d="M14.6667 21.5C14.6667 24.8137 11.9804 27.5 8.66666 27.5C5.35295 27.5 2.66666 24.8137 2.66666 21.5C2.66666 18.1863 5.35295 15.5 8.66666 15.5C11.9804 15.5 14.6667 18.1863 14.6667 21.5Z" fill="#FF4242"/>
<path id="Intersect_2" d="M10.0218 15.6536C12.6828 16.268 14.6666 18.6523 14.6666 21.5C14.6666 21.8382 14.6381 22.1697 14.5843 22.4927C11.9649 21.8486 10.0218 19.4848 10.0218 16.6666V15.6536Z" fill="#212932"/>
<path id="Union_3" d="M10.6667 20.0714L9.23801 21.5L10.6667 22.9286L10.095 23.5L8.6664 22.0714L7.23801 23.5L6.66666 22.9286L8.09504 21.5L6.66666 20.0714L7.23801 19.5L8.66666 20.9286L10.0953 19.5L10.6667 20.0714Z" fill="white"/>
</g>
</g>
</g>
</g>
</svg>
