<svg width="32" height="32" viewBox="0 0 32 32" fill="none" xmlns="http://www.w3.org/2000/svg">
<rect width="32" height="32" fill="#1E1E1E"/>
<g id="Pictograms">
<rect x="-123" y="-496" width="1144" height="1538" rx="20" fill="white"/>
<g id="eb-picto_illu-music" clip-path="url(#clip0_40003776_761)">
<path id="Vector" d="M18.98 13.01H25.58L26 12.01H18.98V13.01Z" fill="#E8EAEA"/>
<path id="Vector_2" d="M26 4.55003C26 4.43003 25.98 4.31003 25.91 4.20003C25.81 4.05003 25.67 3.97003 25.48 3.99003C25.41 3.99003 25.34 4.02003 25.26 4.03003C25.17 4.05003 25.08 4.07003 24.99 4.09003C24.9 4.11003 24.81 4.13003 24.71 4.15003C24.62 4.17003 24.53 4.19003 24.45 4.21003C24.36 4.23003 24.27 4.25003 24.18 4.27003C24.09 4.29003 24 4.31003 23.91 4.33003C23.82 4.35003 23.73 4.37003 23.64 4.39003C23.53 4.41003 23.42 4.44003 23.32 4.46003C23.21 4.48003 23.1 4.51003 22.99 4.53003C22.88 4.55003 22.77 4.58003 22.66 4.60003C22.53 4.62003 22.42 4.69003 22.35 4.81003C22.28 4.92003 22.25 5.04003 22.25 5.17003C22.25 5.96003 22.25 6.75003 22.25 7.53003V7.58003C22.25 7.58003 22.22 7.58003 22.21 7.58003C22.16 7.57003 22.11 7.55003 22.05 7.54003C21.92 7.52003 21.79 7.52003 21.65 7.54003C21.45 7.58003 21.29 7.68003 21.16 7.83003C20.97 8.05003 20.94 8.37003 21.1 8.62003C21.24 8.84003 21.44 8.96003 21.69 9.00003C21.92 9.04003 22.14 9.02003 22.35 8.90003C22.61 8.75003 22.76 8.54003 22.76 8.23003C22.76 7.48003 22.76 6.72003 22.76 5.97003C22.76 5.96003 22.76 5.95003 22.76 5.94003C22.76 5.92003 22.76 5.92003 22.78 5.91003C22.87 5.89003 22.95 5.87003 23.04 5.86003C23.13 5.84003 23.22 5.82003 23.31 5.80003C23.4 5.78003 23.5 5.76003 23.59 5.74003C23.68 5.72003 23.77 5.70003 23.86 5.68003C23.93 5.67003 24 5.65003 24.07 5.64003L24.35 5.58003C24.44 5.56003 24.53 5.54003 24.62 5.52003C24.71 5.50003 24.8 5.48003 24.89 5.46003C24.98 5.44003 25.38 5.36003 25.49 5.33003C25.52 5.33003 25.52 5.33003 25.52 5.36003V7.55003C25.52 7.55003 25.52 7.57003 25.52 7.58003C25.51 7.58003 25.5 7.58003 25.49 7.58003C25.3 7.51003 25.1 7.50003 24.9 7.55003C24.74 7.59003 24.6 7.67003 24.48 7.79003C24.34 7.93003 24.27 8.10003 24.27 8.30003C24.27 8.48003 24.35 8.64003 24.48 8.76003C24.62 8.90003 24.79 8.98003 24.99 9.01003C25.27 9.05003 25.53 9.00003 25.75 8.82003C25.93 8.67003 26.03 8.48003 26.03 8.24003C26.03 7.35003 26.03 6.46003 26.03 5.57003C26.03 5.24003 26.03 4.90003 26.03 4.57003L26 4.55003Z" fill="black"/>
<path id="Vector_3" d="M18.98 15.02H24.56L24.98 14.02H18.98V15.02Z" fill="#E8EAEA"/>
<path id="Vector_4" d="M5.98999 20.01H12.57L12.99 19.01H5.98999V20.01Z" fill="#E8EAEA"/>
<path id="Vector_5" d="M5.98999 18H13.57L13.99 17H5.98999V18Z" fill="#E8EAEA"/>
<path id="Vector_6" d="M6.66997 13.98C6.89997 14.02 7.11997 14 7.32997 13.88C7.58997 13.73 7.73997 13.52 7.73997 13.21C7.73997 12.46 7.73997 11.7 7.73997 10.95C7.73997 10.94 7.73997 10.93 7.73997 10.92C7.73997 10.9 7.73997 10.9 7.75997 10.89C7.84997 10.87 10.35 10.34 10.46 10.32C10.49 10.32 10.49 10.32 10.49 10.35V12.54C10.49 12.54 10.49 12.56 10.49 12.57C10.48 12.57 10.47 12.57 10.46 12.57C10.27 12.5 10.07 12.49 9.86997 12.54C9.70997 12.58 9.56997 12.66 9.44997 12.77C9.30997 12.91 9.23997 13.08 9.23997 13.28C9.23997 13.46 9.31997 13.62 9.44997 13.74C9.58997 13.88 9.75997 13.96 9.95997 13.99C10.24 14.03 10.5 13.98 10.72 13.8C10.9 13.65 11 13.46 11 13.22C11 12.33 11 11.44 11 10.55C11 10.22 11 9.87997 11 9.54997C11 9.42997 10.98 9.30997 10.91 9.19997C10.81 9.04997 10.67 8.96997 10.48 8.98997C10.41 8.98997 7.75997 9.55997 7.64997 9.57997C7.51997 9.59997 7.40997 9.66997 7.33997 9.78997C7.26997 9.89997 7.23997 10.02 7.23997 10.15C7.23997 10.94 7.23997 11.73 7.23997 12.51V12.56C7.23997 12.56 7.20997 12.56 7.19997 12.55C7.14997 12.54 7.09997 12.52 7.03997 12.51C6.90997 12.49 6.77997 12.49 6.63997 12.51C6.43997 12.55 6.27997 12.65 6.13997 12.8C5.94997 13.02 5.91997 13.34 6.07997 13.59C6.21997 13.81 6.41997 13.93 6.66997 13.97V13.98Z" fill="black"/>
<path id="Vector_7" d="M25.99 2.02002H16.99C15.89 2.02002 14.99 2.92002 14.99 4.02002V7.00002H15.99C17.09 7.00002 17.99 7.90002 17.99 9.00002V25H25.99C27.09 25 27.99 24.1 27.99 23V4.02002C27.99 2.92002 27.09 2.02002 25.99 2.02002ZM24.56 15.02H18.99V14.02H24.99L24.56 15.02ZM25.58 13.01H18.98V12.01H26L25.57 13.01H25.58ZM25.73 8.80002C25.51 8.98002 25.25 9.03002 24.97 8.99002C24.77 8.96002 24.6 8.88002 24.46 8.74002C24.33 8.61002 24.26 8.46002 24.25 8.28002C24.25 8.08002 24.32 7.91002 24.46 7.77002C24.58 7.65002 24.72 7.57002 24.88 7.53002C25.08 7.48002 25.28 7.49002 25.47 7.56002C25.47 7.56002 25.49 7.56002 25.5 7.56002C25.5 7.55002 25.5 7.54002 25.5 7.53002V5.34002C25.5 5.34002 25.5 5.30002 25.47 5.31002C25.36 5.33002 22.86 5.86002 22.77 5.88002C22.75 5.88002 22.75 5.89002 22.75 5.91002C22.75 5.92002 22.75 5.93002 22.75 5.94002C22.75 6.69002 22.75 7.45002 22.75 8.20002C22.75 8.51002 22.6 8.72002 22.34 8.87002C22.13 8.99002 21.91 9.01002 21.68 8.97002C21.43 8.92002 21.23 8.80002 21.09 8.59002C20.93 8.34002 20.96 8.03002 21.15 7.80002C21.28 7.65002 21.45 7.55002 21.64 7.51002C21.77 7.48002 21.9 7.48002 22.04 7.51002C22.09 7.51002 22.15 7.54002 22.2 7.55002C22.21 7.55002 22.22 7.55002 22.24 7.55002V7.50002C22.24 6.71002 22.24 5.92002 22.24 5.14002C22.24 5.01002 22.26 4.89002 22.34 4.78002C22.42 4.67002 22.52 4.60002 22.65 4.57002C22.76 4.55002 25.41 3.98002 25.48 3.98002C25.66 3.96002 25.8 4.04002 25.91 4.19002C25.98 4.29002 26 4.41002 26 4.54002C26 4.87002 26 7.32002 26 8.21002C26 8.45002 25.91 8.64002 25.72 8.79002L25.73 8.80002Z" fill="#0168FF"/>
<path id="Vector_8" d="M14.99 23V7H5.98999C4.88999 7 3.98999 7.9 3.98999 9V27.98C3.98999 29.08 4.88999 29.98 5.98999 29.98H15.99C17.09 29.98 17.99 29.08 17.99 27.98V25H16.99C15.89 25 14.99 24.1 14.99 23ZM6.14999 12.81C6.27999 12.66 6.44999 12.56 6.64999 12.52C6.77999 12.49 6.90999 12.49 7.04999 12.52C7.09999 12.52 7.15999 12.55 7.20999 12.56C7.20999 12.56 7.22999 12.56 7.24999 12.57V12.52C7.24999 11.73 7.24999 10.94 7.24999 10.16C7.24999 10.03 7.26999 9.91 7.34999 9.8C7.42999 9.69 7.52999 9.62 7.65999 9.59C7.76999 9.57 10.42 9 10.49 9C10.67 8.98 10.81 9.06 10.92 9.21C10.99 9.31 11.01 9.43 11.01 9.56C11.01 9.89 11.01 10.23 11.01 10.56C11.01 11.45 11.01 12.34 11.01 13.23C11.01 13.47 10.92 13.66 10.73 13.81C10.51 13.99 10.25 14.04 9.96999 14C9.76999 13.97 9.59999 13.89 9.45999 13.75C9.32999 13.62 9.25999 13.47 9.24999 13.29C9.24999 13.09 9.31999 12.92 9.45999 12.78C9.57999 12.66 9.71999 12.59 9.87999 12.55C10.08 12.5 10.28 12.51 10.47 12.58C10.47 12.58 10.49 12.58 10.5 12.58C10.5 12.57 10.5 12.56 10.5 12.55V10.36C10.5 10.36 10.5 10.32 10.47 10.33C10.36 10.35 7.85999 10.88 7.76999 10.9C7.74999 10.9 7.74999 10.91 7.74999 10.93C7.74999 10.94 7.74999 10.95 7.74999 10.96C7.74999 11.71 7.74999 12.47 7.74999 13.22C7.74999 13.53 7.59999 13.74 7.33999 13.89C7.12999 14.01 6.90999 14.03 6.67999 13.99C6.42999 13.94 6.22999 13.82 6.08999 13.61C5.92999 13.36 5.95999 13.05 6.14999 12.82V12.81ZM12.57 20.01H5.98999V19.01H12.99L12.56 20.01H12.57ZM13.57 18H5.98999V17H13.99L13.56 18H13.57Z" fill="#FF4747"/>
<path id="Vector_9" d="M15.99 7H14.99V23C14.99 24.1 15.89 25 16.99 25H17.99V9C17.99 7.9 17.09 7 15.99 7Z" fill="black"/>
</g>
</g>
<defs>
<clipPath id="clip0_40003776_761">
<rect width="32" height="32" fill="white"/>
</clipPath>
</defs>
</svg>
