<svg width="32" height="32" viewBox="0 0 32 32" fill="none" xmlns="http://www.w3.org/2000/svg">
<rect width="32" height="32" fill="#1E1E1E"/>
<g id="Pictograms">
<rect x="-445" y="-496" width="1144" height="1538" rx="20" fill="white"/>
<g id="eb-picto_illu-euro_file">
<path id="Vector" d="M18.99 1.98999H5.01001C3.90001 1.98999 3.01001 2.88999 3.01001 3.98999V26.04C3.03001 27.13 3.91001 28 5.01001 28H17.02V19.1C17.02 17.99 17.92 17.1 19.03 17.1H20.99V3.94999C20.97 2.86999 20.08 1.98999 18.99 1.98999ZM18.21 10.89L17.84 11.89H5.00001V10.89H18.21ZM5.00001 9.44999V8.44999H18.21L17.84 9.44999H5.00001ZM12.61 13.34L12.24 14.34H5.00001V13.34H12.61ZM17.84 6.99999H5.00001V5.99999H18.21L17.84 6.99999Z" fill="#0168FF"/>
<path id="Vector_2" d="M20.99 17.1V26C20.99 27.11 20.09 28 18.99 28H17.02V19.1C17.02 17.99 17.92 17.1 19.03 17.1H20.99Z" fill="black"/>
<path id="Vector_3" d="M29.95 19.1V28.02C29.95 29.13 29.05 30.03 27.95 30.03H19.03C17.92 30.03 17.02 29.13 17.02 28.02V28H18.99C20.09 28 20.99 27.11 20.99 26V17.1H27.95C29.05 17.1 29.95 17.99 29.95 19.1Z" fill="#FF4747"/>
<path id="Vector_4" d="M5 13.34H12.61L12.24 14.34H5V13.34Z" fill="#E8EAEA"/>
<path id="Vector_5" d="M5 10.89H18.21L17.84 11.89H5V10.89Z" fill="#E8EAEA"/>
<path id="Vector_6" d="M5 8.45001H18.21L17.84 9.45001H5V8.45001Z" fill="#E8EAEA"/>
<path id="Vector_7" d="M17.84 7H5V6H18.21L17.84 7Z" fill="#E8EAEA"/>
<path id="Vector_8" d="M25.05 24.99C24.81 25.05 24.55 25.08 24.25 25.08C23.75 25.08 23.4 24.89 23.18 24.52H24.74L24.84 23.86H22.99C22.99 23.75 22.98 23.66 22.98 23.59C22.98 23.52 22.98 23.47 22.98 23.43H24.74L24.84 22.77H23.11C23.2 22.56 23.33 22.4 23.49 22.29C23.69 22.15 23.95 22.07 24.26 22.07C24.55 22.07 24.81 22.1 25.04 22.16C25.15 22.19 25.26 22.25 25.37 22.29C25.48 22.34 25.6 22.37 25.71 22.43V21.31C25.43 21.19 25.18 21.1 24.95 21.05C24.72 21 24.44 20.97 24.12 20.97C23.74 20.97 23.39 21.04 23.08 21.19C22.77 21.34 22.5 21.54 22.28 21.81C22.16 21.96 22.07 22.12 21.99 22.3C21.92 22.45 21.86 22.61 21.82 22.78H21.29L21.19 23.44H21.73V23.6C21.73 23.72 21.73 23.81 21.73 23.87H21.28L21.18 24.53H21.84C21.94 24.88 22.1 25.17 22.31 25.42C22.52 25.67 22.78 25.86 23.07 25.99C23.36 26.12 23.69 26.19 24.05 26.19C24.41 26.19 24.69 26.16 24.93 26.11C25.17 26.06 25.44 25.97 25.75 25.85V24.74C25.5 24.86 25.26 24.94 25.03 25L25.05 24.99Z" fill="#E8EAEA"/>
</g>
</g>
</svg>
