<svg width="32" height="32" viewBox="0 0 32 32" fill="none" xmlns="http://www.w3.org/2000/svg">
<rect width="32" height="32" fill="#1E1E1E"/>
<g id="Pictograms">
<rect x="-79" y="-450" width="1144" height="1538" rx="20" fill="white"/>
<g id="eb-picto_illu-success_2_msg" clip-path="url(#clip0_40003776_761)">
<path id="Vector" d="M17.42 17.04C17.42 17.04 17.34 17.08 17.3 17.1C17.37 17.07 17.43 17.04 17.49 17.02C17.46 17.02 17.44 17.03 17.42 17.04ZM28.12 7.49001V16.17C28.12 17.26 27.24 18.14 26.15 18.14H13.97C12.88 18.14 12 17.26 12 16.17V7.01001H5.49003C4.12003 7.01001 3.02003 8.11001 3.02003 9.48001V21.85C3.01003 23.21 4.12003 24.32 5.49003 24.32H5.97003V28.08C5.97003 28.59 6.29003 29.05 6.77003 29.23C6.91003 29.29 7.06003 29.32 7.21003 29.32C7.55003 29.32 7.89003 29.17 8.13003 28.91L12.52 24.35H26.66C27 24.35 27.32 24.28 27.62 24.15C28.51 23.78 29.13 22.9 29.13 21.87V9.48001C29.13 8.66001 28.73 7.94001 28.12 7.49001ZM17.42 17.04C17.42 17.04 17.34 17.08 17.3 17.1C17.37 17.07 17.43 17.04 17.49 17.02C17.46 17.02 17.44 17.03 17.42 17.04Z" fill="#FF4747"/>
<path id="Vector_2" d="M26.66 7.01001H12V16.17C12 17.26 12.88 18.14 13.97 18.14H26.15C27.24 18.14 28.12 17.26 28.12 16.17V7.49001C27.71 7.19001 27.21 7.01001 26.66 7.01001ZM17.42 17.04C17.42 17.04 17.46 17.02 17.49 17.02C17.43 17.04 17.37 17.07 17.3 17.1C17.34 17.08 17.38 17.06 17.42 17.04Z" fill="black"/>
<path id="Vector_3" d="M17.43 17.04C17.43 17.04 17.47 17.02 17.5 17.02C17.44 17.04 17.38 17.07 17.31 17.1C17.35 17.08 17.39 17.06 17.43 17.04Z" fill="#0168FF"/>
<path id="Vector_4" d="M28.13 3.93002V7.49002C27.72 7.19002 27.22 7.01002 26.67 7.01002H12.01V3.93002C12.01 2.88002 12.86 2.02002 13.92 2.02002H26.22C27.27 2.02002 28.13 2.87002 28.13 3.93002Z" fill="#0168FF"/>
<path id="Vector_5" d="M20.05 14.9C19.48 15.47 18.57 15.47 18 14.9L15.72 12.62L16.71 11.63L19.02 13.94L23.71 9.25L24.7 10.24L20.05 14.89V14.9Z" fill="#E7E9E9"/>
</g>
</g>
<defs>
<clipPath id="clip0_40003776_761">
<rect width="32" height="32" fill="white"/>
</clipPath>
</defs>
</svg>
