<svg width="32" height="32" viewBox="0 0 32 32" fill="none" xmlns="http://www.w3.org/2000/svg">
<rect width="32" height="32" fill="#1E1E1E"/>
<g id="Pictograms">
<rect x="-307" y="-496" width="1144" height="1538" rx="20" fill="white"/>
<g id="eb-picto_illu-cnmv">
<path id="Vector" d="M29.95 26.02V4.96002C29.95 3.85002 29.05 2.96002 27.95 2.96002H5.9C4.81 2.98002 3.94 3.86002 3.94 4.96002V21.06C3.94 22.16 4.83 23.06 5.94 23.06H14.84L27.99 30.01L29.95 26.03V26.02Z" fill="#0168FF"/>
<path id="Vector_2" d="M26.01 12.02H3.96C2.87 12.04 2 12.92 2 14.02V28C2 29.1 2.89 30 4 30H24.97V27.95C24.97 26.89 25.83 26.02 26.9 26.02H28.01V14.02C28.01 12.91 27.11 12.02 26.01 12.02Z" fill="#FF4747"/>
<path id="Vector_3" d="M28.01 26.02V28C28.01 29.09 27.13 29.98 26.05 30H24.97V27.95C24.97 26.89 25.83 26.02 26.9 26.02H28.01Z" fill="black"/>
<path id="Vector_4" d="M29.95 26.02V28C29.95 29.12 29.04 30.03 27.92 30.03H24.97V30H26.05C27.13 29.98 28.01 29.09 28.01 28V26.02H29.95Z" fill="black"/>
<path id="Vector_5" d="M3.96002 20.5C3.96002 18.94 5.05002 17.93 6.77002 17.93C7.48002 17.93 8.07002 18.06 8.53002 18.32V19.5C8.09002 19.26 7.44002 19.11 6.82002 19.11C5.87002 19.11 5.34002 19.6 5.34002 20.5C5.34002 21.4 5.89002 21.85 6.86002 21.85C7.43002 21.85 8.07002 21.71 8.57002 21.48V22.64C8.04002 22.9 7.38002 23.04 6.65002 23.04C4.99002 23.04 3.96002 22.07 3.96002 20.51V20.5Z" fill="#E8EAEA"/>
<path id="Vector_6" d="M12.5 18.01H13.78V22.94H12.64L10.69 20.28V22.94H9.41003V18.01H10.55L12.5 20.67V18.01Z" fill="#E8EAEA"/>
<path id="Vector_7" d="M18.85 18.01H20.22V22.94H18.94V20.18L17.94 22.08H17.06L16.08 20.19V22.94H14.8V18.01H16.17L17.5 20.49L18.84 18.01H18.85Z" fill="#E8EAEA"/>
<path id="Vector_8" d="M26.03 18.01C25.48 19.7 24.8 21.36 23.99 22.94H22.84C22.02 21.35 21.34 19.7 20.79 18.01H22.23C22.6 19.31 23.01 20.46 23.43 21.47C23.84 20.45 24.25 19.31 24.62 18.01H26.04H26.03Z" fill="#E8EAEA"/>
</g>
</g>
</svg>
