<svg width="32" height="32" viewBox="0 0 32 32" fill="none" xmlns="http://www.w3.org/2000/svg">
<rect width="32" height="32" fill="#1E1E1E"/>
<g id="Pictograms">
<rect x="-132" y="-386" width="1144" height="1538" rx="20" fill="white"/>
<g id="table">
<g id="row-2">
<g id="eb-picto_illu-success_msg">
<path id="Vector" d="M29.16 7.49001V16.17C29.16 17.26 28.28 18.14 27.19 18.14H15.01C13.92 18.14 13.04 17.26 13.04 16.17V7.01001H6.53C5.16 7.01001 4.06 8.11001 4.06 9.48001V21.85C4.05 23.21 5.16 24.32 6.53 24.32H7.01V28.08C7.01 28.59 7.33 29.05 7.81 29.23C7.95 29.29 8.1 29.32 8.25 29.32C8.59 29.32 8.93 29.17 9.17 28.91L13.56 24.35H27.7C28.04 24.35 28.36 24.28 28.66 24.15C29.55 23.78 30.17 22.9 30.17 21.87V9.48001C30.17 8.66001 29.77 7.94001 29.16 7.49001Z" fill="#0168FF"/>
<path id="Vector_2" d="M27.7 7.01001H13.04V16.17C13.04 17.26 13.92 18.14 15.01 18.14H27.19C28.28 18.14 29.16 17.26 29.16 16.17V7.49001C28.75 7.19001 28.25 7.01001 27.7 7.01001Z" fill="#212932"/>
<path id="Vector_3" d="M29.16 3.93002V7.49002C28.75 7.19002 28.25 7.01002 27.7 7.01002H13.04V3.93002C13.04 2.88002 13.89 2.02002 14.95 2.02002H27.25C28.3 2.02002 29.16 2.87002 29.16 3.93002Z" fill="#FF4242"/>
<path id="Vector_4" d="M21.08 14.9C20.51 15.47 19.6 15.47 19.03 14.9L16.75 12.62L17.74 11.63L20.05 13.94L24.74 9.25L25.73 10.24L21.08 14.89V14.9Z" fill="white"/>
</g>
</g>
</g>
</g>
</svg>
