<svg width="32" height="32" viewBox="0 0 32 32" fill="none" xmlns="http://www.w3.org/2000/svg">
<rect width="32" height="32" fill="#1E1E1E"/>
<g id="Pictograms">
<rect x="-215" y="-451" width="1144" height="1538" rx="20" fill="white"/>
<g id="eb-picto_illu-written_notes">
<path id="Vector" d="M26.65 9.20999L18.28 8.15999L18.93 13.91L19.7 20.74C19.8 21.59 19.19 22.35 18.34 22.44L16.83 22.62L12.57 23.1L12.21 25.97C12.12 26.8 12.71 27.55 13.54 27.65L22.67 28.79L24.17 28.98C25.01 29.09 25.78 28.5 25.88 27.65L26.73 20.89L27.98 10.89C28.07 10.07 27.48 9.30999 26.65 9.20999ZM16.26 9.38999L14.26 9.61999L14.16 10.4L16.06 10.19L16.26 9.38999ZM15.96 7.87999C15.43 7.81999 14.93 8.05999 14.62 8.45999L15.85 8.31999L15.96 7.87999Z" fill="#FF4747"/>
<path id="Vector_2" d="M23.05 15.61L22.67 16.33L20.6 16.09L20.51 15.31L23.05 15.61Z" fill="#EAECEC"/>
<path id="Vector_3" d="M25.44 14.04L25.06 14.77L20.38 14.19L20.35 13.91L20.29 13.4L25.44 14.04Z" fill="#EAECEC"/>
<path id="Vector_4" d="M25.67 12.18L25.3 12.91L20.16 12.27L20.08 11.48L25.67 12.18Z" fill="#EAECEC"/>
<path id="Vector_5" d="M6.34003 12.42L12.18 11.76L11.98 12.55L6.43003 13.18L6.34003 12.42Z" fill="#EAECEC"/>
<path id="Vector_6" d="M6.13 10.54L16.26 9.39001L16.06 10.19L6.22 11.3L6.13 10.54Z" fill="#EAECEC"/>
<path id="Vector_7" d="M5.91998 8.67002L16.05 7.52002L15.85 8.32002L5.99998 9.43002L5.91998 8.67002Z" fill="#EAECEC"/>
<path id="Vector_8" d="M15.64 6.44001L5.79001 7.55001L5.70001 6.79001L15.84 5.64001L15.64 6.44001Z" fill="#EAECEC"/>
<path id="Vector_9" d="M17.79 3.82002C17.68 3.00002 16.92 2.40002 16.08 2.49002L5.36002 3.71002C4.51002 3.80002 3.91002 4.57002 4.00002 5.42002L5.91002 22.33C6.02002 23.16 6.77002 23.75 7.62002 23.66L12.57 23.1L14.16 10.4L6.21002 11.3L6.13002 10.54L14.26 9.62002L14.31 9.21002C14.34 8.93002 14.45 8.67002 14.62 8.46002L6.00002 9.43002L5.91002 8.66002L16.05 7.52002L15.96 7.88002C15.96 7.88002 16 7.88002 16.02 7.88002L18.28 8.16002L17.79 3.82002ZM12.18 11.75L11.98 12.55L6.43002 13.18L6.34002 12.41L12.18 11.75ZM15.64 6.44002L5.79002 7.55002L5.70002 6.78002L15.83 5.64002L15.64 6.44002Z" fill="#0168FF"/>
<path id="Vector_10" d="M18.34 22.44L16.83 22.62L12.57 23.1L14.16 10.4L16.06 10.19L16.26 9.39001L14.26 9.62L14.31 9.21C14.34 8.93 14.45 8.67 14.62 8.46L15.85 8.32L15.96 7.88C15.96 7.88 16 7.88 16.02 7.88L18.28 8.16L18.93 13.91L19.7 20.74C19.8 21.59 19.19 22.35 18.34 22.44Z" fill="black"/>
</g>
</g>
</svg>
