<svg width="32" height="32" viewBox="0 0 32 32" fill="none" xmlns="http://www.w3.org/2000/svg">
<rect width="32" height="32" fill="#1E1E1E"/>
<g id="Pictograms">
<rect x="-353" y="-451" width="1144" height="1538" rx="20" fill="white"/>
<g id="eb-picto_illu-museum">
<path id="Vector" d="M29.95 13.28C29.82 13.71 29.43 14 28.99 14H2.99002C2.55002 14 2.16002 13.71 2.03002 13.28C1.91002 12.86 2.08002 12.4 2.45002 12.16L14.95 2.28C14.95 2.28 15 2.24 15.03 2.23C15.61 1.93 16.29 1.93 16.87 2.23C16.9 2.24 16.92 2.26 16.95 2.27L18.5 3.49C17.13 4.08 16.18 5.43 16.18 7.01C16.18 9.12 17.9 10.84 20.02 10.84C21.92 10.84 23.49 9.46 23.79 7.65L29.53 12.16C29.9 12.4 30.07 12.85 29.95 13.28Z" fill="#FF5C55"/>
<path id="Vector_2" d="M29.98 30C29.98 28.9 29.08 28 27.98 28H3.98999C2.88999 28 1.98999 28.9 1.98999 30H29.98Z" fill="#0168FF"/>
<path id="Vector_3" d="M12.97 15.01C12.97 15.56 13.38 16.01 13.87 16.01H18.07C18.57 16.01 18.97 15.56 18.97 15.01H12.96H12.97Z" fill="#0168FF"/>
<path id="Vector_4" d="M21.98 15.01C21.98 15.56 22.39 16.01 22.88 16.01H27.08C27.58 16.01 27.98 15.56 27.98 15.01H21.97H21.98Z" fill="#0168FF"/>
<path id="Vector_5" d="M3.98999 15.01C3.98999 15.56 4.39999 16.01 4.88999 16.01H9.08999C9.58999 16.01 9.98999 15.56 9.98999 15.01H3.98999Z" fill="#0168FF"/>
<path id="Vector_6" d="M19.01 27C19.01 26.45 18.6 26 18.11 26H13.91C13.41 26 13.01 26.45 13.01 27H19.02H19.01Z" fill="#0168FF"/>
<path id="Vector_7" d="M9.98999 27C9.98999 26.45 9.57999 26 9.08999 26H4.88999C4.38999 26 3.98999 26.45 3.98999 27H9.99999H9.98999Z" fill="#0168FF"/>
<path id="Vector_8" d="M27.99 27C27.99 26.45 27.58 26 27.09 26H22.89C22.39 26 21.99 26.45 21.99 27H28H27.99Z" fill="#0168FF"/>
<path id="Vector_9" d="M8.52997 17H5.39997C5.15997 17 4.96997 17.19 4.96997 17.43V24.58C4.96997 24.82 5.15997 25.01 5.39997 25.01H8.52997C8.76997 25.01 8.95997 24.82 8.95997 24.58V17.43C8.95997 17.19 8.76997 17 8.52997 17Z" fill="#0168FF"/>
<path id="Vector_10" d="M17.56 17H14.43C14.19 17 14 17.19 14 17.43V24.58C14 24.82 14.19 25.01 14.43 25.01H17.56C17.8 25.01 17.99 24.82 17.99 24.58V17.43C17.99 17.19 17.8 17 17.56 17Z" fill="#0168FF"/>
<path id="Vector_11" d="M26.56 17.02H23.43C23.19 17.02 23 17.21 23 17.45V24.6C23 24.84 23.19 25.03 23.43 25.03H26.56C26.8 25.03 26.99 24.84 26.99 24.6V17.45C26.99 17.21 26.8 17.02 26.56 17.02Z" fill="#0168FF"/>
<path id="Vector_12" d="M23.79 7.64999C23.49 9.45999 21.92 10.84 20.02 10.84C17.9 10.84 16.18 9.11999 16.18 7.00999C16.18 5.42999 17.13 4.07999 18.5 3.48999L23.79 7.64999Z" fill="black"/>
<path id="Vector_13" d="M23.85 7.00998C23.85 7.22998 23.83 7.43998 23.79 7.64998L18.5 3.48998C18.96 3.27998 19.48 3.16998 20.02 3.16998C22.14 3.16998 23.85 4.88998 23.85 7.00998Z" fill="#0168FF"/>
</g>
</g>
</svg>
