<svg width="32" height="32" viewBox="0 0 32 32" fill="none" xmlns="http://www.w3.org/2000/svg">
<rect width="32" height="32" fill="#1E1E1E"/>
<g id="Pictograms">
<rect x="-629" y="-451" width="1144" height="1538" rx="20" fill="white"/>
<g id="eb-picto_illu-female" clip-path="url(#clip0_40003776_761)">
<path id="Vector" d="M15.99 18.36C18.53 18.36 20.61 16.46 20.93 14H11.06C11.38 16.46 13.45 18.36 16 18.36H15.99Z" fill="black"/>
<path id="Vector_2" d="M16 12C18.7614 12 21 9.76142 21 7C21 4.23858 18.7614 2 16 2C13.2386 2 11 4.23858 11 7C11 9.76142 13.2386 12 16 12Z" fill="#0168FF"/>
<path id="Vector_3" d="M26.96 28.03L24.38 16.79C24.05 15.2 22.66 14.05 21.05 14.01C21.02 14.01 20.99 14.01 20.96 14.01H20.92C20.6 16.47 18.53 18.37 15.98 18.37C13.43 18.37 11.36 16.47 11.04 14.01H11.02C11.02 14.01 10.96 14.01 10.93 14.01C9.32 14.05 7.92 15.21 7.59 16.8L5.01 28.04C4.81 29.06 5.59 30 6.62 30H24.98H25.33C26.37 30 27.14 29.05 26.94 28.04L26.96 28.03ZM20.99 20.98L19 21.98V18.99H20.99V20.98Z" fill="#FF4747"/>
<path id="Vector_4" d="M19 18.99V19.08V21.98L20.99 20.98V19.08V18.99H19Z" fill="#E8EAEA"/>
</g>
</g>
<defs>
<clipPath id="clip0_40003776_761">
<rect width="32" height="32" fill="white"/>
</clipPath>
</defs>
</svg>
