<svg width="32" height="32" viewBox="0 0 32 32" fill="none" xmlns="http://www.w3.org/2000/svg">
<rect width="32" height="32" fill="#1E1E1E"/>
<g id="Pictograms">
<rect x="-399" y="-451" width="1144" height="1538" rx="20" fill="white"/>
<g id="eb-picto_illu-help_chat" clip-path="url(#clip0_40003776_761)">
<path id="Vector" d="M28.01 12L21.03 11.98V16C21.03 16.83 20.53 17.54 19.81 17.84C19.57 17.94 19.31 18 19.03 18H14V22.03C14 23.13 14.9 24.03 16 24.03H20.64L24.3 27.74C24.49 27.93 24.75 28.04 25.01 28.04C25.14 28.04 25.27 28.02 25.39 27.97C25.77 27.82 26.01 27.45 26.01 27.04V24.03H28C29.1 24.03 30 23.14 30 22.03V14C30.01 12.9 29.12 12 28.02 12H28.01Z" fill="#0168FF"/>
<path id="Vector_2" d="M11.35 12.89C10.89 12.89 10.44 13.2 10.44 13.8C10.44 14.44 10.89 14.72 11.35 14.72C11.84 14.72 12.26 14.44 12.26 13.8C12.26 13.2 11.84 12.89 11.35 12.89Z" fill="#E7E9E9"/>
<path id="Vector_3" d="M11.44 7.01001C10.52 7.01001 9.69001 7.18001 8.89001 7.56001V8.77001C9.56001 8.42001 10.67 8.15001 11.44 8.15001C12.28 8.15001 12.76 8.47001 12.76 9.05001C12.76 9.52001 12.58 9.78001 12.06 10.03L11.41 10.38C10.88 10.61 10.72 10.83 10.72 11.36V12.36H11.97V11.74C11.97 11.31 12.02 11.27 12.47 11.05L13.06 10.75C13.83 10.38 14.14 9.86001 14.14 8.95001C14.14 7.74001 13.12 7.01001 11.45 7.01001H11.44Z" fill="#E7E9E9"/>
<path id="Vector_4" d="M15.59 12C15.72 11.97 15.86 11.96 15.99 11.96H19.93L21.02 11.98V5.98999C21.02 4.88999 20.12 3.98999 19.02 3.98999H4C2.9 3.98999 2 4.88999 2 5.98999V15.98C2 17.09 2.89 17.98 4 17.98H6.01V21.02C6.01 21.43 6.26 21.8 6.65 21.95C6.77 21.99 6.89 22.02 7.01 22.02C7.29 22.02 7.56 21.91 7.75 21.69L11.3 18H13.99V13.96C13.99 12.99 14.68 12.19 15.59 12ZM11.35 14.71C10.89 14.71 10.44 14.43 10.44 13.79C10.44 13.19 10.89 12.88 11.35 12.88C11.84 12.88 12.26 13.19 12.26 13.79C12.26 14.43 11.84 14.71 11.35 14.71ZM13.05 10.76L12.46 11.06C12.01 11.28 11.96 11.33 11.96 11.75V12.37H10.71V11.37C10.71 10.84 10.87 10.62 11.4 10.39L12.05 10.04C12.57 9.77999 12.75 9.52999 12.75 9.05999C12.75 8.47999 12.27 8.15999 11.43 8.15999C10.66 8.15999 9.55 8.42999 8.88 8.77999V7.56999C9.68 7.18999 10.51 7.01999 11.43 7.01999C13.09 7.01999 14.12 7.75999 14.12 8.95999C14.12 9.87999 13.81 10.39 13.04 10.76H13.05Z" fill="#FF4747"/>
<path id="Vector_5" d="M19.94 11.98H16V11.97C15.86 11.97 15.73 11.98 15.6 12.01C15.49 12.03 15.38 12.07 15.27 12.11C14.53 12.4 14 13.13 14 13.97V18.01H19.03C19.31 18.01 19.57 17.95 19.81 17.85C20.53 17.55 21.03 16.84 21.03 16.01V11.99H19.94V11.98Z" fill="black"/>
</g>
</g>
<defs>
<clipPath id="clip0_40003776_761">
<rect width="32" height="32" fill="white"/>
</clipPath>
</defs>
</svg>
