<svg width="32" height="32" viewBox="0 0 32 32" fill="none" xmlns="http://www.w3.org/2000/svg">
<rect width="32" height="32" fill="#1E1E1E"/>
<g id="Pictograms">
<rect x="-307" y="-451" width="1144" height="1538" rx="20" fill="white"/>
<g id="eb-picto_illu-people-share">
<path id="Vector" d="M21.98 16.82L21.88 16.36C21.61 15.05 20.46 14.1 19.14 14.1H12.8C11.48 14.1 10.32 15.05 10.06 16.36L7.99001 25.46C7.83001 26.28 8.45001 27.05 9.47001 27.05H22.37H22.57L22.66 27.06C23.49 27.06 24.11 26.29 23.95 25.47V25.45" fill="#FF4747"/>
<path id="Vector_2" d="M15.97 13.07C18.1791 13.07 19.97 11.2791 19.97 9.07001C19.97 6.86087 18.1791 5.07001 15.97 5.07001C13.7608 5.07001 11.97 6.86087 11.97 9.07001C11.97 11.2791 13.7608 13.07 15.97 13.07Z" fill="#FF4747"/>
<path id="Vector_3" d="M28.57 17.96L28.5 17.64C28.32 16.73 27.53 16.07 26.63 16.07H22.31C21.41 16.07 20.62 16.73 20.44 17.64L19.03 23.95C18.92 24.52 19.34 25.05 20.04 25.05H28.84H28.97H29.03C29.6 25.05 30.02 24.52 29.91 23.95V23.93" fill="#0168FF"/>
<path id="Vector_4" d="M21.98 16.82L21.88 16.36C21.86 16.29 21.84 16.22 21.82 16.14C21.13 16.33 20.58 16.9 20.44 17.64L19.03 23.95C18.92 24.52 19.34 25.05 20.04 25.05H23.86L21.99 16.82H21.98Z" fill="black"/>
<path id="Vector_5" d="M11.51 17.96L11.44 17.64C11.26 16.73 10.47 16.07 9.56999 16.07H5.24999C4.34999 16.07 3.55999 16.73 3.37999 17.64L1.96999 23.95C1.85999 24.52 2.27999 25.05 2.97999 25.05H11.78H11.91H11.97C12.54 25.05 12.96 24.52 12.85 23.95V23.93" fill="#0168FF"/>
<path id="Vector_6" d="M7.46001 15.1C8.84625 15.1 9.97001 13.9763 9.97001 12.59C9.97001 11.2038 8.84625 10.08 7.46001 10.08C6.07378 10.08 4.95001 11.2038 4.95001 12.59C4.95001 13.9763 6.07378 15.1 7.46001 15.1Z" fill="#0168FF"/>
<path id="Vector_7" d="M24.48 15.1C25.8662 15.1 26.99 13.9763 26.99 12.59C26.99 11.2038 25.8662 10.08 24.48 10.08C23.0937 10.08 21.97 11.2038 21.97 12.59C21.97 13.9763 23.0937 15.1 24.48 15.1Z" fill="#0168FF"/>
<path id="Vector_8" d="M22.16 26.7H22.35L22.16 26.69V26.7Z" fill="#FF5C55"/>
<path id="Vector_9" d="M11.79 25.06H11.92H11.98C12.55 25.06 12.97 24.53 12.86 23.96V23.94L11.53 17.96L11.46 17.64C11.32 16.92 10.79 16.36 10.13 16.16C10.11 16.23 10.08 16.29 10.07 16.37L8.09003 25.06H11.79Z" fill="black"/>
<path id="Vector_10" d="M25.6 23.4L24.89 22.7L26.95 20.62L24.9 18.46L25.61 17.76L27.66 19.82C28.07 20.23 28.07 20.91 27.66 21.32L25.6 23.4Z" fill="#ECEEEE"/>
<path id="Vector_11" d="M26.98 21.08H21.98L22.44 20.08H26.98V21.08Z" fill="#ECEEEE"/>
<path id="Vector_12" d="M6.33997 23.4L4.27997 21.32C3.86997 20.91 3.86997 20.23 4.27997 19.82L6.32997 17.76L7.03997 18.46L4.98997 20.52L7.04997 22.69L6.33997 23.39V23.4Z" fill="#ECEEEE"/>
<path id="Vector_13" d="M4.95996 21.08H9.95996L9.49996 20.08H4.95996V21.08Z" fill="#ECEEEE"/>
</g>
</g>
</svg>
