<svg width="32" height="32" viewBox="0 0 32 32" fill="none" xmlns="http://www.w3.org/2000/svg">
<rect width="32" height="32" fill="#1E1E1E"/>
<g id="Pictograms">
<rect x="-261" y="-496" width="1144" height="1538" rx="20" fill="white"/>
<g id="eb-picto_illu-ibercaja_file">
<path id="Vector" d="M18.99 1.98999H5.01001C3.90001 1.98999 3.01001 2.88999 3.01001 3.98999V26.04C3.03001 27.13 3.91001 28 5.01001 28H17.02V19.1C17.02 17.99 17.92 17.1 19.03 17.1H20.99V3.94999C20.97 2.86999 20.08 1.98999 18.99 1.98999ZM18.21 10.89L17.84 11.89H5.00001V10.89H18.21ZM5.00001 9.44999V8.44999H18.21L17.84 9.44999H5.00001ZM12.61 13.34L12.24 14.34H5.00001V13.34H12.61ZM17.84 6.99999H5.00001V5.99999H18.21L17.84 6.99999Z" fill="#0168FF"/>
<path id="Vector_2" d="M20.99 17.1V26C20.99 27.11 20.09 28 18.99 28H17.02V19.1C17.02 17.99 17.92 17.1 19.03 17.1H20.99Z" fill="black"/>
<path id="Vector_3" d="M29.95 19.1V28.02C29.95 29.13 29.05 30.03 27.95 30.03H19.03C17.92 30.03 17.02 29.13 17.02 28.02V28H18.99C20.09 28 20.99 27.11 20.99 26V17.1H27.95C29.05 17.1 29.95 17.99 29.95 19.1Z" fill="#FF4747"/>
<path id="Vector_4" d="M22.55 24.14C22.53 24.2 22.53 24.22 22.53 24.31C22.53 24.37 22.53 24.42 22.54 24.46C22.54 24.5 22.54 24.56 22.58 24.61C22.6 24.65 22.61 24.68 22.63 24.71C22.65 24.74 22.66 24.78 22.68 24.8C22.71 24.83 22.73 24.86 22.76 24.89C22.78 24.92 22.81 24.95 22.85 24.97C22.91 25.01 22.94 25.03 23 25.07C23.04 25.1 23.03 25.13 23.08 25.14C23.1 25.14 23.14 25.17 23.16 25.17C23.19 25.18 23.22 25.2 23.24 25.22C23.31 25.28 23.38 25.28 23.48 25.3C23.55 25.32 23.61 25.35 23.67 25.37C23.72 25.38 23.74 25.37 23.79 25.37C23.82 25.37 23.85 25.39 23.87 25.4C23.93 25.41 24.2 25.42 24.29 25.4C24.33 25.4 24.37 25.4 24.41 25.4C24.46 25.4 24.51 25.4 24.56 25.38C24.65 25.37 24.68 25.38 24.76 25.36C24.82 25.36 24.91 25.32 24.97 25.3C25.18 25.24 25.26 25.26 25.44 25.19C25.49 25.17 25.6 25.13 25.64 25.11C25.7 25.09 25.75 25.07 25.81 25.05C25.89 25.03 25.94 24.97 26.02 24.98C26.02 24.98 26.05 25.04 26.02 25.06C25.96 25.12 25.95 25.12 25.89 25.15C25.86 25.17 25.82 25.21 25.79 25.22C25.76 25.24 25.73 25.25 25.7 25.27C25.66 25.29 25.65 25.34 25.62 25.37C25.56 25.43 25.46 25.46 25.38 25.51C25.31 25.54 25.25 25.58 25.19 25.63C25.16 25.65 25.12 25.65 25.08 25.67C25.06 25.68 24.97 25.73 24.94 25.74C24.9 25.76 24.73 25.81 24.68 25.82C24.62 25.83 24.59 25.86 24.54 25.87C24.51 25.87 24.39 25.9 24.36 25.91C24.32 25.92 24.18 25.95 24.12 25.95C23.95 25.95 23.97 26 23.8 26.01C23.42 26.07 22.94 25.98 22.84 25.94C22.75 25.93 22.71 25.91 22.54 25.84C21.94 25.59 21.57 24.91 21.52 24.82C21.46 24.74 21.4 24.47 21.37 24.38C21.35 24.27 21.33 24.15 21.33 24.04C21.31 23.77 21.35 23.52 21.42 23.26C21.42 23.26 21.61 22.49 22.51 21.77C23.09 21.31 23.69 21.23 23.99 21.13C24.16 21.07 24.34 21.06 24.43 21.06C24.53 21.06 24.88 21.07 25.02 21.1C25.21 21.14 25.67 21.32 25.9 21.5C25.92 21.5 25.94 21.52 25.96 21.54C25.98 21.56 25.99 21.57 26.01 21.59C26.02 21.61 26.04 21.63 26.04 21.65C26.04 21.67 26.05 21.7 26.06 21.72C26.06 21.77 26.11 21.8 26.09 21.87C26.08 21.9 26.05 21.91 26.05 21.94C26.05 21.97 26.07 21.98 26.05 22.01C26.03 22.06 26 22.11 25.97 22.15C25.94 22.19 25.84 22.26 25.8 22.25C25.71 22.23 25.64 22.15 25.5 22.15C25.27 22.15 25.08 22.12 24.87 22.16C24.82 22.17 24.8 22.17 24.72 22.19C24.65 22.2 24.61 22.23 24.53 22.25C24.47 22.26 24.43 22.28 24.38 22.29C24.33 22.3 24.33 22.31 24.29 22.31C24.26 22.31 24.23 22.34 24.21 22.35C24.14 22.38 24.07 22.4 24 22.43C23.92 22.47 23.85 22.51 23.77 22.55C23.75 22.57 23.72 22.59 23.7 22.6C23.67 22.62 23.65 22.64 23.63 22.66C23.6 22.7 23.56 22.7 23.52 22.73C23.44 22.8 23.41 22.83 23.34 22.91C23.32 22.93 23.25 22.98 23.22 23C23.18 23.03 23.18 23.06 23.14 23.09C23.09 23.13 23.04 23.17 23 23.23C23 23.23 22.61 23.66 22.51 24.11" fill="#E8EAEA"/>
<path id="Vector_5" d="M19.6 23.71C19.6 23.47 21.34 23.28 23.49 23.28C25.64 23.28 27.38 23.47 27.38 23.71C27.38 23.95 25.64 24.14 23.49 24.14C21.34 24.14 19.6 23.95 19.6 23.71Z" fill="#E8EAEA"/>
<path id="Vector_6" d="M26.56 24.22C26.38 24.22 26.24 24.36 26.24 24.54C26.24 24.72 26.38 24.86 26.56 24.86C26.74 24.86 26.88 24.72 26.88 24.54C26.88 24.36 26.74 24.22 26.56 24.22Z" fill="#E8EAEA"/>
<path id="Vector_7" d="M5 13.34H12.61L12.24 14.34H5V13.34Z" fill="#E8EAEA"/>
<path id="Vector_8" d="M5 10.89H18.21L17.84 11.89H5V10.89Z" fill="#E8EAEA"/>
<path id="Vector_9" d="M5 8.45001H18.21L17.84 9.45001H5V8.45001Z" fill="#E8EAEA"/>
<path id="Vector_10" d="M17.84 7H5V6H18.21L17.84 7Z" fill="#E8EAEA"/>
</g>
</g>
</svg>
