<svg width="32" height="32" viewBox="0 0 32 32" fill="none" xmlns="http://www.w3.org/2000/svg">
<rect width="32" height="32" fill="#1E1E1E"/>
<g id="Pictograms">
<rect x="-537" y="-451" width="1144" height="1538" rx="20" fill="white"/>
<g id="eb-picto_illu-house" clip-path="url(#clip0_40003776_761)">
<path id="Vector" d="M6 28.02C6 29.12 6.9 30.02 8 30.02H12.99V23.11L18.99 22.13V30.02H23.99C25.09 30.02 25.99 29.12 25.99 28.02V14.01H6V28.02Z" fill="#0168FF"/>
<path id="Vector_2" d="M12.99 23.11V30.02H18.99V22.12L12.99 23.11Z" fill="#E8EAEA"/>
<path id="Vector_3" d="M23.99 11H8C6.9 11 6 11.9 6 13V14H25.99V13C25.99 11.9 25.09 11 23.99 11Z" fill="black"/>
<path id="Vector_4" d="M29.53 12.16L16.95 2.28C16.95 2.28 16.9 2.25 16.87 2.23C16.29 1.93 15.61 1.93 15.03 2.23C15 2.24 14.98 2.26 14.95 2.28L2.44999 12.16C2.07999 12.4 1.90999 12.86 2.02999 13.28C2.14999 13.7 2.54999 14 2.98999 14H5.99999V13C5.99999 11.9 6.89999 11 7.99999 11H23.99C25.09 11 25.99 11.9 25.99 13V14H28.99C29.43 14 29.83 13.71 29.95 13.28C30.07 12.85 29.9 12.4 29.53 12.16Z" fill="#FF4747"/>
</g>
</g>
<defs>
<clipPath id="clip0_40003776_761">
<rect width="32" height="32" fill="white"/>
</clipPath>
</defs>
</svg>
