<svg width="32" height="32" viewBox="0 0 32 32" fill="none" xmlns="http://www.w3.org/2000/svg">
<rect width="32" height="32" fill="#1E1E1E"/>
<g id="Pictograms">
<rect x="-77" y="-496" width="1144" height="1538" rx="20" fill="white"/>
<g id="eb-picto_illu-stamp" clip-path="url(#clip0_40003776_761)">
<path id="Vector" d="M21.81 11.06C22.34 11.06 22.77 10.63 22.77 10.1C22.77 9.57001 22.34 9.14001 21.81 9.14001C21.28 9.14001 20.85 9.57001 20.85 10.1C20.85 10.63 21.28 11.06 21.81 11.06Z" fill="#0168FF"/>
<path id="Vector_2" d="M20.21 9.00997C20 9.31997 19.87 9.69997 19.87 10.1C19.87 11.17 20.74 12.04 21.81 12.04C22.88 12.04 23.75 11.17 23.75 10.1C23.75 9.02997 22.88 8.15997 21.81 8.15997C21.56 8.15997 21.33 8.20997 21.11 8.28997L20.85 9.00997H20.2H20.21ZM23.19 10.1C23.19 10.86 22.57 11.48 21.82 11.48C21.07 11.48 20.44 10.86 20.44 10.1C20.44 9.33997 21.06 8.72997 21.82 8.72997C22.58 8.72997 23.19 9.34997 23.19 10.1Z" fill="#0168FF"/>
<path id="Vector_3" d="M23.98 1.98999H10C8.9 1.98999 8 2.88999 8 3.98999V26C8 26 8 26.03 8 26.04C8.14 26.01 8.29 26 8.44 26H18.52C18.62 26 18.71 26.02 18.8 26.03C18.86 26.03 18.92 26.03 18.97 26.05C19.05 26.07 19.13 26.09 19.2 26.11C19.27 26.13 19.34 26.15 19.41 26.17C19.48 26.2 19.55 26.23 19.62 26.27C19.69 26.3 19.75 26.34 19.82 26.38C19.88 26.42 19.94 26.46 20 26.51C20.06 26.56 20.12 26.6 20.18 26.66C20.23 26.71 20.28 26.76 20.33 26.81C20.38 26.87 20.43 26.93 20.48 26.99C20.52 27.04 20.56 27.1 20.6 27.16C20.65 27.23 20.68 27.31 20.72 27.39C20.75 27.45 20.78 27.5 20.8 27.56C20.84 27.66 20.87 27.76 20.89 27.86C20.9 27.9 20.92 27.94 20.93 27.99C20.93 27.99 20.93 28 20.93 28.01H23.97C25.07 28.01 25.97 27.11 25.97 26.01V3.98999C25.97 2.88999 25.07 1.98999 23.97 1.98999H23.98ZM9.99 5.99999H23.2L22.83 6.99999H9.99V5.99999ZM14.56 25H12.4L11.72 15.76C11.72 14.79 12.51 14 13.48 14C14.45 14 15.24 14.79 15.24 15.73L14.56 24.99V25ZM21.81 12.45C20.51 12.45 19.45 11.39 19.45 10.09C19.45 9.68999 19.56 9.32999 19.73 8.99999H9.98V7.99999H20.75C21.07 7.83999 21.43 7.73999 21.81 7.73999C23.11 7.73999 24.17 8.79999 24.17 10.1C24.17 11.4 23.11 12.46 21.81 12.46V12.45Z" fill="#0168FF"/>
<path id="Vector_4" d="M23.2 6H9.98999V7H22.83L23.2 6Z" fill="#E8EAEA"/>
<path id="Vector_5" d="M20.75 8H9.97998V9H19.73C19.96 8.57 20.31 8.22 20.75 8Z" fill="#E8EAEA"/>
<path id="Vector_6" d="M20.21 9.00998H20.86L21.12 8.28998C20.75 8.42998 20.43 8.67998 20.21 9.00998Z" fill="#E8EAEA"/>
<path id="Vector_7" d="M20.44 10.1C20.44 10.86 21.06 11.48 21.82 11.48C22.58 11.48 23.19 10.86 23.19 10.1C23.19 9.33998 22.57 8.72998 21.82 8.72998C21.07 8.72998 20.44 9.34998 20.44 10.1ZM21.81 9.13998C22.34 9.13998 22.77 9.56998 22.77 10.1C22.77 10.63 22.34 11.06 21.81 11.06C21.28 11.06 20.85 10.63 20.85 10.1C20.85 9.56998 21.28 9.13998 21.81 9.13998Z" fill="black"/>
<path id="Vector_8" d="M21.81 7.73998C21.43 7.73998 21.07 7.83998 20.75 7.99998C20.32 8.21998 19.96 8.56998 19.73 8.99998C19.56 9.32998 19.45 9.69998 19.45 10.09C19.45 11.39 20.51 12.45 21.81 12.45C23.11 12.45 24.17 11.39 24.17 10.09C24.17 8.78998 23.11 7.72998 21.81 7.72998V7.73998ZM21.81 12.04C20.74 12.04 19.87 11.17 19.87 10.1C19.87 9.69998 19.99 9.31998 20.21 9.00998C20.43 8.68998 20.75 8.43998 21.12 8.28998C21.34 8.20998 21.57 8.15998 21.82 8.15998C22.89 8.15998 23.76 9.02998 23.76 10.1C23.76 11.17 22.89 12.04 21.82 12.04H21.81Z" fill="black"/>
<path id="Vector_9" d="M9.99998 28C9.44998 28 8.94998 27.78 8.58998 27.42C8.58998 27.42 8.58998 27.42 8.57998 27.41C8.49998 27.32 8.41998 27.23 8.34998 27.13C8.32998 27.11 8.31998 27.08 8.30998 27.06C8.25998 26.98 8.20998 26.89 8.16998 26.8C8.14998 26.76 8.13998 26.72 8.12998 26.68C8.09998 26.6 8.06998 26.52 8.04998 26.43C8.03998 26.38 8.03998 26.33 8.02998 26.28C8.02998 26.21 8.00998 26.14 7.99998 26.06C6.84998 26.27 5.97998 27.27 5.97998 28.48V30.02H20.98V28.48C20.98 28.32 20.96 28.17 20.93 28.02H9.98998L9.99998 28Z" fill="#FF4747"/>
<path id="Vector_10" d="M20.48 26.99C20.52 27.04 20.56 27.1 20.6 27.16C20.56 27.1 20.52 27.05 20.48 26.99Z" fill="#FF4747"/>
<path id="Vector_11" d="M8.59002 27.42C8.59002 27.42 8.59002 27.42 8.58002 27.41C8.58002 27.41 8.58002 27.41 8.59002 27.42Z" fill="#FF4747"/>
<path id="Vector_12" d="M20.9 27.85C20.9 27.85 20.93 27.94 20.94 27.98C20.94 27.94 20.91 27.89 20.9 27.85Z" fill="#FF4747"/>
<path id="Vector_13" d="M8.33999 27.13C8.33999 27.13 8.30999 27.08 8.29999 27.06C8.30999 27.08 8.31999 27.11 8.33999 27.13Z" fill="#FF4747"/>
<path id="Vector_14" d="M18.98 26.05C19.06 26.07 19.14 26.09 19.21 26.11C19.13 26.09 19.06 26.06 18.98 26.05Z" fill="#FF4747"/>
<path id="Vector_15" d="M19.82 26.38C19.88 26.42 19.94 26.46 20 26.51C19.94 26.47 19.88 26.42 19.82 26.38Z" fill="#FF4747"/>
<path id="Vector_16" d="M19.42 26.17C19.49 26.2 19.56 26.23 19.63 26.27C19.56 26.24 19.5 26.2 19.42 26.17Z" fill="#FF4747"/>
<path id="Vector_17" d="M8.04002 26.42C8.04002 26.42 8.03002 26.32 8.02002 26.27C8.02002 26.32 8.02002 26.37 8.04002 26.42Z" fill="#FF4747"/>
<path id="Vector_18" d="M8.16 26.79C8.16 26.79 8.13 26.71 8.12 26.67C8.13 26.71 8.14 26.75 8.16 26.79Z" fill="#FF4747"/>
<path id="Vector_19" d="M8.45001 26H18.53C18.62 26 18.71 26.01 18.81 26.02C18.72 26.01 18.63 25.99 18.53 25.99H8.45001C8.30001 25.99 8.15001 26.01 8.01001 26.03C8.16001 26 8.30001 25.98 8.46001 25.98L8.45001 26Z" fill="#FF4747"/>
<path id="Vector_20" d="M19.62 26.27C19.69 26.3 19.75 26.34 19.82 26.38C19.76 26.34 19.69 26.31 19.62 26.27Z" fill="black"/>
<path id="Vector_21" d="M20.6 27.15C20.65 27.22 20.68 27.3 20.72 27.38C20.68 27.3 20.64 27.23 20.6 27.15Z" fill="black"/>
<path id="Vector_22" d="M18.8 26.03C18.86 26.03 18.92 26.03 18.97 26.05C18.91 26.04 18.85 26.04 18.8 26.03Z" fill="black"/>
<path id="Vector_23" d="M19.21 26.11C19.28 26.13 19.35 26.15 19.42 26.17C19.35 26.14 19.28 26.13 19.21 26.11Z" fill="black"/>
<path id="Vector_24" d="M20.8 27.55C20.84 27.65 20.87 27.75 20.89 27.85C20.86 27.75 20.83 27.64 20.8 27.55Z" fill="black"/>
<path id="Vector_25" d="M8 26.05C8 26.13 8.02 26.2 8.03 26.27C8.03 26.2 8.01 26.12 8.01 26.05H8Z" fill="black"/>
<path id="Vector_26" d="M8.45 26C8.3 26 8.15 26.02 8 26.05C8 26.13 8.01 26.2 8.02 26.27C8.02 26.32 8.02 26.37 8.04 26.42C8.06 26.51 8.09 26.59 8.12 26.67C8.13 26.71 8.14 26.75 8.16 26.79C8.2 26.88 8.25 26.97 8.3 27.05C8.31 27.07 8.32 27.1 8.34 27.12C8.41 27.22 8.49 27.31 8.57 27.4C8.57 27.4 8.57 27.4 8.58 27.41C8.94 27.77 9.44 27.99 9.99 27.99H20.93C20.93 27.99 20.93 27.98 20.93 27.97C20.93 27.93 20.9 27.88 20.89 27.84C20.86 27.74 20.83 27.63 20.8 27.54C20.78 27.48 20.75 27.43 20.72 27.37C20.68 27.29 20.64 27.22 20.6 27.14C20.56 27.08 20.52 27.03 20.48 26.97C20.43 26.91 20.38 26.85 20.33 26.79C20.28 26.74 20.23 26.69 20.18 26.64C20.12 26.59 20.06 26.54 20 26.49C19.94 26.45 19.88 26.4 19.82 26.36C19.76 26.32 19.69 26.29 19.62 26.25C19.55 26.22 19.49 26.18 19.41 26.15C19.34 26.12 19.27 26.11 19.2 26.09C19.12 26.07 19.05 26.04 18.97 26.03C18.91 26.02 18.85 26.02 18.8 26.01C18.71 26 18.62 25.99 18.52 25.99H8.44L8.45 26Z" fill="black"/>
<path id="Vector_27" d="M13.48 14.01C12.51 14.01 11.72 14.8 11.72 15.77L12.4 25.01H14.56L15.24 15.75C15.24 14.81 14.45 14.02 13.48 14.02V14.01Z" fill="black"/>
</g>
</g>
<defs>
<clipPath id="clip0_40003776_761">
<rect width="32" height="32" fill="white"/>
</clipPath>
</defs>
</svg>
