<svg width="32" height="32" viewBox="0 0 32 32" fill="none" xmlns="http://www.w3.org/2000/svg">
<rect width="32" height="32" fill="#1E1E1E"/>
<g id="Pictograms">
<rect x="-340" y="-386" width="1144" height="1538" rx="20" fill="white"/>
<g id="table">
<g id="row-2">
<g id="eb-picto_illu-empty">
<path id="Union" d="M8.458 14.8478C9.55655 14.7327 10.5404 15.5299 10.6556 16.6284L10.6796 16.8571L17.9711 16.0929C19.0696 15.9778 20.0536 16.775 20.1687 17.8735L21.125 26.9972C21.24 28.0957 20.4428 29.0796 19.3443 29.1948L4.76145 30.7233C3.66293 30.8384 2.67906 30.0411 2.56386 28.9426L1.37516 17.6011C1.26003 16.5026 2.05724 15.5187 3.15579 15.4035L8.458 14.8478Z" fill="#0168FF"/>
<path id="Ellipse 4" d="M20 6.24998C20 8.96538 17.7988 11.1666 15.0834 11.1666C12.368 11.1666 10.1667 8.96538 10.1667 6.24998C10.1667 3.53458 12.368 1.33331 15.0834 1.33331C17.7988 1.33331 20 3.53458 20 6.24998Z" fill="#0168FF"/>
<path id="+" d="M15.4849 5.69807H17.1666V6.64454H15.4849V8.33333H14.515V6.64454H12.8333V5.69807H14.515V4H15.4849V5.69807Z" fill="white"/>
<path id="Subtract" d="M30.3267 10.4065C30.5368 10.6215 30.6391 10.9197 30.6051 11.2184L29.2844 22.8422C29.1677 23.87 28.2492 24.6096 27.233 24.4941L17.2663 23.3617C16.2501 23.2462 15.521 22.3195 15.6377 21.2917L17.1883 7.64503C17.3051 6.61728 18.2235 5.87772 19.2397 5.99318L26.1523 6.77858C26.6096 6.83054 27.035 7.03868 27.3568 7.36786L30.3267 10.4065Z" fill="#FF4242"/>
<path id="Union_2" d="M8.458 14.8478C9.55655 14.7327 10.5404 15.5299 10.6556 16.6284L10.6796 16.8571L17.9711 16.0929C19.0696 15.9778 20.0536 16.775 20.1687 17.8735L21.125 26.9972C21.24 28.0957 20.4428 29.0796 19.3443 29.1948L4.76145 30.7233C3.66293 30.8384 2.67906 30.0411 2.56386 28.9426L1.37516 17.6011C1.26003 16.5026 2.05724 15.5187 3.15579 15.4035L8.458 14.8478Z" fill="#0168FF"/>
<path id="Subtract_2" d="M30.3267 10.4065C30.5368 10.6215 30.6391 10.9197 30.6051 11.2184L29.2844 22.8422C29.1677 23.87 28.2492 24.6096 27.233 24.4941L17.2663 23.3617C16.2501 23.2462 15.521 22.3195 15.6377 21.2917L17.1883 7.64503C17.3051 6.61728 18.2235 5.87772 19.2397 5.99318L26.1522 6.77858C26.6096 6.83054 27.035 7.03868 27.3568 7.36786L30.3267 10.4065Z" fill="#FF4242"/>
<path id="Intersect" d="M17.1883 7.64496C17.3051 6.61721 18.2236 5.87768 19.2398 5.99314L19.9966 6.07907C19.9986 6.13579 20 6.19272 20 6.24991C20 8.35229 18.6803 10.1462 16.8242 10.8491L17.1883 7.64496Z" fill="#212932"/>
<path id="Rectangle 16" d="M2.57764 16.4071L9.28246 15.7048L9.39679 16.7963L2.69196 17.4986L2.57764 16.4071Z" fill="white"/>
<path id="Subtract_3" d="M6.74069 19.1588L2.90802 19.5603L2.79803 18.5103L7.18368 18.0509L6.74069 19.1588Z" fill="white"/>
<path id="Vector 110" d="M26.3943 9.56953L26.5946 7.80617C26.6104 7.66731 26.7798 7.60836 26.8784 7.70743L29.8232 10.6668C29.9343 10.7785 29.8427 10.9678 29.6862 10.95L27.275 10.676C26.7263 10.6137 26.3319 10.1183 26.3943 9.56953Z" fill="white"/>
<path id="Intersect_2" d="M17.971 16.0929C19.0695 15.9778 20.0535 16.7751 20.1686 17.8736L20.7856 23.7614L17.2663 23.3616C16.2501 23.2462 15.5209 22.3196 15.6376 21.2919L16.2072 16.2775L17.971 16.0929Z" fill="#212932"/>
</g>
</g>
</g>
</g>
</svg>
