<svg width="32" height="32" viewBox="0 0 32 32" fill="none" xmlns="http://www.w3.org/2000/svg">
<rect width="32" height="32" fill="#1E1E1E"/>
<g id="Pictograms">
<rect x="-353" y="-496" width="1144" height="1538" rx="20" fill="white"/>
<g id="eb-picto_illu-recycle">
<path id="Vector" d="M23.28 17.83C21.31 22.22 15.47 23.88 15.47 23.88C15.47 23.88 17.04 19.44 15.14 16.22C14.92 15.85 14.67 15.52 14.38 15.21C14.49 14.81 14.62 14.41 14.8 14.02C16.77 9.62998 22.61 7.97998 22.61 7.97998C22.61 7.97998 25.25 13.44 23.28 17.83Z" fill="#FF4747"/>
<path id="Vector_2" d="M15.47 23.87H15.46C15.34 23.6 13.31 19.21 14.38 15.21C14.67 15.52 14.92 15.85 15.14 16.22C17.04 19.44 15.47 23.87 15.47 23.87Z" fill="black"/>
<path id="Vector_3" d="M15.46 23.87C15.21 23.83 10.78 23.01 8.92999 19.88C7.02999 16.67 8.59999 12.23 8.59999 12.23C8.59999 12.23 12.24 12.83 14.38 15.21C13.31 19.21 15.34 23.6 15.46 23.87Z" fill="#0168FF"/>
<path id="Vector_4" d="M27.56 24.47V29.99H25.7V26.03C25.38 26.34 25.05 26.63 24.7 26.91C24.38 27.17 24.05 27.41 23.7 27.64C21.49 29.1 18.84 29.96 16 29.96C8.29998 29.96 2.03998 23.7 2.03998 16C2.03998 13.87 2.51998 11.85 3.37998 10.04C3.79998 10.52 4.32998 10.89 4.92998 11.12C4.26998 12.61 3.89998 14.27 3.89998 16C3.89998 22.67 9.32998 28.1 16 28.1C18.2 28.1 20.26 27.51 22.04 26.47C22.56 26.18 23.05 25.84 23.51 25.47C23.91 25.16 24.28 24.83 24.62 24.47H20.18V22.62H25.7C25.83 22.62 25.97 22.63 26.09 22.67C26.75 22.8 27.29 23.3 27.47 23.94C27.53 24.1 27.56 24.28 27.56 24.47Z" fill="#0168FF"/>
<path id="Vector_5" d="M29.9599 16.01C29.9599 18.14 29.48 20.16 28.62 21.97C28.21 21.49 27.68 21.11 27.07 20.88C27.73 19.39 28.1 17.74 28.1 16.01C28.1 9.34001 22.67 3.91001 16 3.91001C13.81 3.91001 11.75 4.50001 9.96995 5.53001C9.44995 5.82001 8.95995 6.16001 8.49995 6.53001C8.09995 6.84001 7.72995 7.17001 7.37995 7.53001H11.83V9.39001H6.30995C6.16995 9.39001 6.03995 9.37001 5.90995 9.34001C5.24995 9.20001 4.71995 8.70001 4.53995 8.06001C4.47995 7.89001 4.44995 7.71001 4.44995 7.53001V2.01001H6.30995V5.97001C6.62995 5.66001 6.95995 5.37001 7.30995 5.09001C7.62995 4.83001 7.95995 4.59001 8.30995 4.37001C10.52 2.90001 13.16 2.05001 16 2.05001C23.7 2.05001 29.9599 8.31001 29.9599 16.01Z" fill="#FF4747"/>
<path id="Vector_6" d="M21.41 16.23L19.25 16.6L19.92 15.11L22.13 14.73L22 13.99L20.29 14.28L21.2 12.27L20.35 12.37L19.57 14.07L18.49 12.65L17.9 13.1L19.22 14.84L18.54 16.33L17.29 14.63L16.68 15.08L18.19 17.12L16.83 20.13L17.51 20.44L18.87 17.42L21.53 16.97L21.41 16.23Z" fill="#E8EAEA"/>
</g>
</g>
</svg>
