<svg width="32" height="32" viewBox="0 0 32 32" fill="none" xmlns="http://www.w3.org/2000/svg">
<rect width="32" height="32" fill="#1E1E1E"/>
<g id="Pictograms">
<rect x="-169" y="-451" width="1144" height="1538" rx="20" fill="white"/>
<g id="eb-picto_illu-error_mobile">
<path id="Vector" d="M18.99 2.03003H7C5.9 2.03003 5 2.93003 5 4.03003V28.03C5 29.13 5.9 30.03 7 30.03H18.99C20.09 30.03 20.99 29.13 20.99 28.03V4.03003C20.99 2.93003 20.09 2.03003 18.99 2.03003ZM11.49 4.03003H14.49C15.04 4.03003 15.49 4.48003 15.49 5.03003C15.49 5.58003 15.04 6.03003 14.49 6.03003H11.49C10.94 6.03003 10.49 5.58003 10.49 5.03003C10.49 4.48003 10.94 4.03003 11.49 4.03003Z" fill="#0168FF"/>
<path id="Vector_2" d="M11.49 6.03003H14.49C15.04 6.03003 15.49 5.58003 15.49 5.03003C15.49 4.48003 15.04 4.03003 14.49 4.03003H11.49C10.94 4.03003 10.49 4.48003 10.49 5.03003C10.49 5.58003 10.94 6.03003 11.49 6.03003Z" fill="black"/>
<path id="Vector_3" d="M20.99 8.06H11.83C10.74 8.06 9.85999 8.94 9.85999 10.03V22.21C9.85999 23.3 10.74 24.18 11.83 24.18H20.99C20.99 23.66 20.99 8.06 20.99 8.06ZM10.96 13.48C10.96 13.48 10.98 13.52 10.98 13.55C10.96 13.49 10.93 13.43 10.9 13.36C10.92 13.4 10.94 13.44 10.96 13.48Z" fill="black"/>
<path id="Vector_4" d="M24.07 24.18H21C21 23.66 21 23.27 21 22.72V8.06H24.08C25.13 8.06 25.99 8.91 25.99 9.97V22.27C25.99 23.32 25.14 24.18 24.08 24.18H24.07Z" fill="#FF4747"/>
<path id="Vector_5" d="M17.64 18.96L12.99 14.3L13.94 13.28L18.63 17.97L17.64 18.96Z" fill="#E9EBEB"/>
<path id="Vector_6" d="M17.64 13.28L12.99 17.94L13.94 18.96L18.63 14.27L17.64 13.28Z" fill="#E9EBEB"/>
</g>
</g>
</svg>
