
<svg xmlns="http://www.w3.org/2000/svg" width="339" height="105"><style><![CDATA[.G{letter-spacing:0em}.E{letter-spacing:-.02em}.F{letter-spacing:-.01em}.C{letter-spacing:-.02em}.D{letter-spacing:-.01em}.B{letter-spacing:.01em}.I{font-family:Ibercaja-Medium,Ibercaja}.J{font-weight:500}.K{font-size:12px}.L{font-size:24px}]]></style><defs><style>@font-face{font-family:'Ibercaja-Medium';font-weight:500;src:url('../../../../../build/assets/fonts/ibercaja/Ibercaja-Medium.ttf') format('truetype')}</style></defs><text class="I J K"><tspan x="9.94" y="24.87">e</tspan><tspan class="B" x="17.2" y="24.87">b</tspan><tspan x="25.28" y="24.87">-main</tspan><tspan x="119.94" y="24.87">-(sufij</tspan><tspan class="C" x="155.18" y="24.87">o</tspan><tspan x="162.83" y="24.87">)</tspan><tspan x="121.38" y="55.37">-(i</tspan><tspan class="D" x="134.57" y="55.37">n</tspan><tspan x="142.02" y="55.37">fij</tspan><tspan class="C" x="153.74" y="55.37">o</tspan><tspan x="161.39" y="55.37">)</tspan><tspan x="223.38" y="55.37">--(modificador)</tspan><tspan x="224.38" y="84.37">--(modificador)</tspan><tspan x="121.38" y="85.87">-(i</tspan><tspan class="D" x="134.57" y="85.87">n</tspan><tspan x="142.02" y="85.87">fij</tspan><tspan class="C" x="153.74" y="85.87">o</tspan><tspan x="161.39" y="85.87">)</tspan><tspan x="9.94" y="55.37">e</tspan><tspan class="B" x="17.2" y="55.37">b-</tspan><tspan class="E" x="30.9" y="55.37">c</tspan><tspan x="37.59" y="55.37">ol</tspan><tspan x="10.94" y="85.87">e</tspan><tspan class="B" x="18.2" y="85.87">b-</tspan><tspan class="F" x="31.9" y="85.87">o</tspan><tspan class="B" x="39.61" y="85.87">f</tspan><tspan class="D" x="44.58" y="85.87">f</tspan><tspan class="G" x="49.3" y="85.87">s</tspan><tspan class="E" x="55.45" y="85.87">e</tspan><tspan x="62.53" y="85.87">t</tspan></text><text class="I J L"><tspan x="87.3" y="28.31">+</tspan><tspan x="87.3" y="58.81">+</tspan><tspan x="87.3" y="89.31">+</tspan><tspan x="186.3" y="57.81">+</tspan><tspan x="186.3" y="88.31">+</tspan></text></svg>