<svg xmlns="http://www.w3.org/2000/svg" width="1027" height="276"><style><![CDATA[.P{letter-spacing:0em}.R{letter-spacing:0em}.T{letter-spacing:-.11em}.K{letter-spacing:-.02em}.M{letter-spacing:-.02em}.I{letter-spacing:-.02em}.L{letter-spacing:-.01em}.J{letter-spacing:-.02em}.S{letter-spacing:-.03em}.U{letter-spacing:-.01em}.Q{letter-spacing:-.01em}.H{letter-spacing:.01em}.N{letter-spacing:0em}.V{font-family:Ibercaja-Medium,Ibercaja}.W{font-size:12px}.X{font-weight:500}]]></style><defs><style>@font-face{font-family:'Ibercaja-Medium';font-weight:500;src:url('../../../../../build/assets/fonts/ibercaja/Ibercaja-Medium.ttf') format('truetype')}</style></defs><path d="M.02 0h1026v277H.02z" fill="#f1f2f2"/><path d="M35.77 69.5h954.5v155H35.77z" fill="none" stroke="#b2b4b5" stroke-miterlimit="10"/><path d="M69 103.5h883v105H69z" fill="#b2b4b5"/><path d="M107 134h808v62H107z" fill="#4c4c4c"/><path d="M.5.5h1027v37H.5z" fill="#0368ff"/><path d="M-1 240h1027v37H-1z" fill="#222932"/><text class="V W X"><tspan x="9.94" y="55.52">e</tspan><tspan class="H" x="17.2" y="55.52">b</tspan><tspan x="25.28" y="55.52">-main</tspan><tspan x="54.94" y="88.52">e</tspan><tspan class="H" x="62.2" y="88.52">b-</tspan><tspan class="I" x="75.9" y="88.52">c</tspan><tspan x="82.59" y="88.52">ontaine</tspan><tspan class="J" x="128.74" y="88.52">r</tspan><tspan x="133.8" y="88.52">--(si</tspan><tspan class="I" x="158.64" y="88.52">z</tspan><tspan class="J" x="165.12" y="88.52">e</tspan><tspan x="172.14" y="88.52">)</tspan><tspan x="200.59" y="88.52">e</tspan><tspan class="H" x="207.85" y="88.52">b-</tspan><tspan class="I" x="221.55" y="88.52">c</tspan><tspan x="228.24" y="88.52">ontaine</tspan><tspan class="J" x="274.39" y="88.52">r</tspan><tspan x="279.45" y="88.52">-ma</tspan><tspan class="K" x="303.88" y="88.52">r</tspan><tspan x="308.9" y="88.52">gin--(si</tspan><tspan class="L" x="352.58" y="88.52">z</tspan><tspan class="M" x="359.06" y="88.52">e</tspan><tspan x="366.08" y="88.52">)</tspan><tspan x="390.94" y="88.52">e</tspan><tspan class="H" x="398.2" y="88.52">b</tspan><tspan x="406.28" y="88.52">-</tspan><tspan class="K" x="411.78" y="88.52">r</tspan><tspan class="J" x="416.8" y="88.52">ow</tspan><tspan x="435.08" y="88.52">ga</tspan><tspan class="N" x="450.39" y="88.52">p</tspan><tspan x="458.46" y="88.52">--(si</tspan><tspan class="I" x="483.3" y="88.52">z</tspan><tspan class="J" x="489.78" y="88.52">e</tspan><tspan x="496.8" y="88.52">)</tspan></text><text fill="#fff" class="V W X"><tspan x="119.94" y="151.52">e</tspan><tspan class="H" x="127.2" y="151.52">b-</tspan><tspan class="I" x="140.9" y="151.52">c</tspan><tspan x="147.59" y="151.52">ol--(si</tspan><tspan class="I" x="183.62" y="151.52">z</tspan><tspan class="J" x="190.1" y="151.52">e</tspan><tspan class="P" x="197.12" y="151.52">)</tspan><tspan x="224.94" y="151.52">e</tspan><tspan class="H" x="232.2" y="151.52">b-</tspan><tspan class="L" x="245.9" y="151.52">o</tspan><tspan class="H" x="253.61" y="151.52">f</tspan><tspan class="Q" x="258.58" y="151.52">f</tspan><tspan class="R" x="263.3" y="151.52">s</tspan><tspan class="I" x="269.45" y="151.52">e</tspan><tspan class="J" x="276.53" y="151.52">t</tspan><tspan x="281.48" y="151.52">--(si</tspan><tspan class="L" x="306.32" y="151.52">z</tspan><tspan class="M" x="312.8" y="151.52">e</tspan><tspan x="319.82" y="151.52">)</tspan></text><text class="V W X"><tspan x="78.73" y="120.52">e</tspan><tspan class="H" x="85.99" y="120.52">b-</tspan><tspan x="99.69" y="120.52">grid</tspan><tspan class="H" x="124.22" y="120.52">-</tspan><tspan x="129.85" y="120.52">g--(si</tspan><tspan class="I" x="162.65" y="120.52">z</tspan><tspan class="J" x="169.12" y="120.52">e</tspan><tspan x="176.15" y="120.52">)</tspan></text><text fill="#fff" class="V W X"><tspan class="S" x="391.31" y="167.07">A</tspan><tspan x="400.14" y="167.07">QUÍ E</tspan><tspan class="J" x="434.79" y="167.07">S</tspan><tspan class="T" x="442.19" y="167.07">T</tspan><tspan x="448.63" y="167.07">ARÁ EL </tspan><tspan class="S" x="498.34" y="167.07">C</tspan><tspan x="506.79" y="167.07">ONTENI</tspan><tspan class="U" x="554.93" y="167.07">D</tspan><tspan x="564.19" y="167.07">O</tspan></text></svg>