<svg width="24" height="24" viewBox="0 0 24 24" fill="currentColor" xmlns="http://www.w3.org/2000/svg">
<path d="M5.1 7.3C6.6 7.3 7.7 6.1 7.7 4.7C7.7 3.3 6.6 2 5.1 2C3.6 2 2.5 3.2 2.5 4.6C2.5 6 3.7 7.3 5.1 7.3ZM5.1 3C6 3 6.8 3.7 6.8 4.6C6.8 5.5 6 6.3 5.1 6.3C4.2 6.3 3.5 5.5 3.5 4.6C3.5 3.7 4.2 3 5.1 3Z" fill="currentColor"/>
<path d="M20.2 13.6C19.5 12.7 18.3 12.3 17.3 12.8L12.8 14.6L16.1 10.4C16.3 10.1 16.7 9.90001 17.1 9.80001L21.5 9.30001C21.8 9.30001 22 9.00001 22 8.80001C22 8.50001 21.7 8.3 21.5 8.4L17 8.80001C16.3 8.90001 15.7 9.20001 15.3 9.70001L11.5 14.5C11.2 14.4 11 14.2 10.8 14L7.7 9.20001L10.8 8.50001C11.4 8.40001 12 7.90001 12.4 7.40001L14.6 3.90001C14.7 3.70001 14.7 3.40001 14.4 3.20001C14.2 3.10001 13.9 3.10001 13.7 3.40001L11.5 6.90001C11.3 7.20001 10.9 7.50001 10.6 7.60001L7.3 8.20001C7 8.3 6.6 8.50001 6.3 8.70001L3.4 11.1C2.9 11.5 2.6 12.1 2.5 12.7L2 16.2C2 16.5 2.2 16.7 2.4 16.8C2.4 16.8 2.4 16.8 2.5 16.8C2.7 16.8 3 16.6 3 16.4L3.5 13C3.6 12.6 3.7 12.3 4 12L6.8 9.70001L10 14.7C10.6 15.7 11.9 16.1 13 15.7L17.6 13.9C18.2 13.7 19 13.9 19.4 14.4L21.1 16.7C21.2 16.8 21.3 16.9 21.5 16.9C21.6 16.9 21.7 16.9 21.8 16.8C22 16.6 22.1 16.3 21.9 16.1L20.2 13.6Z" fill="currentColor"/>
<path d="M11.7 21C8.89995 21 6.69995 18.8 6.69995 16C6.69995 15.7 6.49995 15.5 6.19995 15.5C5.89995 15.5 5.69995 15.7 5.69995 16C5.69995 19.3 8.39995 22 11.7 22C12 22 12.2 21.8 12.2 21.5C12.2 21.2 12 21 11.7 21Z" fill="currentColor"/>
<path d="M11.7 18.5C10.3 18.5 9.19995 17.4 9.19995 16C9.19995 15.7 8.99995 15.5 8.69995 15.5C8.39995 15.5 8.19995 15.7 8.19995 16C8.19995 17.9 9.79995 19.5 11.7 19.5C12 19.5 12.2 19.3 12.2 19C12.2 18.7 12 18.5 11.7 18.5Z" fill="currentColor"/>
</svg>
