<svg width="24" height="24" viewBox="0 0 24 24" fill="currentColor" xmlns="http://www.w3.org/2000/svg">
<path d="M12.3949 11C14.8949 11 16.8949 9 16.8949 6.5C16.8949 4 14.8949 2 12.3949 2C9.89491 2 7.89491 4 7.89491 6.5C7.89491 9 9.89491 11 12.3949 11ZM12.3949 3C14.2949 3 15.8949 4.6 15.8949 6.5C15.8949 8.4 14.2949 10 12.3949 10C10.4949 10 8.89491 8.4 8.89491 6.5C8.89491 4.6 10.4949 3 12.3949 3Z" fill="currentColor"/>
<path d="M22.1949 19.4C21.1949 15.1 17.0949 12 12.3949 12C7.69491 12 3.69491 15 2.59491 19.4C2.49491 20 2.59491 20.6 2.99491 21.1C3.49491 21.7 4.19491 22 4.89491 22H19.8949C20.5949 22 21.2949 21.7 21.7949 21.1C22.1949 20.6 22.2949 20 22.1949 19.4ZM20.9949 20.5C20.7949 20.8 20.2949 21 19.8949 21H4.89491C4.49491 21 4.09491 20.8 3.79491 20.5C3.69491 20.3 3.49491 20 3.59491 19.6C4.49491 15.8 8.19491 13 12.3949 13C16.5949 13 20.2949 15.8 21.1949 19.6C21.2949 20 21.0949 20.3 20.9949 20.5Z" fill="currentColor"/>
</svg>
