<svg width="24" height="25" viewBox="0 0 24 25" fill="currentColor" xmlns="http://www.w3.org/2000/svg">
<path d="M16.242 12H12.5V8.257C12.5 7.981 12.276 7.757 12 7.757C11.724 7.757 11.5 7.981 11.5 8.257V12H7.757C7.481 12 7.257 12.224 7.257 12.5C7.257 12.776 7.481 13 7.757 13H11.5V16.742C11.5 17.018 11.724 17.242 12 17.242C12.276 17.242 12.5 17.018 12.5 16.742V13H16.242C16.518 13 16.742 12.776 16.742 12.5C16.742 12.224 16.518 12 16.242 12Z" fill="currentColor"/>
<path d="M12 2.5C6.486 2.5 2 6.986 2 12.5C2 18.014 6.486 22.5 12 22.5C17.514 22.5 22 18.014 22 12.5C22 6.986 17.515 2.5 12 2.5ZM12 21.501C7.037 21.501 3 17.463 3 12.501C3 7.539 7.038 3.5 12 3.5C16.962 3.5 21 7.538 21 12.5C21 17.462 16.962 21.501 12 21.501Z" fill="currentColor"/>
</svg>
