<svg width="24" height="24" viewBox="0 0 24 24" fill="currentColor" xmlns="http://www.w3.org/2000/svg">
<rect width="24" height="24" fill="currentColor"/>
<g id="Icons - SET 2 Trazados - definitivo">
<rect x="-144" y="-688" width="1144" height="907" rx="20" fill="currentColor"/>
<g id="table">
<g id="row-8">
<g id="eb-icon-add_squared">
<g id="Vector">
<path d="M21.562 2.44748C21.279 2.16448 20.902 2.00848 20.501 2.00848H3.50098C3.10098 2.00848 2.72398 2.16448 2.43998 2.44748C2.15598 2.73048 2.00098 3.10748 2.00098 3.50848V20.5085C2.00098 20.9085 2.15698 21.2855 2.43998 21.5695C2.72298 21.8535 3.09998 22.0085 3.50098 22.0085H20.501C20.901 22.0085 21.278 21.8525 21.562 21.5695C21.846 21.2865 22.001 20.9095 22.001 20.5085V3.50848C22.001 3.10848 21.845 2.73148 21.562 2.44748ZM21.001 20.5085C21.001 20.6425 20.949 20.7675 20.855 20.8625C20.761 20.9575 20.635 21.0085 20.501 21.0085H3.50098C3.36998 21.0085 3.24098 20.9545 3.14698 20.8625C3.05298 20.7675 3.00098 20.6425 3.00098 20.5085V3.50848C3.00098 3.37748 3.05398 3.24848 3.14698 3.15448C3.23998 3.06048 3.36898 3.00848 3.50098 3.00848H20.501C20.635 3.00848 20.76 3.06048 20.855 3.15448C20.948 3.24748 21.001 3.37648 21.001 3.50848V20.5085Z" fill="currentColor"/>
<path d="M16.243 11.5085H12.501V7.76548C12.501 7.48948 12.277 7.26548 12.001 7.26548C11.725 7.26548 11.501 7.48948 11.501 7.76548V11.5085H7.75798C7.48198 11.5085 7.25798 11.7325 7.25798 12.0085C7.25798 12.2845 7.48198 12.5085 7.75798 12.5085H11.501V16.2505C11.501 16.5265 11.725 16.7505 12.001 16.7505C12.277 16.7505 12.501 16.5265 12.501 16.2505V12.5085H16.243C16.519 12.5085 16.743 12.2845 16.743 12.0085C16.743 11.7325 16.519 11.5085 16.243 11.5085Z" fill="currentColor"/>
</g>
</g>
</g>
</g>
</g>
</svg>
