<svg width="24" height="24" viewBox="0 0 24 24" fill="currentColor" xmlns="http://www.w3.org/2000/svg">
<path d="M19.5 12.991V4.53601C19.5 3.15801 18.379 2.03601 17 2.03601H6C4.622 2.03601 3.5 3.15801 3.5 4.53601V6.53601H3C2.724 6.53601 2.5 6.76001 2.5 7.03601C2.5 7.31201 2.724 7.53601 3 7.53601H3.5V10.536H3C2.724 10.536 2.5 10.76 2.5 11.036C2.5 11.312 2.724 11.536 3 11.536H3.5V14.536H3C2.724 14.536 2.5 14.76 2.5 15.036C2.5 15.312 2.724 15.536 3 15.536H3.5V17.536C3.5 18.915 4.622 20.036 6 20.036H12.584C13.5 21.201 14.906 21.965 16.499 21.965C19.256 21.965 21.499 19.722 21.499 16.965C21.499 15.338 20.707 13.904 19.5 12.991ZM6 19.036C5.173 19.036 4.5 18.363 4.5 17.536V15.536H6C6.276 15.536 6.5 15.312 6.5 15.036C6.5 14.76 6.276 14.536 6 14.536H4.5V11.536H6C6.276 11.536 6.5 11.312 6.5 11.036C6.5 10.76 6.276 10.536 6 10.536H4.5V7.53601H6C6.276 7.53601 6.5 7.31201 6.5 7.03601C6.5 6.76001 6.276 6.53601 6 6.53601H4.5V4.53601C4.5 3.70901 5.173 3.03601 6 3.03601H17C17.827 3.03601 18.5 3.70901 18.5 4.53601V12.389C17.886 12.12 17.212 11.965 16.5 11.965C15.922 11.965 15.376 12.083 14.859 12.264C14.051 11.654 13.046 11.307 11.976 11.307C9.893 11.307 8.055 12.617 7.606 14.422C7.526 14.742 7.598 15.074 7.8 15.334C8.022 15.617 8.377 15.786 8.75 15.786H11.655C11.562 16.166 11.5 16.557 11.5 16.965C11.5 17.706 11.672 18.403 11.963 19.036H6ZM12.021 14.786H8.75C8.669 14.786 8.612 14.749 8.576 14.663C8.915 13.298 10.345 12.307 11.975 12.307C12.635 12.307 13.262 12.471 13.808 12.765C13.039 13.259 12.425 13.96 12.021 14.786ZM16.5 20.965C14.295 20.965 12.5 19.171 12.5 16.965C12.5 14.759 14.294 12.965 16.5 12.965C18.706 12.965 20.5 14.759 20.5 16.965C20.5 19.171 18.706 20.965 16.5 20.965Z" fill="currentColor"/>
<path d="M18.521 16.59H16.875V14.945C16.875 14.738 16.707 14.57 16.5 14.57C16.293 14.57 16.125 14.738 16.125 14.945V16.59H14.48C14.273 16.59 14.105 16.758 14.105 16.965C14.105 17.172 14.273 17.34 14.48 17.34H16.125V18.986C16.125 19.193 16.293 19.361 16.5 19.361C16.707 19.361 16.875 19.193 16.875 18.986V17.34H18.521C18.728 17.34 18.896 17.172 18.896 16.965C18.896 16.758 18.728 16.59 18.521 16.59Z" fill="currentColor"/>
<path d="M11.976 10.633C13.175 10.633 14.149 9.65801 14.149 8.45901C14.149 7.26001 13.174 6.28501 11.976 6.28501C10.778 6.28501 9.802 7.26001 9.802 8.45901C9.802 9.65801 10.777 10.633 11.976 10.633ZM11.976 7.28601C12.623 7.28601 13.149 7.81201 13.149 8.46001C13.149 9.10801 12.623 9.63401 11.976 9.63401C11.329 9.63401 10.802 9.10801 10.802 8.46001C10.802 7.81201 11.328 7.28601 11.976 7.28601Z" fill="currentColor"/>
</svg>
