<svg width="24" height="24" viewBox="0 0 24 24" fill="currentColor" xmlns="http://www.w3.org/2000/svg">
<path d="M21.0701 13.13V5.65002C21.0701 4.27002 19.9501 3.15002 18.5701 3.15002H4.57007C3.19007 3.15002 2.07007 4.27002 2.07007 5.65002V16.65C2.07007 18.03 3.19007 19.15 4.57007 19.15H13.1401C14.0401 20.45 15.5401 21.3 17.2401 21.3C20.0001 21.3 22.2401 19.06 22.2401 16.3C22.2401 15.09 21.7901 14 21.0701 13.13ZM3.07007 5.65002C3.07007 4.82002 3.74007 4.15002 4.57007 4.15002H18.5701C19.4001 4.15002 20.0701 4.82002 20.0701 5.65002V8.15002H3.07007V5.65002ZM4.57007 18.15C3.74007 18.15 3.07007 17.48 3.07007 16.65V9.15002H20.0701V12.19C19.2601 11.63 18.2901 11.3 17.2401 11.3C14.4801 11.3 12.2401 13.54 12.2401 16.3C12.2401 16.95 12.3701 17.58 12.6001 18.15H4.57007ZM17.2301 20.3C15.0201 20.3 13.2301 18.51 13.2301 16.3C13.2301 14.09 15.0201 12.3 17.2301 12.3C19.4401 12.3 21.2301 14.09 21.2301 16.3C21.2301 18.51 19.4401 20.3 17.2301 20.3Z" fill="currentColor"/>
<path d="M19.2501 15.93H17.6001V14.29C17.6001 14.08 17.4301 13.91 17.2201 13.91C17.0101 13.91 16.8401 14.08 16.8401 14.29V15.93H15.1901C14.9801 15.93 14.8101 16.1 14.8101 16.31C14.8101 16.52 14.9801 16.69 15.1901 16.69H16.8401V18.34C16.8401 18.55 17.0101 18.72 17.2201 18.72C17.4301 18.72 17.6001 18.55 17.6001 18.34V16.69H19.2501C19.4601 16.69 19.6301 16.52 19.6301 16.31C19.6301 16.1 19.4601 15.93 19.2501 15.93Z" fill="currentColor"/>
<path d="M11.0701 13.28H5.07007C4.86007 13.28 4.69007 13.45 4.69007 13.66C4.69007 13.87 4.86007 14.04 5.07007 14.04H11.0701C11.2801 14.04 11.4501 13.87 11.4501 13.66C11.4501 13.45 11.2801 13.28 11.0701 13.28Z" fill="currentColor"/>
</svg>
