<svg width="24" height="25" viewBox="0 0 24 25" fill="currentColor" xmlns="http://www.w3.org/2000/svg">
<path d="M17 17.249C16.793 17.249 16.625 17.081 16.625 16.874V13.749C16.625 13.542 16.793 13.374 17 13.374C17.207 13.374 17.375 13.542 17.375 13.749V16.874C17.375 17.081 17.207 17.249 17 17.249Z" fill="currentColor"/>
<path d="M21 13.28V8.16802C21 6.79002 19.879 5.66802 18.5 5.66802H13.204C12.877 5.66802 12.554 5.55902 12.294 5.36002L10.202 3.76202C9.76802 3.43102 9.22902 3.24902 8.68402 3.24902H4.49902C3.12102 3.24902 1.99902 4.37102 1.99902 5.74902V16.749C1.99902 18.128 3.12102 19.249 4.49902 19.249H13.025C13.939 20.456 15.373 21.249 16.999 21.249C19.756 21.249 21.999 19.006 21.999 16.249C21.999 15.133 21.62 14.113 21 13.28ZM4.50002 18.249C3.67302 18.249 3.00002 17.576 3.00002 16.749V5.74902C3.00002 4.92202 3.67302 4.24902 4.50002 4.24902H8.68502C9.01202 4.24902 9.33502 4.35802 9.59602 4.55702L11.688 6.15502C12.122 6.48602 12.66 6.66802 13.205 6.66802H18.501C19.328 6.66802 20.001 7.34102 20.001 8.16802V12.274C19.163 11.639 18.131 11.248 17.001 11.248C14.244 11.248 12.001 13.491 12.001 16.248C12.001 16.96 12.155 17.634 12.425 18.248H4.50102L4.50002 18.249ZM17 20.249C14.794 20.249 13 18.455 13 16.249C13 14.043 14.794 12.249 17 12.249C19.206 12.249 21 14.043 21 16.249C21 18.455 19.206 20.249 17 20.249Z" fill="currentColor"/>
<path d="M16.999 19.185C17.205 19.185 17.372 19.0041 17.372 18.781C17.372 18.5579 17.205 18.377 16.999 18.377C16.793 18.377 16.626 18.5579 16.626 18.781C16.626 19.0041 16.793 19.185 16.999 19.185Z" fill="currentColor"/>
</svg>
