<svg width="25" height="25" viewBox="0 0 25 25" fill="currentColor" xmlns="http://www.w3.org/2000/svg">
<path d="M12.4492 22.249C12.1732 22.249 11.9492 22.025 11.9492 21.749V3.82203L7.27017 7.74803C7.05817 7.92603 6.74417 7.89803 6.56617 7.68603C6.38817 7.47503 6.41617 7.15903 6.62817 6.98203L12.1222 2.37203C12.1572 2.34103 12.1952 2.31603 12.2362 2.29703C12.2492 2.29103 12.2622 2.28503 12.2752 2.28003C12.3022 2.27003 12.3312 2.26203 12.3592 2.25703C12.3592 2.25703 12.3592 2.25703 12.3602 2.25703C12.3892 2.25203 12.4462 2.25803 12.4472 2.25003C12.4792 2.25003 12.5122 2.25303 12.5442 2.26003C12.5442 2.26003 12.5452 2.26003 12.5472 2.26003C12.5622 2.26303 12.5762 2.26703 12.5912 2.27103C12.6122 2.27803 12.6342 2.28603 12.6552 2.29603C12.6962 2.31603 12.7352 2.34003 12.7702 2.37103L18.2632 6.98103C18.4752 7.15803 18.5022 7.47403 18.3252 7.68503C18.1482 7.89703 17.8332 7.92503 17.6212 7.74703L12.9422 3.82103V21.748C12.9422 22.024 12.7182 22.248 12.4422 22.248L12.4492 22.249Z" fill="currentColor"/>
</svg>
