<svg width="24" height="24" viewBox="0 0 24 24" fill="currentColor" xmlns="http://www.w3.org/2000/svg">
<path d="M12.0009 22C11.9799 21.99 11.9359 21.997 11.9029 21.99H11.8999C11.8849 21.986 11.8709 21.983 11.8559 21.978H11.8539C11.8329 21.971 11.8109 21.962 11.7899 21.953C11.7489 21.934 11.7099 21.909 11.6749 21.879L6.18187 17.269C5.97087 17.091 5.94287 16.776 6.11987 16.565C6.29687 16.354 6.61187 16.325 6.82387 16.503L11.5029 20.429V2.5C11.5029 2.224 11.7269 2 12.0029 2C12.2789 2 12.5029 2.224 12.5029 2.5V20.427L17.1819 16.501C17.3929 16.321 17.7079 16.35 17.8859 16.563C18.0639 16.774 18.0359 17.089 17.8239 17.267L12.3299 21.877C12.2949 21.907 12.2569 21.932 12.2159 21.951C12.2029 21.957 12.1899 21.963 12.1769 21.968C12.1499 21.979 12.1209 21.986 12.0929 21.991H12.0909C12.0619 21.996 12.0329 21.999 12.0049 21.999L12.0009 22Z" fill="currentColor"/>
</svg>
