<svg width="24" height="24" viewBox="0 0 24 24" fill="currentColor" xmlns="http://www.w3.org/2000/svg">
<rect width="24" height="24" fill="currentColor"/>
<g id="Icons - SET 2 Trazados - definitivo">
<rect x="-908" y="-1021" width="1144" height="1538" rx="20" fill="currentColor"/>
<g id="eb-icon-attach">
<path id="Vector" fill-rule="evenodd" clip-rule="evenodd" d="M12.7537 4.27872L2.84569 13.7598C2.64617 13.9507 2.32967 13.9438 2.13875 13.7443C1.94783 13.5447 1.9548 13.2282 2.15432 13.0373L12.0768 3.54235C13.1323 2.58466 14.5554 2 16.1166 2C19.3449 2 22 4.50952 22 7.65108C22 9.17457 21.372 10.5547 20.358 11.5676L20.3516 11.574L10.3723 21.1877L10.3639 21.1951C9.79471 21.6964 9.03765 22 8.21092 22C6.4692 22 5.01921 20.6436 5.01921 18.9245C5.01921 17.7821 5.74782 17.0283 6.40585 16.3987L15.7709 7.43779C15.9704 7.24688 16.2869 7.25386 16.4779 7.45338C16.6688 7.6529 16.6618 7.96941 16.4623 8.16032L7.0972 17.1212C6.42386 17.7655 6.01921 18.2513 6.01921 18.9245C6.01921 20.0502 6.97945 21 8.21092 21C8.78626 21 9.30614 20.7907 9.69497 20.4516L19.6544 10.857C20.4911 10.0197 21 8.89077 21 7.65108C21 5.10292 18.8346 3 16.1166 3C14.8104 3 13.6278 3.48773 12.7537 4.27872Z" fill="currentColor"/>
</g>
</g>
</svg>
