<svg width="24" height="25" viewBox="0 0 24 25" fill="currentColor" xmlns="http://www.w3.org/2000/svg">
<rect width="24" height="25" fill="currentColor"/>
<g id="Icons - SET 2 Trazados - definitivo">
<rect x="-388" y="-626" width="1144" height="1538" rx="20" fill="currentColor"/>
<g id="table">
<g id="row-4">
<g id="eb-icon-calendar">
<path id="Union" fill-rule="evenodd" clip-rule="evenodd" d="M8.50101 4.005C8.50101 3.72886 8.27715 3.505 8.00101 3.505C7.72487 3.505 7.50101 3.72886 7.50101 4.005V5.505H4.00101C2.89644 5.505 2.00101 6.40043 2.00101 7.505V19.505C2.00101 20.6096 2.89644 21.505 4.00101 21.505H20.001C21.1056 21.505 22.001 20.6096 22.001 19.505V7.505C22.001 6.40043 21.1056 5.505 20.001 5.505H16.501V4.005C16.501 3.72886 16.2771 3.505 16.001 3.505C15.7249 3.505 15.501 3.72886 15.501 4.005V5.505H8.50101V4.005ZM7.50101 6.505V9.005C7.50101 9.28115 7.72487 9.505 8.00101 9.505C8.27715 9.505 8.50101 9.28115 8.50101 9.005V6.505H15.501V9.005C15.501 9.28115 15.7249 9.505 16.001 9.505C16.2771 9.505 16.501 9.28115 16.501 9.005V6.505H20.001C20.5533 6.505 21.001 6.95272 21.001 7.505V11.005H3.00101V7.505C3.00101 6.95272 3.44873 6.505 4.00101 6.505H7.50101ZM3.00101 12.005V19.505C3.00101 20.0573 3.44873 20.505 4.00101 20.505H20.001C20.5533 20.505 21.001 20.0573 21.001 19.505V12.005H3.00101Z" fill="currentColor"/>
</g>
</g>
</g>
</g>
</svg>
