<svg width="25" height="25" viewBox="0 0 25 25" fill="currentColor" xmlns="http://www.w3.org/2000/svg">
<path fill-rule="evenodd" clip-rule="evenodd" d="M7.6014 12.6171C6.88146 11.8972 5.71422 11.8972 4.99429 12.6171C4.27436 13.3371 4.27436 14.5043 4.99429 15.2242C5.71422 15.9442 6.88146 15.9442 7.6014 15.2242C8.32133 14.5043 8.32133 13.3371 7.6014 12.6171ZM5.7014 13.3242C6.0308 12.9948 6.56488 12.9948 6.89429 13.3242C7.2237 13.6537 7.2237 14.1877 6.89429 14.5171C6.56488 14.8465 6.0308 14.8465 5.7014 14.5171C5.37199 14.1877 5.37199 13.6536 5.7014 13.3242Z" fill="currentColor"/>
<path fill-rule="evenodd" clip-rule="evenodd" d="M19.6015 12.6171C18.8815 11.8972 17.7143 11.8972 16.9943 12.6171C16.2744 13.3371 16.2744 14.5043 16.9943 15.2242C17.7143 15.9442 18.8815 15.9442 19.6015 15.2242C20.3214 14.5043 20.3214 13.3371 19.6015 12.6171ZM17.7015 13.3242C18.0309 12.9948 18.5649 12.9948 18.8943 13.3242C19.2238 13.6537 19.2238 14.1877 18.8943 14.5171C18.5649 14.8465 18.0309 14.8465 17.7015 14.5171C17.372 14.1877 17.372 13.6536 17.7015 13.3242Z" fill="currentColor"/>
<path fill-rule="evenodd" clip-rule="evenodd" d="M6.47998 5.78748C6.86815 4.85586 7.77842 4.24902 8.78767 4.24902H16.121C17.1302 4.24902 18.0405 4.85586 18.4287 5.78748L19.9627 9.46902H20.4543C21.5589 9.46902 22.4543 10.3644 22.4543 11.469V17.469C22.4543 18.0213 22.0066 18.469 21.4543 18.469H20.4516C20.4036 19.3345 19.738 20.0301 18.8798 20.2055C17.7169 20.4432 16.5208 19.6624 16.457 18.469H8.45157C8.40358 19.3345 7.738 20.0301 6.87988 20.2055C5.71688 20.4432 4.52077 19.6624 4.45701 18.469H3.45435C2.90207 18.469 2.45435 18.0213 2.45435 17.469V11.469C2.45435 10.3644 3.34978 9.46902 4.45435 9.46902H4.946L6.47998 5.78748ZM6.02934 9.46902H18.8793L17.5056 6.1721C17.2727 5.61313 16.7265 5.24902 16.121 5.24902H8.78767C8.18212 5.24902 7.63596 5.61313 7.40306 6.1721L6.02934 9.46902ZM5.46121 18.469C5.52625 18.9445 6.04557 19.3554 6.67961 19.2257C7.11888 19.136 7.40137 18.8144 7.44763 18.469H5.46121ZM17.4612 18.469C17.5263 18.9445 18.0456 19.3554 18.6796 19.2257C19.1188 19.136 19.4014 18.8144 19.4476 18.469H17.4612ZM4.45435 10.469H20.4543C21.0066 10.469 21.4543 10.9167 21.4543 11.469V17.469H3.45435V11.469C3.45435 10.9167 3.90207 10.469 4.45435 10.469Z" fill="currentColor"/>
</svg>
