<svg width="25" height="25" viewBox="0 0 25 25" fill="currentColor" xmlns="http://www.w3.org/2000/svg">
<path d="M20.9041 22.249H15.9041C14.8011 22.249 13.9041 21.352 13.9041 20.249V18.249C13.9041 17.146 14.8011 16.249 15.9041 16.249H20.9041C22.0071 16.249 22.9041 17.146 22.9041 18.249V20.249C22.9041 21.352 22.0071 22.249 20.9041 22.249ZM15.9041 17.249C15.3521 17.249 14.9041 17.697 14.9041 18.249V20.249C14.9041 20.801 15.3521 21.249 15.9041 21.249H20.9041C21.4561 21.249 21.9041 20.801 21.9041 20.249V18.249C21.9041 17.697 21.4561 17.249 20.9041 17.249H15.9041Z" fill="currentColor"/>
<path d="M20.9041 14.249H15.9041C14.8011 14.249 13.9041 13.352 13.9041 12.249V4.24902C13.9041 3.14602 14.8011 2.24902 15.9041 2.24902H20.9041C22.0071 2.24902 22.9041 3.14602 22.9041 4.24902V12.249C22.9041 13.351 22.0071 14.249 20.9041 14.249ZM15.9041 3.24902C15.3521 3.24902 14.9041 3.69802 14.9041 4.24902V12.249C14.9041 12.8 15.3521 13.249 15.9041 13.249H20.9041C21.4561 13.249 21.9041 12.801 21.9041 12.249V4.24902C21.9041 3.69802 21.4561 3.24902 20.9041 3.24902H15.9041Z" fill="currentColor"/>
<path d="M9.90405 22.249H4.90405C3.80105 22.249 2.90405 21.352 2.90405 20.249V12.249C2.90405 11.146 3.80105 10.249 4.90405 10.249H9.90405C11.0071 10.249 11.9041 11.146 11.9041 12.249V20.249C11.9041 21.352 11.0071 22.249 9.90405 22.249ZM4.90405 11.249C4.35305 11.249 3.90405 11.698 3.90405 12.249V20.249C3.90405 20.801 4.35305 21.249 4.90405 21.249H9.90405C10.4551 21.249 10.9041 20.801 10.9041 20.249V12.249C10.9041 11.698 10.4551 11.249 9.90405 11.249H4.90405Z" fill="currentColor"/>
<path d="M9.90405 8.24902H4.90405C3.80105 8.24902 2.90405 7.35202 2.90405 6.24902V4.24902C2.90405 3.14602 3.80105 2.24902 4.90405 2.24902H9.90405C11.0071 2.24902 11.9041 3.14602 11.9041 4.24902V6.24902C11.9041 7.35202 11.0071 8.24902 9.90405 8.24902ZM4.90405 3.24902C4.35305 3.24902 3.90405 3.69802 3.90405 4.24902V6.24902C3.90405 6.80002 4.35305 7.24902 4.90405 7.24902H9.90405C10.4551 7.24902 10.9041 6.80002 10.9041 6.24902V4.24902C10.9041 3.69802 10.4551 3.24902 9.90405 3.24902H4.90405Z" fill="currentColor"/>
</svg>
