<svg width="24" height="24" viewBox="0 0 24 24" fill="currentColor" xmlns="http://www.w3.org/2000/svg">
<rect width="24" height="24" fill="currentColor"/>
<g id="Icons - SET 2 Trazados - definitivo">
<rect x="-478" y="-1017" width="1144" height="1538" rx="20" fill="currentColor"/>
<g id="eb-icon-chat">
<g id="Vector">
<path fill-rule="evenodd" clip-rule="evenodd" d="M8.6773 3C11.8115 3 14.3523 5.54078 14.3523 8.675C14.3523 11.8114 11.8303 14.35 8.69831 14.35H3.6956L4.30596 13.7296C4.69652 13.3326 4.67147 12.7265 4.34378 12.3394C4.02541 11.9633 3.75524 11.5454 3.54265 11.0952C3.19626 10.3617 3.0023 9.54171 3.0023 8.675C3.0023 5.54078 5.54309 3 8.6773 3ZM15.3523 8.675C15.3523 4.9885 12.3638 2 8.6773 2C4.9908 2 2.0023 4.9885 2.0023 8.675C2.0023 9.69245 2.23028 10.658 2.63842 11.5223C2.88865 12.0521 3.20643 12.5436 3.58053 12.9855C3.59048 12.9972 3.59436 13.0108 3.59426 13.0209C3.59422 13.0252 3.59349 13.0275 3.59327 13.0281C3.59323 13.0281 3.59334 13.028 3.59327 13.0281L2.14587 14.4993C2.00457 14.643 1.96328 14.8574 2.04115 15.0432C2.11901 15.2291 2.30082 15.35 2.5023 15.35H8.69831C12.387 15.35 15.3523 12.3593 15.3523 8.675Z" fill="currentColor"/>
<path fill-rule="evenodd" clip-rule="evenodd" d="M15.3273 9.65C15.1694 9.65 15.0131 9.65644 14.8587 9.66905C14.5835 9.69152 14.3421 9.48662 14.3197 9.21139C14.2972 8.93617 14.5021 8.69484 14.7773 8.67236C14.9588 8.65755 15.1422 8.65 15.3273 8.65C19.0138 8.65 22.0023 11.6385 22.0023 15.325C22.0023 16.3424 21.7743 17.308 21.3662 18.1723C21.116 18.7021 20.7982 19.1936 20.4241 19.6355C20.4141 19.6472 20.4103 19.6608 20.4104 19.6709C20.4104 19.6752 20.4111 19.6775 20.4113 19.6781C20.4113 19.678 20.4114 19.6782 20.4113 19.6781L21.8587 21.1493C22 21.293 22.0413 21.5074 21.9635 21.6932C21.8856 21.8791 21.7038 22 21.5023 22H15.3063C11.6176 22 8.6523 19.0093 8.6523 15.325C8.6523 15.1605 8.65826 14.9974 8.66999 14.8357C8.68996 14.5603 8.92942 14.3532 9.20484 14.3732C9.48026 14.3932 9.68734 14.6326 9.66737 14.9081C9.65739 15.0457 9.6523 15.1847 9.6523 15.325C9.6523 18.4614 12.1743 21 15.3063 21H20.309L19.6987 20.3796C19.3081 19.9826 19.3332 19.3765 19.6608 18.9894C19.9792 18.6133 20.2494 18.1954 20.462 17.7452C20.8084 17.0117 21.0023 16.1917 21.0023 15.325C21.0023 12.1908 18.4615 9.65 15.3273 9.65Z" fill="currentColor"/>
</g>
</g>
</g>
</svg>
