<svg width="24" height="24" viewBox="0 0 24 24" fill="currentColor" xmlns="http://www.w3.org/2000/svg">
<rect width="24" height="24" fill="currentColor"/>
<g id="Icons - SET 2 Trazados - definitivo">
<rect x="-592" y="-304" width="1144" height="907" rx="20" fill="currentColor"/>
<g id="table">
<g id="row-3">
<g id="eb-icon-check-2-solid">
<path id="Vector" fill-rule="evenodd" clip-rule="evenodd" d="M5.63897 5.63854C9.15368 2.12382 14.8522 2.12382 18.3669 5.63854C21.8816 9.15325 21.8816 14.8518 18.3669 18.3664C14.8522 21.8812 9.15368 21.8812 5.63897 18.3664C2.12425 14.8518 2.12425 9.15325 5.63897 5.63854ZM15.8566 9.64895C16.0519 9.84421 16.0519 10.1608 15.8566 10.3561L11.8566 14.3561C11.6881 14.5246 11.4241 14.5507 11.2257 14.4185L8.22572 12.4185C7.99596 12.2653 7.93387 11.9549 8.08705 11.7252C8.24022 11.4954 8.55066 11.4333 8.78042 11.5865L11.4394 13.3591L15.1495 9.64895C15.3448 9.45368 15.6614 9.45368 15.8566 9.64895Z" fill="currentColor"/>
</g>
</g>
</g>
</g>
</svg>
