<svg width="24" height="24" viewBox="0 0 24 24" fill="currentColor" xmlns="http://www.w3.org/2000/svg">
<path fill-rule="evenodd" clip-rule="evenodd" d="M18.363 18.3648L18.3648 18.363C19.2014 17.5285 19.8649 16.5368 20.3172 15.4451C20.7694 14.3533 21.0015 13.183 21 12.0012V11.9988C21.0015 10.8171 20.7694 9.6467 20.3172 8.55495C19.8649 7.46319 19.2014 6.47155 18.3648 5.637L18.363 5.63523C17.5285 4.79858 16.5368 4.13508 15.4451 3.68284C14.3533 3.2306 13.183 2.99855 12.0012 3.00001H11.9988C10.8171 2.99855 9.6467 3.2306 8.55495 3.68284C7.46319 4.13508 6.47155 4.79858 5.637 5.63523L5.63523 5.637C4.79858 6.47155 4.13508 7.46319 3.68284 8.55495C3.2306 9.6467 2.99855 10.8171 3.00001 11.9988V12.0012C2.99855 13.183 3.2306 14.3533 3.68284 15.4451C4.13508 16.5368 4.79858 17.5285 5.63523 18.363L5.637 18.3648C6.47155 19.2014 7.46319 19.8649 8.55495 20.3172C9.6467 20.7694 10.8171 21.0015 11.9988 21H12.0012C13.183 21.0015 14.3533 20.7694 15.4451 20.3172C16.5368 19.8649 17.5285 19.2014 18.363 18.3648ZM12 2.00001C13.3135 1.99839 14.6143 2.25631 15.8278 2.75897C17.0412 3.26162 18.1434 3.99909 19.071 4.92901C20.0009 5.85659 20.7384 6.95878 21.2411 8.17225C21.7437 9.38572 22.0016 10.6866 22 12C22.0016 13.3135 21.7437 14.6143 21.2411 15.8278C20.7384 17.0412 20.0009 18.1434 19.071 19.071C18.1434 20.0009 17.0412 20.7384 15.8278 21.2411C14.6143 21.7437 13.3135 22.0016 12 22C10.6866 22.0016 9.38572 21.7437 8.17225 21.2411C6.95878 20.7384 5.85659 20.0009 4.92901 19.071C3.99909 18.1434 3.26162 17.0412 2.75897 15.8278C2.25631 14.6143 1.99839 13.3135 2.00001 12C1.99839 10.6866 2.25631 9.38572 2.75897 8.17225C3.26162 6.95878 3.99909 5.85659 4.92901 4.92901C5.85659 3.99909 6.95878 3.26162 8.17225 2.75897C9.38572 2.25631 10.6866 1.99839 12 2.00001Z" fill="currentColor"/>
<path fill-rule="evenodd" clip-rule="evenodd" d="M16.843 8.63629C17.0439 8.82574 17.0532 9.14219 16.8638 9.34309L11.2059 15.343C11.1114 15.4432 10.9798 15.5 10.8421 15.5C10.7044 15.5 10.5728 15.4432 10.4783 15.343L7.13624 11.799C6.94679 11.5981 6.95607 11.2817 7.15697 11.0922C7.35787 10.9028 7.67432 10.912 7.86377 11.1129L10.8421 14.2712L16.1362 8.65703C16.3257 8.45612 16.6421 8.44684 16.843 8.63629Z" fill="currentColor"/>
</svg>
