<svg width="24" height="24" viewBox="0 0 24 24" fill="currentColor" xmlns="http://www.w3.org/2000/svg">
<rect width="24" height="24" fill="currentColor"/>
<g id="Icons - SET 2 Trazados - definitivo">
<rect x="-336" y="-688" width="1144" height="907" rx="20" fill="currentColor"/>
<g id="table">
<g id="row-8">
<g id="eb-icon-chevron_right">
<path id="Vector" fill-rule="evenodd" clip-rule="evenodd" d="M14.2389 11.3268L8.63618 5.35045C8.44738 5.14899 8.45758 4.83257 8.65898 4.64371C8.86048 4.45485 9.17688 4.46506 9.36578 4.66651L14.9687 10.6431C15.3127 11.0105 15.501 11.5022 15.501 12.0085C15.501 12.5148 15.3129 13.0063 14.9689 13.3737L9.36578 19.3505C9.17688 19.5519 8.86048 19.5621 8.65898 19.3733C8.45758 19.1844 8.44738 18.868 8.63618 18.6665L14.2389 12.6902C14.4034 12.5145 14.501 12.2698 14.501 12.0085C14.501 11.7472 14.4034 11.5025 14.2389 11.3268Z" fill="currentColor"/>
</g>
</g>
</g>
</g>
</svg>
