<svg width="24" height="24" viewBox="0 0 24 24" fill="currentColor" xmlns="http://www.w3.org/2000/svg">
<rect width="24" height="24" fill="currentColor"/>
<g id="Icons - SET 2 Trazados - definitivo">
<rect x="-208" y="-688" width="1144" height="907" rx="20" fill="currentColor"/>
<g id="table">
<g id="row-8">
<g id="eb-icon-chevron_down">
<path id="Vector" fill-rule="evenodd" clip-rule="evenodd" d="M11.3193 14.2464L5.34294 8.64371C5.14148 8.45485 4.82506 8.46506 4.6362 8.66651C4.44734 8.86797 4.45755 9.18439 4.659 9.37325L10.6356 14.9762C11.003 15.3202 11.4947 15.5085 12.001 15.5085C12.5073 15.5085 12.9988 15.3204 13.3662 14.9764L19.343 9.37325C19.5444 9.18439 19.5546 8.86797 19.3658 8.66651C19.1769 8.46506 18.8605 8.45485 18.659 8.64371L12.6827 14.2464C12.507 14.4109 12.2623 14.5085 12.001 14.5085C11.7397 14.5085 11.495 14.4109 11.3193 14.2464Z" fill="currentColor"/>
</g>
</g>
</g>
</g>
</svg>
