<svg width="24" height="24" viewBox="0 0 24 24" fill="currentColor" xmlns="http://www.w3.org/2000/svg">
<rect width="24" height="24" fill="currentColor"/>
<g id="Icons - SET 2 Trazados - definitivo">
<rect x="-272" y="-688" width="1144" height="907" rx="20" fill="currentColor"/>
<g id="table">
<g id="row-8">
<g id="eb-icon-chevron_up">
<path id="Vector" fill-rule="evenodd" clip-rule="evenodd" d="M11.3193 9.77054L5.34294 15.3733C5.14148 15.5621 4.82506 15.5519 4.6362 15.3505C4.44734 15.149 4.45755 14.8326 4.659 14.6437L10.6356 9.04078C11.003 8.69678 11.4947 8.50848 12.001 8.50848C12.5073 8.50848 12.9988 8.69657 13.3662 9.04057L19.343 14.6437C19.5444 14.8326 19.5546 15.149 19.3658 15.3505C19.1769 15.5519 18.8605 15.5621 18.659 15.3733L12.6827 9.77054C12.507 9.60604 12.2623 9.50848 12.001 9.50848C11.7397 9.50848 11.495 9.60604 11.3193 9.77054Z" fill="currentColor"/>
</g>
</g>
</g>
</g>
</svg>
