<svg width="24" height="24" viewBox="0 0 24 24" fill="currentColor" xmlns="http://www.w3.org/2000/svg">
<rect width="24" height="24" fill="currentColor"/>
<g id="Icons - SET 2 Trazados - definitivo">
<rect x="-732" y="-1110" width="1144" height="1538" rx="20" fill="currentColor"/>
<g id="eb-icon-clock">
<g id="Vector">
<path fill-rule="evenodd" clip-rule="evenodd" d="M12 21C16.9706 21 21 16.9706 21 12C21 7.02944 16.9706 3 12 3C7.02944 3 3 7.02944 3 12C3 16.9706 7.02944 21 12 21ZM22 12C22 17.5228 17.5228 22 12 22C6.47715 22 2 17.5228 2 12C2 6.47715 6.47715 2 12 2C17.5228 2 22 6.47715 22 12Z" fill="currentColor"/>
<path fill-rule="evenodd" clip-rule="evenodd" d="M10.8889 7.05566C11.1651 7.05566 11.3889 7.27952 11.3889 7.55566V12.6112H16.4445C16.7206 12.6112 16.9445 12.8351 16.9445 13.1112C16.9445 13.3874 16.7206 13.6112 16.4445 13.6112H10.8889C10.6128 13.6112 10.3889 13.3874 10.3889 13.1112V7.55566C10.3889 7.27952 10.6128 7.05566 10.8889 7.05566Z" fill="currentColor"/>
</g>
</g>
</g>
</svg>
