<svg width="24" height="24" viewBox="0 0 24 24" fill="currentColor" xmlns="http://www.w3.org/2000/svg">
<rect width="24" height="24" fill="currentColor"/>
<g id="Icons - SET 2 Trazados - definitivo">
<rect x="-916" y="-540" width="1144" height="1538" rx="20" fill="currentColor"/>
<g id="table">
<g id="row-8">
<g id="eb-icon-close">
<path id="Vector" fill-rule="evenodd" clip-rule="evenodd" d="M4.31691 3.22595C4.01565 2.92468 3.52721 2.92468 3.22595 3.22595C2.92468 3.52721 2.92468 4.01565 3.22595 4.31691L10.909 12L3.22595 19.6831C2.92468 19.9844 2.92468 20.4728 3.22595 20.7741C3.52721 21.0753 4.01565 21.0753 4.31691 20.7741L12 13.091L19.6831 20.7741C19.9844 21.0753 20.4728 21.0753 20.7741 20.7741C21.0753 20.4728 21.0753 19.9844 20.7741 19.6831L13.091 12L20.7741 4.31691C21.0753 4.01565 21.0753 3.52721 20.7741 3.22595C20.4728 2.92468 19.9844 2.92468 19.6831 3.22595L12 10.909L4.31691 3.22595Z" fill="currentColor"/>
</g>
</g>
</g>
</g>
</svg>
