<svg width="25" height="25" viewBox="0 0 25 25" fill="currentColor" xmlns="http://www.w3.org/2000/svg">
<path d="M9.78062 15.644C9.65362 15.644 9.52662 15.596 9.42862 15.499C9.23262 15.305 9.23062 14.988 9.42462 14.792C10.2076 14.001 11.2496 13.565 12.3586 13.565C13.4676 13.565 14.5086 14.001 15.2936 14.792C15.4876 14.987 15.4856 15.304 15.2896 15.499C15.0956 15.693 14.7786 15.69 14.5826 15.495C13.3946 14.296 11.3236 14.297 10.1356 15.495C10.0376 15.594 9.90862 15.643 9.78062 15.643V15.644ZM7.56962 13.412C7.44262 13.412 7.31562 13.364 7.21762 13.267C7.02162 13.073 7.01962 12.756 7.21362 12.56C8.58762 11.172 10.4146 10.407 12.3576 10.407C14.3006 10.407 16.1286 11.172 17.5036 12.56C17.6976 12.756 17.6956 13.073 17.4996 13.267C17.3036 13.462 16.9866 13.458 16.7926 13.263C15.6076 12.066 14.0326 11.407 12.3586 11.407C10.6846 11.407 9.10962 12.066 7.92462 13.263C7.82662 13.362 7.69762 13.411 7.56962 13.411V13.412ZM19.3596 11.179C19.2306 11.179 19.1016 11.13 19.0046 11.031C17.2296 9.23802 14.8696 8.25002 12.3596 8.25002C9.84962 8.25002 7.48962 9.23702 5.71462 11.031C5.52062 11.228 5.20262 11.229 5.00762 11.035C4.81162 10.841 4.80962 10.524 5.00362 10.328C6.96862 8.34302 9.58062 7.25002 12.3586 7.25002C15.1366 7.25002 17.7496 8.34302 19.7136 10.328C19.9076 10.524 19.9056 10.841 19.7096 11.035C19.6116 11.131 19.4846 11.18 19.3576 11.18L19.3596 11.179Z" fill="currentColor"/>
<path d="M12.3596 17.749C12.7738 17.749 13.1096 17.4132 13.1096 16.999C13.1096 16.5848 12.7738 16.249 12.3596 16.249C11.9454 16.249 11.6096 16.5848 11.6096 16.999C11.6096 17.4132 11.9454 17.749 12.3596 17.749Z" fill="currentColor"/>
<path d="M12.3596 22.249C6.84562 22.249 2.35962 17.763 2.35962 12.249C2.35962 6.73502 6.84562 2.24902 12.3596 2.24902C17.8736 2.24902 22.3596 6.73502 22.3596 12.249C22.3596 17.763 17.8736 22.249 12.3596 22.249ZM12.3596 3.24902C7.39762 3.24902 3.35962 7.28702 3.35962 12.249C3.35962 17.211 7.39762 21.249 12.3596 21.249C17.3216 21.249 21.3596 17.212 21.3596 12.249C21.3596 7.28602 17.3226 3.24902 12.3596 3.24902Z" fill="currentColor"/>
</svg>
