<svg width="25" height="25" viewBox="0 0 25 25" fill="currentColor" xmlns="http://www.w3.org/2000/svg">
<path d="M20.8606 7.83802H16.7726V3.74902C16.7726 2.92202 16.0996 2.24902 15.2726 2.24902H3.8606C3.0336 2.24902 2.3606 2.92202 2.3606 3.74902V15.161C2.3606 15.988 3.0336 16.661 3.8606 16.661H7.9486V20.749C7.9486 21.576 8.6216 22.249 9.4486 22.249H20.8606C21.6876 22.249 22.3606 21.576 22.3606 20.749V9.33702C22.3606 8.51002 21.6876 7.83702 20.8606 7.83702V7.83802ZM3.8606 15.662C3.5846 15.662 3.3606 15.437 3.3606 15.162V3.74902C3.3606 3.47302 3.5846 3.24902 3.8606 3.24902H15.2726C15.5476 3.24902 15.7726 3.47302 15.7726 3.74902V7.83702H9.4486C8.6216 7.83702 7.9486 8.51002 7.9486 9.33702V15.661H3.8606V15.662ZM21.3606 20.749C21.3606 21.024 21.1356 21.249 20.8606 21.249H9.4486C9.1726 21.249 8.9486 21.024 8.9486 20.749V9.33702C8.9486 9.06102 9.1726 8.83702 9.4486 8.83702H20.8606C21.1356 8.83702 21.3606 9.06102 21.3606 9.33702V20.749Z" fill="currentColor"/>
</svg>
