<svg width="25" height="25" viewBox="0 0 25 25" fill="currentColor" xmlns="http://www.w3.org/2000/svg">
<path d="M10.3416 6.27103H11.8626V7.79103C11.8626 8.06703 12.0866 8.29103 12.3626 8.29103C12.6386 8.29103 12.8626 8.06703 12.8626 7.79103V6.27103H14.3836C14.6596 6.27103 14.8836 6.04703 14.8836 5.77103C14.8836 5.49503 14.6596 5.27103 14.3836 5.27103H12.8626V3.75003C12.8626 3.47403 12.6386 3.25003 12.3626 3.25003C12.0866 3.25003 11.8626 3.47403 11.8626 3.75003V5.27103H10.3416C10.0656 5.27103 9.84157 5.49503 9.84157 5.77103C9.84157 6.04703 10.0656 6.27103 10.3416 6.27103Z" fill="currentColor"/>
<path d="M6.36157 15.25C7.46457 15.25 8.36157 14.353 8.36157 13.25C8.36157 12.147 7.46457 11.25 6.36157 11.25C5.25857 11.25 4.36157 12.147 4.36157 13.25C4.36157 14.353 5.25857 15.25 6.36157 15.25ZM6.36157 12.25C6.91257 12.25 7.36157 12.699 7.36157 13.25C7.36157 13.801 6.91257 14.25 6.36157 14.25C5.81057 14.25 5.36157 13.802 5.36157 13.25C5.36157 12.698 5.81057 12.25 6.36157 12.25Z" fill="currentColor"/>
<path d="M19.8616 13.208H10.8616C9.48057 13.208 8.36157 14.327 8.36157 15.708V15.773H3.36157V10.749C3.36157 10.473 3.13757 10.249 2.86157 10.249C2.58557 10.249 2.36157 10.473 2.36157 10.749V20.749C2.36157 21.025 2.58557 21.249 2.86157 21.249C3.13757 21.249 3.36157 21.025 3.36157 20.749V18.756H21.3616V20.749C21.3616 21.025 21.5856 21.249 21.8616 21.249C22.1376 21.249 22.3616 21.025 22.3616 20.749V15.709C22.3616 14.328 21.2426 13.209 19.8616 13.209V13.208ZM9.36157 15.708C9.36157 14.88 10.0336 14.208 10.8616 14.208H11.8616V15.773H9.36157V15.708ZM3.36157 16.773H11.8616V17.755H3.36157V16.773ZM12.8616 17.755V14.208H19.8616C20.6896 14.208 21.3616 14.88 21.3616 15.708V17.755H12.8616Z" fill="currentColor"/>
</svg>
