<svg width="25" height="25" viewBox="0 0 25 25" fill="currentColor" xmlns="http://www.w3.org/2000/svg">
<path fill-rule="evenodd" clip-rule="evenodd" d="M16.1395 5.35C16.1395 5.07386 16.3634 4.85 16.6395 4.85H16.7587C17.1243 4.85 17.4856 4.92585 17.8218 5.07247C18.1579 5.21907 18.4616 5.43319 18.7163 5.70129C18.9708 5.96933 19.1715 6.28617 19.308 6.63308C19.4444 6.97996 19.5144 7.35092 19.5144 7.725V7.8815C19.5144 8.15764 19.2905 8.3815 19.0144 8.3815C18.7383 8.3815 18.5144 8.15764 18.5144 7.8815V7.725C18.5144 7.47529 18.4677 7.22859 18.3774 6.99917C18.2872 6.76979 18.1555 6.56299 17.9912 6.38995C17.8269 6.21697 17.6332 6.08121 17.422 5.98909C17.2109 5.89701 16.9856 5.85 16.7587 5.85H16.6395C16.3634 5.85 16.1395 5.62614 16.1395 5.35Z" fill="currentColor"/>
<path fill-rule="evenodd" clip-rule="evenodd" d="M7.08779 2.01489C7.90132 1.95284 8.71502 2.08199 9.2634 2.46877C10.1986 3.12838 10.7903 3.43254 11.2276 3.57802C11.6499 3.71852 11.9511 3.72033 12.3645 3.72033C12.7779 3.72033 13.0792 3.71852 13.5015 3.57802C13.9387 3.43254 14.5304 3.12839 15.4656 2.46877C16.014 2.08199 16.8277 1.95284 17.6412 2.01489C18.4723 2.07828 19.3877 2.34616 20.1917 2.85052C20.9994 3.35726 21.7042 4.10981 22.0794 5.13851C22.4551 6.16836 22.4836 7.42836 22.0197 8.91994C21.7995 9.628 21.5341 10.2254 21.2625 10.786C21.1669 10.9834 21.0727 11.172 20.9797 11.3581C20.8034 11.7112 20.6316 12.0552 20.4633 12.4325C19.9656 13.5482 19.5342 14.8845 19.4139 17.0804C19.2603 19.8817 18.5556 21.2662 17.599 21.779C17.1156 22.0382 16.6283 22.0374 16.242 21.9389C15.8752 21.8454 15.5496 21.6509 15.3729 21.4432C15.302 21.3598 15.225 21.2268 15.1589 21.1077C15.0836 20.972 14.9923 20.7974 14.8895 20.5944C14.6833 20.1876 14.4237 19.6528 14.1402 19.0573C13.5727 17.8654 12.9042 16.4191 12.3665 15.2427L12.3661 15.2417H12.363L12.3625 15.2427C11.8248 16.4191 11.1563 17.8654 10.5889 19.0573C10.3053 19.6528 10.0457 20.1876 9.83956 20.5944C9.73669 20.7974 9.64538 20.972 9.57009 21.1077C9.50405 21.2268 9.42698 21.3598 9.35607 21.4432C9.17937 21.6509 8.8538 21.8454 8.48705 21.9389C8.10069 22.0374 7.61344 22.0382 7.13 21.779C6.17344 21.2662 5.46868 19.8817 5.31513 17.0804C5.19477 14.8845 4.7634 13.5482 4.26568 12.4325C4.09741 12.0552 3.92559 11.7112 3.74925 11.3581C3.6563 11.172 3.5621 10.9834 3.46649 10.786C3.19486 10.2254 2.9295 9.628 2.7093 8.91994C2.24544 7.42836 2.27389 6.16836 2.64957 5.13851C3.02483 4.10981 3.72965 3.35726 4.53735 2.85052C5.34127 2.34616 6.25673 2.07828 7.08779 2.01489ZM3.58902 5.48121C3.30234 6.26709 3.25217 7.29809 3.66419 8.62299C3.86354 9.26402 4.10543 9.8113 4.36643 10.35C4.45117 10.5249 4.53998 10.7028 4.63048 10.8842C4.81301 11.2499 5.00238 11.6293 5.17893 12.0251C5.72331 13.2454 6.18621 14.7008 6.31364 17.0257C6.46475 19.7827 7.15001 20.6551 7.6025 20.8977C7.82359 21.0162 8.04563 21.0194 8.24002 20.9699C8.33848 20.9448 8.42514 20.907 8.49231 20.8681C8.56205 20.8278 8.59249 20.7971 8.59429 20.7953C8.59429 20.7953 8.59407 20.7952 8.59737 20.7901C8.60732 20.7745 8.63866 20.7253 8.69561 20.6227C8.76216 20.5027 8.84707 20.3406 8.94754 20.1424C9.14812 19.7465 9.40366 19.2203 9.68598 18.6274C10.2502 17.4423 10.9162 16.0013 11.453 14.827C11.8097 14.0466 12.9193 14.0466 13.276 14.827C13.8128 16.0013 14.4788 17.4423 15.043 18.6274C15.3254 19.2204 15.5809 19.7465 15.7815 20.1424C15.8819 20.3406 15.9668 20.5027 16.0334 20.6227C16.0903 20.7253 16.1217 20.7745 16.1316 20.7901C16.1348 20.7951 16.1347 20.7953 16.1347 20.7953C16.1367 20.7973 16.1672 20.8279 16.2367 20.8681C16.3039 20.907 16.3905 20.9448 16.489 20.9699C16.6834 21.0194 16.9054 21.0162 17.1265 20.8977C17.579 20.6551 18.2643 19.7827 18.4154 17.0257C18.5428 14.7008 19.0057 13.2454 19.5501 12.0251C19.7266 11.6293 19.916 11.2499 20.0985 10.8841C20.189 10.7028 20.2778 10.5249 20.3626 10.35C20.6236 9.8113 20.8655 9.26402 21.0648 8.62299C21.4768 7.29809 21.4267 6.26709 21.14 5.48121C20.8529 4.69418 20.3116 4.10628 19.6602 3.69761C19.005 3.28657 18.2484 3.06411 17.5652 3.012C16.8644 2.95855 16.3216 3.08875 16.042 3.28596C15.0731 3.96929 14.389 4.33662 13.8171 4.52689C13.2356 4.72037 12.7969 4.72035 12.376 4.72033H12.353C11.9321 4.72035 11.4934 4.72037 10.9119 4.52689C10.34 4.33662 9.65589 3.96929 8.68704 3.28596C8.40743 3.08875 7.8646 2.95855 7.16384 3.012C6.48059 3.06411 5.72398 3.28657 5.0688 3.69761C4.41742 4.10628 3.87612 4.69418 3.58902 5.48121Z" fill="currentColor"/>
</svg>
