<svg width="24" height="24" viewBox="0 0 24 24" fill="currentColor" xmlns="http://www.w3.org/2000/svg">
<path d="M17 7.00098C18.379 7.00098 19.5 5.87898 19.5 4.50098C19.5 3.12298 18.379 2.00098 17 2.00098C15.621 2.00098 14.5 3.12298 14.5 4.50098C14.5 5.87898 15.621 7.00098 17 7.00098ZM17 3.00098C17.827 3.00098 18.5 3.67398 18.5 4.50098C18.5 5.32798 17.827 6.00098 17 6.00098C16.173 6.00098 15.5 5.32798 15.5 4.50098C15.5 3.67398 16.173 3.00098 17 3.00098Z" fill="currentColor"/>
<path d="M19.5 19.501H17.981V13.924C17.981 13.538 17.668 13.224 17.282 13.224H15.313C14.879 12.397 14.257 11.686 13.505 11.142L15.607 7.90598C15.721 7.72898 15.75 7.51298 15.686 7.31298C15.622 7.11298 15.474 6.95398 15.279 6.87498L10.855 5.10398C10.518 4.96998 10.139 5.11198 9.97298 5.43398L8.05598 9.16098C7.92998 9.40698 8.02698 9.70798 8.27198 9.83398C8.51798 9.96198 8.81898 9.86298 8.94498 9.61798L10.737 6.13398L14.568 7.66698L12.648 10.624C11.848 10.228 10.952 9.99998 10.001 9.99998C6.69198 9.99998 4.00098 12.691 4.00098 16C4.00098 19.309 6.69198 22 10.001 22C13.31 22 16.001 19.309 16.001 16C16.001 15.381 15.907 14.785 15.732 14.223H16.982V20C16.982 20.276 17.206 20.5 17.482 20.5C17.485 20.5 17.488 20.498 17.491 20.498C17.494 20.498 17.497 20.5 17.5 20.5H19.5C19.776 20.5 20 20.276 20 20C20 19.724 19.776 19.501 19.5 19.501ZM9.99998 21.001C7.24298 21.001 4.99998 18.758 4.99998 16.001C4.99998 13.244 7.24298 11.001 9.99998 11.001C12.757 11.001 15 13.244 15 16.001C15 18.758 12.757 21.001 9.99998 21.001Z" fill="currentColor"/>
</svg>
