<svg width="24" height="24" viewBox="0 0 24 24" fill="currentColor" xmlns="http://www.w3.org/2000/svg">
<rect width="24" height="24" fill="currentColor"/>
<g id="Icons - SET 2 Trazados - definitivo">
<rect x="-380" y="-1154" width="1144" height="1538" rx="20" fill="currentColor"/>
<g id="eb-icon-doc_file">
<g id="Vector">
<path fill-rule="evenodd" clip-rule="evenodd" d="M10.1213 3.29289L5.29289 8.12132L4.58579 7.41421L9.41421 2.58579C9.78929 2.21071 10.298 2 10.8284 2H18C19.1046 2 20 2.89543 20 4V20C20 21.1046 19.1046 22 18 22H6C4.89543 22 4 21.1046 4 20V8.82843C4 8.29799 4.21071 7.78929 4.58579 7.41421L5.29289 8.12132C5.10536 8.30886 5 8.56321 5 8.82843V20C5 20.5523 5.44772 21 6 21H18C18.5523 21 19 20.5523 19 20V4C19 3.44772 18.5523 3 18 3H10.8284C10.5632 3 10.3089 3.10536 10.1213 3.29289Z" fill="currentColor"/>
<path fill-rule="evenodd" clip-rule="evenodd" d="M11 2.5V7.5C11 8.32843 10.3284 9 9.5 9H4.5V8H9.5C9.77614 8 10 7.77614 10 7.5V2.5H11Z" fill="currentColor"/>
<path d="M16.3182 16.06C15.1582 16.06 14.4432 15.375 14.4432 14.265C14.4432 13.15 15.1882 12.44 16.3732 12.44C16.8482 12.44 17.2382 12.525 17.5632 12.705V13.335C17.2632 13.165 16.8332 13.065 16.3982 13.065C15.6032 13.065 15.1582 13.495 15.1582 14.265C15.1582 15.01 15.6232 15.435 16.4282 15.435C16.8282 15.435 17.2582 15.34 17.5932 15.175V15.795C17.2282 15.975 16.8032 16.06 16.3182 16.06Z" fill="currentColor"/>
<path d="M12.1078 16.06C11.0328 16.06 10.2928 15.325 10.2928 14.245C10.2928 13.185 11.0328 12.44 12.1078 12.44C13.1928 12.44 13.9228 13.18 13.9228 14.245C13.9228 15.32 13.1828 16.06 12.1078 16.06ZM12.1078 15.435C12.7628 15.435 13.2128 14.955 13.2128 14.245C13.2128 13.545 12.7578 13.065 12.1078 13.065C11.4578 13.065 11.0078 13.54 11.0078 14.245C11.0078 14.95 11.4578 15.435 12.1078 15.435Z" fill="currentColor"/>
<path d="M8.00051 16H6.58051V12.5H8.00051C9.13551 12.5 9.77551 13.255 9.77551 14.24V14.25C9.77551 15.235 9.13551 16 8.00051 16ZM7.28051 13.115V15.385H7.91551C8.70051 15.385 9.06051 14.915 9.06051 14.26V14.25C9.06051 13.595 8.70051 13.115 7.91551 13.115H7.28051Z" fill="currentColor"/>
</g>
</g>
</g>
</svg>
