<svg width="24" height="24" viewBox="0 0 24 24" fill="currentColor" xmlns="http://www.w3.org/2000/svg">
<path fill-rule="evenodd" clip-rule="evenodd" d="M10.1213 3.29289L5.29289 8.12132L4.58579 7.41421L9.41421 2.58579C9.78929 2.21071 10.298 2 10.8284 2H18C19.1046 2 20 2.89543 20 4V20C20 21.1046 19.1046 22 18 22H6C4.89543 22 4 21.1046 4 20V8.82843C4 8.29799 4.21071 7.78929 4.58579 7.41421L5.29289 8.12132C5.10536 8.30886 5 8.56321 5 8.82843V20C5 20.5523 5.44772 21 6 21H18C18.5523 21 19 20.5523 19 20V4C19 3.44772 18.5523 3 18 3H10.8284C10.5632 3 10.3089 3.10536 10.1213 3.29289Z" fill="currentColor"/>
<path fill-rule="evenodd" clip-rule="evenodd" d="M11 2.5V7.5C11 8.32843 10.3284 9 9.5 9H4.5V8H9.5C9.77614 8 10 7.77614 10 7.5V2.5H11Z" fill="currentColor"/>
<path d="M15.9824 16H15.3624L16.3504 14.572L15.4024 13.2H16.0304L16.6904 14.148L17.3504 13.2H17.9664L17.0264 14.568L18.0064 16H17.3824L16.6824 14.992L15.9824 16Z" fill="currentColor"/>
<path d="M14.0053 16.048C13.0773 16.048 12.5053 15.5 12.5053 14.612C12.5053 13.72 13.1013 13.152 14.0493 13.152C14.4293 13.152 14.7413 13.22 15.0013 13.364V13.868C14.7613 13.732 14.4173 13.652 14.0693 13.652C13.4333 13.652 13.0773 13.996 13.0773 14.612C13.0773 15.208 13.4493 15.548 14.0933 15.548C14.4133 15.548 14.7573 15.472 15.0253 15.34V15.836C14.7333 15.98 14.3933 16.048 14.0053 16.048Z" fill="currentColor"/>
<path d="M10.637 16.048C9.77703 16.048 9.18503 15.46 9.18503 14.596C9.18503 13.748 9.77703 13.152 10.637 13.152C11.505 13.152 12.089 13.744 12.089 14.596C12.089 15.456 11.497 16.048 10.637 16.048ZM10.637 15.548C11.161 15.548 11.521 15.164 11.521 14.596C11.521 14.036 11.157 13.652 10.637 13.652C10.117 13.652 9.75703 14.032 9.75703 14.596C9.75703 15.16 10.117 15.548 10.637 15.548Z" fill="currentColor"/>
<path d="M7.35119 16H6.21519V13.2H7.35119C8.25919 13.2 8.77119 13.804 8.77119 14.592V14.6C8.77119 15.388 8.25919 16 7.35119 16ZM6.77519 13.692V15.508H7.28319C7.91119 15.508 8.19919 15.132 8.19919 14.608V14.6C8.19919 14.076 7.91119 13.692 7.28319 13.692H6.77519Z" fill="currentColor"/>
</svg>
