<svg width="24" height="24" viewBox="0 0 24 24" fill="currentColor" xmlns="http://www.w3.org/2000/svg">
<path d="M21.763 5.07401C21.531 4.93001 21.22 5.00301 21.075 5.24001L13.476 17.674L11.778 15.826L17.928 5.76201C18.072 5.52601 17.997 5.21901 17.762 5.07401C17.53 4.93001 17.22 5.00301 17.074 5.24001L9.47596 17.674L2.86896 10.484C2.68196 10.28 2.36696 10.268 2.16196 10.454C1.95896 10.641 1.94496 10.957 2.13196 11.161L9.18796 18.839C9.28296 18.943 9.41696 19.001 9.55596 19.001C9.57196 19.001 9.58796 19.001 9.60396 18.999C9.75996 18.983 9.89996 18.895 9.98196 18.762L11.234 16.713L13.187 18.839C13.282 18.943 13.416 19.001 13.555 19.001C13.571 19.001 13.587 19.001 13.604 18.999C13.76 18.983 13.9 18.895 13.982 18.762L21.926 5.76201C22.07 5.52601 21.995 5.21901 21.76 5.07401H21.763Z" fill="currentColor"/>
</svg>
