<svg width="24" height="24" viewBox="0 0 24 24" fill="currentColor" xmlns="http://www.w3.org/2000/svg">
<path d="M20.958 3.04599C20.288 2.37699 19.401 2.00499 18.459 1.99999C17.52 1.98899 16.629 2.35799 15.965 3.02299L14.992 3.99599C14.981 4.00499 14.972 4.015 14.963 4.025L3.413 15.575C3.353 15.634 3.306 15.707 3.281 15.793C3.278 15.806 3.274 15.818 3.272 15.83L2.017 21.391C1.979 21.559 2.03 21.734 2.151 21.855C2.246 21.95 2.373 22.001 2.505 22.001C2.542 22.001 2.579 21.997 2.615 21.988L8.177 20.733C8.182 20.733 8.188 20.731 8.193 20.729H8.195C8.202 20.727 8.209 20.725 8.216 20.723C8.3 20.698 8.372 20.652 8.429 20.593L20.981 8.041C22.351 6.67 22.34 4.42899 20.958 3.04599ZM3.166 20.838L4.117 16.623C5.125 17.135 6.745 18.385 7.407 19.881L3.166 20.838ZM8.262 19.345C7.463 17.662 5.761 16.367 4.631 15.771L15.459 4.94299C16.454 5.36799 18.473 6.74099 19.12 8.48599L8.262 19.345ZM20.275 7.33299L19.882 7.72599C19.079 6.05299 17.363 4.78299 16.209 4.19399L16.672 3.73099C17.143 3.25999 17.77 3.00099 18.44 3.00099H18.454C19.132 3.00499 19.769 3.27199 20.252 3.75399C21.245 4.74699 21.256 6.35199 20.275 7.33299Z" fill="currentColor"/>
</svg>
