<svg width="24" height="24" viewBox="0 0 24 24" fill="currentColor" xmlns="http://www.w3.org/2000/svg">
<rect width="24" height="24" fill="currentColor"/>
<g id="Icons - SET 2 Trazados - definitivo">
<rect x="-644" y="-1111" width="1144" height="1538" rx="20" fill="currentColor"/>
<g id="eb-icon-finances">
<g id="Vector">
<path fill-rule="evenodd" clip-rule="evenodd" d="M4.75 14C3.7835 14 3 14.7835 3 15.75V19.25C3 20.2165 3.7835 21 4.75 21C5.7165 21 6.5 20.2165 6.5 19.25V15.75C6.5 14.7835 5.7165 14 4.75 14ZM2 15.75C2 14.2312 3.23122 13 4.75 13C6.26878 13 7.5 14.2312 7.5 15.75V19.25C7.5 20.7688 6.26878 22 4.75 22C3.23122 22 2 20.7688 2 19.25V15.75Z" fill="currentColor"/>
<path fill-rule="evenodd" clip-rule="evenodd" d="M12 8C11.0335 8 10.25 8.7835 10.25 9.75V19.25C10.25 20.2165 11.0335 21 12 21C12.9665 21 13.75 20.2165 13.75 19.25V9.75C13.75 8.7835 12.9665 8 12 8ZM9.25 9.75C9.25 8.23122 10.4812 7 12 7C13.5188 7 14.75 8.23122 14.75 9.75V19.25C14.75 20.7688 13.5188 22 12 22C10.4812 22 9.25 20.7688 9.25 19.25V9.75Z" fill="currentColor"/>
<path fill-rule="evenodd" clip-rule="evenodd" d="M19.25 3C18.2835 3 17.5 3.7835 17.5 4.75V19.25C17.5 20.2165 18.2835 21 19.25 21C20.2165 21 21 20.2165 21 19.25V4.75C21 3.7835 20.2165 3 19.25 3ZM16.5 4.75C16.5 3.23122 17.7312 2 19.25 2C20.7688 2 22 3.23122 22 4.75V19.25C22 20.7688 20.7688 22 19.25 22C17.7312 22 16.5 20.7688 16.5 19.25V4.75Z" fill="currentColor"/>
</g>
</g>
</g>
</svg>
