<svg width="24" height="24" viewBox="0 0 24 24" fill="currentColor" xmlns="http://www.w3.org/2000/svg">
<rect width="24" height="24" fill="currentColor"/>
<g id="Icons - SET 2 Trazados - definitivo">
<rect x="-204" y="-1021" width="1144" height="1538" rx="20" fill="currentColor"/>
<g id="eb-icon-folder">
<path id="Vector" fill-rule="evenodd" clip-rule="evenodd" d="M21 18V8.58065C21 8.02836 20.5523 7.58065 20 7.58065H13.2393C12.5744 7.58065 11.9284 7.35981 11.4028 6.95282L9.15068 5.20928C8.97545 5.07361 8.76012 5 8.53851 5H4C3.44772 5 3 5.44772 3 6V18C3 18.5523 3.44772 19 4 19H20C20.5523 19 21 18.5523 21 18ZM2 6V18C2 19.1046 2.89543 20 4 20H20C21.1046 20 22 19.1046 22 18V8.58065C22 7.47608 21.1046 6.58065 20 6.58065H13.2393C12.7961 6.58065 12.3654 6.43342 12.0149 6.16209L9.76285 4.41855C9.41239 4.14723 8.98173 4 8.53851 4H4C2.89543 4 2 4.89543 2 6Z" fill="currentColor"/>
</g>
</g>
</svg>
