<svg width="24" height="24" viewBox="0 0 24 24" fill="currentColor" xmlns="http://www.w3.org/2000/svg">
<rect width="24" height="24" fill="currentColor"/>
<g id="Icons - SET 2 Trazados - definitivo">
<rect x="-160" y="-1155" width="1144" height="1538" rx="20" fill="currentColor"/>
<g id="eb-icon-settings">
<g id="Vector">
<path fill-rule="evenodd" clip-rule="evenodd" d="M13.2416 3.96317C12.7643 3.1251 11.491 3.16989 11.0788 4.03831C10.3993 5.4702 8.70347 6.17842 7.14827 5.68433L6.82991 5.58319C5.93776 5.29975 5.10728 6.12622 5.42336 6.96269C5.94861 8.35268 5.33531 9.90036 3.9831 10.6068C3.98309 10.6068 3.98312 10.6068 3.9831 10.6068L3.62927 10.7917C2.75547 11.2482 2.80106 12.4629 3.70794 12.8577C5.20076 13.5076 5.94378 15.133 5.42641 16.627C5.4264 16.627 5.42641 16.627 5.42641 16.627L5.32082 16.932C5.02842 17.7763 5.88196 18.5812 6.76582 18.2748C8.21285 17.7731 9.82705 18.3576 10.5654 19.6541L10.7092 19.9067C11.266 20.8844 12.7339 20.8844 13.2908 19.9068C13.2907 19.9068 13.2908 19.9067 13.2908 19.9068L13.4558 19.6169C14.1819 18.3418 15.7695 17.767 17.1925 18.2603C18.0486 18.557 18.8675 17.7632 18.5616 16.9536C18.045 15.5865 18.6482 14.0645 19.978 13.3697L20.3708 13.1645C21.2445 12.708 21.1989 11.4933 20.2921 11.0985C18.7993 10.4486 18.0562 8.82318 18.5736 7.32912L18.6792 7.02424C18.9716 6.17984 18.118 5.37508 17.2342 5.68147C15.7872 6.1831 14.1729 5.59863 13.4346 4.30207L13.2416 3.96317ZM14.1151 3.49579C14.1164 3.49807 14.1177 3.50036 14.119 3.50265L14.312 3.84156C14.8133 4.72173 15.9102 5.11976 16.8946 4.77853C18.5602 4.20114 20.1852 5.71828 19.6282 7.32705L19.5226 7.632C19.167 8.6585 19.6771 9.77667 20.7051 10.2242C22.3635 10.9463 22.4479 13.1723 20.8488 14.0077L20.456 14.2129C19.5594 14.6814 19.154 15.7064 19.5016 16.6262C20.0981 18.2046 18.5024 19.735 16.8529 19.1632C15.8926 18.8303 14.8223 19.2186 14.3332 20.0773C14.3332 20.0774 14.3333 20.0773 14.3332 20.0773L14.1682 20.3672C13.2321 22.0108 10.7679 22.0109 9.83179 20.3672L9.68798 20.1146C9.18675 19.2345 8.08979 18.8365 7.10546 19.1777C5.43993 19.7551 3.81476 18.238 4.37186 16.6292C4.37185 16.6292 4.37186 16.6292 4.37186 16.6292L4.47745 16.3242C4.83295 15.2977 4.32293 14.1795 3.29492 13.732C1.63656 13.01 1.55207 10.784 3.15118 9.94852C3.15117 9.94853 3.1512 9.94851 3.15118 9.94852L3.50501 9.76363C4.42399 9.28354 4.83954 8.23281 4.4833 7.29006C3.88104 5.69623 5.46289 4.13768 7.14409 4.6718L7.46245 4.77294C7.46245 4.77294 7.46245 4.77294 7.46245 4.77294C8.53427 5.11346 9.70162 4.62486 10.1688 3.64031C10.8504 2.20417 12.8158 2.00025 13.831 3.10675L13.8791 3.08149L14.1151 3.49579Z" fill="currentColor"/>
<path fill-rule="evenodd" clip-rule="evenodd" d="M12 9.6C10.6193 9.6 9.5 10.6745 9.5 12C9.5 13.3255 10.6193 14.4 12 14.4C13.3807 14.4 14.5 13.3255 14.5 12C14.5 10.6745 13.3807 9.6 12 9.6ZM8.5 12C8.5 10.1443 10.067 8.64 12 8.64C13.933 8.64 15.5 10.1443 15.5 12C15.5 13.8557 13.933 15.36 12 15.36C10.067 15.36 8.5 13.8557 8.5 12Z" fill="currentColor"/>
</g>
</g>
</g>
</svg>
