<svg width="24" height="24" viewBox="0 0 24 24" fill="currentColor" xmlns="http://www.w3.org/2000/svg">
<rect width="24" height="24" fill="currentColor"/>
<g id="Icons - SET 2 Trazados - definitivo">
<rect x="-72" y="-1066" width="1144" height="1538" rx="20" fill="currentColor"/>
<g id="eb-icon-gif_file">
<g id="Vector">
<path fill-rule="evenodd" clip-rule="evenodd" d="M10.1213 3.29289L5.29289 8.12132L4.58579 7.41421L9.41421 2.58579C9.78929 2.21071 10.298 2 10.8284 2H18C19.1046 2 20 2.89543 20 4V20C20 21.1046 19.1046 22 18 22H6C4.89543 22 4 21.1046 4 20V8.82843C4 8.29799 4.21071 7.78929 4.58579 7.41421L5.29289 8.12132C5.10536 8.30886 5 8.56321 5 8.82843V20C5 20.5523 5.44772 21 6 21H18C18.5523 21 19 20.5523 19 20V4C19 3.44772 18.5523 3 18 3H10.8284C10.5632 3 10.3089 3.10536 10.1213 3.29289Z" fill="currentColor"/>
<path fill-rule="evenodd" clip-rule="evenodd" d="M11 2.5V7.5C11 8.32843 10.3284 9 9.5 9H4.5V8H9.5C9.77614 8 10 7.77614 10 7.5V2.5H11Z" fill="currentColor"/>
<path d="M14.7483 16H14.0483V12.5H16.6733V13.105H14.7483V14.095H16.4483V14.69H14.7483V16Z" fill="currentColor"/>
<path d="M13.176 16H12.476V12.5H13.176V16Z" fill="currentColor"/>
<path d="M10.1002 14.515V13.96H11.7052V16H11.1902V15.455C11.0202 15.845 10.6302 16.06 10.0502 16.06C9.02023 16.06 8.40023 15.405 8.40023 14.315C8.40023 13.175 9.15023 12.44 10.3502 12.44C10.8152 12.44 11.2052 12.525 11.5202 12.705V13.335C11.2252 13.165 10.8002 13.065 10.3752 13.065C9.57023 13.065 9.11523 13.53 9.11523 14.315C9.11523 15.04 9.50023 15.435 10.2152 15.435C10.7702 15.435 11.1002 15.135 11.1002 14.635V14.515H10.1002Z" fill="currentColor"/>
</g>
</g>
</g>
</svg>
