<svg width="24" height="24" viewBox="0 0 24 24" fill="currentColor" xmlns="http://www.w3.org/2000/svg">
<path d="M13.509 5.5H4.50903C4.23303 5.5 4.00903 5.276 4.00903 5C4.00903 4.724 4.23303 4.5 4.50903 4.5H13.509C13.785 4.5 14.009 4.724 14.009 5C14.009 5.276 13.785 5.5 13.509 5.5Z" fill="currentColor"/>
<path d="M19.509 12.5H4.50903C4.23303 12.5 4.00903 12.276 4.00903 12C4.00903 11.724 4.23303 11.5 4.50903 11.5H19.509C19.785 11.5 20.009 11.724 20.009 12C20.009 12.276 19.785 12.5 19.509 12.5Z" fill="currentColor"/>
<path d="M16.509 19.5H4.50903C4.23303 19.5 4.00903 19.276 4.00903 19C4.00903 18.724 4.23303 18.5 4.50903 18.5H16.509C16.785 18.5 17.009 18.724 17.009 19C17.009 19.276 16.785 19.5 16.509 19.5Z" fill="currentColor"/>
</svg>
