<svg width="25" height="24" viewBox="0 0 25 24" fill="currentColor" xmlns="http://www.w3.org/2000/svg">
<path d="M18.51 3H16.401C16.154 2.413 15.488 2 14.677 2H9.34401C8.53201 2 7.86701 2.413 7.61901 3H5.51001C4.13201 3 3.01001 4.122 3.01001 5.5V19.5C3.01001 20.879 4.13201 22 5.51001 22H18.51C19.889 22 21.01 20.879 21.01 19.5V5.5C21.01 4.122 19.889 3 18.51 3ZM9.34301 3H14.676C15.153 3 15.509 3.264 15.509 3.5C15.509 3.736 15.153 4 14.676 4H9.34301C8.86601 4 8.51001 3.736 8.51001 3.5C8.51001 3.264 8.86601 3 9.34301 3ZM20.01 19.5C20.01 20.327 19.337 21 18.51 21H5.51001C4.68301 21 4.01001 20.327 4.01001 19.5V5.5C4.01001 4.673 4.68301 4 5.51001 4H7.61901C7.86601 4.587 8.53201 5 9.34401 5H14.677C15.489 5 16.154 4.587 16.401 4H18.51C19.337 4 20.01 4.673 20.01 5.5V19.5Z" fill="currentColor"/>
<path d="M16.01 13.125H14.77L13.362 9.368C13.301 9.209 13.146 9.101 12.974 9.127C12.805 9.143 12.668 9.271 12.64 9.439L11.844 14.217L10.552 11.346C10.491 11.211 10.358 11.125 10.21 11.125C10.062 11.125 9.92901 11.211 9.86801 11.346L9.06701 13.125H8.00901C7.80201 13.125 7.63401 13.293 7.63401 13.5C7.63401 13.707 7.80201 13.875 8.00901 13.875H9.30901C9.45601 13.875 9.59001 13.788 9.65101 13.654L10.21 12.413L11.668 15.654C11.729 15.79 11.864 15.875 12.01 15.875C12.026 15.875 12.042 15.875 12.058 15.872C12.222 15.851 12.352 15.725 12.38 15.561L13.15 10.941L14.159 13.631C14.215 13.777 14.354 13.874 14.511 13.874H16.011C16.218 13.874 16.386 13.706 16.386 13.499C16.386 13.292 16.218 13.124 16.011 13.124L16.01 13.125Z" fill="currentColor"/>
</svg>
