<svg width="25" height="24" viewBox="0 0 25 24" fill="currentColor" xmlns="http://www.w3.org/2000/svg">
<path d="M16.011 2.00047C14.606 2.00047 13.341 2.41047 12.294 3.15247C11.648 2.43247 10.725 2.00047 9.74404 2.00047L9.29004 2.00547C6.76004 2.12047 4.73204 4.20247 4.67404 6.74847L5.46904 10.7495L5.53204 10.9435C5.70904 11.4345 5.98704 11.8715 6.35804 12.2435C6.47104 12.3565 6.53304 12.5075 6.53304 12.6675V13.8025C6.53304 14.2145 6.27404 14.5905 5.88904 14.7375L4.34104 15.3325C3.34104 15.7805 2.63804 16.7465 2.45904 17.9175L2.02004 20.8665L2.01004 20.9935C2.00604 21.4875 2.37304 21.9165 2.85704 21.9885L3.01004 22.0005H16.027L16.153 21.9905C16.643 21.9215 17.013 21.4965 17.013 21.0005L16.554 17.9085L16.513 17.6905C16.265 16.5385 15.502 15.6265 14.475 15.2515L13.117 14.7345C12.732 14.5885 12.473 14.2135 12.473 13.8005V12.7085C12.473 12.5345 12.54 12.3705 12.672 12.2365L12.827 12.0695C12.904 11.9815 12.958 11.8795 13.025 11.7855C13.386 11.9645 13.76 12.1255 14.143 12.2375C14.016 12.9885 14.329 13.5905 14.747 13.8755C14.94 14.0075 15.151 14.0725 15.355 14.0725C15.594 14.0725 15.824 13.9825 16.001 13.8045L17.388 12.4425C17.456 12.3755 17.552 12.3245 17.663 12.2965C20.223 11.6565 22.011 9.58147 22.011 7.24847C22.011 4.35347 19.32 1.99847 16.011 1.99847V2.00047ZM12.085 11.4005L11.95 11.5455C11.642 11.8575 11.473 12.2715 11.473 12.7095V13.8015C11.473 14.6265 11.992 15.3775 12.763 15.6695L14.132 16.1905C14.836 16.4475 15.361 17.0865 15.533 17.8855L15.999 20.9995L3.01304 20.9845L3.44804 18.0645C3.57504 17.2335 4.06204 16.5525 4.73304 16.2515L6.24604 15.6715C7.01604 15.3785 7.53404 14.6265 7.53404 13.8025V12.6675C7.53404 12.2405 7.36804 11.8385 7.06704 11.5375C6.80004 11.2695 6.60104 10.9545 6.47904 10.6195L5.67504 6.76747C5.72104 4.74847 7.32904 3.09547 9.32504 3.00447L9.51804 3.00047H9.74504C10.615 3.00047 11.426 3.47547 11.861 4.23847C12.106 4.66847 12.491 5.03047 13.04 5.34747C13.213 5.44747 13.328 5.62447 13.349 5.83347L13.046 7.84147L13.042 7.87347C12.917 8.93547 12.767 9.80847 12.602 10.4525C12.498 10.8095 12.321 11.1325 12.086 11.4015L12.085 11.4005ZM17.421 11.3295C17.137 11.4005 16.883 11.5395 16.687 11.7325L15.358 13.0745C15.341 13.0725 15.262 13.0375 15.195 12.9185C15.077 12.7085 15.09 12.4025 15.23 12.0805L15.479 11.5115L14.87 11.3905C14.407 11.2985 13.937 11.1165 13.493 10.8975C13.514 10.8355 13.548 10.7825 13.567 10.7185C13.748 10.0145 13.905 9.09747 14.036 7.98747L14.338 5.98447C14.349 5.91647 14.352 5.84847 14.344 5.72147C14.292 5.20547 13.991 4.74247 13.541 4.48347C13.254 4.31647 13.056 4.13747 12.898 3.94847C13.771 3.33947 14.83 3.00247 16.013 3.00247C18.77 3.00247 21.013 4.90947 21.013 7.25247C21.013 9.12547 19.536 10.8025 17.423 11.3315L17.421 11.3295Z" fill="currentColor"/>
</svg>
