<svg width="24" height="24" viewBox="0 0 24 24" fill="currentColor" xmlns="http://www.w3.org/2000/svg">
<path fill-rule="evenodd" clip-rule="evenodd" d="M21 19.9423V10.6425C21 10.33 20.8619 10.0344 20.6247 9.83912L12.6247 3.25433C12.2595 2.95372 11.7405 2.95372 11.3753 3.25433L3.3753 9.83912C3.13809 10.0344 3 10.33 3 10.6425V19.9423C3 20.5105 3.44772 20.9711 4 20.9711H8C8.55229 20.9711 9 20.5105 9 19.9423V16.8556C9 15.7192 9.89543 14.7979 11 14.7979H13C14.1046 14.7979 15 15.7192 15 16.8556V19.9423C15 20.5105 15.4477 20.9711 16 20.9711H20C20.5523 20.9711 21 20.5105 21 19.9423ZM22 10.6425V19.9423C22 21.0787 21.1046 22 20 22H16C14.8954 22 14 21.0787 14 19.9423V16.8556C14 16.2874 13.5523 15.8268 13 15.8268H11C10.4477 15.8268 10 16.2874 10 16.8556V19.9423C10 21.0787 9.10457 22 8 22H4C2.89543 22 2 21.0787 2 19.9423V10.6425C2 10.0174 2.27618 9.4262 2.75061 9.0357L10.7506 2.45092C11.481 1.84969 12.519 1.84969 13.2494 2.45092L21.2494 9.0357C21.7238 9.4262 22 10.0174 22 10.6425Z" fill="currentColor"/>
</svg>
