<svg width="24" height="24" viewBox="0 0 24 24" fill="currentColor" xmlns="http://www.w3.org/2000/svg">
<path d="M17 4.5C17 3.122 15.879 2 14.5 2H8.562C7.907 2 7.289 2.251 6.82 2.707L2.758 6.653C2.277 7.121 2 7.775 2 8.446V17.501C2 18.88 3.122 20.001 4.5 20.001H13.026C13.94 21.208 15.374 22.001 17 22.001C19.757 22.001 22 19.758 22 17.001C22 14.244 19.757 12.001 17 12.001V4.5ZM7.517 3.424C7.658 3.287 7.822 3.181 8 3.109V7.5C8 7.776 7.776 8 7.5 8H3.076C3.15 7.764 3.275 7.544 3.455 7.369L7.517 3.424ZM4.5 19C3.673 19 3 18.327 3 17.5V9H7.5C8.327 9 9 8.327 9 7.5V3H14.5C15.327 3 16 3.673 16 4.5V12.101C13.721 12.566 12 14.585 12 17C12 17.712 12.154 18.386 12.424 19H4.5ZM17 21C14.794 21 13 19.206 13 17C13 14.794 14.794 13 17 13C19.206 13 21 14.794 21 17C21 19.206 19.206 21 17 21Z" fill="currentColor"/>
<path d="M19.701 15.697L18.299 14.295C18.016 14.012 17.546 14.059 17.324 14.391L16.96 14.937L15.616 15.092C15.334 15.125 15.107 15.342 15.063 15.622L14.503 19.172C14.488 19.267 14.519 19.363 14.587 19.431C14.655 19.499 14.751 19.53 14.846 19.515L18.385 18.956C18.675 18.91 18.896 18.671 18.918 18.377L19.02 17.001L19.563 16.695C19.929 16.489 19.997 15.992 19.7 15.695L19.701 15.697ZM18.292 18.365L15.16 18.86L15.656 15.717C15.658 15.702 15.67 15.691 15.685 15.689L17.023 15.535L18.423 16.935L18.319 18.334C18.318 18.349 18.306 18.362 18.291 18.364L18.292 18.365ZM17.52 15.182L17.825 14.725C17.837 14.707 17.861 14.705 17.876 14.72L19.278 16.122C19.294 16.138 19.29 16.164 19.271 16.175L18.786 16.448L17.52 15.182Z" fill="currentColor"/>
<path d="M16.8 16.62C17.131 16.62 17.4 16.889 17.4 17.22C17.4 17.551 17.131 17.82 16.8 17.82C16.469 17.82 16.2 17.551 16.2 17.22C16.2 16.889 16.469 16.62 16.8 16.62Z" fill="currentColor"/>
</svg>
