<svg width="24" height="25" viewBox="0 0 24 25" fill="currentColor" xmlns="http://www.w3.org/2000/svg">
<rect width="24" height="25" fill="currentColor"/>
<g id="Icons - SET 2 Trazados - definitivo">
<rect x="-220" y="-1208" width="1144" height="1538" rx="20" fill="currentColor"/>
<g id="eb-icon-jpeg_file">
<g id="Vector">
<path fill-rule="evenodd" clip-rule="evenodd" d="M10.1228 4.21818L5.29435 9.04661L4.58726 8.3395L9.41568 3.51108C9.79076 3.136 10.2995 2.92529 10.8299 2.92529H18.0015C19.1061 2.92529 20.0015 3.82072 20.0015 4.92529V20.9253C20.0015 22.0299 19.1061 22.9253 18.0015 22.9253H6.00146C4.89689 22.9253 4.00146 22.0299 4.00146 20.9253V9.75372C4.00146 9.22328 4.21218 8.71458 4.58726 8.3395L5.29435 9.04661C5.10682 9.23415 5.00146 9.4885 5.00146 9.75372V20.9253C5.00146 21.4776 5.44918 21.9253 6.00146 21.9253H18.0015C18.5538 21.9253 19.0015 21.4776 19.0015 20.9253V4.92529C19.0015 4.37301 18.5538 3.92529 18.0015 3.92529H10.8299C10.5647 3.92529 10.3104 4.03065 10.1228 4.21818Z" fill="currentColor"/>
<path fill-rule="evenodd" clip-rule="evenodd" d="M11.0015 3.42529V8.42529C11.0015 9.25372 10.3299 9.92529 9.50146 9.92529H4.50146V8.92529H9.50146C9.77761 8.92529 10.0015 8.70143 10.0015 8.42529V3.42529H11.0015Z" fill="currentColor"/>
<path d="M15.7829 15.7373V15.2933H17.0669V16.9253H16.6549V16.4893C16.5189 16.8013 16.2069 16.9733 15.7429 16.9733C14.9189 16.9733 14.4229 16.4493 14.4229 15.5773C14.4229 14.6653 15.0229 14.0773 15.9829 14.0773C16.3549 14.0773 16.6669 14.1453 16.9189 14.2893V14.7933C16.6829 14.6573 16.3429 14.5773 16.0029 14.5773C15.3589 14.5773 14.9949 14.9493 14.9949 15.5773C14.9949 16.1573 15.3029 16.4733 15.8749 16.4733C16.3189 16.4733 16.5829 16.2333 16.5829 15.8333V15.7373H15.7829Z" fill="currentColor"/>
<path d="M14.0418 16.9253H11.9218V14.1253H14.0218V14.6093H12.4818V15.3013H13.8418V15.7733H12.4818V16.4413H14.0418V16.9253Z" fill="currentColor"/>
<path d="M9.80985 16.9253H9.24986V14.1253H10.3899C11.0779 14.1253 11.4419 14.4493 11.4419 15.0613C11.4419 15.6773 11.0739 16.0133 10.3899 16.0133H9.80985V16.9253ZM9.80985 14.5933V15.5413H10.3419C10.7019 15.5413 10.8819 15.3933 10.8819 15.0613C10.8819 14.7373 10.7099 14.5933 10.3419 14.5933H9.80985Z" fill="currentColor"/>
<path d="M8.59948 14.1253V15.9733C8.59948 16.6533 8.29548 16.9653 7.64748 16.9653C7.34748 16.9653 7.06348 16.9013 6.84348 16.7853V16.2853C7.02748 16.3893 7.31148 16.4653 7.52348 16.4653C7.89148 16.4653 8.03948 16.3053 8.03948 15.9053V14.6173H7.33148V14.1253H8.59948Z" fill="currentColor"/>
</g>
</g>
</g>
</svg>
