<svg width="24" height="24" viewBox="0 0 24 24" fill="currentColor" xmlns="http://www.w3.org/2000/svg">
<path d="M6.50099 20.001C6.37099 20.001 6.24199 19.951 6.14399 19.851C5.95099 19.654 5.95399 19.337 6.15099 19.144L12.688 12.741C12.89 12.544 13.001 12.282 13.001 12.002C13.001 11.722 12.89 11.46 12.688 11.262L6.15099 4.85898C5.95399 4.66598 5.95099 4.34898 6.14399 4.15198C6.33799 3.95598 6.65399 3.95198 6.85199 4.14498L13.388 10.548C13.784 10.936 14.001 11.452 14.001 12.002C14.001 12.544 13.777 13.074 13.388 13.456L6.85199 19.859C6.75399 19.954 6.62799 20.002 6.50199 20.002L6.50099 20.001Z" fill="currentColor"/>
<path d="M17.501 20.001C17.225 20.001 17.001 19.777 17.001 19.501V4.50098C17.001 4.22498 17.225 4.00098 17.501 4.00098C17.777 4.00098 18.001 4.22498 18.001 4.50098V19.501C18.001 19.777 17.777 20.001 17.501 20.001Z" fill="currentColor"/>
</svg>
