<svg width="24" height="24" viewBox="0 0 24 24" fill="currentColor" xmlns="http://www.w3.org/2000/svg">
<path d="M19.753 5.50096H8.75295C8.47695 5.50096 8.25295 5.27696 8.25295 5.00096C8.25295 4.72496 8.47695 4.50096 8.75295 4.50096H19.753C20.029 4.50096 20.253 4.72496 20.253 5.00096C20.253 5.27696 20.029 5.50096 19.753 5.50096Z" fill="currentColor"/>
<path d="M18.753 12.501H8.75295C8.47695 12.501 8.25295 12.277 8.25295 12.001C8.25295 11.725 8.47695 11.501 8.75295 11.501H18.753C19.029 11.501 19.253 11.725 19.253 12.001C19.253 12.277 19.029 12.501 18.753 12.501Z" fill="currentColor"/>
<path d="M17.753 19.501H8.75295C8.47695 19.501 8.25295 19.277 8.25295 19.001C8.25295 18.725 8.47695 18.501 8.75295 18.501H17.753C18.029 18.501 18.253 18.725 18.253 19.001C18.253 19.277 18.029 19.501 17.753 19.501Z" fill="currentColor"/>
<path d="M5.25195 6.00096C5.80424 6.00096 6.25195 5.55325 6.25195 5.00096C6.25195 4.44868 5.80424 4.00096 5.25195 4.00096C4.69967 4.00096 4.25195 4.44868 4.25195 5.00096C4.25195 5.55325 4.69967 6.00096 5.25195 6.00096Z" fill="currentColor"/>
<path d="M5.25195 13.001C5.80424 13.001 6.25195 12.5532 6.25195 12.001C6.25195 11.4487 5.80424 11.001 5.25195 11.001C4.69967 11.001 4.25195 11.4487 4.25195 12.001C4.25195 12.5532 4.69967 13.001 5.25195 13.001Z" fill="currentColor"/>
<path d="M5.25195 20.001C5.80424 20.001 6.25195 19.5532 6.25195 19.001C6.25195 18.4487 5.80424 18.001 5.25195 18.001C4.69967 18.001 4.25195 18.4487 4.25195 19.001C4.25195 19.5532 4.69967 20.001 5.25195 20.001Z" fill="currentColor"/>
</svg>
