<svg width="24" height="24" viewBox="0 0 24 24" fill="currentColor" xmlns="http://www.w3.org/2000/svg">
<rect width="24" height="24" fill="currentColor"/>
<g id="Icons - SET 2 Trazados - definitivo">
<rect x="-116" y="-1066" width="1144" height="1538" rx="20" fill="currentColor"/>
<g id="eb-icon-load-folder">
<g id="Vector">
<path fill-rule="evenodd" clip-rule="evenodd" d="M17 12.0208C14.7714 12.0208 13 13.8222 13 16C13 18.1778 14.7714 19.9792 17 19.9792C19.2286 19.9792 21 18.1778 21 16C21 13.8222 19.2286 12.0208 17 12.0208ZM12 16C12 13.2072 14.258 10.9792 17 10.9792C19.742 10.9792 22 13.2072 22 16C22 18.7928 19.742 21.0208 17 21.0208C14.258 21.0208 12 18.7928 12 16Z" fill="currentColor"/>
<path fill-rule="evenodd" clip-rule="evenodd" d="M16.4444 13.3872C16.6515 13.3872 16.8194 13.5621 16.8194 13.7778V16.1649H19.2222C19.4293 16.1649 19.5972 16.3398 19.5972 16.5555C19.5972 16.7712 19.4293 16.9461 19.2222 16.9461H16.4444C16.2373 16.9461 16.0694 16.7712 16.0694 16.5555V13.7778C16.0694 13.5621 16.2373 13.3872 16.4444 13.3872Z" fill="currentColor"/>
<path fill-rule="evenodd" clip-rule="evenodd" d="M2 5.5C2 4.08795 3.13872 2.97917 4.5 2.97917H8.68454C9.22804 2.97917 9.75862 3.15779 10.1945 3.49077L12.2859 5.08863C12.5475 5.28848 12.8702 5.39852 13.2044 5.39852H18.5C19.8613 5.39852 21 6.50731 21 7.91935V13.2709H20V7.91935C20 7.12226 19.3479 6.44018 18.5 6.44018H13.2044C12.6608 6.44018 12.1303 6.26155 11.6945 5.92859L9.60303 4.33073C9.34144 4.13087 9.0187 4.02083 8.68454 4.02083H4.5C3.65214 4.02083 3 4.70291 3 5.5V16.5C3 17.2971 3.65213 17.9792 4.5 17.9792H13.1561V19.0208H4.5C3.13873 19.0208 2 17.9121 2 16.5V5.5Z" fill="currentColor"/>
</g>
</g>
</g>
</svg>
