<svg width="24" height="24" viewBox="0 0 24 24" fill="currentColor" xmlns="http://www.w3.org/2000/svg">
<path d="M19.5039 4.17298H17.6389L15.9069 2.44098C15.6239 2.15798 15.2469 2.00198 14.8459 2.00198H9.15993C8.75993 2.00198 8.38293 2.15798 8.09893 2.44098L6.36693 4.17298H4.50293C3.67493 4.17298 3.00293 4.84498 3.00293 5.67298V11.673C3.00293 12.501 3.67493 13.173 4.50293 13.173H5.53093V14.684C5.53093 14.981 5.61793 15.269 5.78293 15.516L6.53293 16.641C6.58793 16.723 6.61693 16.82 6.61693 16.918V21.501C6.61693 21.777 6.84093 22.001 7.11693 22.001H15.8879C16.7159 22.001 17.3879 21.329 17.3879 20.501V18.264L17.8069 13.172H19.5019C20.3299 13.172 21.0019 12.5 21.0019 11.672V5.67198C21.0019 4.84398 20.3299 4.17198 19.5019 4.17198L19.5039 4.17298ZM8.80793 3.14798C8.90093 3.05498 9.02993 3.00198 9.16193 3.00198H14.8479C14.9819 3.00198 15.1069 3.05398 15.2019 3.14798L16.2269 4.17298H7.78293L8.80793 3.14798ZM15.8899 21.001H7.61793V18.744H16.3889V20.501C16.3889 20.777 16.1659 21.001 15.8899 21.001ZM16.4289 17.744H7.61793V16.918C7.61793 16.621 7.53093 16.333 7.36593 16.086L6.61593 14.961C6.56093 14.879 6.53193 14.782 6.53193 14.684V9.47298C6.53193 9.19698 6.75593 8.97298 7.03193 8.97298H7.35693C7.60193 8.97298 7.80993 9.14898 7.84993 9.38998L8.18193 11.385C8.25093 11.792 8.48693 12.157 8.82993 12.385L10.0919 13.239L11.6509 14.798C11.8459 14.993 12.1629 14.993 12.3579 14.798C12.5529 14.603 12.5529 14.286 12.3579 14.091L11.4399 13.173H16.8069L16.4299 17.745L16.4289 17.744ZM19.5039 12.173H10.3119L9.38493 11.554C9.26993 11.478 9.19193 11.356 9.16893 11.221L8.83693 9.22598C8.71593 8.49998 8.09293 7.97298 7.35793 7.97298H7.03293C6.20593 7.97298 5.53293 8.64598 5.53293 9.47298V12.173H4.50493C4.22893 12.173 4.00493 11.949 4.00493 11.673V5.67298C4.00493 5.39698 4.22893 5.17298 4.50493 5.17298H19.5049C19.7809 5.17298 20.0049 5.39698 20.0049 5.67298V11.673C20.0049 11.949 19.7799 12.173 19.5039 12.173Z" fill="currentColor"/>
</svg>
