<svg width="24" height="24" viewBox="0 0 24 24" fill="currentColor" xmlns="http://www.w3.org/2000/svg">
<rect width="24" height="24" fill="currentColor"/>
<g id="Icons - SET 2 Trazados - definitivo">
<rect x="-72" y="-1154" width="1144" height="1538" rx="20" fill="currentColor"/>
<g id="eb-icon-medal">
<path id="Vector" d="M11.5 17.3462V17.3631L8.40466 20.5367C7.8928 21.0623 7.63688 21.3241 7.41886 21.4142C6.92597 21.6207 6.37714 21.4443 6.11742 20.9938C6.00368 20.7967 5.96766 20.4401 5.89752 19.7268C5.85676 19.3232 5.83685 19.1224 5.77619 18.9535C5.71157 18.7695 5.60731 18.6017 5.47064 18.4617C5.33396 18.3217 5.16815 18.2128 4.98471 18.1426C4.82072 18.0797 4.62451 18.06 4.23114 18.0187C3.5354 17.9455 3.18752 17.9089 2.99416 17.7925C2.55529 17.526 2.38183 16.9638 2.58372 16.458C2.67282 16.2355 2.92875 15.9728 3.44061 15.4481L5.47064 13.5M12.5 17.3462V17.3631L15.5953 20.5367C16.1072 21.0623 16.3631 21.3241 16.5811 21.4142C17.074 21.6207 17.6229 21.4443 17.8826 20.9938C17.9963 20.7967 18.0323 20.4401 18.1025 19.7268C18.1432 19.3232 18.1631 19.1224 18.2238 18.9535C18.2884 18.7695 18.3927 18.6017 18.5294 18.4617C18.666 18.3217 18.8319 18.2128 19.0153 18.1426C19.1793 18.0797 19.3755 18.06 19.7689 18.0187C20.4646 17.9455 20.8125 17.9089 21.0058 17.7925C21.4447 17.526 21.6182 16.9638 21.4163 16.458C21.3272 16.2355 21.0712 15.9728 20.5594 15.4481L18.5294 13.5M11.0036 7.69353C11.447 6.89668 11.6687 6.5 12 6.5C12.3313 6.5 12.553 6.89668 12.9964 7.69353L13.1107 7.89887C13.2367 8.12521 13.2997 8.23721 13.3977 8.31188C13.4969 8.38655 13.6194 8.41455 13.8644 8.46939L14.0861 8.52072C14.9471 8.71556 15.3776 8.8124 15.4803 9.14141C15.5829 9.47042 15.2889 9.81459 14.7021 10.5006L14.5504 10.6779C14.3836 10.8728 14.2996 10.9696 14.2622 11.091C14.2249 11.2123 14.2377 11.3418 14.2622 11.602L14.2856 11.8388C14.3742 12.7547 14.4186 13.2132 14.1514 13.4162C13.883 13.6192 13.4794 13.4337 12.6732 13.0627L12.4655 12.967C12.2357 12.862 12.1213 12.8095 12 12.8095C11.8787 12.8095 11.7643 12.862 11.5345 12.967L11.3268 13.0627C10.5206 13.4349 10.1169 13.6192 9.8486 13.4162C9.58026 13.2132 9.62576 12.7547 9.71443 11.8388L9.73777 11.602C9.76227 11.3418 9.7751 11.2123 9.73777 11.091C9.70043 10.9696 9.61643 10.8728 9.44959 10.6779L9.29792 10.5006C8.71107 9.81459 8.41706 9.47158 8.51973 9.14141C8.6224 8.8124 9.05291 8.71556 9.91394 8.52072L10.1356 8.46939C10.3806 8.41455 10.5031 8.38772 10.6023 8.31188C10.7003 8.23721 10.7633 8.12521 10.8893 7.89887L11.0036 7.69353ZM19.5 10C19.5 10.9849 19.306 11.9602 18.9291 12.8701C18.5522 13.7801 17.9997 14.6069 17.3033 15.3033C16.6069 15.9997 15.7801 16.5522 14.8701 16.9291C13.9602 17.306 12.9849 17.5 12 17.5C11.0151 17.5 10.0398 17.306 9.12987 16.9291C8.21993 16.5522 7.39314 15.9997 6.6967 15.3033C6.00026 14.6069 5.44781 13.7801 5.0709 12.8701C4.69399 11.9602 4.5 10.9849 4.5 10C4.5 8.01088 5.29018 6.10322 6.6967 4.6967C8.10322 3.29018 10.0109 2.5 12 2.5C13.9891 2.5 15.8968 3.29018 17.3033 4.6967C18.7098 6.10322 19.5 8.01088 19.5 10Z" fill="currentColor"/>
</g>
</g>
</svg>
