<svg width="24" height="24" viewBox="0 0 24 24" fill="currentColor" xmlns="http://www.w3.org/2000/svg">
<rect width="24" height="24" fill="currentColor"/>
<g id="Icons - SET 2 Trazados - definitivo">
<rect x="-78" y="-863" width="1144" height="1538" rx="20" fill="currentColor"/>
<g id="eb-icon-menu">
<g id="Vector">
<path d="M12 7C12.8284 7 13.5 6.32843 13.5 5.5C13.5 4.67157 12.8284 4 12 4C11.1716 4 10.5 4.67157 10.5 5.5C10.5 6.32843 11.1716 7 12 7Z" fill="currentColor"/>
<path d="M12 13.5C12.8284 13.5 13.5 12.8284 13.5 12C13.5 11.1716 12.8284 10.5 12 10.5C11.1716 10.5 10.5 11.1716 10.5 12C10.5 12.8284 11.1716 13.5 12 13.5Z" fill="currentColor"/>
<path d="M12 20C12.8284 20 13.5 19.3284 13.5 18.5C13.5 17.6716 12.8284 17 12 17C11.1716 17 10.5 17.6716 10.5 18.5C10.5 19.3284 11.1716 20 12 20Z" fill="currentColor"/>
</g>
</g>
</g>
</svg>
