<svg width="24" height="24" viewBox="0 0 24 24" fill="currentColor" xmlns="http://www.w3.org/2000/svg">
<rect width="24" height="24" fill="currentColor"/>
<g id="Icons - SET 2 Trazados - definitivo">
<rect x="-160" y="-1200" width="1144" height="1538" rx="20" fill="currentColor"/>
<g id="eb-icon-movements">
<g id="Vector">
<path fill-rule="evenodd" clip-rule="evenodd" d="M7.14645 2.14645C7.34171 1.95118 7.65829 1.95118 7.85355 2.14645L11.8536 6.14645C12.0488 6.34171 12.0488 6.65829 11.8536 6.85355C11.6583 7.04882 11.3417 7.04882 11.1464 6.85355L8 3.70711V21.5C8 21.7761 7.77614 22 7.5 22C7.22386 22 7 21.7761 7 21.5V3.70711L3.85355 6.85355C3.65829 7.04882 3.34171 7.04882 3.14645 6.85355C2.95118 6.65829 2.95118 6.34171 3.14645 6.14645L7.14645 2.14645Z" fill="currentColor"/>
<path fill-rule="evenodd" clip-rule="evenodd" d="M16.5 2C16.7761 2 17 2.22386 17 2.5V20.2929L20.1464 17.1464C20.3417 16.9512 20.6583 16.9512 20.8536 17.1464C21.0488 17.3417 21.0488 17.6583 20.8536 17.8536L16.8536 21.8536C16.6583 22.0488 16.3417 22.0488 16.1464 21.8536L12.1464 17.8536C11.9512 17.6583 11.9512 17.3417 12.1464 17.1464C12.3417 16.9512 12.6583 16.9512 12.8536 17.1464L16 20.2929V2.5C16 2.22386 16.2239 2 16.5 2Z" fill="currentColor"/>
</g>
</g>
</g>
</svg>
