<svg width="25" height="24" viewBox="0 0 25 24" fill="currentColor" xmlns="http://www.w3.org/2000/svg">
<path fill-rule="evenodd" clip-rule="evenodd" d="M12.2458 3C7.27523 3 3.24579 7.02944 3.24579 12C3.24579 16.9728 7.24513 21 12.2135 21H20.5525L19.3228 19.7501C18.7386 19.1562 18.7732 18.2435 19.2559 17.6448C19.7013 17.0925 20.0826 16.4866 20.3887 15.8384C20.9383 14.6747 21.2458 13.374 21.2458 12C21.2458 7.02944 17.2164 3 12.2458 3ZM2.24579 12C2.24579 6.47715 6.72294 2 12.2458 2C17.7686 2 22.2458 6.47715 22.2458 12C22.2458 13.5247 21.9042 14.971 21.2929 16.2654C20.9527 16.986 20.529 17.6591 20.0344 18.2725C19.8295 18.5266 19.8516 18.8617 20.0357 19.0488L22.1022 21.1493C22.2435 21.293 22.2848 21.5074 22.207 21.6932C22.1291 21.8791 21.9473 22 21.7458 22H12.2135C6.6884 22 2.24579 17.5206 2.24579 12Z" fill="currentColor"/>
<path fill-rule="evenodd" clip-rule="evenodd" d="M12.2458 8.67157C12.5219 8.67157 12.7458 8.89543 12.7458 9.17157V14.8284C12.7458 15.1046 12.5219 15.3284 12.2458 15.3284C11.9697 15.3284 11.7458 15.1046 11.7458 14.8284V9.17157C11.7458 8.89543 11.9697 8.67157 12.2458 8.67157Z" fill="currentColor"/>
<path fill-rule="evenodd" clip-rule="evenodd" d="M8.91736 12C8.91736 11.7239 9.14122 11.5 9.41736 11.5H15.0742C15.3504 11.5 15.5742 11.7239 15.5742 12C15.5742 12.2761 15.3504 12.5 15.0742 12.5H9.41736C9.14122 12.5 8.91736 12.2761 8.91736 12Z" fill="currentColor"/>
</svg>
