<svg width="24" height="24" viewBox="0 0 24 24" fill="currentColor" xmlns="http://www.w3.org/2000/svg">
<rect width="24" height="24" fill="currentColor"/>
<g id="Icons - SET 2 Trazados - definitivo">
<rect x="-116" y="-1199" width="1144" height="1538" rx="20" fill="currentColor"/>
<g id="eb-icon-nurse">
<path id="Vector" d="M21.7353 19.8422L22.116 19.7372L22.116 19.7372L21.7353 19.8422ZM16.2325 14.3885L16.3925 14.0274L16.3925 14.0274L16.2325 14.3885ZM7.76753 14.3885L7.6076 14.0274L7.60759 14.0274L7.76753 14.3885ZM2.26473 19.8422L1.88406 19.7372L1.88406 19.7372L2.26473 19.8422ZM9.31724 7.22602L9.54628 6.90433L8.9029 6.44625L8.67387 6.76794L9.31724 7.22602ZM15.3262 6.76795L15.0971 6.44626L14.4537 6.90431L14.6828 7.226L15.3262 6.76795ZM7.2613 2.73938L7.19381 2.35029C7.0776 2.37045 6.97648 2.4415 6.91813 2.544C6.85977 2.6465 6.85029 2.76971 6.89227 2.87994L7.2613 2.73938ZM8.95369 7.18266L8.58466 7.32322C8.62495 7.42899 8.70868 7.51238 8.8146 7.55225C8.92052 7.59211 9.03846 7.58461 9.13848 7.53165L8.95369 7.18266ZM15.0464 7.18266L14.8616 7.53166C14.9616 7.58462 15.0796 7.59211 15.1855 7.55224C15.2914 7.51238 15.3751 7.42898 15.4154 7.32322L15.0464 7.18266ZM16.7387 2.73938L17.1078 2.87993C17.1497 2.76971 17.1403 2.64649 17.0819 2.544C17.0235 2.4415 16.9224 2.37045 16.8062 2.35029L16.7387 2.73938ZM13.7997 2.22959L13.7322 2.61867V2.61867L13.7997 2.22959ZM10.2004 2.22959L10.2678 2.61867V2.61867L10.2004 2.22959ZM12.8935 4.78543C13.1116 4.78543 13.2884 4.60863 13.2884 4.39054C13.2884 4.17244 13.1116 3.99564 12.8935 3.99564V4.78543ZM11.1065 3.99564C10.8884 3.99564 10.7116 4.17244 10.7116 4.39054C10.7116 4.60863 10.8884 4.78543 11.1065 4.78543V3.99564ZM12.3949 3.49699C12.3949 3.2789 12.2181 3.1021 12 3.1021C11.7819 3.1021 11.6051 3.2789 11.6051 3.49699H12.3949ZM11.6051 5.28408C11.6051 5.50217 11.7819 5.67897 12 5.67897C12.2181 5.67897 12.3949 5.50217 12.3949 5.28408H11.6051ZM4.10215 22.3202H19.8979V21.5304H4.10215V22.3202ZM19.8979 22.3202C20.5857 22.3202 21.2286 22.0366 21.6585 21.5726C22.0938 21.1028 22.3109 20.4436 22.116 19.7372L21.3547 19.9472C21.4691 20.3621 21.3491 20.7445 21.0791 21.0359C20.8037 21.3332 20.3732 21.5304 19.8979 21.5304V22.3202ZM22.116 19.7372C21.3604 16.9983 19.1725 15.2589 16.3925 14.0274L16.0726 14.7495C18.7586 15.9394 20.6906 17.5402 21.3547 19.9472L22.116 19.7372ZM16.3925 14.0274C15.94 13.827 15.4917 13.894 15.0937 14.0548C14.7054 14.2117 14.323 14.4747 13.9715 14.7265C13.6056 14.9886 13.2678 15.2425 12.9241 15.4372C12.5822 15.631 12.2793 15.7387 12 15.7387V16.5285C12.477 16.5285 12.9208 16.3469 13.3134 16.1244C13.7042 15.903 14.0891 15.6138 14.4315 15.3685C14.7884 15.1128 15.1001 14.904 15.3896 14.7871C15.6693 14.674 15.8824 14.6652 16.0726 14.7495L16.3925 14.0274ZM12 15.7387C11.7207 15.7387 11.4179 15.631 11.0759 15.4372C10.7322 15.2425 10.3945 14.9886 10.0285 14.7265C9.67707 14.4747 9.29466 14.2117 8.90636 14.0548C8.50836 13.894 8.06007 13.827 7.6076 14.0274L7.92746 14.7495C8.11771 14.6652 8.33075 14.674 8.61049 14.7871C8.89994 14.904 9.21167 15.1128 9.56858 15.3685C9.91097 15.6138 10.2958 15.903 10.6866 16.1244C11.0793 16.3469 11.523 16.5285 12 16.5285V15.7387ZM7.60759 14.0274C4.82763 15.2589 2.63969 16.9983 1.88406 19.7372L2.6454 19.9472C3.30948 17.5402 5.24151 15.9394 7.92748 14.7495L7.60759 14.0274ZM1.88406 19.7372C1.68917 20.4436 1.90629 21.1028 2.34157 21.5726C2.77141 22.0366 3.41431 22.3202 4.10215 22.3202V21.5304C3.62683 21.5304 3.19635 21.3332 2.92094 21.0359C2.65097 20.7445 2.53095 20.3621 2.6454 19.9472L1.88406 19.7372ZM8.67387 6.76794C8.19888 7.43506 7.91945 8.25162 7.91945 9.13228H8.70924C8.70924 8.42116 8.93435 7.76379 9.31724 7.22602L8.67387 6.76794ZM7.91945 9.13228C7.91945 11.3859 9.74638 13.2128 12 13.2128V12.4231C10.1826 12.4231 8.70924 10.9497 8.70924 9.13228H7.91945ZM12 13.2128C14.2537 13.2128 16.0806 11.3859 16.0806 9.13228H15.2908C15.2908 10.9497 13.8175 12.4231 12 12.4231V13.2128ZM16.0806 9.13228C16.0806 8.25161 15.8011 7.43505 15.3262 6.76795L14.6828 7.226C15.0656 7.7638 15.2908 8.42117 15.2908 9.13228H16.0806ZM6.89227 2.87994L8.58466 7.32322L9.32273 7.0421L7.63033 2.59882L6.89227 2.87994ZM9.13848 7.53165C9.46642 7.35801 10.5535 6.96306 12 6.96306V6.17327C10.4292 6.17327 9.21464 6.59766 8.76891 6.83367L9.13848 7.53165ZM12 6.96306C13.4466 6.96306 14.5336 7.35801 14.8616 7.53166L15.2311 6.83366C14.7854 6.59766 13.5709 6.17327 12 6.17327V6.96306ZM15.4154 7.32322L17.1078 2.87993L16.3697 2.59882L14.6773 7.04211L15.4154 7.32322ZM16.8062 2.35029L13.8672 1.8405L13.7322 2.61867L16.6712 3.12846L16.8062 2.35029ZM13.8672 1.8405C12.6316 1.62619 11.3684 1.62619 10.1329 1.8405L10.2678 2.61867C11.4141 2.41985 12.586 2.41985 13.7322 2.61867L13.8672 1.8405ZM10.1329 1.8405L7.19381 2.35029L7.32879 3.12846L10.2678 2.61867L10.1329 1.8405ZM12.8935 3.99564H11.1065V4.78543H12.8935V3.99564ZM11.6051 3.49699V5.28408H12.3949V3.49699H11.6051Z" fill="currentColor"/>
</g>
</g>
</svg>
