<svg width="24" height="24" viewBox="0 0 24 24" fill="currentColor" xmlns="http://www.w3.org/2000/svg">
<rect width="24" height="24" fill="currentColor"/>
<g id="Icons - SET 2 Trazados - definitivo">
<rect x="-600" y="-1022" width="1144" height="1538" rx="20" fill="currentColor"/>
<g id="eb-icon-operate">
<path id="Vector" d="M5 16.5269L4.91351 16.0345C4.70316 16.0714 4.5395 16.2379 4.50614 16.4488L5 16.5269ZM8.08649 16.4925C8.35847 16.4447 8.54023 16.1855 8.49246 15.9135C8.44469 15.6415 8.18549 15.4598 7.91351 15.5076L8.08649 16.4925ZM4.00614 19.6102C3.963 19.883 4.14914 20.139 4.42189 20.1822C4.69464 20.2253 4.95072 20.0392 4.99386 19.7664L4.00614 19.6102ZM12.8932 20.2459L13.0313 20.7265L13.0313 20.7265L12.8932 20.2459ZM13.1381 20.6958C13.4035 20.6195 13.5568 20.3425 13.4805 20.0771C13.4043 19.8117 13.1273 19.6584 12.8619 19.7347L13.1381 20.6958ZM19 7.47311L19.0865 7.96558C19.2968 7.92863 19.4605 7.76217 19.4939 7.55122L19 7.47311ZM15.9135 7.50755C15.6415 7.55532 15.4598 7.81453 15.5075 8.08651C15.5553 8.35849 15.8145 8.54024 16.0865 8.49248L15.9135 7.50755ZM19.9939 4.38978C20.037 4.11703 19.8509 3.86095 19.5781 3.81781C19.3054 3.77467 19.0493 3.96081 19.0061 4.23357L19.9939 4.38978ZM11.1068 3.75407L10.9687 3.27353L10.9687 3.27353L11.1068 3.75407ZM10.8619 3.30423C10.5965 3.38052 10.4432 3.65751 10.5195 3.92291C10.5957 4.1883 10.8727 4.3416 11.1381 4.26531L10.8619 3.30423ZM5.08649 17.0194L8.08649 16.4925L7.91351 15.5076L4.91351 16.0345L5.08649 17.0194ZM4.50614 16.4488L4.00614 19.6102L4.99386 19.7664L5.49386 16.605L4.50614 16.4488ZM4.54827 16.7412C6.10065 20.0131 9.6465 21.6993 13.0313 20.7265L12.7551 19.7654C9.86806 20.5951 6.80663 19.1682 5.45173 16.3126L4.54827 16.7412ZM13.0313 20.7265L13.1381 20.6958L12.8619 19.7347L12.7551 19.7654L13.0313 20.7265ZM18.9135 6.98065L15.9135 7.50755L16.0865 8.49248L19.0865 7.96558L18.9135 6.98065ZM19.4939 7.55122L19.9939 4.38978L19.0061 4.23357L18.5061 7.39501L19.4939 7.55122ZM19.4517 7.25879C17.8994 3.98693 14.3535 2.30073 10.9687 3.27353L11.2449 4.23462C14.1319 3.40488 17.1934 4.83184 18.5483 7.68744L19.4517 7.25879ZM10.9687 3.27353L10.8619 3.30423L11.1381 4.26531L11.2449 4.23461L10.9687 3.27353ZM18 13C19.6569 13 21 14.3432 21 16H22C22 13.7909 20.2091 12 18 12V13ZM21 16C21 17.6569 19.6569 19 18 19V20C20.2091 20 22 18.2092 22 16H21ZM18 19C16.3431 19 15 17.6569 15 16H14C14 18.2092 15.7909 20 18 20V19ZM15 16C15 14.3432 16.3431 13 18 13V12C15.7909 12 14 13.7909 14 16H15ZM6 5.00001C7.65686 5.00001 9 6.34316 9 8.00001H10C10 5.79087 8.20914 4.00001 6 4.00001V5.00001ZM9 8.00001C9 9.65687 7.65686 11 6 11V12C8.20914 12 10 10.2092 10 8.00001H9ZM6 11C4.34314 11 3 9.65687 3 8.00001H2C2 10.2092 3.79086 12 6 12V11ZM3 8.00001C3 6.34316 4.34314 5.00001 6 5.00001V4.00001C3.79086 4.00001 2 5.79087 2 8.00001H3Z" fill="currentColor"/>
</g>
</g>
</svg>
