<svg width="24" height="24" viewBox="0 0 24 24" fill="currentColor" xmlns="http://www.w3.org/2000/svg">
<rect width="24" height="24" fill="currentColor"/>
<g id="Icons - SET 2 Trazados - definitivo">
<rect x="-688" y="-1066" width="1144" height="1538" rx="20" fill="currentColor"/>
<g id="eb-icon-partial-refund">
<g id="Vector">
<path fill-rule="evenodd" clip-rule="evenodd" d="M3.5 12C3.22386 12 3 12.2238 3 12.5V19.5C3 19.7761 3.22386 20 3.5 20H4.5C4.77614 20 5 19.7761 5 19.5V12.5C5 12.2238 4.77614 12 4.5 12H3.5ZM2 12.5C2 11.6715 2.67157 11 3.5 11H4.5C5.32843 11 6 11.6715 6 12.5V19.5C6 20.3284 5.32843 21 4.5 21H3.5C2.67157 21 2 20.3284 2 19.5V12.5Z" fill="currentColor"/>
<path d="M20.1254 13.0351L20.0056 12.5497L19.9783 12.5564L19.9518 12.5662L20.1254 13.0351ZM9.8773 15.1082C9.6092 15.042 9.33823 15.2057 9.27207 15.4738C9.20591 15.7419 9.36962 16.0129 9.63772 16.0791L9.8773 15.1082ZM5.42017 18.6145L10.198 20.5796L10.5784 19.6548L5.80054 17.6897L5.42017 18.6145ZM20.2249 12.4956L20.0056 12.5497L20.2452 13.5205L20.4645 13.4664L20.2249 12.4956ZM19.9518 12.5662L16.052 14.0098L16.3992 14.9476L20.299 13.504L19.9518 12.5662ZM16.052 14.0098L11.9598 15.5245L12.307 16.4623L16.3992 14.9476L16.052 14.0098ZM11.6377 15.5426L9.8773 15.1082L9.63772 16.0791L11.3981 16.5135L11.6377 15.5426ZM10.0931 12.8435L16.0591 14.9501L16.3921 14.0072L10.426 11.9005L10.0931 12.8435ZM11.9598 15.5245C11.857 15.5626 11.7445 15.569 11.6377 15.5426L11.3981 16.5135C11.6992 16.5878 12.0161 16.57 12.307 16.4623L11.9598 15.5245ZM21.5611 14.8847C22.6149 13.8868 21.6384 12.1467 20.2249 12.4956L20.4645 13.4664C20.9121 13.356 21.1583 13.8889 20.8735 14.1585L21.5611 14.8847ZM8.67176 11.9341L5.42598 13.2217L5.79473 14.1512L9.04051 12.8636L8.67176 11.9341ZM12.439 20.409L21.3575 15.0363L20.8415 14.1797L11.9229 19.5524L12.439 20.409ZM10.426 11.9005C9.85642 11.6994 9.23326 11.7113 8.67176 11.9341L9.04051 12.8636C9.37741 12.73 9.7513 12.7228 10.0931 12.8435L10.426 11.9005ZM20.8735 14.1585C20.8751 14.157 20.8741 14.1582 20.8686 14.1622C20.863 14.1662 20.8546 14.1718 20.8415 14.1797L21.3575 15.0363C21.4133 15.0027 21.4884 14.9535 21.5611 14.8847L20.8735 14.1585ZM10.198 20.5796C10.9299 20.8806 11.7611 20.8173 12.439 20.409L11.9229 19.5524C11.5162 19.7974 11.0175 19.8354 10.5784 19.6548L10.198 20.5796Z" fill="currentColor"/>
<path fill-rule="evenodd" clip-rule="evenodd" d="M21.843 3.13623C22.0439 3.32568 22.0532 3.64213 21.8638 3.84303L16.2059 9.84298C16.1114 9.94316 15.9798 9.99995 15.8421 9.99995C15.7044 9.99995 15.5728 9.94317 15.4783 9.84299L12.1362 6.29896C11.9468 6.09806 11.9561 5.78161 12.157 5.59216C12.3579 5.4027 12.6743 5.41198 12.8638 5.61288L15.8421 8.77116L21.1362 3.15697C21.3257 2.95606 21.6421 2.94678 21.843 3.13623Z" fill="currentColor"/>
</g>
</g>
</g>
</svg>
