<svg width="24" height="24" viewBox="0 0 24 24" fill="currentColor" xmlns="http://www.w3.org/2000/svg">
<rect width="24" height="24" fill="currentColor"/>
<g id="Icons - SET 2 Trazados - definitivo">
<rect x="-248" y="-1109" width="1144" height="1538" rx="20" fill="currentColor"/>
<g id="eb-icon-payment_method">
<path id="Vector" d="M2.5 8.125H2.125V8.875H2.5V8.125ZM20.5 8.875H20.875V8.125H20.5V8.875ZM20.5 5.5L20.875 5.50064V5.5H20.5ZM11 13.875C11.2071 13.875 11.375 13.7071 11.375 13.5C11.375 13.2929 11.2071 13.125 11 13.125V13.875ZM5 13.125C4.79289 13.125 4.625 13.2929 4.625 13.5C4.625 13.7071 4.79289 13.875 5 13.875V13.125ZM14.5 15.0625C14.2929 15.0625 14.125 15.2304 14.125 15.4375C14.125 15.6446 14.2929 15.8125 14.5 15.8125V15.0625ZM17.875 15.8125C18.0821 15.8125 18.25 15.6446 18.25 15.4375C18.25 15.2304 18.0821 15.0625 17.875 15.0625V15.8125ZM14.5 16.1875C14.2929 16.1875 14.125 16.3554 14.125 16.5625C14.125 16.7696 14.2929 16.9375 14.5 16.9375V16.1875ZM17.0312 16.9375C17.2383 16.9375 17.4062 16.7696 17.4062 16.5625C17.4062 16.3554 17.2383 16.1875 17.0312 16.1875V16.9375ZM18.4666 14.5901C18.6199 14.7293 18.857 14.7179 18.9963 14.5646C19.1355 14.4113 19.1241 14.1742 18.9708 14.0349L18.4666 14.5901ZM17.2562 13.75L17.2551 13.375L17.2514 13.375L17.2562 13.75ZM16.4081 13.9299L16.5559 14.2746L16.556 14.2745L16.4081 13.9299ZM15.6933 14.4206L15.4248 14.1588L15.4248 14.1589L15.6933 14.4206ZM15.2208 15.1476L14.8726 15.0084L14.8725 15.0086L15.2208 15.1476ZM15.0625 16H15.4375L15.4375 15.9952L15.0625 16ZM18.9628 17.9722C19.12 17.8374 19.1382 17.6007 19.0034 17.4434C18.8686 17.2862 18.6319 17.268 18.4746 17.4028L18.9628 17.9722ZM2.5 8.875H20.5V8.125H2.5V8.875ZM20.8619 13.1559L20.875 5.50064L20.125 5.49936L20.1119 13.1546L20.8619 13.1559ZM20.875 5.5C20.875 4.18833 19.8117 3.125 18.5 3.125V3.875C19.3975 3.875 20.125 4.60253 20.125 5.5H20.875ZM18.5 3.125H4.5V3.875H18.5V3.125ZM4.5 3.125C3.18832 3.125 2.125 4.18832 2.125 5.5H2.875C2.875 4.60254 3.60254 3.875 4.5 3.875V3.125ZM2.125 5.5V16.5H2.875V5.5H2.125ZM2.125 16.5C2.125 17.8117 3.18833 18.875 4.5 18.875V18.125C3.60253 18.125 2.875 17.3975 2.875 16.5H2.125ZM4.5 18.875H13.3251V18.125H4.5V18.875ZM21.125 16C21.125 18.2782 19.2782 20.125 17 20.125V20.875C19.6924 20.875 21.875 18.6924 21.875 16H21.125ZM17 20.125C14.7218 20.125 12.875 18.2782 12.875 16H12.125C12.125 18.6924 14.3076 20.875 17 20.875V20.125ZM12.875 16C12.875 13.7218 14.7218 11.875 17 11.875V11.125C14.3076 11.125 12.125 13.3076 12.125 16H12.875ZM17 11.875C19.2782 11.875 21.125 13.7218 21.125 16H21.875C21.875 13.3076 19.6924 11.125 17 11.125V11.875ZM11 13.125H5V13.875H11V13.125ZM14.5 15.8125H17.875V15.0625H14.5V15.8125ZM14.5 16.9375H17.0312V16.1875H14.5V16.9375ZM18.9708 14.0349C18.5013 13.6085 17.8894 13.3731 17.2551 13.375L17.2573 14.125C17.7044 14.1237 18.1357 14.2895 18.4666 14.5901L18.9708 14.0349ZM17.2514 13.375C16.9105 13.3794 16.5737 13.4508 16.2602 13.5853L16.556 14.2745C16.7789 14.1788 17.0185 14.128 17.261 14.125L17.2514 13.375ZM16.2603 13.5852C15.9468 13.7197 15.6629 13.9147 15.4248 14.1588L15.9618 14.6824C16.1311 14.5087 16.333 14.3701 16.5559 14.2746L16.2603 13.5852ZM15.4248 14.1589C15.1867 14.4031 14.9991 14.6918 14.8726 15.0084L15.569 15.2868C15.6591 15.0614 15.7925 14.8561 15.9618 14.6823L15.4248 14.1589ZM14.8725 15.0086C14.7461 15.3252 14.6832 15.6637 14.6875 16.0048L15.4375 15.9952C15.4344 15.7527 15.4791 15.512 15.5691 15.2866L14.8725 15.0086ZM14.6875 16C14.6875 17.4353 15.8306 18.625 17.2562 18.625V17.875C16.2632 17.875 15.4375 17.0397 15.4375 16H14.6875ZM17.2562 18.625C17.9217 18.625 18.5121 18.3586 18.9628 17.9722L18.4746 17.4028C18.1379 17.6914 17.7157 17.875 17.2562 17.875V18.625Z" fill="currentColor"/>
</g>
</g>
</svg>
