<svg width="24" height="25" viewBox="0 0 24 25" fill="currentColor" xmlns="http://www.w3.org/2000/svg">
<rect width="24" height="25" fill="currentColor"/>
<g id="Icons - SET 2 Trazados - definitivo">
<rect x="-264" y="-1208" width="1144" height="1538" rx="20" fill="currentColor"/>
<g id="eb-icon-pdf_file">
<g id="Vector">
<path fill-rule="evenodd" clip-rule="evenodd" d="M10.1228 4.21818L5.29435 9.04661L4.58726 8.3395L9.41568 3.51108C9.79076 3.136 10.2995 2.92529 10.8299 2.92529H18.0015C19.1061 2.92529 20.0015 3.82072 20.0015 4.92529V20.9253C20.0015 22.0299 19.1061 22.9253 18.0015 22.9253H6.00146C4.89689 22.9253 4.00146 22.0299 4.00146 20.9253V9.75372C4.00146 9.22328 4.21218 8.71458 4.58726 8.3395L5.29435 9.04661C5.10682 9.23415 5.00146 9.4885 5.00146 9.75372V20.9253C5.00146 21.4776 5.44918 21.9253 6.00146 21.9253H18.0015C18.5538 21.9253 19.0015 21.4776 19.0015 20.9253V4.92529C19.0015 4.37301 18.5538 3.92529 18.0015 3.92529H10.8299C10.5647 3.92529 10.3104 4.03065 10.1228 4.21818Z" fill="currentColor"/>
<path fill-rule="evenodd" clip-rule="evenodd" d="M11.0015 3.42529V8.42529C11.0015 9.25372 10.3299 9.92529 9.50146 9.92529H4.50146V8.92529H9.50146C9.77761 8.92529 10.0015 8.70143 10.0015 8.42529V3.42529H11.0015Z" fill="currentColor"/>
<path d="M15.1287 16.9253H14.4287V13.4253H17.0537V14.0303H15.1287V15.0203H16.8287V15.6153H15.1287V16.9253Z" fill="currentColor"/>
<path d="M11.9327 16.9253H10.5127V13.4253H11.9327C13.0677 13.4253 13.7077 14.1803 13.7077 15.1653V15.1753C13.7077 16.1603 13.0677 16.9253 11.9327 16.9253ZM11.2127 14.0403V16.3103H11.8477C12.6327 16.3103 12.9927 15.8403 12.9927 15.1853V15.1753C12.9927 14.5203 12.6327 14.0403 11.8477 14.0403H11.2127Z" fill="currentColor"/>
<path d="M7.87279 16.9253H7.17279V13.4253H8.59779C9.45779 13.4253 9.9128 13.8303 9.9128 14.5953C9.9128 15.3653 9.45279 15.7853 8.59779 15.7853H7.87279V16.9253ZM7.87279 14.0103V15.1953H8.5378C8.98779 15.1953 9.2128 15.0103 9.2128 14.5953C9.2128 14.1903 8.9978 14.0103 8.5378 14.0103H7.87279Z" fill="currentColor"/>
</g>
</g>
</g>
</svg>
