<svg width="25" height="24" viewBox="0 0 25 24" fill="currentColor" xmlns="http://www.w3.org/2000/svg">
<rect width="25" height="24" fill="currentColor"/>
<g id="Icons - SET 2 Trazados - definitivo">
<rect x="-77" y="-856" width="1144" height="1538" rx="20" fill="currentColor"/>
<g id="icon-placeholder">
<path id="Vector" fill-rule="evenodd" clip-rule="evenodd" d="M15.7343 3.8C16.1343 3.39 16.1343 2.72 15.7343 2.31C15.3343 1.9 14.6843 1.9 14.2843 2.31L2.99427 13.89C2.59427 14.3 2.59427 14.97 2.99427 15.38C3.39427 15.79 4.04427 15.79 4.44427 15.38L15.7343 3.8ZM9.06427 2.83C9.46427 3.24 9.46427 3.91 9.06427 4.32L3.93427 9.58C3.53427 9.99 2.88427 9.99 2.48427 9.58C2.08427 9.17 2.08427 8.5 2.48427 8.09L7.61426 2.83C8.01427 2.42 8.66427 2.42 9.06427 2.83ZM21.8843 14.94C22.2843 15.35 22.2843 16.02 21.8843 16.43L16.7543 21.69C16.3543 22.1 15.7043 22.1 15.3043 21.69C14.9043 21.28 14.9043 20.61 15.3043 20.2L20.4343 14.94C20.8343 14.53 21.4843 14.53 21.8843 14.94ZM21.8843 8.62C22.2843 9.03 22.2843 9.7 21.8843 10.11L10.6043 21.69C10.2043 22.1 9.55427 22.1 9.15427 21.69C8.75427 21.28 8.75427 20.61 9.15427 20.2L20.4343 8.62C20.8343 8.21 21.4843 8.21 21.8843 8.62ZM20.8543 4.85C21.2543 4.44 21.2543 3.77 20.8543 3.36C20.4543 2.95 19.8043 2.95 19.4043 3.36L3.99427 19.2C3.59427 19.61 3.59427 20.28 3.99427 20.69C4.39427 21.1 5.04427 21.1 5.44427 20.69L20.8543 4.85Z" fill="currentColor"/>
</g>
</g>
</svg>
