<svg width="24" height="24" viewBox="0 0 24 24" fill="currentColor" xmlns="http://www.w3.org/2000/svg">
<path fill-rule="evenodd" clip-rule="evenodd" d="M10.1213 3.29289L5.29289 8.12132L4.58579 7.41421L9.41421 2.58579C9.78929 2.21071 10.298 2 10.8284 2H18C19.1046 2 20 2.89543 20 4V20C20 21.1046 19.1046 22 18 22H6C4.89543 22 4 21.1046 4 20V8.82843C4 8.29799 4.21071 7.78929 4.58579 7.41421L5.29289 8.12132C5.10536 8.30886 5 8.56321 5 8.82843V20C5 20.5523 5.44772 21 6 21H18C18.5523 21 19 20.5523 19 20V4C19 3.44772 18.5523 3 18 3H10.8284C10.5632 3 10.3089 3.10536 10.1213 3.29289Z" fill="currentColor"/>
<path fill-rule="evenodd" clip-rule="evenodd" d="M11 2.5V7.5C11 8.32843 10.3284 9 9.5 9H4.5V8H9.5C9.77614 8 10 7.77614 10 7.5V2.5H11Z" fill="currentColor"/>
<path d="M15.6159 14.515V13.96H17.2209V16H16.7059V15.455C16.5359 15.845 16.1459 16.06 15.5659 16.06C14.5359 16.06 13.9159 15.405 13.9159 14.315C13.9159 13.175 14.6659 12.44 15.8659 12.44C16.3309 12.44 16.7209 12.525 17.0359 12.705V13.335C16.7409 13.165 16.3159 13.065 15.8909 13.065C15.0859 13.065 14.6309 13.53 14.6309 14.315C14.6309 15.04 15.0159 15.435 15.7309 15.435C16.2859 15.435 16.6159 15.135 16.6159 14.635V14.515H15.6159Z" fill="currentColor"/>
<path d="M12.5282 14.815V12.5H13.1982V16H12.5982L10.8882 13.685V16H10.2182V12.5H10.8182L12.5282 14.815Z" fill="currentColor"/>
<path d="M7.57836 16H6.87836V12.5H8.30336C9.16336 12.5 9.61836 12.905 9.61836 13.67C9.61836 14.44 9.15836 14.86 8.30336 14.86H7.57836V16ZM7.57836 13.085V14.27H8.24336C8.69336 14.27 8.91836 14.085 8.91836 13.67C8.91836 13.265 8.70336 13.085 8.24336 13.085H7.57836Z" fill="currentColor"/>
</svg>
