<svg width="24" height="24" viewBox="0 0 24 24" fill="currentColor" xmlns="http://www.w3.org/2000/svg">
<rect width="24" height="24" fill="currentColor"/>
<g id="Icons - SET 2 Trazados - definitivo">
<rect x="-468" y="-1066" width="1144" height="1538" rx="20" fill="currentColor"/>
<g id="eb-icon-pptx_file">
<g id="Vector">
<path fill-rule="evenodd" clip-rule="evenodd" d="M10.1213 3.29289L5.29289 8.12132L4.58579 7.41421L9.41421 2.58579C9.78929 2.21071 10.298 2 10.8284 2H18C19.1046 2 20 2.89543 20 4V20C20 21.1046 19.1046 22 18 22H6C4.89543 22 4 21.1046 4 20V8.82843C4 8.29799 4.21071 7.78929 4.58579 7.41421L5.29289 8.12132C5.10536 8.30886 5 8.56321 5 8.82843V20C5 20.5523 5.44772 21 6 21H18C18.5523 21 19 20.5523 19 20V4C19 3.44772 18.5523 3 18 3H10.8284C10.5632 3 10.3089 3.10536 10.1213 3.29289Z" fill="currentColor"/>
<path fill-rule="evenodd" clip-rule="evenodd" d="M11 2.5V7.5C11 8.32843 10.3284 9 9.5 9H4.5V8H9.5C9.77614 8 10 7.77614 10 7.5V2.5H11Z" fill="currentColor"/>
<path d="M15.205 16H14.585L15.573 14.572L14.625 13.2H15.253L15.913 14.148L16.573 13.2H17.189L16.249 14.568L17.229 16H16.605L15.905 14.992L15.205 16Z" fill="currentColor"/>
<path d="M13.4432 16H12.8832V13.692H12.0152V13.2H14.3072V13.692H13.4432V16Z" fill="currentColor"/>
<path d="M10.2244 16H9.66441V13.2H10.8044C11.4924 13.2 11.8564 13.524 11.8564 14.136C11.8564 14.752 11.4884 15.088 10.8044 15.088H10.2244V16ZM10.2244 13.668V14.616H10.7564C11.1164 14.616 11.2964 14.468 11.2964 14.136C11.2964 13.812 11.1244 13.668 10.7564 13.668H10.2244Z" fill="currentColor"/>
<path d="M7.55253 16H6.99253V13.2H8.13253C8.82053 13.2 9.18453 13.524 9.18453 14.136C9.18453 14.752 8.81653 15.088 8.13253 15.088H7.55253V16ZM7.55253 13.668V14.616H8.08453C8.44453 14.616 8.62453 14.468 8.62453 14.136C8.62453 13.812 8.45253 13.668 8.08453 13.668H7.55253Z" fill="currentColor"/>
</g>
</g>
</g>
</svg>
