<svg width="24" height="24" viewBox="0 0 24 24" fill="currentColor" xmlns="http://www.w3.org/2000/svg">
<rect width="24" height="24" fill="currentColor"/>
<g id="Icons - SET 2 Trazados - definitivo">
<rect x="-292" y="-1155" width="1144" height="1538" rx="20" fill="currentColor"/>
<g id="eb-icon-products">
<g id="Vector">
<path fill-rule="evenodd" clip-rule="evenodd" d="M3 4V9C3 9.55228 3.44772 10 4 10H9C9.55228 10 10 9.55228 10 9V4C10 3.44772 9.55228 3 9 3H4C3.44772 3 3 3.44772 3 4ZM2 4V9C2 10.1046 2.89543 11 4 11H9C10.1046 11 11 10.1046 11 9V4C11 2.89543 10.1046 2 9 2H4C2.89543 2 2 2.89543 2 4Z" fill="currentColor"/>
<path fill-rule="evenodd" clip-rule="evenodd" d="M3.00003 15V20C3.00003 20.5523 3.44775 21 4.00003 21H9.00003C9.55232 21 10 20.5523 10 20V15C10 14.4477 9.55232 14 9.00003 14H4.00003C3.44775 14 3.00003 14.4477 3.00003 15ZM2.00003 15V20C2.00003 21.1046 2.89546 22 4.00003 22H9.00003C10.1046 22 11 21.1046 11 20V15C11 13.8954 10.1046 13 9.00003 13H4.00003C2.89546 13 2.00003 13.8954 2.00003 15Z" fill="currentColor"/>
<path fill-rule="evenodd" clip-rule="evenodd" d="M14.0001 15V20C14.0001 20.5523 14.4478 21 15.0001 21H20.0001C20.5524 21 21.0001 20.5523 21.0001 20V15C21.0001 14.4477 20.5524 14 20.0001 14H15.0001C14.4478 14 14.0001 14.4477 14.0001 15ZM13.0001 15V20C13.0001 21.1046 13.8955 22 15.0001 22H20.0001C21.1046 22 22.0001 21.1046 22.0001 20V15C22.0001 13.8954 21.1046 13 20.0001 13H15.0001C13.8955 13 13.0001 13.8954 13.0001 15Z" fill="currentColor"/>
<path fill-rule="evenodd" clip-rule="evenodd" d="M20.1843 5.73734L18.2628 3.81577C17.8722 3.42524 17.2391 3.42524 16.8486 3.81577L14.927 5.73734C14.5365 6.12786 14.5365 6.76103 14.927 7.15155L16.8486 9.07312C17.2391 9.46365 17.8722 9.46365 18.2628 9.07312L20.1843 7.15155C20.5749 6.76103 20.5749 6.12786 20.1843 5.73734ZM18.9699 3.10866L20.8914 5.03023C21.6725 5.81128 21.6725 7.07761 20.8914 7.85866L18.9699 9.78023C18.1888 10.5613 16.9225 10.5613 16.1414 9.78023L14.2199 7.85866C13.4388 7.07761 13.4388 5.81128 14.2199 5.03023L16.1414 3.10866C16.9225 2.32761 18.1888 2.32761 18.9699 3.10866Z" fill="currentColor"/>
</g>
</g>
</g>
</svg>
