<svg width="24" height="24" viewBox="0 0 24 24" fill="currentColor" xmlns="http://www.w3.org/2000/svg">
<rect width="24" height="24" fill="currentColor"/>
<g id="Icons - SET 2 Trazados - definitivo">
<rect x="-380" y="-1109" width="1144" height="1538" rx="20" fill="currentColor"/>
<g id="eb-icon-question">
<g id="Vector">
<path fill-rule="evenodd" clip-rule="evenodd" d="M12 21C16.9706 21 21 16.9706 21 12C21 7.02944 16.9706 3 12 3C7.02944 3 3 7.02944 3 12C3 16.9706 7.02944 21 12 21ZM12 22C17.5228 22 22 17.5228 22 12C22 6.47715 17.5228 2 12 2C6.47715 2 2 6.47715 2 12C2 17.5228 6.47715 22 12 22Z" fill="currentColor"/>
<path fill-rule="evenodd" clip-rule="evenodd" d="M12.9553 8.22516C12.3768 7.84546 11.6202 7.84739 11.0387 8.22909C10.7167 8.44048 10.4707 8.7533 10.3429 9.11492L9.97145 10.1665C9.87947 10.4269 9.59383 10.5634 9.33346 10.4714C9.07308 10.3795 8.93657 10.0938 9.02855 9.83346L9.40005 8.78184C9.60121 8.21239 9.98651 7.72358 10.49 7.39311C11.4016 6.79472 12.5894 6.78879 13.504 7.38918L13.5714 7.43338C14.0392 7.74047 14.3908 8.19525 14.5703 8.7253C14.8784 9.63538 14.6393 10.6415 13.9546 11.3156L13.2323 12.0268C13.0853 12.1716 12.9529 12.3306 12.8372 12.5015L12.5615 12.9087C12.5214 12.9679 12.5 13.0377 12.5 13.1092V15C12.5 15.2761 12.2761 15.5 12 15.5C11.7239 15.5 11.5 15.2761 11.5 15V13.1092C11.5 12.8378 11.5813 12.5727 11.7334 12.348L12.0092 11.9408C12.1619 11.7152 12.3366 11.5054 12.5307 11.3142L13.253 10.6031C13.6646 10.1978 13.8083 9.59303 13.6231 9.04597C13.5152 8.72734 13.3039 8.45396 13.0226 8.26937L12.9553 8.22516Z" fill="currentColor"/>
<path fill-rule="evenodd" clip-rule="evenodd" d="M12 16.5C12.2761 16.5 12.5 16.7239 12.5 17V17.1C12.5 17.3761 12.2761 17.6 12 17.6C11.7239 17.6 11.5 17.3761 11.5 17.1V17C11.5 16.7239 11.7239 16.5 12 16.5Z" fill="currentColor"/>
</g>
</g>
</g>
</svg>
