<svg width="24" height="24" viewBox="0 0 24 24" fill="currentColor" xmlns="http://www.w3.org/2000/svg">
<rect width="24" height="24" fill="currentColor"/>
<g id="Icons - SET 2 Trazados - definitivo">
<rect x="-160" y="-1290" width="1144" height="1538" rx="20" fill="currentColor"/>
<g id="eb-icon-quity_variation">
<g id="Vector">
<path fill-rule="evenodd" clip-rule="evenodd" d="M11.4448 3.96667C10.8941 3.54364 10.106 3.54363 9.55516 3.96668L3.55516 8.57468C3.55516 8.57468 3.55516 8.57468 3.55516 8.57468C3.20025 8.84725 3 9.25412 3 9.67735V17.4906C3 18.2558 3.65213 18.9106 4.5 18.9106H6.9C7.74787 18.9106 8.4 18.2558 8.4 17.4906V15.5799C8.4 14.7545 9.09102 14.1199 9.9 14.1199H11.5C12.309 14.1199 13 14.7545 13 15.5799V16.8055H12V15.5799C12 15.3449 11.7956 15.1199 11.5 15.1199H9.9C9.60442 15.1199 9.4 15.3449 9.4 15.5799V17.4906C9.4 18.8462 8.26127 19.9106 6.9 19.9106H4.5C3.13873 19.9106 2 18.8462 2 17.4906V9.67735C2 8.93415 2.35211 8.23774 2.94606 7.78159L8.94606 3.17358C9.8561 2.47467 11.1439 2.47466 12.054 3.17359L18.0539 7.78158C18.6478 8.23773 19 8.93414 19 9.67735V12.5779H18V9.67735C18 9.25413 17.7997 8.84725 17.4448 8.57467L11.4448 3.96667Z" fill="currentColor"/>
<path fill-rule="evenodd" clip-rule="evenodd" d="M17 12.7106C14.7714 12.7106 13 14.4399 13 16.5306C13 18.6213 14.7714 20.3506 17 20.3506C19.2286 20.3506 21 18.6213 21 16.5306C21 14.4399 19.2286 12.7106 17 12.7106ZM12 16.5306C12 13.8495 14.258 11.7106 17 11.7106C19.742 11.7106 22 13.8495 22 16.5306C22 19.2117 19.742 21.3506 17 21.3506C14.258 21.3506 12 19.2117 12 16.5306Z" fill="currentColor"/>
<path fill-rule="evenodd" clip-rule="evenodd" d="M15.2513 14.8099C15.3932 14.6842 15.6068 14.6842 15.7487 14.8099L16.7487 15.6961C16.9037 15.8335 16.918 16.0705 16.7807 16.2255C16.6433 16.3805 16.4063 16.3948 16.2513 16.2574L15.875 15.924V17.9706C15.875 18.1777 15.7071 18.3456 15.5 18.3456C15.2929 18.3456 15.125 18.1777 15.125 17.9706V15.924L14.7487 16.2574C14.5937 16.3948 14.3567 16.3805 14.2193 16.2255C14.082 16.0705 14.0963 15.8335 14.2513 15.6961L15.2513 14.8099Z" fill="currentColor"/>
<path fill-rule="evenodd" clip-rule="evenodd" d="M18.5 14.7156C18.7071 14.7156 18.875 14.8835 18.875 15.0906V17.1372L19.2513 16.8038C19.4063 16.6664 19.6433 16.6807 19.7807 16.8357C19.918 16.9907 19.9037 17.2277 19.7487 17.3651L18.7487 18.2513C18.6068 18.377 18.3932 18.377 18.2513 18.2513L17.2513 17.3651C17.0963 17.2277 17.082 16.9907 17.2193 16.8357C17.3567 16.6807 17.5937 16.6664 17.7487 16.8038L18.125 17.1372V15.0906C18.125 14.8835 18.2929 14.7156 18.5 14.7156Z" fill="currentColor"/>
</g>
</g>
</g>
</svg>
