<svg width="24" height="24" viewBox="0 0 24 24" fill="currentColor" xmlns="http://www.w3.org/2000/svg">
<rect width="24" height="24" fill="currentColor"/>
<g id="Icons - SET 2 Trazados - definitivo">
<rect x="-512" y="-1109" width="1144" height="1538" rx="20" fill="currentColor"/>
<g id="eb-icon-regulation">
<path id="Vector" d="M9 7.5C8.72386 7.5 8.5 7.72386 8.5 8C8.5 8.27614 8.72386 8.5 9 8.5V7.5ZM17 8.5C17.2761 8.5 17.5 8.27614 17.5 8C17.5 7.72386 17.2761 7.5 17 7.5V8.5ZM9 10.5C8.72386 10.5 8.5 10.7239 8.5 11C8.5 11.2761 8.72386 11.5 9 11.5V10.5ZM17 11.5C17.2761 11.5 17.5 11.2761 17.5 11C17.5 10.7239 17.2761 10.5 17 10.5V11.5ZM9 13.5C8.72386 13.5 8.5 13.7239 8.5 14C8.5 14.2761 8.72386 14.5 9 14.5V13.5ZM17 14.5C17.2761 14.5 17.5 14.2761 17.5 14C17.5 13.7239 17.2761 13.5 17 13.5V14.5ZM4.5863 21.3987L4.27847 21.7927L4.27857 21.7928L4.5863 21.3987ZM18.6053 21.4261L18.2974 21.8201L18.2976 21.8202L18.6053 21.4261ZM6 18.4913V4.5H5V18.4913H6ZM6 4.5C6 3.67157 6.67157 3 7.5 3V2C6.11929 2 5 3.11929 5 4.5H6ZM7.5 3H18.5V2H7.5V3ZM18.5 3C19.3285 3 20 3.67157 20 4.5H21C21 3.11929 19.8807 2 18.5 2V3ZM20 19.5C20 20.3285 19.3285 21 18.5 21V22C19.8807 22 21 20.8807 21 19.5H20ZM18.5 21H17.4644V22H18.5V21ZM9 8.5H17V7.5H9V8.5ZM9 11.5H17V10.5H9V11.5ZM9 14.5H17V13.5H9V14.5ZM3 19.1363V19.1804H4V19.1363H3ZM3 19.1804C3 20.2005 3.47207 21.1627 4.27847 21.7927L4.89413 21.0047C4.32843 20.5627 4 19.8903 4 19.1804H3ZM4.27857 21.7928C4.45083 21.9273 4.66315 22 4.88125 22V21C4.88529 21 4.88979 21.0013 4.89403 21.0046L4.27857 21.7928ZM4.88125 22H18.5799V21H4.88125V22ZM18.5799 22C19.0953 22 19.3185 21.3486 18.913 21.032L18.2976 21.8202C17.9541 21.552 18.1431 21 18.5799 21V22ZM18.9132 21.0321C18.3254 20.5728 17.984 19.874 17.984 19.1363H16.984C16.984 20.1842 17.469 21.1728 18.2974 21.8201L18.9132 21.0321ZM17.984 19.1363C17.984 18.5867 17.5353 18.15 16.9927 18.15V19.15C16.9931 19.15 16.9922 19.15 16.9908 19.1494C16.9898 19.149 16.989 19.1484 16.9884 19.1478C16.9877 19.1472 16.9866 19.1458 16.9856 19.1435C16.9845 19.1408 16.984 19.138 16.984 19.1363H17.984ZM16.9927 18.15H3.99135V19.15H16.9927V18.15ZM3.99135 18.15C3.44873 18.15 3 18.5867 3 19.1363H4C4 19.138 3.99954 19.1408 3.99839 19.1435C3.99738 19.1458 3.99628 19.1472 3.99563 19.1478C3.99498 19.1484 3.9942 19.149 3.99315 19.1494C3.99179 19.15 3.99087 19.15 3.99135 19.15V18.15ZM20 4.5V19.5H21V4.5H20Z" fill="currentColor"/>
</g>
</g>
</svg>
