<svg width="24" height="24" viewBox="0 0 24 24" fill="currentColor" xmlns="http://www.w3.org/2000/svg">
<rect width="24" height="24" fill="currentColor"/>
<g id="Icons - SET 2 Trazados - definitivo">
<rect x="-72" y="-1289" width="1144" height="1538" rx="20" fill="currentColor"/>
<g id="eb-icon-reload">
<g id="Vector">
<path fill-rule="evenodd" clip-rule="evenodd" d="M21.5001 11.5C21.7763 11.5 22.0001 11.7239 22.0001 12C22.0001 17.5228 17.523 22 12.0001 22C7.77717 22 4.16677 19.3826 2.70044 15.6833C2.59869 15.4266 2.7243 15.136 2.98101 15.0343C3.23772 14.9325 3.52832 15.0581 3.63007 15.3149C4.95043 18.6458 8.20095 21 12.0001 21C16.9707 21 21.0001 16.9706 21.0001 12C21.0001 11.7239 21.224 11.5 21.5001 11.5Z" fill="currentColor"/>
<path fill-rule="evenodd" clip-rule="evenodd" d="M2 15C2 14.7239 2.22386 14.5 2.5 14.5H6C6.27614 14.5 6.5 14.7239 6.5 15C6.5 15.2761 6.27614 15.5 6 15.5H3V18.5C3 18.7761 2.77614 19 2.5 19C2.22386 19 2 18.7761 2 18.5V15Z" fill="currentColor"/>
<path fill-rule="evenodd" clip-rule="evenodd" d="M12 3C7.02943 3 3 7.02943 3 12C3 12.2761 2.77614 12.5 2.5 12.5C2.22386 12.5 2 12.2761 2 12C2 6.47715 6.47715 2 12 2C16.2229 2 19.8334 4.61745 21.2996 8.3167C21.4014 8.57341 21.2758 8.864 21.0191 8.96576C20.7624 9.06751 20.4718 8.94189 20.37 8.68518C19.0497 5.35419 15.7991 3 12 3Z" fill="currentColor"/>
<path fill-rule="evenodd" clip-rule="evenodd" d="M21.5001 5C21.7763 5 22.0001 5.22386 22.0001 5.5V9C22.0001 9.27614 21.7763 9.5 21.5001 9.5H18.0001C17.724 9.5 17.5001 9.27614 17.5001 9C17.5001 8.72386 17.724 8.5 18.0001 8.5H21.0001V5.5C21.0001 5.22386 21.224 5 21.5001 5Z" fill="currentColor"/>
</g>
</g>
</g>
</svg>
