<svg width="24" height="24" viewBox="0 0 24 24" fill="currentColor" xmlns="http://www.w3.org/2000/svg">
<rect width="24" height="24" fill="currentColor"/>
<g id="Icons - SET 2 Trazados - definitivo">
<rect x="-861" y="-1110" width="1144" height="1538" rx="20" fill="currentColor"/>
<g id="eb-icon-remove_squared">
<g id="Vector">
<path fill-rule="evenodd" clip-rule="evenodd" d="M3.5 3C3.3674 3 3.24023 3.05267 3.14645 3.14643C3.14645 3.14644 3.14646 3.14643 3.14645 3.14643M3.14645 3.14643C3.05269 3.24021 3 3.3674 3 3.5V20.5C3 20.6326 3.0527 20.7598 3.14642 20.8535C3.24023 20.9473 3.36744 21 3.5 21H20.5C20.6326 21 20.7598 20.9473 20.8535 20.8535C20.9473 20.7598 21 20.6326 21 20.5V3.5C21 3.36744 20.9473 3.24023 20.8535 3.14642C20.7598 3.0527 20.6326 3 20.5 3H3.5M2.43935 2.43933C2.72065 2.15804 3.10217 2 3.5 2H20.5C20.8978 2 21.2794 2.15802 21.5607 2.43936C21.8419 2.72062 22 3.10212 22 3.5V20.5C22 20.8978 21.8419 21.2794 21.5607 21.5607C21.2794 21.8419 20.8978 22 20.5 22H3.5C3.10212 22 2.72063 21.8419 2.43937 21.5607C2.15803 21.2794 2 20.8978 2 20.5V3.5C2 3.10217 2.15806 2.72063 2.43935 2.43933Z" fill="currentColor"/>
<path fill-rule="evenodd" clip-rule="evenodd" d="M7.25735 12C7.25735 11.7239 7.48121 11.5 7.75735 11.5H16.2426C16.5187 11.5 16.7426 11.7239 16.7426 12C16.7426 12.2761 16.5187 12.5 16.2426 12.5H7.75735C7.48121 12.5 7.25735 12.2761 7.25735 12Z" fill="currentColor"/>
</g>
</g>
</g>
</svg>
