<svg width="24" height="24" viewBox="0 0 24 24" fill="currentColor" xmlns="http://www.w3.org/2000/svg">
<rect width="24" height="24" fill="currentColor"/>
<g id="Icons - SET 2 Trazados - definitivo">
<rect x="-820" y="-1110" width="1144" height="1538" rx="20" fill="currentColor"/>
<g id="eb-icon-remove_circle">
<path id="Vector" d="M7.53407 12H16.4659M19.0715 19.0705L19.0705 19.0715C18.143 20.0013 17.041 20.7386 15.8278 21.2412C14.6145 21.7438 13.3139 22.0016 12.0006 22H11.9994C10.6861 22.0016 9.38548 21.7438 8.1722 21.2412C6.95893 20.7386 5.85691 20.0013 4.92948 19.0715L4.92854 19.0705C3.99876 18.143 3.26142 17.041 2.75885 15.8278C2.25627 14.6145 1.99839 13.3139 2.00001 12.0006V11.9994C1.99839 10.6861 2.25627 9.38547 2.75885 8.17221C3.26142 6.95893 3.99877 5.85691 4.92854 4.92948L4.92948 4.92854C5.85691 3.99877 6.95893 3.26142 8.1722 2.75884C9.38548 2.25627 10.6861 1.99839 11.9994 2.00001H12.0006C13.3139 1.99839 14.6145 2.25627 15.8278 2.75884C17.041 3.26142 18.143 3.99877 19.0705 4.92854L19.0715 4.92947C20.0013 5.85691 20.7386 6.95893 21.2412 8.17221C21.7437 9.38547 22.0016 10.6861 22 11.9994V12.0006C22.0016 13.3139 21.7437 14.6145 21.2412 15.8278C20.7386 17.041 20.0013 18.143 19.0715 19.0705Z" fill="currentColor" stroke-linecap="round" stroke-linejoin="round"/>
</g>
</g>
</svg>
