<svg width="24" height="25" viewBox="0 0 24 25" fill="currentColor" xmlns="http://www.w3.org/2000/svg">
<rect width="24" height="25" fill="currentColor"/>
<g id="Icons - SET 2 Trazados - definitivo">
<rect x="-302" y="-1208" width="1144" height="1538" rx="20" fill="currentColor"/>
<g id="eb-icon-save">
<g id="Vector">
<path fill-rule="evenodd" clip-rule="evenodd" d="M7.05566 3.48083C7.05566 3.20469 7.27951 2.98083 7.55566 2.98083H16.4445C16.7207 2.98083 16.9445 3.20469 16.9445 3.48083V11.2586C16.9445 11.5347 16.7207 11.7586 16.4445 11.7586H7.55566C7.27951 11.7586 7.05566 11.5347 7.05566 11.2586V3.48083ZM8.05566 3.98083V10.7586H15.9445V3.98083H8.05566Z" fill="currentColor"/>
<path fill-rule="evenodd" clip-rule="evenodd" d="M13.3897 4.64752C13.6659 4.64752 13.8897 4.87138 13.8897 5.14752V9.59196C13.8897 9.8681 13.6659 10.092 13.3897 10.092C13.1136 10.092 12.8897 9.8681 12.8897 9.59196V5.14752C12.8897 4.87138 13.1136 4.64752 13.3897 4.64752Z" fill="currentColor"/>
<path fill-rule="evenodd" clip-rule="evenodd" d="M4.00012 3.97792C3.4769 3.97792 3.05275 4.40207 3.05275 4.92529V20.9253C3.05275 21.4485 3.47691 21.8727 4.00012 21.8727H20.0001C20.5233 21.8727 20.9475 21.4485 20.9475 20.9253V4.92529C20.9475 4.40208 20.5233 3.97792 20.0001 3.97792H4.00012ZM2.00012 4.92529C2.00012 3.82072 2.89555 2.92529 4.00012 2.92529H20.0001C21.1047 2.92529 22.0001 3.82072 22.0001 4.92529V20.9253C22.0001 22.0299 21.1047 22.9253 20.0001 22.9253H4.00012C2.89554 22.9253 2.00012 22.0299 2.00012 20.9253V4.92529Z" fill="currentColor"/>
</g>
</g>
</g>
</svg>
