<svg width="24" height="24" viewBox="0 0 24 24" fill="currentColor" xmlns="http://www.w3.org/2000/svg">
<rect width="24" height="24" fill="currentColor"/>
<g id="Iconos no tokenizados">
<rect width="1884" height="2080" transform="translate(-202 -255)" fill="currentColor"/>
<g id="eb-icon-search">
<g id="Vector">
<path fill-rule="evenodd" clip-rule="evenodd" d="M9.88889 3C6.08426 3 3 6.08426 3 9.88889C3 13.6935 6.08426 16.7778 9.88889 16.7778C13.6935 16.7778 16.7778 13.6935 16.7778 9.88889C16.7778 6.08426 13.6935 3 9.88889 3ZM2 9.88889C2 5.53198 5.53198 2 9.88889 2C14.2458 2 17.7778 5.53198 17.7778 9.88889C17.7778 14.2458 14.2458 17.7778 9.88889 17.7778C5.53198 17.7778 2 14.2458 2 9.88889Z" fill="currentColor"/>
<path fill-rule="evenodd" clip-rule="evenodd" d="M14.8131 14.8131C15.0084 14.6179 15.325 14.6179 15.5202 14.8131L21.8536 21.1464C22.0488 21.3417 22.0488 21.6583 21.8536 21.8536C21.6583 22.0488 21.3417 22.0488 21.1464 21.8536L14.8131 15.5202C14.6179 15.325 14.6179 15.0084 14.8131 14.8131Z" fill="currentColor"/>
</g>
</g>
</g>
</svg>
