<svg width="25" height="24" viewBox="0 0 25 24" fill="currentColor" xmlns="http://www.w3.org/2000/svg">
<rect width="25" height="24" fill="currentColor"/>
<g id="Icons - SET 2 Trazados - definitivo">
<rect x="-289" y="-1022" width="1144" height="1538" rx="20" fill="currentColor"/>
<g id="eb-icon-send">
<path id="Vector" fill-rule="evenodd" clip-rule="evenodd" d="M5.32326 4.48188C4.59587 4.1756 3.90548 4.39951 3.48994 4.84594C3.08267 5.28348 2.97668 5.87899 3.36798 6.43918L7.25226 12L3.36798 17.5609C2.97669 18.121 3.08266 18.7165 3.48994 19.1541C3.90551 19.6005 4.59589 19.8244 5.32325 19.5181L20.2428 13.2361C21.4161 12.742 21.4161 11.258 20.2429 10.7639L5.32326 4.48188ZM2.75797 4.1646C3.43869 3.43328 4.56982 3.0796 5.71133 3.56025L20.6309 9.84229C22.6201 10.6799 22.6201 13.3201 20.6309 14.1577L5.71134 20.4398C4.5698 20.9205 3.43867 20.5667 2.75796 19.8354C2.07367 19.1002 1.85149 17.9856 2.54817 16.9882L6.03251 12L2.54818 7.01182C1.8515 6.01445 2.07365 4.89978 2.75797 4.1646Z" fill="currentColor"/>
</g>
</g>
</svg>
