<svg width="24" height="24" viewBox="0 0 24 24" fill="currentColor" xmlns="http://www.w3.org/2000/svg">
<rect width="24" height="24" fill="currentColor"/>
<g id="Icons - SET 2 Trazados - definitivo">
<rect x="-656" y="-688" width="1144" height="907" rx="20" fill="currentColor"/>
<g id="table">
<g id="row-8">
<g id="eb-icon-settings">
<g id="Vector">
<path fill-rule="evenodd" clip-rule="evenodd" d="M16.001 10.5085C16.8294 10.5085 17.501 11.1801 17.501 12.0085C17.501 12.8369 16.8294 13.5085 16.001 13.5085C15.1726 13.5085 14.501 12.8369 14.501 12.0085C14.501 11.1801 15.1726 10.5085 16.001 10.5085ZM18.501 12.0085C18.501 10.6278 17.3817 9.50848 16.001 9.50848C14.6203 9.50848 13.501 10.6278 13.501 12.0085C13.501 13.3892 14.6203 14.5085 16.001 14.5085C17.3817 14.5085 18.501 13.3892 18.501 12.0085Z" fill="currentColor"/>
<path fill-rule="evenodd" clip-rule="evenodd" d="M22.001 12.0085C22.001 11.7324 21.7771 11.5085 21.501 11.5085H18.501C18.2249 11.5085 18.001 11.7324 18.001 12.0085C18.001 12.2846 18.2249 12.5085 18.501 12.5085H21.501C21.7771 12.5085 22.001 12.2846 22.001 12.0085Z" fill="currentColor"/>
<path fill-rule="evenodd" clip-rule="evenodd" d="M8.00098 4.00848C7.17255 4.00848 6.50098 4.68005 6.50098 5.50848C6.50098 6.33691 7.17255 7.00848 8.00098 7.00848C8.82941 7.00848 9.50098 6.33691 9.50098 5.50848C9.50098 4.68005 8.82941 4.00848 8.00098 4.00848ZM5.50098 5.50848C5.50098 4.12777 6.62027 3.00848 8.00098 3.00848C9.38169 3.00848 10.501 4.12777 10.501 5.50848C10.501 6.88919 9.38169 8.00848 8.00098 8.00848C6.62027 8.00848 5.50098 6.88919 5.50098 5.50848Z" fill="currentColor"/>
<path fill-rule="evenodd" clip-rule="evenodd" d="M2.00098 5.50848C2.00098 5.23234 2.22484 5.00848 2.50098 5.00848H5.50098C5.77712 5.00848 6.00098 5.23234 6.00098 5.50848C6.00098 5.78462 5.77712 6.00848 5.50098 6.00848H2.50098C2.22484 6.00848 2.00098 5.78462 2.00098 5.50848Z" fill="currentColor"/>
<path fill-rule="evenodd" clip-rule="evenodd" d="M12.001 5.50848C12.001 5.23234 12.2249 5.00848 12.501 5.00848H21.501C21.7771 5.00848 22.001 5.23234 22.001 5.50848C22.001 5.78462 21.7771 6.00848 21.501 6.00848H12.501C12.2249 6.00848 12.001 5.78462 12.001 5.50848Z" fill="currentColor"/>
<path fill-rule="evenodd" clip-rule="evenodd" d="M8.00098 17.0085C7.17255 17.0085 6.50098 17.6801 6.50098 18.5085C6.50098 19.3369 7.17255 20.0085 8.00098 20.0085C8.82941 20.0085 9.50098 19.3369 9.50098 18.5085C9.50098 17.6801 8.82941 17.0085 8.00098 17.0085ZM5.50098 18.5085C5.50098 17.1278 6.62027 16.0085 8.00098 16.0085C9.38169 16.0085 10.501 17.1278 10.501 18.5085C10.501 19.8892 9.38169 21.0085 8.00098 21.0085C6.62027 21.0085 5.50098 19.8892 5.50098 18.5085Z" fill="currentColor"/>
<path fill-rule="evenodd" clip-rule="evenodd" d="M2.00098 18.5085C2.00098 18.2324 2.22484 18.0085 2.50098 18.0085H5.50098C5.77712 18.0085 6.00098 18.2324 6.00098 18.5085C6.00098 18.7846 5.77712 19.0085 5.50098 19.0085H2.50098C2.22484 19.0085 2.00098 18.7846 2.00098 18.5085Z" fill="currentColor"/>
<path fill-rule="evenodd" clip-rule="evenodd" d="M12.001 18.5085C12.001 18.2324 12.2249 18.0085 12.501 18.0085H21.501C21.7771 18.0085 22.001 18.2324 22.001 18.5085C22.001 18.7846 21.7771 19.0085 21.501 19.0085H12.501C12.2249 19.0085 12.001 18.7846 12.001 18.5085Z" fill="currentColor"/>
<path fill-rule="evenodd" clip-rule="evenodd" d="M12.001 12.0085C12.001 11.7324 11.7771 11.5085 11.501 11.5085H2.50098C2.22484 11.5085 2.00098 11.7324 2.00098 12.0085C2.00098 12.2846 2.22484 12.5085 2.50098 12.5085H11.501C11.7771 12.5085 12.001 12.2846 12.001 12.0085Z" fill="currentColor"/>
</g>
</g>
</g>
</g>
</g>
</svg>
