<svg width="24" height="24" viewBox="0 0 24 24" fill="currentColor" xmlns="http://www.w3.org/2000/svg">
<rect width="24" height="24" fill="currentColor"/>
<g id="Icons - SET 2 Trazados - definitivo">
<rect x="-248" y="-1021" width="1144" height="1538" rx="20" fill="currentColor"/>
<g id="eb-icon-share">
<path id="Vector" d="M16.7083 6.05963L7.30165 10.7297M7.30165 13.2703L16.7083 17.9404M7.5 12C7.5 12.663 7.23661 13.2989 6.76777 13.7678C6.29893 14.2366 5.66304 14.5 5 14.5C4.33696 14.5 3.70107 14.2366 3.23223 13.7678C2.76339 13.2989 2.5 12.663 2.5 12C2.5 11.337 2.76339 10.7011 3.23223 10.2322C3.70107 9.76339 4.33696 9.5 5 9.5C5.66304 9.5 6.29893 9.76339 6.76777 10.2322C7.23661 10.7011 7.5 11.337 7.5 12ZM21.5 5C21.5 5.66304 21.2366 6.29893 20.7678 6.76777C20.2989 7.23661 19.663 7.5 19 7.5C18.337 7.5 17.7011 7.23661 17.2322 6.76777C16.7634 6.29893 16.5 5.66304 16.5 5C16.5 4.33696 16.7634 3.70107 17.2322 3.23223C17.7011 2.76339 18.337 2.5 19 2.5C19.663 2.5 20.2989 2.76339 20.7678 3.23223C21.2366 3.70107 21.5 4.33696 21.5 5ZM21.5 19C21.5 19.663 21.2366 20.2989 20.7678 20.7678C20.2989 21.2366 19.663 21.5 19 21.5C18.337 21.5 17.7011 21.2366 17.2322 20.7678C16.7634 20.2989 16.5 19.663 16.5 19C16.5 18.337 16.7634 17.7011 17.2322 17.2322C17.7011 16.7634 18.337 16.5 19 16.5C19.663 16.5 20.2989 16.7634 20.7678 17.2322C21.2366 17.7011 21.5 18.337 21.5 19Z" fill="currentColor" stroke-linecap="round" stroke-linejoin="round"/>
</g>
</g>
</svg>
