<svg width="24" height="24" viewBox="0 0 24 24" fill="currentColor" xmlns="http://www.w3.org/2000/svg">
<rect width="24" height="24" fill="currentColor"/>
<g id="Icons - SET 2 Trazados - definitivo">
<rect x="-336" y="-1111" width="1144" height="1538" rx="20" fill="currentColor"/>
<g id="eb-icon-support">
<path id="Vector" d="M12.1689 7.73448L12.1689 7.73449L12.169 7.73458L12.1706 7.73626L15.8572 11.6062C15.9076 11.659 15.9661 11.68 16.0174 11.68C16.0689 11.68 16.1274 11.6589 16.1775 11.6063C16.1775 11.6063 16.1775 11.6063 16.1775 11.6063L19.8607 7.73928C20.2683 7.29802 20.5016 6.69749 20.4977 6.06515V6.06507C20.4939 5.43068 20.2517 4.83175 19.8365 4.39595C19.4227 3.9617 18.8722 3.72468 18.3069 3.72096C17.7416 3.71724 17.1886 3.94701 16.7701 4.3754L16.77 4.37548C16.5701 4.58005 16.2956 4.69535 16.0084 4.69288L12.1689 7.73448ZM12.1689 7.73448L12.1658 7.73125M12.1689 7.73448L12.1658 7.73125M12.8753 3.85243C12.6102 3.96741 12.3662 4.1375 12.1589 4.35517C11.9515 4.57299 11.7847 4.83409 11.6704 5.12455L12.8753 3.85243ZM12.8753 3.85243C13.1405 3.73752 13.4229 3.67935 13.7069 3.68001L13.7069 3.68001M12.8753 3.85243L13.7069 3.68001M12.1658 7.73125C11.9575 7.51439 11.7897 7.25411 11.6743 6.96427L11.6743 6.96415M12.1658 7.73125L11.6743 6.96415M11.6743 6.96415C11.5587 6.67416 11.4984 6.36162 11.4977 6.04488M11.6743 6.96415L11.4977 6.04488M13.7069 3.68001C13.9909 3.68066 14.2731 3.74012 14.5377 3.85626L14.5377 3.85628M13.7069 3.68001L14.5377 3.85628M14.5377 3.85628C14.8026 3.97247 15.0458 4.14371 15.2523 4.36241L15.2523 4.36243M14.5377 3.85628L15.2523 4.36243M15.2523 4.36243C15.4487 4.57041 15.7212 4.69042 16.0083 4.69288L15.2523 4.36243ZM11.4977 6.04488C11.4971 5.72817 11.5561 5.41532 11.6704 5.1247L11.4977 6.04488ZM2.49774 12.64C2.49774 12.3731 2.61147 12.1309 2.79548 11.9566C2.61106 12.1316 2.49774 12.3744 2.49774 12.64ZM5.49774 19.36C5.49774 19.6269 5.38401 19.8691 5.20001 20.0434C5.38443 19.8684 5.49774 19.6256 5.49774 19.36Z" fill="currentColor" stroke-linecap="round" stroke-linejoin="round"/>
</g>
</g>
</svg>
