<svg width="24" height="24" viewBox="0 0 24 24" fill="currentColor" xmlns="http://www.w3.org/2000/svg">
<rect width="24" height="24" fill="currentColor"/>
<g id="Icons - SET 2 Trazados - definitivo">
<rect x="-468" y="-1154" width="1144" height="1538" rx="20" fill="currentColor"/>
<g id="eb-icon-ticket">
<path id="Vector" d="M14 9L15 10M12 7L13 8M16 11L17 12M19.7095 8.54195C20.0758 8.36372 20.3497 8.42131 20.4492 8.52079L21.1231 9.19468C21.3644 9.43603 21.5 9.76336 21.5 10.1047C21.5 10.446 21.3644 10.7733 21.1231 11.0147L11.0147 21.1231C10.7733 21.3644 10.446 21.5 10.1047 21.5C9.76336 21.5 9.43602 21.3644 9.19468 21.1231L8.52079 20.4492C8.42131 20.3497 8.36372 20.0758 8.54195 19.7095C8.75101 19.2799 8.86265 18.8046 8.86265 18.3177C8.86265 17.4743 8.52757 16.6653 7.93113 16.0689C7.33469 15.4724 6.52574 15.1374 5.68225 15.1374C5.1954 15.1374 4.72005 15.249 4.29048 15.458C3.92424 15.6363 3.6503 15.5787 3.55083 15.4792L2.87693 14.8053C2.63559 14.564 2.5 14.2366 2.5 13.8953C2.5 13.554 2.63559 13.2267 2.87693 12.9853L12.9853 2.87693C13.2267 2.63559 13.554 2.5 13.8953 2.5C14.2366 2.5 14.564 2.63559 14.8053 2.87693L15.4792 3.55083C15.5787 3.6503 15.6363 3.92424 15.458 4.29048C15.249 4.72005 15.1374 5.1954 15.1374 5.68225C15.1374 6.52575 15.4724 7.33469 16.0689 7.93113C16.6653 8.52757 17.4743 8.86265 18.3177 8.86265C18.8046 8.86265 19.2799 8.75101 19.7095 8.54195Z" fill="currentColor" stroke-linecap="round"/>
</g>
</g>
</svg>
