<svg width="24" height="24" viewBox="0 0 24 24" fill="currentColor" xmlns="http://www.w3.org/2000/svg">
<rect width="24" height="24" fill="currentColor"/>
<g id="Icons - SET 2 Trazados - definitivo">
<rect x="-864" y="-1021" width="1144" height="1538" rx="20" fill="currentColor"/>
<g id="eb-icon-trash">
<g id="Vector">
<path fill-rule="evenodd" clip-rule="evenodd" d="M9.32396 8.57761C9.5999 8.56705 9.83215 8.78219 9.84271 9.05813L10.1782 17.8271C10.1888 18.1031 9.97365 18.3353 9.69771 18.3459C9.42177 18.3564 9.18951 18.1413 9.17896 17.8654L8.84344 9.09636C8.83288 8.82042 9.04802 8.58817 9.32396 8.57761ZM14.6761 8.57761C14.9521 8.58817 15.1672 8.82042 15.1567 9.09636L14.8211 17.8654C14.8106 18.1413 14.5783 18.3564 14.3024 18.3459C14.0264 18.3353 13.8113 18.1031 13.8219 17.8271L14.1574 9.05813C14.1679 8.78219 14.4002 8.56705 14.6761 8.57761Z" fill="currentColor"/>
<path fill-rule="evenodd" clip-rule="evenodd" d="M20.4414 6.49655C14.8582 5.83682 9.14309 5.84242 3.55822 6.4966C3.28395 6.52873 3.03557 6.33244 3.00344 6.05817C2.97132 5.7839 3.16761 5.53552 3.44188 5.5034C9.10337 4.84024 14.8969 4.83443 20.5587 5.50345C20.833 5.53586 21.029 5.78444 20.9966 6.05867C20.9642 6.33291 20.7156 6.52895 20.4414 6.49655Z" fill="currentColor"/>
<path fill-rule="evenodd" clip-rule="evenodd" d="M13.6255 2.02607C12.5421 1.99131 11.458 1.99131 10.3746 2.02607H13.6255ZM10.3746 2.02607C8.94527 2.07126 7.86368 3.2673 7.86368 4.67033V5.56282C7.86368 5.83896 8.08754 6.06282 8.36368 6.06282C8.63982 6.06282 8.86368 5.83896 8.86368 5.56282V4.67033C8.86368 3.77598 9.54708 3.05264 10.4061 3.02557C11.4683 2.99149 12.5315 2.99148 13.5937 3.02557C14.4529 3.05263 15.1364 3.77515 15.1364 4.67033V5.56282C15.1364 5.83896 15.3603 6.06282 15.6364 6.06282C15.9125 6.06282 16.1364 5.83896 16.1364 5.56282V4.67033C16.1364 3.26618 15.0547 2.07126 13.6255 2.02607" fill="currentColor"/>
<path fill-rule="evenodd" clip-rule="evenodd" d="M5.49901 5.96781L6.37828 19.5966C6.42921 20.3859 7.08424 21 7.87517 21H16.1249C16.9159 21 17.5709 20.3859 17.6218 19.5966L18.5011 5.96781L19.499 6.03219L18.6197 19.661C18.5349 20.9764 17.4431 22 16.1249 22H7.87517C6.55695 22 5.46523 20.9764 5.38036 19.661L4.50108 6.03219L5.49901 5.96781Z" fill="currentColor"/>
</g>
</g>
</g>
</svg>
