<svg width="24" height="24" viewBox="0 0 24 24" fill="currentColor" xmlns="http://www.w3.org/2000/svg">
<rect width="24" height="24" fill="currentColor"/>
<g id="Icons - SET 2 Trazados - definitivo">
<rect x="-600" y="-1066" width="1144" height="1538" rx="20" fill="currentColor"/>
<g id="eb-icon-treasury">
<g id="Vector">
<path fill-rule="evenodd" clip-rule="evenodd" d="M6.52856 8.99227C6.23299 8.99227 6.02856 9.22664 6.02856 9.47144V14.6829C6.02856 14.7728 6.05504 14.8623 6.10714 14.9404L6.85696 16.0652C6.85694 16.0652 6.85698 16.0653 6.85696 16.0652C7.02384 16.3155 7.11428 16.612 7.11428 16.9171V21.5C7.11428 21.7876 6.89042 22.0208 6.61428 22.0208C6.33814 22.0208 6.11428 21.7876 6.11428 21.5V16.9171C6.11428 16.8272 6.0878 16.7377 6.0357 16.6596L5.28588 15.5348C5.28586 15.5347 5.2859 15.5348 5.28588 15.5348C5.119 15.2845 5.02856 14.988 5.02856 14.6829V9.47144C5.02856 8.61166 5.71957 7.95061 6.52856 7.95061H6.85287C7.57017 7.95061 8.20748 8.47144 8.33189 9.21795C8.33189 9.21795 8.33189 9.21795 8.33189 9.21795L8.66426 11.2121C8.68497 11.3364 8.75731 11.4532 8.87281 11.5302L10.0584 12.3206C10.0583 12.3206 10.0584 12.3206 10.0584 12.3206C10.1401 12.3751 10.2173 12.4381 10.2879 12.5088C10.2879 12.5088 10.288 12.5089 10.2879 12.5088L11.8463 14.0672C12.0455 14.2664 12.0519 14.5961 11.8607 14.8036C11.6695 15.0111 11.3529 15.0178 11.1537 14.8186L9.59513 13.26C9.57286 13.2377 9.54736 13.2167 9.51965 13.1982L8.33383 12.4076C7.98936 12.178 7.74918 11.8114 7.679 11.3903C7.679 11.3903 7.679 11.3903 7.679 11.3903L7.34663 9.39613C7.31032 9.17826 7.11325 8.99227 6.85287 8.99227H6.52856Z" fill="currentColor"/>
<path fill-rule="evenodd" clip-rule="evenodd" d="M16.8857 18.2652V20.5C16.8857 21.3598 16.1947 22.0208 15.3857 22.0208H6.61428L6.61426 20.9792H15.3857C15.6813 20.9792 15.8857 20.7448 15.8857 20.5V18.7637H6.61426V17.7221H15.9268L16.2504 13.7917L17.2468 13.8807L16.8857 18.2652Z" fill="currentColor"/>
<path d="M5.74606 5.28972C5.55079 5.48498 5.55079 5.80156 5.74606 5.99682C5.94132 6.19208 6.2579 6.19208 6.45316 5.99682L5.74606 5.28972ZM6.45316 5.99682L8.30354 4.14645L7.59643 3.43934L5.74606 5.28972L6.45316 5.99682ZM8.65709 4H13.6107V3H8.65709V4ZM8.30354 4.14645C8.3973 4.05268 8.52448 4 8.65709 4V3C8.25926 3 7.87773 3.15804 7.59643 3.43934L8.30354 4.14645Z" fill="currentColor"/>
<path d="M10.8178 13.1714C10.5417 13.1714 10.3178 13.3953 10.3178 13.6714C10.3178 13.9476 10.5417 14.1714 10.8178 14.1714V13.1714ZM2.5 6.67142V12.6714H3.5V6.67142H2.5ZM4 14.1714H5.45496V13.1714H4V14.1714ZM19 13.1714H10.8178V14.1714H19V13.1714ZM4 6.17142H12.1911V5.17142H4V6.17142ZM19.5 9.67142V12.6714H20.5V9.67142H19.5ZM19 14.1714C19.8284 14.1714 20.5 13.4998 20.5 12.6714H19.5C19.5 12.9476 19.2761 13.1714 19 13.1714V14.1714ZM2.5 12.6714C2.5 13.4998 3.17157 14.1714 4 14.1714V13.1714C3.72386 13.1714 3.5 12.9476 3.5 12.6714H2.5ZM3.5 6.67142C3.5 6.39527 3.72386 6.17142 4 6.17142V5.17142C3.17157 5.17142 2.5 5.84299 2.5 6.67142H3.5Z" fill="currentColor"/>
<path fill-rule="evenodd" clip-rule="evenodd" d="M16.5 3.02083C14.2714 3.02083 12.5 4.8222 12.5 7C12.5 9.1778 14.2714 10.9792 16.5 10.9792C18.7286 10.9792 20.5 9.1778 20.5 7C20.5 4.8222 18.7286 3.02083 16.5 3.02083ZM11.5 7C11.5 4.20724 13.758 1.97917 16.5 1.97917C19.242 1.97917 21.5 4.20724 21.5 7C21.5 9.79276 19.242 12.0208 16.5 12.0208C13.758 12.0208 11.5 9.79276 11.5 7Z" fill="currentColor"/>
<path fill-rule="evenodd" clip-rule="evenodd" d="M16.754 5.84256C16.754 5.62682 16.9219 5.45194 17.129 5.45194H18.75C18.8495 5.45194 18.9449 5.4931 19.0152 5.56638C19.0855 5.63966 19.125 5.73904 19.125 5.84266L19.1246 7.48669C19.1245 7.70243 18.9566 7.87727 18.7495 7.87722C18.5424 7.87716 18.3745 7.70223 18.3746 7.48649L18.3748 6.7594L17.0767 8.0577C16.9316 8.20283 16.7024 8.20284 16.5573 8.05772L15.7243 7.22468L14.5097 8.43926C14.3603 8.58866 14.1229 8.58361 13.9795 8.42798C13.8361 8.27235 13.8409 8.02507 13.9903 7.87567L15.4646 6.4014C15.6097 6.25629 15.8389 6.25629 15.984 6.4014L16.817 7.23441L17.818 6.23319H17.129C16.9219 6.23319 16.754 6.0583 16.754 5.84256Z" fill="currentColor"/>
</g>
</g>
</g>
</svg>
