<svg width="24" height="24" viewBox="0 0 24 24" fill="currentColor" xmlns="http://www.w3.org/2000/svg">
<rect width="24" height="24" fill="currentColor"/>
<g id="Icons - SET 2 Trazados - definitivo">
<rect x="-116" y="-1021" width="1144" height="1538" rx="20" fill="currentColor"/>
<g id="eb-icon-wallet">
<g id="Vector">
<path fill-rule="evenodd" clip-rule="evenodd" d="M10.5175 4.23721C10.3447 3.98364 9.98658 3.94405 9.76265 4.15378L5.97667 7.69966L5.29328 6.96922L9.07926 3.42334C9.75104 2.79416 10.8254 2.91291 11.3437 3.67362L13.6948 7.12412L12.8685 7.68771L10.5175 4.23721Z" fill="currentColor"/>
<path fill-rule="evenodd" clip-rule="evenodd" d="M14.0876 3.38619C14.7627 2.77732 15.8195 2.90417 16.3314 3.65552L18.6948 7.12412L17.8685 7.68771L15.5051 4.2191C15.3345 3.96865 14.9822 3.92637 14.7572 4.12932L12.8348 5.86333C12.6297 6.04833 12.3135 6.03195 12.1286 5.82674C11.9437 5.62153 11.9601 5.3052 12.1652 5.1202L14.0876 3.38619Z" fill="currentColor"/>
<path fill-rule="evenodd" clip-rule="evenodd" d="M20 7.99309H4C3.44772 7.99309 3 8.44105 3 8.99363V18.9989C3 19.5515 3.44772 19.9995 4 19.9995H20C20.5523 19.9995 21 19.5515 21 18.9989V8.99363C21 8.44105 20.5523 7.99309 20 7.99309ZM4 6.99256C2.89543 6.99256 2 7.88847 2 8.99363V18.9989C2 20.1041 2.89543 21 4 21H20C21.1046 21 22 20.1041 22 18.9989V8.99363C22 7.88847 21.1046 6.99256 20 6.99256H4Z" fill="currentColor"/>
<path fill-rule="evenodd" clip-rule="evenodd" d="M11.9203 10.6195H11.9239C12.7383 10.6171 13.5242 10.9195 14.1271 11.4674C14.2804 11.6067 14.2918 11.844 14.1526 11.9974C14.0133 12.1507 13.7762 12.1622 13.6229 12.0228C13.159 11.6013 12.5545 11.3685 11.9279 11.3699C11.5887 11.3744 11.2537 11.4456 10.942 11.5794C10.6297 11.7135 10.3468 11.9078 10.1096 12.1512C9.90472 12.3615 9.73732 12.6048 9.61428 12.8707H12.75C12.9571 12.8707 13.125 13.0387 13.125 13.2459C13.125 13.4531 12.9571 13.6211 12.75 13.6211H9.39683C9.38073 13.7436 9.37339 13.8674 9.37497 13.9915L9.37503 13.9963C9.37503 14.1237 9.38387 14.249 9.401 14.3715H11.625C11.8321 14.3715 12 14.5395 12 14.7467C12 14.9539 11.8321 15.1219 11.625 15.1219H9.62192C10.0338 16.01 10.9161 16.6227 11.925 16.6227C12.572 16.6227 13.1629 16.364 13.6309 15.9626C13.7882 15.8278 14.0249 15.846 14.1597 16.0033C14.2945 16.1606 14.2763 16.3975 14.119 16.5324C13.537 17.0315 12.778 17.3731 11.925 17.3731C10.4856 17.3731 9.26767 16.4265 8.81432 15.1219H8.25C8.04289 15.1219 7.875 14.9539 7.875 14.7467C7.875 14.5395 8.04289 14.3715 8.25 14.3715H8.64537C8.63199 14.249 8.62509 14.1246 8.625 13.9987C8.62348 13.8723 8.62913 13.7463 8.64184 13.6211H8.25C8.04289 13.6211 7.875 13.4531 7.875 13.2459C7.875 13.0387 8.04289 12.8707 8.25 12.8707H8.80682C8.82427 12.82 8.84294 12.7698 8.86284 12.7199C9.02543 12.3126 9.26661 11.9414 9.57261 11.6274C9.8786 11.3134 10.2434 11.0628 10.6462 10.8898C11.0491 10.7169 11.482 10.625 11.9203 10.6195Z" fill="currentColor"/>
</g>
</g>
</g>
</svg>
