<svg width="24" height="24" viewBox="0 0 24 24" fill="currentColor" xmlns="http://www.w3.org/2000/svg">
<rect width="24" height="24" fill="currentColor"/>
<g id="Icons - SET 2 Trazados - definitivo">
<rect x="-556" y="-1066" width="1144" height="1538" rx="20" fill="currentColor"/>
<g id="eb-icon-web_file">
<g id="Vector">
<path fill-rule="evenodd" clip-rule="evenodd" d="M10.1213 3.29289L5.29289 8.12132L4.58579 7.41421L9.41421 2.58579C9.78929 2.21071 10.298 2 10.8284 2H18C19.1046 2 20 2.89543 20 4V20C20 21.1046 19.1046 22 18 22H6C4.89543 22 4 21.1046 4 20V8.82843C4 8.29799 4.21071 7.78929 4.58579 7.41421L5.29289 8.12132C5.10536 8.30886 5 8.56321 5 8.82843V20C5 20.5523 5.44772 21 6 21H18C18.5523 21 19 20.5523 19 20V4C19 3.44772 18.5523 3 18 3H10.8284C10.5632 3 10.3089 3.10536 10.1213 3.29289Z" fill="currentColor"/>
<path fill-rule="evenodd" clip-rule="evenodd" d="M11 2.5V7.5C11 8.32843 10.3284 9 9.5 9H4.5V8H9.5C9.77614 8 10 7.77614 10 7.5V2.5H11Z" fill="currentColor"/>
<path d="M10.9801 16H10.2541C9.67207 14.65 9.18007 13.24 8.78407 11.8H9.67807C9.97807 12.988 10.2841 14.026 10.6201 15.016C10.9561 14.044 11.2921 12.952 11.5921 11.8H12.4201C12.7201 12.97 13.0501 14.026 13.3921 15.016C13.7281 14.026 14.0341 12.988 14.3281 11.8H15.2161C14.8201 13.24 14.3281 14.65 13.7521 16H13.0261C12.6421 15.082 12.2881 14.14 12.0001 13.174C11.7121 14.14 11.3581 15.082 10.9801 16Z" fill="currentColor"/>
</g>
</g>
</g>
</svg>
