<svg width="24" height="24" viewBox="0 0 24 24" fill="currentColor" xmlns="http://www.w3.org/2000/svg">
<rect width="24" height="24" fill="currentColor"/>
<g id="Icons - SET 2 Trazados - definitivo">
<rect x="-600" y="-1110" width="1144" height="1538" rx="20" fill="currentColor"/>
<g id="eb-icon-windscreen">
<g id="Vector">
<path fill-rule="evenodd" clip-rule="evenodd" d="M5.48824 5.00002C5.47758 5.00002 5.47147 5.0072 5.47039 5.0128L3.00042 17.8258C2.99932 17.8315 3.00308 17.8411 3.01516 17.843L9.03693 18.7727C11.0006 19.0758 12.9994 19.0758 14.963 18.7727L20.9848 17.843C20.9969 17.8411 21.0006 17.8315 20.9995 17.8259L18.5296 5.01282C18.5286 5.00725 18.5225 5.00002 18.5117 5.00002H5.48824ZM4.48847 4.82352C4.58057 4.34573 4.99987 4.00002 5.48824 4.00002H18.5117C19.0001 4.00002 19.4194 4.34568 19.5116 4.82352L21.9814 17.6364C22.0903 18.2007 21.7078 18.7431 21.1376 18.8312L15.1156 19.761C13.0508 20.0797 10.9492 20.0797 8.88439 19.761L2.8625 18.8313C2.29222 18.7431 1.90971 18.2007 2.0185 17.6365M2.0185 17.6365L4.48847 4.82352C4.48847 4.82352 4.48847 4.82352 4.48847 4.82352" fill="currentColor"/>
<path fill-rule="evenodd" clip-rule="evenodd" d="M10.9515 13.709C11.1123 13.9335 11.0606 14.2458 10.836 14.4066L6.17993 17.7399C5.9554 17.9006 5.64307 17.8489 5.48233 17.6244C5.32158 17.3998 5.37329 17.0875 5.59783 16.9268L10.2539 13.5935C10.4785 13.4327 10.7908 13.4844 10.9515 13.709ZM18.4981 13.6834C18.6729 13.8971 18.6414 14.2121 18.4277 14.387L14.3536 17.7203C14.1399 17.8952 13.8249 17.8637 13.65 17.6499C13.4751 17.4362 13.5067 17.1212 13.7204 16.9463L17.7945 13.613C18.0082 13.4382 18.3232 13.4697 18.4981 13.6834Z" fill="currentColor"/>
<path d="M9.77776 6.22224C9.50162 6.22224 9.27776 6.4461 9.27776 6.72224C9.27776 6.99838 9.50162 7.22224 9.77776 7.22224V6.22224ZM14.2222 7.22224C14.4984 7.22224 14.7222 6.99838 14.7222 6.72224C14.7222 6.4461 14.4984 6.22224 14.2222 6.22224V7.22224ZM10.3333 6.22224H9.77776V7.22224H10.3333V6.22224ZM9.77776 7.22224H14.2222V6.22224H9.77776V7.22224ZM12.0555 4.50002C12.0555 5.45118 11.2845 6.22224 10.3333 6.22224V7.22224C11.8368 7.22224 13.0555 6.00346 13.0555 4.50002H12.0555Z" fill="currentColor"/>
</g>
</g>
</g>
</svg>
