<svg width="24" height="24" viewBox="0 0 24 24" fill="currentColor" xmlns="http://www.w3.org/2000/svg">
<rect width="24" height="24" fill="currentColor"/>
<g id="Icons - SET 2 Trazados - definitivo">
<rect x="-732" y="-1021" width="1144" height="1538" rx="20" fill="currentColor"/>
<g id="eb-icon-xls_file">
<g id="Vector">
<path fill-rule="evenodd" clip-rule="evenodd" d="M10.1213 3.29289L5.29289 8.12132L4.58579 7.41421L9.41421 2.58579C9.78929 2.21071 10.298 2 10.8284 2H18C19.1046 2 20 2.89543 20 4V20C20 21.1046 19.1046 22 18 22H6C4.89543 22 4 21.1046 4 20V8.82843C4 8.29799 4.21071 7.78929 4.58579 7.41421L5.29289 8.12132C5.10536 8.30886 5 8.56321 5 8.82843V20C5 20.5523 5.44772 21 6 21H18C18.5523 21 19 20.5523 19 20V4C19 3.44772 18.5523 3 18 3H10.8284C10.5632 3 10.3089 3.10536 10.1213 3.29289Z" fill="currentColor"/>
<path fill-rule="evenodd" clip-rule="evenodd" d="M11 2.5V7.5C11 8.32843 10.3284 9 9.5 9H4.5V8H9.5C9.77614 8 10 7.77614 10 7.5V2.5H11Z" fill="currentColor"/>
<path d="M15.4178 16.06C14.8878 16.06 14.4678 15.975 14.0628 15.8V15.19C14.4428 15.385 14.9328 15.505 15.3378 15.505C15.7978 15.505 16.0528 15.35 16.0528 15.075C16.0528 14.8 15.9028 14.69 15.2128 14.53C14.3628 14.33 14.0628 14.04 14.0628 13.455C14.0628 12.84 14.5678 12.445 15.3628 12.445C15.8078 12.445 16.1778 12.53 16.5428 12.705V13.315C16.2878 13.14 15.7878 13 15.3928 13C14.9678 13 14.7328 13.145 14.7328 13.4C14.7328 13.67 14.9278 13.79 15.6378 13.96C16.4678 14.16 16.7228 14.42 16.7228 15.01C16.7228 15.65 16.2178 16.06 15.4178 16.06Z" fill="currentColor"/>
<path d="M13.5816 16H11.1166V12.5H11.8166V15.385H13.5816V16Z" fill="currentColor"/>
<path d="M7.99359 16H7.21859L8.45359 14.215L7.26859 12.5H8.05359L8.87859 13.685L9.70359 12.5H10.4736L9.29859 14.21L10.5236 16H9.74359L8.86859 14.74L7.99359 16Z" fill="currentColor"/>
</g>
</g>
</g>
</svg>
