<svg width="24" height="24" viewBox="0 0 24 24" fill="currentColor" xmlns="http://www.w3.org/2000/svg">
<rect width="24" height="24" fill="currentColor"/>
<g id="Icons - SET 2 Trazados - definitivo">
<rect x="-776" y="-1066" width="1144" height="1538" rx="20" fill="currentColor"/>
<g id="eb-icon-regulation">
<g id="Vector">
<path fill-rule="evenodd" clip-rule="evenodd" d="M6.81954 2.7068C7.28612 2.25355 7.911 2 8.5615 2H14.5C15.8807 2 17 3.11929 17 4.5V11.9199C17 12.196 16.7761 12.4199 16.5 12.4199C16.2239 12.4199 16 12.196 16 11.9199V4.5C16 3.67157 15.3285 3 14.5 3H8.5615C8.1712 3 7.79628 3.15213 7.51632 3.42408L3.45482 7.36954C3.16407 7.65199 3 8.0401 3 8.44546V17.5C3 18.3285 3.67157 19 4.5 19H12.9915C13.2676 19 13.4915 19.2239 13.4915 19.5C13.4915 19.7761 13.2676 20 12.9915 20H4.5C3.11929 20 2 18.8807 2 17.5V8.44546C2 7.76986 2.27344 7.12301 2.75804 6.65226L4.77661 4.69136L6.81954 2.7068Z" fill="currentColor"/>
<path fill-rule="evenodd" clip-rule="evenodd" d="M9 2.5V7.5C9 8.32844 8.32842 9 7.5 9H2.5V8H7.5C7.77614 8 8 7.77614 8 7.5V2.5H9Z" fill="currentColor"/>
<path fill-rule="evenodd" clip-rule="evenodd" d="M11.5 16.5C11.5 13.7386 13.7386 11.5 16.5 11.5C19.2614 11.5 21.5 13.7386 21.5 16.5C21.5 19.2614 19.2614 21.5 16.5 21.5C13.7386 21.5 11.5 19.2614 11.5 16.5ZM16.5 12.5C14.2908 12.5 12.5 14.2908 12.5 16.5C12.5 18.7092 14.2908 20.5 16.5 20.5C18.7092 20.5 20.5 18.7092 20.5 16.5C20.5 14.2908 18.7092 12.5 16.5 12.5Z" fill="currentColor"/>
<path fill-rule="evenodd" clip-rule="evenodd" d="M19.3368 19.3368C19.5321 19.1416 19.8487 19.1416 20.044 19.3368L21.8536 21.1464C22.0488 21.3417 22.0488 21.6583 21.8536 21.8536C21.6583 22.0488 21.3417 22.0488 21.1464 21.8536L19.3368 20.044C19.1416 19.8487 19.1416 19.5321 19.3368 19.3368Z" fill="currentColor"/>
<path fill-rule="evenodd" clip-rule="evenodd" d="M14.1047 16.5C14.1047 16.2929 14.2726 16.125 14.4797 16.125H18.5203C18.7274 16.125 18.8953 16.2929 18.8953 16.5C18.8953 16.7071 18.7274 16.875 18.5203 16.875H14.4797C14.2726 16.875 14.1047 16.7071 14.1047 16.5Z" fill="currentColor"/>
<path fill-rule="evenodd" clip-rule="evenodd" d="M16.5 14.1047C16.7071 14.1047 16.875 14.2726 16.875 14.4797V18.5203C16.875 18.7274 16.7071 18.8953 16.5 18.8953C16.2929 18.8953 16.125 18.7274 16.125 18.5203V14.4797C16.125 14.2726 16.2929 14.1047 16.5 14.1047Z" fill="currentColor"/>
<path fill-rule="evenodd" clip-rule="evenodd" d="M9.5 10C9.5 9.72386 9.72386 9.5 10 9.5H14C14.2761 9.5 14.5 9.72386 14.5 10C14.5 10.2761 14.2761 10.5 14 10.5H10C9.72386 10.5 9.5 10.2761 9.5 10ZM4.5 13C4.5 12.7239 4.72386 12.5 5 12.5H10C10.2761 12.5 10.5 12.7239 10.5 13C10.5 13.2761 10.2761 13.5 10 13.5H5C4.72386 13.5 4.5 13.2761 4.5 13ZM4.5 16C4.5 15.7239 4.72386 15.5 5 15.5H10C10.2761 15.5 10.5 15.7239 10.5 16C10.5 16.2761 10.2761 16.5 10 16.5H5C4.72386 16.5 4.5 16.2761 4.5 16Z" fill="currentColor"/>
</g>
</g>
</g>
</svg>
