<svg width="100" height="100" viewBox="0 0 100 100" fill="none" xmlns="http://www.w3.org/2000/svg">
<rect width="100" height="100" fill="#1E1E1E"/>
<g id="Positive ilustration">
<rect x="-80" y="-198" width="926" height="2354" rx="20" fill="white"/>
<g id="table">
<g id="row-2">
<g id="eb-illu-hug_bg">
<path id="Vector" d="M86 18.5H14C11.7909 18.5 10 20.2909 10 22.5V77.5C10 79.7091 11.7909 81.5 14 81.5H86C88.2091 81.5 90 79.7091 90 77.5V22.5C90 20.2909 88.2091 18.5 86 18.5Z" fill="#E8EAEA"/>
<path id="Vector_2" d="M57.879 77.467L75.765 64.319C75.765 64.319 76.148 65.26 76.62 66.421C76.641 66.471 76.661 66.522 76.678 66.572C76.735 66.712 76.794 66.852 76.855 66.991C76.885 67.061 76.906 67.121 76.925 67.182C77.146 67.564 77.354 67.957 77.548 68.36C77.58 68.427 77.612 68.495 77.643 68.562C77.861 69.154 78.261 69.754 78.375 70.45C78.397 70.522 78.419 70.594 78.441 70.666C78.457 70.72 78.473 70.775 78.488 70.829C78.503 70.883 78.518 70.938 78.533 70.993C78.57 71.137 79.353 72.65 80.067 74.486C80.087 74.537 80.107 74.588 80.125 74.638C80.142 74.714 80.16 74.789 80.179 74.864C80.198 74.939 80.212 75.003 80.23 75.073C80.361 75.855 81.161 76.455 81.271 77.205C81.3 77.272 81.331 77.341 81.363 77.409C81.581 77.889 81.797 78.368 81.977 78.86C81.996 78.907 82.015 78.953 82.033 79C82.599 80.442 83.014 81.497 83.014 81.497H78.623C78.567 81.497 78.511 81.497 78.455 81.497C77.061 81.455 75.761 81.455 74.341 81.497H69.336C68.061 81.654 66.761 81.354 65.459 81.497H64.763C63.761 81.354 62.761 81.754 61.727 81.499C61.668 81.499 61.609 81.497 61.55 81.497H60.674C60.616 81.497 60.559 81.497 60.501 81.497C58.761 81.754 57.161 81.354 55.461 81.497H54.838L57.879 77.466V77.467Z" fill="#FF4242"/>
<path id="Vector_3" d="M37.586 20.743C37.586 20.743 34.705 23.019 34.336 25.619C33.951 28.333 34.82 29.683 34.392 30.716C33.894 31.917 32.841 32.198 32.92 32.956C32.99 33.624 34.149 33.713 34.304 34.073C34.459 34.433 33.676 35.074 33.817 35.465C33.958 35.856 34.559 35.96 34.559 35.96C34.559 35.96 33.88 36.527 34.133 36.967C34.386 37.407 34.939 37.332 34.898 37.935C34.857 38.538 35.007 40.757 37.434 40.677C37.783 40.666 38.273 40.648 38.602 40.637C38.795 40.63 38.955 40.784 38.955 40.977C38.957 41.547 38.891 42.563 38.856 43.252C38.786 44.634 49.831 42.885 49.831 42.885C49.831 42.885 47.647 37.445 48.161 35.971C48.675 34.497 53.581 27.692 49.487 23.363C45.393 19.034 39.601 19.616 37.588 20.744L37.586 20.743Z" fill="white"/>
<path id="Vector_4" d="M43.035 39.112C45.2878 39.112 47.114 37.2857 47.114 35.033C47.114 32.7802 45.2878 30.954 43.035 30.954C40.7822 30.954 38.956 32.7802 38.956 35.033C38.956 37.2857 40.7822 39.112 43.035 39.112Z" fill="#0168FF"/>
<path id="Vector_5" d="M46.136 27.26H33.78C33.51 27.26 33.288 27.048 33.274 26.778C33.165 24.641 33.355 16.124 43.299 16.124C56.973 16.124 56.555 27.259 56.555 27.259H46.135L46.136 27.26Z" fill="#212932"/>
<path id="Vector_6" d="M37.727 40.841C37.727 40.841 28.626 48.573 26.261 58.729C24.794 65.03 21.255 81.498 21.255 81.498H54.838L62.338 60.23C62.338 60.23 56.658 52.04 48.467 49.794C40.277 47.548 37.727 40.841 37.727 40.841Z" fill="#0168FF"/>
<path id="Vector_7" d="M56.109 40.42C56.109 40.42 54.939 40.42 53.08 40.42C53.009 40.42 52.95 40.421 52.891 40.423C49.561 40.056 46.261 40.356 43.001 40.421C42.947 40.421 42.892 40.421 42.837 40.421C42.782 40.421 42.728 40.421 42.673 40.421C42.618 40.421 42.526 40.384 42.474 40.387C41.924 40.419 40.467 40.405 39.867 40.405C38.167 40.405 37.361 40.457 35.694 40.422C35.645 40.422 35.596 40.422 35.548 40.421C34.431 40.421 33.392 40.421 32.471 40.421C32.426 40.421 32.386 40.424 32.346 40.426C31.262 40.456 30.162 40.756 28.962 40.556C28.162 40.356 27.362 40.656 26.567 40.781C26.498 40.813 26.429 40.845 26.36 40.879C25.572 41.262 24.828 41.74 24.211 42.347C24.16 42.398 24.109 42.449 24.059 42.501C23.861 42.856 23.561 43.156 23.276 43.55C23.238 43.612 23.203 43.677 23.168 43.743C23.145 43.787 23.123 43.832 23.101 43.877C22.861 44.457 22.761 45.057 22.61 45.606C22.602 45.673 22.596 45.741 22.591 45.809C22.586 45.877 22.582 45.945 22.579 46.014C22.568 46.268 22.574 46.52 22.595 46.768C22.602 46.851 22.611 46.933 22.621 47.014C22.635 47.091 22.651 47.167 22.667 47.243C22.711 47.389 22.758 47.534 22.81 47.677C22.836 47.749 22.862 47.82 22.89 47.886C23.261 48.357 23.361 48.957 23.715 49.501C23.752 49.561 23.793 49.623 23.835 49.685C24.088 50.055 24.368 50.405 24.67 50.728C24.728 50.778 24.787 50.827 24.847 50.875C25.087 51.067 25.345 51.242 25.622 51.399C25.693 51.437 25.764 51.475 25.836 51.51C26.415 51.795 27.05 51.988 27.724 52.069C27.724 52.069 28.347 52.153 29.38 52.292C29.449 52.301 29.52 52.311 29.592 52.321C30.403 52.334 31.192 52.431 31.976 52.559C32.054 52.572 32.131 52.579 32.207 52.586C33.261 52.557 34.261 52.657 35.287 53.121C35.367 53.131 35.448 53.141 35.529 53.151C35.61 53.161 35.691 53.169 35.772 53.178C36.462 53.156 37.062 53.256 37.662 53.456C38.062 53.656 38.462 52.956 38.962 53.156C39.262 53.356 39.562 53.556 39.862 53.656C41.362 53.756 42.862 53.656 44.134 54.283C44.186 54.29 44.237 54.297 44.289 54.304C47.114 54.685 49.158 54.961 49.158 54.961C49.158 54.961 49.714 55.942 50.54 57.399C50.563 57.439 50.586 57.48 50.61 57.521C50.847 57.94 51.084 58.358 51.322 58.774C51.362 58.843 51.392 58.878 51.428 58.924C52.063 60.255 52.191 60.31 52.924 61.603C53.035 61.798 52.57 62.509 52.743 62.665C52.781 62.734 53.881 63.72 53.92 63.789C54.822 65.362 55.841 66.662 56.696 68.253C56.732 68.321 56.769 68.387 56.805 68.451C57.277 69.284 57.567 69.796 57.567 69.796L74.688 60.394C74.688 60.394 73.574 58.633 72.111 56.321L72.032 56.197C71.731 55.567 71.356 54.979 70.953 54.407C70.908 54.343 70.863 54.28 70.818 54.217C70.458 53.809 69.858 53.609 69.828 52.896C69.794 52.834 69.75 52.772 69.704 52.708C69.059 51.822 68.455 50.906 68.061 49.856C67.761 49.156 66.561 48.856 66.717 47.811C66.687 47.75 66.645 47.683 66.603 47.616C66.349 47.215 66.122 46.855 65.929 46.55C65.893 46.492 65.857 46.437 65.823 46.383C65.561 45.957 65.261 45.557 64.959 45.043C64.914 44.977 64.87 44.911 64.823 44.846C64.682 44.653 64.535 44.465 64.382 44.283C64.331 44.222 64.282 44.196 64.231 44.163C63.945 43.912 63.663 43.665 63.379 43.425C63.322 43.377 63.266 43.33 63.219 43.288C63.173 43.245 63.128 43.202 63.083 43.16C62.561 42.657 62.061 42.257 61.496 41.973C61.448 41.944 61.399 41.915 61.351 41.887C61.253 41.83 61.154 41.775 61.053 41.72C60.988 41.681 60.923 41.643 60.858 41.606C60.53 41.418 60.187 41.243 59.825 41.081C59.752 41.054 59.678 41.028 59.604 41.003C59.53 40.978 59.456 40.953 59.381 40.929C59.061 40.757 58.661 40.757 58.241 40.635C58.164 40.618 58.087 40.604 58.009 40.59C57.388 40.479 56.752 40.422 56.109 40.422V40.42Z" fill="#FF4242"/>
<path id="Vector_8" d="M52.922 61.603L57.566 69.796L74.035 59.46L73.178 58.015C75.007 57.347 76.744 58.267 77.481 59.135C78.454 60.279 79.731 63.491 77.538 65.599C74.563 68.459 61.937 78.295 58.831 80.183C55.456 82.234 53.008 81.903 50.361 79.058C48.474 77.029 41.031 68.676 41.031 68.676L52.921 61.603H52.922Z" fill="white"/>
<path id="Vector_9" d="M43.094 36.51C43.094 36.51 42.902 32.205 42.902 29.106C42.902 25.618 41.823 19.482 46.085 16.382C51.946 12.12 60.687 15.911 60.687 15.911C60.687 15.911 62.327 14.312 65.458 16.304C67.556 17.638 66.883 20.128 66.883 20.128C66.883 20.128 69.272 20.582 68.627 23.293C67.982 26.004 65.195 26.739 65.195 26.739L43.094 36.51Z" fill="#212932"/>
<path id="Vector_10" d="M61.041 24.29C58.162 23.112 56.256 22.624 54.304 25.459C52.264 28.422 50.179 27.659 50.179 27.659C50.179 27.659 49.524 22.475 45.887 24.362C43.081 25.817 46.211 29.703 44.902 31.885C43.593 34.067 39.867 40.404 39.867 40.404C39.867 40.404 40.191 40.407 40.736 40.411C40.804 40.411 40.861 40.422 40.926 40.433C41.658 40.708 42.258 40.408 42.934 40.43C42.989 40.43 43.045 40.43 43.101 40.431C43.225 40.432 43.347 40.435 43.451 40.449C43.957 40.608 44.557 40.608 45.088 40.449C45.14 40.466 45.197 40.474 45.257 40.48C45.324 40.482 45.391 40.484 45.459 40.486C45.527 40.488 45.595 40.49 45.664 40.491C46.156 40.507 46.656 40.907 47.18 40.537C47.235 40.512 47.283 40.488 47.352 40.486C47.491 40.482 47.627 40.477 47.761 40.471C47.82 40.471 47.878 40.472 47.936 40.473C48.293 40.476 48.644 40.479 48.982 40.482C49.095 40.482 49.206 40.483 49.313 40.477C49.7 40.242 49.964 40.212 50.316 40.257C48.456 39.026 47.954 37.551 48.157 35.971C49.819 38.965 52.802 40.515 52.802 40.515C52.802 40.515 55.816 42.554 57.803 40.705C58.279 40.262 58.955 39.356 59.807 39.181C60.263 39.087 60.119 38.073 60.119 38.073C60.119 38.073 60.958 37.802 60.947 37.408C60.924 36.569 61.379 35.742 61.379 35.742C61.379 35.742 62.101 35.94 62.614 35.287C62.968 34.836 62.548 32.94 63.259 31.162C63.467 30.642 63.899 31.172 64.654 29.084C65.44 26.907 65.53 25.247 65.53 25.247C65.53 25.247 63.918 25.469 61.039 24.291L61.041 24.29Z" fill="white"/>
</g>
</g>
</g>
</g>
</svg>
