<svg width="32" height="32" viewBox="0 0 32 32" fill="none" xmlns="http://www.w3.org/2000/svg">
<rect width="32" height="32" fill="#1E1E1E"/>
<g id="Pictograms">
<rect x="-399" y="-496" width="1144" height="1538" rx="20" fill="white"/>
<g id="eb-picto_illu-priips">
<path id="Vector" d="M29.95 26.02V4.96002C29.95 3.85002 29.05 2.96002 27.95 2.96002H5.9C4.81 2.98002 3.94 3.86002 3.94 4.96002V21.06C3.94 22.16 4.83 23.06 5.94 23.06H14.84L27.99 30.01L29.95 26.03V26.02Z" fill="#0168FF"/>
<path id="Vector_2" d="M26.01 12.02H3.96C2.87 12.04 2 12.92 2 14.02V28C2 29.1 2.89 30 4 30H24.97V27.95C24.97 26.89 25.83 26.02 26.9 26.02H28.01V14.02C28.01 12.91 27.11 12.02 26.01 12.02Z" fill="#FF4747"/>
<path id="Vector_3" d="M28.01 26.02V28C28.01 29.09 27.13 29.98 26.05 30H24.97V27.95C24.97 26.89 25.83 26.02 26.9 26.02H28.01Z" fill="black"/>
<path id="Vector_4" d="M29.95 26.02V28C29.95 29.12 29.04 30.03 27.92 30.03H24.97V30H26.05C27.13 29.98 28.01 29.09 28.01 28V26.02H29.95Z" fill="black"/>
<path id="Vector_5" d="M6.54999 8.45001H19.26L18.89 9.45001H6.54999V8.45001Z" fill="#E8EAEA"/>
<path id="Vector_6" d="M26.55 7H6.54999V6H26.92L26.55 7Z" fill="#E8EAEA"/>
<path id="Vector_7" d="M4.47 22.87V18.29H6.37C7.57 18.29 8.21 18.85 8.21 19.94C8.21 21.03 7.56 21.59 6.37 21.59H5.71V22.87H4.47ZM5.72 20.56H6.26C6.74 20.56 6.97 20.36 6.97 19.93C6.97 19.5 6.75 19.3 6.26 19.3H5.72V20.56Z" fill="#E8EAEA"/>
<path id="Vector_8" d="M12.88 22.87H11.61L11.35 21.97C11.23 21.56 11.11 21.47 10.72 21.47H10.08V22.86H8.84V18.28H10.86C12.08 18.28 12.72 18.78 12.72 19.76C12.72 20.38 12.43 20.81 11.97 20.94C12.26 21.03 12.4 21.25 12.57 21.84L12.88 22.86V22.87ZM10.72 20.56C11.21 20.56 11.45 20.34 11.45 19.92C11.45 19.5 11.23 19.28 10.74 19.28H10.09V20.56H10.72Z" fill="#E8EAEA"/>
<path id="Vector_9" d="M13.57 22.87V18.29H14.81V22.87H13.57Z" fill="#E8EAEA"/>
<path id="Vector_10" d="M15.8 22.87V18.29H17.04V22.87H15.8Z" fill="#E8EAEA"/>
<path id="Vector_11" d="M18.03 22.87V18.29H19.93C21.13 18.29 21.77 18.85 21.77 19.94C21.77 21.03 21.12 21.59 19.93 21.59H19.27V22.87H18.03ZM19.28 20.56H19.82C20.3 20.56 20.53 20.36 20.53 19.93C20.53 19.5 20.31 19.3 19.82 19.3H19.28V20.56Z" fill="#E8EAEA"/>
<path id="Vector_12" d="M22.22 22.64V21.59C22.75 21.83 23.41 21.98 23.92 21.98C24.36 21.98 24.59 21.85 24.59 21.61C24.59 21.35 24.41 21.24 23.7 21.07C22.6 20.81 22.19 20.42 22.19 19.61C22.19 18.75 22.87 18.2 23.94 18.2C24.56 18.2 25.05 18.3 25.52 18.51V19.55C25.2 19.33 24.51 19.16 23.99 19.16C23.58 19.16 23.38 19.28 23.38 19.49C23.38 19.74 23.58 19.86 24.34 20.04C25.41 20.29 25.77 20.66 25.77 21.47C25.77 22.37 25.1 22.92 24.02 22.92C23.33 22.92 22.77 22.83 22.21 22.62L22.22 22.64Z" fill="#E8EAEA"/>
</g>
</g>
</svg>
