<svg width="32" height="32" viewBox="0 0 32 32" fill="none" xmlns="http://www.w3.org/2000/svg">
<rect width="32" height="32" fill="#1E1E1E"/>
<g id="Pictograms">
<rect x="-132" y="-450" width="1144" height="1538" rx="20" fill="white"/>
<g id="eb-picto_illu-written_note">
<path id="Vector" d="M18.97 2H4.98999C3.87999 2 2.98999 2.9 2.98999 4V26.06C3.00999 27.15 3.88999 28.02 4.98999 28.02H18.97C20.07 28.02 20.95 27.15 20.97 26.06V3.96C20.95 2.88 20.06 2 18.97 2Z" fill="#FF4747"/>
<path id="Vector_2" d="M17.09 25.98L24.31 18.77V5.94999C24.29 4.86999 23.4 3.98999 22.3 3.98999H8.32001C7.21001 3.98999 6.32001 4.88999 6.32001 5.98999V28.05C6.34001 29.14 7.22001 30.01 8.32001 30.01H22.3C23.41 30.01 24.29 29.14 24.31 28.05V21.59L18.5 27.39L18.49 27.4L16.37 28.11L17.08 25.98H17.09Z" fill="#0168FF"/>
<path id="Vector_3" d="M8.33002 16.04H16.33L15.95 17.06H8.33002V16.04Z" fill="#ECEEEE"/>
<path id="Vector_4" d="M8.34003 13.04H21.32L20.94 14.06H8.34003V13.04Z" fill="#ECEEEE"/>
<path id="Vector_5" d="M8.34003 10.04H21.33L20.95 11.06H8.34003V10.04Z" fill="#ECEEEE"/>
<path id="Vector_6" d="M20.95 8.05998H8.34003V7.03998H21.33L20.95 8.05998Z" fill="#ECEEEE"/>
<path id="Vector_7" d="M24.31 18.77V21.59L18.5 27.39V27.4H18.49L16.37 28.11L17.08 25.98H17.09L24.31 18.77Z" fill="black"/>
<path id="Vector_8" d="M29.82 16.08L24.31 21.59V18.77L28.33 14.75L28.41 14.67C28.8 14.28 29.43 14.28 29.82 14.67C30.21 15.06 30.21 15.69 29.82 16.08Z" fill="#FF4747"/>
</g>
</g>
</svg>
