<svg width="32" height="32" viewBox="0 0 32 32" fill="none" xmlns="http://www.w3.org/2000/svg">
<rect width="32" height="32" fill="#1E1E1E"/>
<g id="Pictograms">
<rect x="-288" y="-386" width="1144" height="1538" rx="20" fill="white"/>
<g id="table">
<g id="row-2">
<g id="eb-picto_illu-search">
<path id="Union" d="M16.6667 3.33331C17.7712 3.33331 18.6667 4.22874 18.6667 5.33331H27.3333C28.4379 5.33331 29.3333 6.22874 29.3333 7.33331V18C29.3333 19.1045 28.4379 20 27.3333 20H10C8.89543 20 8 19.1045 8 18V5.33331C8 4.22874 8.89543 3.33331 10 3.33331H16.6667Z" fill="#0168FF"/>
<path id="Subtract" d="M16.0304 9.0973C12.1181 6.83852 7.11553 8.17902 4.85673 12.0913C2.85865 15.5521 3.67736 19.8657 6.601 22.3788L3.60308 27.571C3.32704 28.0492 3.49081 28.6607 3.96896 28.9369L4.87938 29.4627C5.35765 29.7388 5.96937 29.5748 6.24553 29.0965L9.24318 23.9043C12.8814 25.1796 17.0263 23.7317 19.0244 20.271C21.2831 16.3587 19.9427 11.3561 16.0304 9.0973ZM7.101 13.3869C8.64419 10.7141 12.0618 9.79844 14.7346 11.3416C17.4074 12.8847 18.3233 16.3023 16.7802 18.9752C15.237 21.648 11.8192 22.5639 9.14631 21.0207C6.47349 19.4776 5.55783 16.0597 7.101 13.3869Z" fill="#FF4242"/>
<path id="Intersect" d="M8 9.01173C10.4235 7.6828 13.462 7.61451 16.0305 9.0974C19.853 11.3044 21.2198 16.1306 19.1737 20H16.0221C16.3073 19.6947 16.5624 19.3525 16.7802 18.9753C18.3234 16.3024 17.4074 12.8846 14.7346 11.3414C12.5001 10.0514 9.74517 10.48 8 12.2169V9.01173Z" fill="#212932"/>
<path id="?" d="M12.3751 17.2368H11.3425V16.4123C11.3425 16.1959 11.3807 16.0321 11.4572 15.921C11.5396 15.8099 11.6926 15.7047 11.9161 15.6052L12.4545 15.3158C12.6722 15.2105 12.8222 15.0994 12.9046 14.9824C12.9929 14.8596 13.037 14.7017 13.037 14.5088C13.037 14.2748 12.9399 14.0935 12.7457 13.9649C12.5575 13.8362 12.2898 13.7719 11.9426 13.7719C11.6249 13.7719 11.263 13.8216 10.8571 13.921C10.4511 14.0146 10.1098 14.1345 9.83331 14.2807V13.2895C10.4688 12.9854 11.1719 12.8333 11.9426 12.8333C12.631 12.8333 13.1723 12.9766 13.5665 13.2631C13.9666 13.5438 14.1666 13.9327 14.1666 14.4298C14.1666 14.8041 14.096 15.1082 13.9548 15.3421C13.8195 15.5702 13.593 15.7602 13.2753 15.9123L12.7899 16.1579C12.6016 16.2514 12.4839 16.3275 12.4368 16.3859C12.3957 16.4444 12.3751 16.5585 12.3751 16.728V17.2368ZM11.872 19.1666C11.6661 19.1666 11.4896 19.1023 11.3425 18.9737C11.1954 18.845 11.1218 18.6579 11.1218 18.4123C11.1218 18.1783 11.1954 17.9971 11.3425 17.8684C11.4896 17.7339 11.6661 17.6666 11.872 17.6666C12.0838 17.6666 12.2603 17.7339 12.4015 17.8684C12.5486 17.9971 12.6222 18.1783 12.6222 18.4123C12.6222 18.6637 12.5516 18.8538 12.4104 18.9824C12.2692 19.1052 12.0897 19.1666 11.872 19.1666Z" fill="white"/>
</g>
</g>
</g>
</g>
</svg>
