<svg width="32" height="32" viewBox="0 0 32 32" fill="none" xmlns="http://www.w3.org/2000/svg">
<rect width="32" height="32" fill="#1E1E1E"/>
<g id="Pictograms">
<rect x="-80" y="-386" width="1144" height="1538" rx="20" fill="white"/>
<g id="table">
<g id="row-2">
<g id="eb-picto_illu-warning_msg" clip-path="url(#clip0_40003776_761)">
<path id="Vector" d="M30.17 9.48001V21.87C30.17 22.9 29.55 23.78 28.66 24.15C28.36 24.28 28.04 24.35 27.7 24.35H13.56L9.16999 28.91C8.92999 29.17 8.58999 29.32 8.24999 29.32C8.09999 29.32 7.94999 29.29 7.80999 29.23C7.32999 29.05 7.00999 28.59 7.00999 28.08V24.32H6.52999C5.15999 24.32 4.04999 23.21 4.04999 21.85V9.48001C4.05999 8.11001 5.15999 7.01001 6.52999 7.01001H15.88L11.38 14.8C10.51 16.29 11.59 18.16 13.32 18.16H26.78C28.51 18.16 29.59 16.29 28.72 14.8L24.22 7.01001H27.7C28.25 7.01001 28.75 7.19001 29.16 7.49001C29.77 7.94001 30.17 8.66001 30.17 9.48001Z" fill="#FF4242"/>
<path id="Vector_2" d="M18.46 17.04C18.46 17.04 18.5 17.02 18.53 17.02C18.47 17.04 18.41 17.07 18.34 17.1C18.38 17.08 18.42 17.06 18.46 17.04Z" fill="#0168FF"/>
<path id="Vector_3" d="M26.78 18.16H13.32C11.59 18.16 10.51 16.29 11.38 14.8L15.88 7.01001H24.22L28.72 14.8C29.59 16.29 28.51 18.16 26.78 18.16Z" fill="#212932"/>
<path id="Vector_4" d="M24.22 7.01001H15.88L18.11 3.14001C18.97 1.64001 21.13 1.64001 21.99 3.14001L24.22 7.01001Z" fill="#0168FF"/>
<path id="Vector_5" d="M20.76 9.01001H19.35V13.66H20.76V9.01001Z" fill="white"/>
<path id="Vector_6" d="M20.1 14.66H20.01C19.64 14.66 19.34 14.96 19.34 15.33V15.34C19.34 15.7101 19.64 16.01 20.01 16.01H20.1C20.4701 16.01 20.77 15.7101 20.77 15.34V15.33C20.77 14.96 20.4701 14.66 20.1 14.66Z" fill="white"/>
</g>
</g>
</g>
</g>
<defs>
<clipPath id="clip0_40003776_761">
<rect width="32" height="32" fill="white"/>
</clipPath>
</defs>
</svg>
