<svg width="32" height="32" viewBox="0 0 32 32" fill="none" xmlns="http://www.w3.org/2000/svg">
<rect width="32" height="32" fill="#1E1E1E"/>
<g id="Pictograms">
<rect x="-184" y="-386" width="1144" height="1538" rx="20" fill="white"/>
<g id="table">
<g id="row-2">
<g id="eb-picto_illu-info_msg" clip-path="url(#clip0_40003776_761)">
<path id="Vector" d="M30.17 9.48001V21.87C30.17 22.9 29.55 23.78 28.66 24.15C28.36 24.28 28.04 24.35 27.7 24.35H13.56L9.16999 28.91C8.92999 29.17 8.58999 29.32 8.24999 29.32C8.09999 29.32 7.94999 29.29 7.80999 29.23C7.32999 29.05 7.00999 28.59 7.00999 28.08V24.32H6.52999C5.15999 24.32 4.04999 23.21 4.04999 21.85V9.48001C4.04999 8.11001 5.15999 7.01001 6.52999 7.01001H13.44C13.05 7.96001 12.83 9.00001 12.83 10.09C12.83 14.55 16.44 18.16 20.9 18.16C25.36 18.16 28.98 14.55 28.98 10.09C28.98 9.04001 28.78 8.04001 28.41 7.12001C28.69 7.20001 28.94 7.33001 29.16 7.49001C29.77 7.94001 30.17 8.66001 30.17 9.48001Z" fill="#0168FF"/>
<path id="Vector_2" d="M18.46 17.04C18.46 17.04 18.5 17.02 18.53 17.02C18.47 17.04 18.41 17.07 18.34 17.1C18.38 17.08 18.42 17.06 18.46 17.04Z" fill="#0168FF"/>
<path id="Vector_3" d="M28.98 10.09C28.98 14.55 25.36 18.16 20.9 18.16C16.44 18.16 12.83 14.55 12.83 10.09C12.83 9.00001 13.05 7.96001 13.44 7.01001H27.7C27.95 7.01001 28.19 7.05001 28.41 7.12001C28.78 8.04001 28.98 9.04001 28.98 10.09Z" fill="#212932"/>
<path id="Vector_4" d="M28.41 7.12002C28.19 7.05002 27.95 7.01002 27.7 7.01002H13.44C14.65 4.08002 17.53 2.02002 20.9 2.02002C24.27 2.02002 27.23 4.13002 28.41 7.12002Z" fill="#FF4242"/>
<path id="Vector_5" d="M21.62 11.35H20.21V16H21.62V11.35Z" fill="white"/>
<path id="Vector_6" d="M21.63 9.68002C21.63 9.28002 21.33 8.96002 20.96 8.96002H20.87C20.5 8.96002 20.2 9.28002 20.2 9.68002C20.2 10.08 20.5 10.4 20.87 10.4H20.96C21.33 10.4 21.63 10.08 21.63 9.68002Z" fill="white"/>
</g>
</g>
</g>
</g>
<defs>
<clipPath id="clip0_40003776_761">
<rect width="32" height="32" fill="white"/>
</clipPath>
</defs>
</svg>
