<svg width="32" height="32" viewBox="0 0 32 32" fill="none" xmlns="http://www.w3.org/2000/svg">
<rect width="32" height="32" fill="#1E1E1E"/>
<g id="Pictograms">
<rect x="-215" y="-496" width="1144" height="1538" rx="20" fill="white"/>
<g id="eb-picto_illu-alert_chat">
<path id="Vector" d="M28.01 12L21.03 11.98V16C21.03 16.83 20.53 17.54 19.81 17.84C19.57 17.94 19.31 18 19.03 18H14V22.03C14 23.13 14.9 24.03 16 24.03H20.64L24.3 27.74C24.49 27.93 24.75 28.04 25.01 28.04C25.14 28.04 25.27 28.02 25.39 27.97C25.77 27.82 26.01 27.45 26.01 27.04V24.03H28C29.1 24.03 30 23.14 30 22.03V14C30.01 12.9 29.12 12 28.02 12H28.01Z" fill="#0168FF"/>
<path id="Vector_2" d="M15.59 12C15.72 11.97 15.86 11.96 15.99 11.96H19.93L21.02 11.98V5.98999C21.02 4.88999 20.12 3.98999 19.02 3.98999H4C2.9 3.98999 2 4.88999 2 5.98999V15.98C2 17.09 2.89 17.98 4 17.98H6.01V21.02C6.01 21.43 6.26 21.8 6.65 21.95C6.77 21.99 6.89 22.02 7.01 22.02C7.29 22.02 7.56 21.91 7.75 21.69L11.3 18H13.99V13.96C13.99 12.99 14.68 12.19 15.59 12Z" fill="#FF4747"/>
<path id="Vector_3" d="M19.94 11.98H16V11.97C15.86 11.97 15.73 11.98 15.6 12.01C15.49 12.03 15.38 12.07 15.27 12.11C14.53 12.4 14 13.13 14 13.97V18.01H19.03C19.31 18.01 19.57 17.95 19.81 17.85C20.53 17.55 21.03 16.84 21.03 16.01V11.99H19.94V11.98Z" fill="black"/>
<path id="Vector_4" d="M10.59 13.85C10.59 13.25 11.04 12.93 11.51 12.93C12.01 12.93 12.43 13.24 12.43 13.85C12.43 14.5 12.01 14.78 11.51 14.78C11.05 14.78 10.59 14.5 10.59 13.85ZM10.82 12.16V6.76001L12.21 6.57001V12.17H10.82V12.16Z" fill="#E7E9E9"/>
</g>
</g>
</svg>
