<svg width="32" height="32" viewBox="0 0 32 32" fill="none" xmlns="http://www.w3.org/2000/svg">
<rect width="32" height="32" fill="#1E1E1E"/>
<g id="Pictograms">
<rect x="-261" y="-451" width="1144" height="1538" rx="20" fill="white"/>
<g id="eb-picto_illu-folder_note">
<path id="Vector" d="M14.79 12.62L20.67 12.65L20.38 13.42L14.79 13.39V12.62Z" fill="#EAECEC"/>
<path id="Vector_2" d="M22.99 10.78L25 10.79L24.71 11.56L22.8 11.55L14.8 11.5L14.81 10.73L22.99 10.78Z" fill="#EAECEC"/>
<path id="Vector_3" d="M14.81 8.84003L25.01 8.91003L24.88 9.26003L24.72 9.68003L23.48 9.67003L14.81 9.62003V8.84003Z" fill="#EAECEC"/>
<path id="Vector_4" d="M24.73 7.79001L14.82 7.73001V6.95001L25.02 7.02001L24.73 7.79001Z" fill="#EAECEC"/>
<path id="Vector_5" d="M25.64 3.91999L14.85 3.85999C14 3.85999 13.31 4.53999 13.3 5.39999L13.23 16.8H22.49C23.37 16.81 24.1 17.53 24.1 18.42V24H25.52C26.38 24.01 27.07 23.32 27.07 22.47L27.12 15.6L27.15 9.80999L27.18 5.43999C27.18 4.60999 26.48 3.92999 25.64 3.91999ZM22.99 10.78H25L24.71 11.56H22.8L14.8 11.5V10.73L22.99 10.78ZM14.81 9.61999V8.83999L25.01 8.90999L24.88 9.25999L24.72 9.67999H23.48L14.81 9.61999ZM20.67 12.65L20.38 13.42L14.79 13.39V12.62L20.67 12.65ZM24.73 7.78999L14.82 7.72999V6.94999L25.02 7.01999L24.73 7.78999Z" fill="#FF4747"/>
<path id="Vector_6" d="M24.1 18.42V24H24L19.72 23.97L14.73 23.94C13.88 23.93 13.2 23.25 13.19 22.42L13.23 16.8H22.49C23.37 16.81 24.1 17.53 24.1 18.42Z" fill="black"/>
<path id="Vector_7" d="M24.1 24V27.38C24.1 28.27 23.38 28.99 22.5 29H4.60998C3.69998 29 2.97998 28.27 2.97998 27.38V14.35C2.97998 13.46 3.68998 12.74 4.56998 12.73H9.50998C9.96998 12.73 10.39 12.92 10.68 13.24C10.89 13.46 11.04 13.74 11.1 14.05C11.12 14.15 11.13 14.25 11.13 14.35V16.8H13.23L13.19 22.42C13.19 23.25 13.88 23.93 14.73 23.94L19.72 23.97L24 24H24.1Z" fill="#0168FF"/>
</g>
</g>
</svg>
