<svg width="32" height="32" viewBox="0 0 32 32" fill="none" xmlns="http://www.w3.org/2000/svg">
<rect width="32" height="32" fill="#1E1E1E"/>
<g id="Pictograms">
<rect x="-236" y="-386" width="1144" height="1538" rx="20" fill="white"/>
<g id="table">
<g id="row-2">
<g id="eb-picto_illu-error_msg">
<path id="Vector" d="M29.1001 7.46999V16.15C29.1001 17.24 28.2201 18.12 27.1301 18.12H14.9501C13.8601 18.12 12.9801 17.24 12.9801 16.15V6.98999H6.47007C5.10007 6.98999 4.00007 8.08999 4.00007 9.45999V21.83C3.99007 23.19 5.10007 24.3 6.47007 24.3H6.95007V28.06C6.95007 28.57 7.27007 29.03 7.75007 29.21C7.89007 29.27 8.04007 29.3 8.19007 29.3C8.53007 29.3 8.87007 29.15 9.11007 28.89L13.5001 24.33H27.6401C27.9801 24.33 28.3001 24.26 28.6001 24.13C29.4901 23.76 30.1101 22.88 30.1101 21.85V9.45999C30.1101 8.63999 29.7101 7.91999 29.1001 7.46999Z" fill="#FF4242"/>
<path id="Vector_2" d="M27.62 6.97998H12.96V16.14C12.96 17.23 13.84 18.11 14.93 18.11H27.11C28.2 18.11 29.08 17.23 29.08 16.14V7.45998C28.67 7.15998 28.17 6.97998 27.62 6.97998Z" fill="#212932"/>
<path id="Vector_3" d="M29.1 3.91V7.47C28.69 7.17 28.19 6.99 27.64 6.99H12.98V3.91C12.98 2.86 13.83 2 14.89 2H27.19C28.24 2 29.1 2.85 29.1 3.91Z" fill="#0168FF"/>
<g id="Vector_4">
<path d="M23.8801 10.34L19.2201 14.99L18.2001 14.04L22.8901 9.34998L23.8801 10.34Z" fill="white"/>
<path d="M18.2001 10.34L22.8601 14.99L23.8801 14.04L19.1901 9.34998L18.2001 10.34Z" fill="white"/>
</g>
</g>
</g>
</g>
</g>
</svg>
