<svg width="32" height="32" viewBox="0 0 32 32" fill="none" xmlns="http://www.w3.org/2000/svg">
<rect width="32" height="32" fill="#1E1E1E"/>
<g id="Pictograms">
<rect x="-491" y="-451" width="1144" height="1538" rx="20" fill="white"/>
<g id="eb-picto_illu-mobile_card" clip-path="url(#clip0_40003776_761)">
<path id="Vector" d="M21.99 2H10C8.9 2 8 2.9 8 4V28C8 29.1 8.9 30 10 30H21.99C23.09 30 23.99 29.1 23.99 28V4C23.99 2.9 23.09 2 21.99 2ZM14.5 4H17.5C18.05 4 18.5 4.45 18.5 5C18.5 5.55 18.05 6 17.5 6H14.5C13.95 6 13.5 5.55 13.5 5C13.5 4.45 13.95 4 14.5 4ZM21.99 15V20C21.99 20.55 21.54 21 20.99 21H11.02C10.47 21 10.02 20.55 10.02 20V13C10.02 12.45 10.47 12 11.02 12H20.99C21.54 12 21.99 12.45 21.99 13V15Z" fill="#0168FF"/>
<path id="Vector_2" d="M14.5 6H17.5C18.05 6 18.5 5.55 18.5 5C18.5 4.45 18.05 4 17.5 4H14.5C13.95 4 13.5 4.45 13.5 5C13.5 5.55 13.95 6 14.5 6Z" fill="black"/>
<path id="Vector_3" d="M20.99 12H11.02C10.47 12 10.02 12.45 10.02 13V15C10.02 14.45 10.47 14 11.02 14H20.99C21.54 14 21.99 14.45 21.99 15V13C21.99 12.45 21.54 12 20.99 12Z" fill="black"/>
<path id="Vector_4" d="M20.99 14H11.02C10.47 14 10.02 14.45 10.02 15V20C10.02 20.55 10.47 21 11.02 21H20.99C21.54 21 21.99 20.55 21.99 20V15C21.99 14.45 21.54 14 20.99 14ZM17.57 19.98H10.99V18.98H17.99L17.56 19.98H17.57Z" fill="#FF4747"/>
<path id="Vector_5" d="M10.99 19.98H17.57L17.99 18.97H10.99V19.98Z" fill="#E8EAEA"/>
</g>
</g>
<defs>
<clipPath id="clip0_40003776_761">
<rect width="32" height="32" fill="white"/>
</clipPath>
</defs>
</svg>
