<svg width="32" height="32" viewBox="0 0 32 32" fill="none" xmlns="http://www.w3.org/2000/svg">
<rect width="32" height="32" fill="#1E1E1E"/>
<g id="Pictograms">
<rect x="-721" y="-451" width="1144" height="1538" rx="20" fill="white"/>
<g id="eb-picto_illu-calculator" clip-path="url(#clip0_40003776_761)">
<path id="Vector" d="M26 12C26 13.1 25.1 14 24 14H7.99001C6.90001 14 6.02001 13.13 5.99001 12.05V26.02C5.99001 27.12 6.89001 28.02 7.99001 28.02H24C25.1 28.02 26 27.12 26 26.02V10.84C26 10.84 26 10.87 26 10.89V12ZM14.01 16.01H18V18.01H14.01V16.01ZM14.01 20H18V22H14.01V20ZM13 26H9.01001V24H13V26ZM13 22H9.01001V20H13V22ZM13 18H9.01001V16H13V18ZM22 26H14.01V24H23L22 26ZM23.01 22H19.02V20H23.01V22ZM23.01 18H19.02V16H23.01V18Z" fill="#0168FF"/>
<path id="Vector_2" d="M12.99 16.01H9V18.01H12.99V16.01Z" fill="#E8EAEA"/>
<path id="Vector_3" d="M18 16.01H14.01V18.01H18V16.01Z" fill="#E8EAEA"/>
<path id="Vector_4" d="M23.01 16.01H19.02V18.01H23.01V16.01Z" fill="#E8EAEA"/>
<path id="Vector_5" d="M12.99 20H9V22H12.99V20Z" fill="#E8EAEA"/>
<path id="Vector_6" d="M12.99 24H9V26H12.99V24Z" fill="#E8EAEA"/>
<path id="Vector_7" d="M18 20H14.01V22H18V20Z" fill="#E8EAEA"/>
<path id="Vector_8" d="M14.01 26H21.99L22.99 24H14.01V26Z" fill="#E8EAEA"/>
<path id="Vector_9" d="M23.01 20H19.02V22H23.01V20Z" fill="#E8EAEA"/>
<path id="Vector_10" d="M24.01 3.97998H8C6.9 3.97998 6 4.87998 6 5.97998V9.87998C6.03 8.79998 6.91 7.92998 8 7.92998H24.01C25.11 7.92998 26.01 8.82998 26.01 9.92998V10.03V5.97998C26.01 4.87998 25.11 3.97998 24.01 3.97998Z" fill="#FF4747"/>
<path id="Vector_11" d="M24 7.91998H7.99001C6.90001 7.91998 6.02001 8.78998 5.99001 9.86998V12.05C6.02001 13.13 6.90001 14 7.99001 14H24C25.1 14 26 13.1 26 12V9.91998C26 8.81998 25.1 7.91998 24 7.91998ZM23 12.74C22.76 12.84 22.55 12.9 22.37 12.94C22.19 12.98 21.96 13 21.7 13C21.44 13 21.18 12.95 20.95 12.85C20.72 12.75 20.53 12.6 20.37 12.41C20.21 12.22 20.09 11.99 20.01 11.73H19.5L19.58 11.22H19.92C19.92 11.22 19.92 11.11 19.92 11.02V10.9H19.51L19.59 10.39H20C20.03 10.26 20.08 10.14 20.13 10.02C20.19 9.88998 20.27 9.75998 20.36 9.64998C20.53 9.43998 20.73 9.27998 20.97 9.16998C21.21 9.05998 21.48 8.99998 21.77 8.99998C22.02 8.99998 22.23 9.01998 22.4 9.05998C22.58 9.09998 22.77 9.16998 22.98 9.25998V10.12C22.89 10.07 22.81 10.05 22.72 10.02C22.64 9.98998 22.55 9.93998 22.47 9.91998C22.3 9.86998 22.1 9.84998 21.87 9.84998C21.63 9.84998 21.43 9.90998 21.28 10.02C21.16 10.11 21.06 10.23 20.99 10.39H22.31L22.23 10.9H20.88C20.88 10.9 20.88 10.97 20.88 11.02C20.88 11.07 20.88 11.14 20.89 11.22H22.31L22.23 11.73H21.03C21.2 12.01 21.47 12.15 21.85 12.15C22.07 12.15 22.28 12.13 22.46 12.08C22.64 12.03 22.83 11.97 23.01 11.88V12.73L23 12.74Z" fill="black"/>
<path id="Vector_12" d="M22.44 12.09C22.26 12.13 22.05 12.16 21.83 12.16C21.45 12.16 21.18 12.02 21.01 11.74H22.21L22.29 11.23H20.87C20.87 11.14 20.86 11.07 20.86 11.03C20.86 10.98 20.86 10.93 20.86 10.91H22.21L22.29 10.4H20.97C21.04 10.24 21.14 10.12 21.26 10.03C21.41 9.92001 21.61 9.86001 21.85 9.86001C22.07 9.86001 22.27 9.88001 22.45 9.93001C22.54 9.95001 22.62 10 22.7 10.03C22.79 10.06 22.88 10.09 22.96 10.13V9.27001C22.75 9.18001 22.55 9.11001 22.38 9.07001C22.2 9.03001 21.99 9.01001 21.75 9.01001C21.46 9.01001 21.19 9.07001 20.95 9.18001C20.71 9.29001 20.51 9.45001 20.34 9.66001C20.25 9.77001 20.18 9.90001 20.11 10.03C20.06 10.15 20.01 10.27 19.98 10.4H19.57L19.49 10.91H19.9V11.03C19.9 11.12 19.9 11.19 19.9 11.23H19.56L19.48 11.74H19.99C20.07 12 20.19 12.23 20.35 12.42C20.51 12.61 20.71 12.75 20.93 12.86C21.15 12.97 21.41 13.01 21.68 13.01C21.95 13.01 22.17 12.99 22.35 12.95C22.53 12.91 22.74 12.84 22.98 12.75V11.9C22.79 11.99 22.61 12.05 22.43 12.1L22.44 12.09Z" fill="#E8EAEA"/>
</g>
</g>
<defs>
<clipPath id="clip0_40003776_761">
<rect width="32" height="32" fill="white"/>
</clipPath>
</defs>
</svg>
