<svg width="32" height="32" viewBox="0 0 32 32" fill="none" xmlns="http://www.w3.org/2000/svg">
<rect width="32" height="32" fill="#1E1E1E"/>
<g id="Pictograms">
<rect x="-445" y="-451" width="1144" height="1538" rx="20" fill="white"/>
<g id="eb-picto_illu-credit_card" clip-path="url(#clip0_40003776_761)">
<path id="Vector" d="M5.99 13H2V19C2 20.1 2.9 21 4 21H5.99V13.01V13Z" fill="#0168FF"/>
<path id="Vector_2" d="M25.98 8C25.98 6.9 25.08 6 23.98 6H4.01001C2.91001 6 2.01001 6.9 2.01001 8V10H25.99V8H25.98Z" fill="#0168FF"/>
<path id="Vector_3" d="M7.99001 11.01H25.98V10H2.01001V13H6.00001C6.00001 11.9 6.90001 11.01 8.00001 11.01H7.99001Z" fill="black"/>
<path id="Vector_4" d="M27.72 23.34C27.7 23.4 27.66 23.49 27.67 23.48C27.67 23.48 27.54 23.81 27.51 23.9H27.85C27.83 23.82 27.76 23.47 27.76 23.47L27.73 23.34H27.72Z" fill="#FF4747"/>
<path id="Vector_5" d="M13.37 14.17C13.37 14.23 13.41 14.26 13.48 14.26C13.53 14.26 13.59 14.24 13.63 14.21V14.08H13.52C13.42 14.08 13.37 14.11 13.37 14.18V14.17Z" fill="#FF4747"/>
<path id="Vector_6" d="M9.94001 13.82C9.84001 13.82 9.76001 13.89 9.76001 13.99V14.17C9.81001 14.19 9.86001 14.2 9.92001 14.2C10.03 14.2 10.11 14.13 10.11 14.01C10.11 13.89 10.05 13.82 9.94001 13.82Z" fill="#FF4747"/>
<path id="Vector_7" d="M14.83 14.17C14.83 14.23 14.87 14.26 14.94 14.26C14.99 14.26 15.05 14.24 15.09 14.21V14.08H14.98C14.88 14.08 14.83 14.11 14.83 14.18V14.17Z" fill="#FF4747"/>
<path id="Vector_8" d="M11.1 13.86C11.1 13.86 11.06 13.78 10.99 13.78C10.88 13.78 10.8 13.84 10.78 13.95H10.99C11.07 13.95 11.1 13.92 11.1 13.86Z" fill="#FF4747"/>
<path id="Vector_9" d="M27.99 11.01H7.98999C6.88999 11.01 5.98999 11.9 5.98999 13V23.99C5.98999 25.09 6.88999 25.99 7.98999 25.99H27.99C29.09 25.99 29.99 25.09 29.99 23.99V13C29.99 11.9 29.09 11 27.99 11V11.01ZM17.44 14.2C17.37 14.2 17.3 14.2 17.24 14.2C17.24 14.22 17.24 14.24 17.24 14.26C17.24 14.26 17.24 14.27 17.24 14.28C17.24 14.29 17.24 14.31 17.24 14.32C17.24 14.33 17.24 14.35 17.26 14.36C17.26 14.37 17.27 14.39 17.28 14.4C17.28 14.4 17.28 14.43 17.3 14.43C17.31 14.44 17.32 14.45 17.33 14.46C17.33 14.47 17.35 14.48 17.36 14.49C17.38 14.5 17.39 14.51 17.41 14.53C17.43 14.54 17.41 14.55 17.44 14.56C17.44 14.56 17.46 14.56 17.47 14.57C17.48 14.57 17.49 14.57 17.5 14.59C17.53 14.61 17.55 14.61 17.59 14.62C17.61 14.62 17.64 14.64 17.66 14.64C17.68 14.64 17.69 14.64 17.7 14.64C17.71 14.64 17.72 14.64 17.73 14.64C17.75 14.64 17.77 14.64 17.79 14.64C17.82 14.64 17.85 14.64 17.88 14.64C17.89 14.64 17.91 14.64 17.92 14.64C17.94 14.64 17.96 14.64 17.97 14.64C18 14.64 18.02 14.64 18.04 14.64C18.06 14.64 18.1 14.62 18.12 14.62C18.2 14.6 18.23 14.6 18.29 14.58C18.31 14.58 18.35 14.56 18.36 14.55C18.38 14.55 18.4 14.53 18.42 14.53C18.45 14.53 18.47 14.5 18.5 14.51C18.5 14.52 18.5 14.52 18.48 14.53C18.48 14.56 18.46 14.57 18.44 14.58C18.43 14.58 18.42 14.6 18.4 14.61C18.39 14.61 18.38 14.61 18.37 14.62C18.36 14.62 18.35 14.65 18.34 14.66C18.32 14.68 18.28 14.69 18.25 14.71C18.23 14.72 18.2 14.74 18.18 14.75C18.17 14.75 18.15 14.75 18.14 14.77C18.14 14.77 18.13 14.77 18.12 14.79C18.11 14.79 18.1 14.79 18.09 14.8C18.07 14.8 18.06 14.82 18.04 14.82C18.02 14.82 18.01 14.82 17.99 14.82C17.97 14.82 17.96 14.84 17.94 14.84C17.93 14.84 17.92 14.84 17.9 14.84C17.9 14.84 17.88 14.84 17.87 14.85C17.86 14.85 17.85 14.85 17.83 14.85C17.81 14.85 17.8 14.86 17.78 14.86C17.72 14.86 17.72 14.88 17.66 14.88C17.52 14.9 17.34 14.87 17.31 14.85C17.28 14.85 17.26 14.85 17.2 14.81C16.98 14.72 16.85 14.47 16.83 14.44C16.81 14.41 16.79 14.31 16.77 14.28C16.77 14.25 16.76 14.21 16.76 14.18C16.24 14.15 15.88 14.09 15.88 14.03C15.88 13.97 16.25 13.9 16.79 13.88C16.79 13.88 16.86 13.6 17.19 13.34C17.4 13.17 17.62 13.13 17.73 13.08C17.79 13.06 17.86 13.05 17.89 13.04C17.93 13.04 17.97 13.04 18 13.04C18.08 13.05 18 13.05 18.09 13.06C18.16 13.08 18.34 13.17 18.42 13.23C18.42 13.23 18.44 13.23 18.44 13.24C18.44 13.24 18.45 13.25 18.46 13.26C18.46 13.26 18.46 13.27 18.47 13.28V13.3C18.47 13.32 18.49 13.33 18.48 13.36C18.48 13.37 18.47 13.37 18.46 13.39C18.46 13.4 18.46 13.41 18.46 13.42C18.46 13.44 18.44 13.46 18.43 13.47C18.42 13.48 18.38 13.51 18.37 13.51C18.34 13.51 18.31 13.47 18.26 13.47C18.18 13.47 18.11 13.47 18.03 13.47C18.01 13.47 18 13.47 17.98 13.47C17.96 13.47 17.94 13.49 17.91 13.49C17.89 13.49 17.87 13.5 17.85 13.51C17.83 13.51 17.83 13.51 17.82 13.51C17.81 13.51 17.8 13.52 17.79 13.52C17.77 13.53 17.74 13.54 17.71 13.55C17.68 13.56 17.65 13.58 17.63 13.59C17.63 13.59 17.61 13.6 17.6 13.61C17.59 13.61 17.58 13.62 17.57 13.63C17.57 13.64 17.54 13.64 17.53 13.65C17.5 13.68 17.47 13.7 17.45 13.73C17.45 13.73 17.43 13.73 17.42 13.75C17.41 13.75 17.41 13.77 17.39 13.78C17.37 13.79 17.36 13.81 17.34 13.83C17.34 13.83 17.35 13.83 17.36 13.83C18.19 13.83 18.87 13.91 18.87 14C18.87 14.09 18.19 14.17 17.36 14.17L17.44 14.2ZM18.83 14.34C18.83 14.4 18.78 14.46 18.71 14.46C18.64 14.46 18.59 14.41 18.59 14.34C18.59 14.27 18.64 14.22 18.71 14.22C18.78 14.22 18.83 14.27 18.83 14.34ZM14.93 13.8C14.82 13.8 14.71 13.82 14.62 13.86V13.63C14.72 13.59 14.85 13.57 14.95 13.57C15.23 13.57 15.38 13.7 15.38 13.94V14.17C15.38 14.17 15.4 14.23 15.44 14.23C15.46 14.23 15.47 14.23 15.48 14.23V14.43C15.48 14.43 15.38 14.46 15.33 14.46C15.23 14.46 15.17 14.44 15.14 14.36C15.06 14.44 14.97 14.47 14.85 14.47C14.66 14.47 14.55 14.37 14.55 14.21C14.55 14.02 14.68 13.94 14.95 13.94H15.09C15.09 13.86 15.03 13.82 14.93 13.82V13.8ZM14.29 13.49C14.2 13.49 14.12 13.44 14.12 13.33C14.12 13.22 14.2 13.18 14.29 13.18C14.38 13.18 14.46 13.23 14.46 13.33C14.46 13.43 14.38 13.49 14.29 13.49ZM14.43 13.57V14.71L14.15 14.76V13.62L14.43 13.57ZM13.47 13.8C13.36 13.8 13.25 13.82 13.16 13.86V13.63C13.26 13.59 13.39 13.57 13.49 13.57C13.77 13.57 13.92 13.7 13.92 13.94V14.17C13.92 14.17 13.94 14.23 13.98 14.23C14 14.23 14.01 14.23 14.02 14.23V14.43C14.02 14.43 13.92 14.46 13.87 14.46C13.77 14.46 13.71 14.44 13.68 14.36C13.6 14.44 13.51 14.47 13.39 14.47C13.2 14.47 13.09 14.37 13.09 14.21C13.09 14.02 13.22 13.94 13.49 13.94H13.63C13.63 13.86 13.57 13.82 13.47 13.82V13.8ZM12.68 14.21C12.78 14.21 12.87 14.19 12.96 14.15V14.41C12.87 14.45 12.77 14.47 12.65 14.47C12.37 14.47 12.18 14.3 12.18 14.03C12.18 13.76 12.38 13.59 12.65 13.59C12.76 13.59 12.87 13.61 12.95 13.65V13.91C12.88 13.87 12.79 13.84 12.68 13.84C12.56 13.84 12.46 13.91 12.46 14.04C12.46 14.16 12.55 14.23 12.67 14.23L12.68 14.21ZM12.06 13.57C12.06 13.57 12.09 13.57 12.11 13.57V13.82C12.11 13.82 12.07 13.82 12.05 13.82C11.94 13.82 11.85 13.87 11.8 13.95V14.44H11.52V13.62L11.78 13.58V13.75C11.83 13.64 11.94 13.58 12.07 13.58L12.06 13.57ZM11.01 14.24C11.11 14.24 11.2 14.22 11.3 14.18V14.4C11.22 14.44 11.11 14.46 10.97 14.46C10.66 14.46 10.49 14.31 10.49 14.04C10.49 13.77 10.69 13.58 11 13.58C11.21 13.58 11.36 13.7 11.36 13.87C11.36 14.03 11.24 14.13 11.03 14.13H10.78C10.81 14.21 10.88 14.24 11.01 14.24ZM10.03 13.57C10.27 13.57 10.39 13.72 10.39 14.01C10.39 14.3 10.22 14.45 9.93999 14.45C9.76999 14.45 9.63999 14.42 9.46999 14.33V13.28L9.74999 13.23V13.68C9.81999 13.6 9.91999 13.56 10.02 13.56L10.03 13.57ZM9.25999 13.29V14.43H8.95999V13.33L9.25999 13.28V13.29ZM19.74 24.01H8.82999V23.01H20.11L19.74 24.01ZM24.08 24.43L23.72 23.14C23.59 23.07 23.45 23 23.29 22.96V22.93H23.95C24.04 22.93 24.11 22.96 24.14 23.06L24.28 23.75L24.32 23.96L24.72 22.94H25.15L24.51 24.44H24.08V24.43ZM25.06 24.44L25.32 22.94H25.73L25.47 24.44H25.06ZM26.18 24.46C26 24.46 25.82 24.42 25.72 24.38L25.78 24.04L25.83 24.06C25.96 24.12 26.05 24.14 26.21 24.14C26.33 24.14 26.45 24.09 26.45 23.99C26.45 23.92 26.4 23.88 26.24 23.8C26.09 23.73 25.88 23.61 25.88 23.39C25.88 23.1 26.17 22.9 26.57 22.9C26.73 22.9 26.86 22.93 26.94 22.96L26.88 23.28L26.84 23.26C26.76 23.23 26.67 23.2 26.53 23.2C26.37 23.2 26.3 23.27 26.3 23.33C26.3 23.4 26.39 23.45 26.53 23.52C26.77 23.63 26.87 23.76 26.87 23.93C26.87 24.24 26.59 24.44 26.16 24.44L26.18 24.46ZM27.95 24.44C27.95 24.44 27.91 24.27 27.9 24.22C27.84 24.22 27.42 24.22 27.38 24.22C27.36 24.26 27.29 24.45 27.29 24.45H26.86L27.47 23.08C27.51 22.98 27.59 22.96 27.68 22.96H28L28.33 24.46H27.95V24.44Z" fill="#FF4747"/>
<path id="Vector_10" d="M25.06 24.44H25.47L25.73 22.94H25.32L25.06 24.44Z" fill="#E8EAEA"/>
<path id="Vector_11" d="M26.55 23.54C26.41 23.47 26.32 23.42 26.32 23.35C26.32 23.29 26.39 23.22 26.55 23.22C26.68 23.22 26.78 23.25 26.86 23.28L26.9 23.3L26.96 22.98C26.88 22.95 26.75 22.92 26.59 22.92C26.19 22.92 25.9 23.12 25.9 23.41C25.9 23.63 26.1 23.75 26.26 23.82C26.42 23.89 26.47 23.94 26.47 24.01C26.47 24.11 26.34 24.16 26.23 24.16C26.07 24.16 25.98 24.14 25.85 24.08L25.8 24.06L25.74 24.4C25.84 24.44 26.01 24.48 26.2 24.48C26.63 24.48 26.91 24.28 26.91 23.97C26.91 23.8 26.8 23.67 26.57 23.56L26.55 23.54Z" fill="#E8EAEA"/>
<path id="Vector_12" d="M27.69 22.94C27.59 22.94 27.52 22.97 27.48 23.06L26.87 24.43H27.3C27.3 24.43 27.37 24.25 27.39 24.2C27.44 24.2 27.85 24.2 27.91 24.2C27.92 24.25 27.96 24.42 27.96 24.42H28.34L28.01 22.92H27.69V22.94ZM27.5 23.9C27.53 23.81 27.66 23.48 27.66 23.48C27.66 23.48 27.69 23.39 27.71 23.34L27.74 23.47C27.74 23.47 27.82 23.83 27.83 23.9H27.49H27.5Z" fill="#E8EAEA"/>
<path id="Vector_13" d="M24.72 22.94L24.32 23.96L24.28 23.75C24.18 23.51 23.99 23.29 23.72 23.14L24.08 24.43H24.51L25.15 22.93H24.72V22.94Z" fill="#E8EAEA"/>
<path id="Vector_14" d="M24.28 23.75L24.14 23.06C24.12 22.96 24.04 22.94 23.95 22.93H23.29V22.96C23.45 23 23.59 23.06 23.72 23.14V23.12C23.97 23.25 24.21 23.51 24.28 23.75Z" fill="#E8EAEA"/>
<path id="Vector_15" d="M24.28 23.75C24.21 23.51 23.97 23.25 23.71 23.12V23.14C23.99 23.29 24.18 23.5 24.28 23.75Z" fill="#E8EAEA"/>
<path id="Vector_16" d="M8.95999 14.44H9.25999V13.29L8.95999 13.34V14.44Z" fill="#E8EAEA"/>
<path id="Vector_17" d="M10.03 13.57C9.92001 13.57 9.83001 13.61 9.76001 13.69V13.24L9.48001 13.29V14.34C9.65001 14.43 9.77001 14.46 9.95001 14.46C10.23 14.46 10.4 14.29 10.4 14.02C10.4 13.73 10.27 13.58 10.04 13.58L10.03 13.57ZM9.92001 14.21C9.87001 14.21 9.81001 14.21 9.76001 14.18V14C9.76001 13.9 9.84001 13.83 9.94001 13.83C10.04 13.83 10.11 13.9 10.11 14.02C10.11 14.15 10.03 14.21 9.92001 14.21Z" fill="#E8EAEA"/>
<path id="Vector_18" d="M11.77 13.74V13.57L11.51 13.61V14.43H11.79V13.94C11.84 13.86 11.93 13.81 12.04 13.81C12.06 13.81 12.08 13.81 12.1 13.81V13.56C12.1 13.56 12.06 13.56 12.05 13.56C11.92 13.56 11.82 13.62 11.76 13.73L11.77 13.74Z" fill="#E8EAEA"/>
<path id="Vector_19" d="M12.46 14.02C12.46 13.89 12.55 13.82 12.68 13.82C12.78 13.82 12.88 13.85 12.95 13.89V13.63C12.87 13.59 12.76 13.57 12.65 13.57C12.38 13.57 12.18 13.74 12.18 14.01C12.18 14.28 12.38 14.45 12.65 14.45C12.77 14.45 12.87 14.43 12.96 14.39V14.13C12.87 14.17 12.78 14.19 12.68 14.19C12.56 14.19 12.47 14.12 12.47 14L12.46 14.02Z" fill="#E8EAEA"/>
<path id="Vector_20" d="M13.91 14.17V13.94C13.91 13.7 13.76 13.57 13.48 13.57C13.38 13.57 13.26 13.59 13.15 13.63V13.86C13.24 13.82 13.36 13.8 13.46 13.8C13.56 13.8 13.62 13.84 13.62 13.91L13.48 13.92C13.21 13.92 13.08 14.01 13.08 14.19C13.08 14.35 13.19 14.45 13.38 14.45C13.49 14.45 13.59 14.41 13.67 14.34C13.7 14.42 13.76 14.44 13.86 14.44C13.9 14.44 13.98 14.43 14.01 14.41V14.21C14.01 14.21 13.98 14.21 13.97 14.21C13.93 14.21 13.91 14.19 13.91 14.15V14.17ZM13.63 14.2C13.63 14.2 13.54 14.25 13.48 14.25C13.41 14.25 13.37 14.22 13.37 14.16C13.37 14.09 13.42 14.06 13.52 14.06H13.63V14.19V14.2Z" fill="#E8EAEA"/>
<path id="Vector_21" d="M14.29 13.17C14.2 13.17 14.12 13.22 14.12 13.32C14.12 13.42 14.2 13.48 14.29 13.48C14.38 13.48 14.46 13.43 14.46 13.32C14.46 13.21 14.38 13.17 14.29 13.17Z" fill="#E8EAEA"/>
<path id="Vector_22" d="M14.15 14.76L14.43 14.71V13.57L14.15 13.62V14.76Z" fill="#E8EAEA"/>
<path id="Vector_23" d="M15.37 14.17V13.94C15.37 13.7 15.22 13.57 14.94 13.57C14.84 13.57 14.72 13.59 14.61 13.63V13.86C14.7 13.82 14.82 13.8 14.92 13.8C15.02 13.8 15.08 13.84 15.08 13.91L14.94 13.92C14.67 13.92 14.54 14.01 14.54 14.19C14.54 14.35 14.65 14.45 14.84 14.45C14.95 14.45 15.05 14.41 15.13 14.34C15.16 14.42 15.22 14.44 15.32 14.44C15.36 14.44 15.44 14.43 15.47 14.41V14.21C15.47 14.21 15.44 14.21 15.43 14.21C15.39 14.21 15.37 14.19 15.37 14.15V14.17ZM15.09 14.2C15.09 14.2 15 14.25 14.94 14.25C14.87 14.25 14.83 14.22 14.83 14.16C14.83 14.09 14.88 14.06 14.98 14.06H15.09V14.19V14.2Z" fill="#E8EAEA"/>
<path id="Vector_24" d="M11.36 13.87C11.36 13.69 11.22 13.58 11 13.58C10.7 13.58 10.49 13.77 10.49 14.04C10.49 14.31 10.66 14.46 10.97 14.46C11.11 14.46 11.22 14.44 11.3 14.4V14.18C11.2 14.22 11.11 14.24 11.01 14.24C10.89 14.24 10.82 14.21 10.78 14.13H11.03C11.24 14.13 11.36 14.03 11.36 13.87ZM10.78 13.95C10.8 13.85 10.88 13.78 10.99 13.78C11.06 13.78 11.1 13.81 11.1 13.86C11.1 13.92 11.06 13.95 10.99 13.95H10.78Z" fill="#E8EAEA"/>
<path id="Vector_25" d="M17.47 13.82C17.47 13.82 17.48 13.8 17.5 13.79C17.5 13.79 17.52 13.79 17.53 13.77C17.55 13.74 17.58 13.71 17.61 13.69C17.62 13.68 17.64 13.69 17.65 13.67C17.65 13.67 17.67 13.65 17.68 13.65C17.68 13.65 17.7 13.64 17.71 13.63C17.74 13.61 17.77 13.6 17.79 13.59C17.81 13.58 17.84 13.57 17.87 13.56C17.87 13.56 17.89 13.54 17.9 13.55C17.92 13.55 17.92 13.55 17.93 13.55C17.95 13.55 17.96 13.54 17.99 13.53C18.02 13.53 18.03 13.51 18.06 13.51C18.09 13.51 18.1 13.51 18.11 13.51C18.19 13.49 18.26 13.51 18.34 13.51C18.39 13.51 18.42 13.54 18.45 13.55C18.47 13.55 18.5 13.53 18.51 13.51C18.52 13.49 18.53 13.48 18.54 13.46C18.54 13.46 18.54 13.44 18.54 13.43C18.54 13.42 18.55 13.41 18.56 13.4C18.56 13.37 18.56 13.36 18.55 13.34V13.32C18.55 13.32 18.55 13.3 18.54 13.3C18.54 13.3 18.53 13.29 18.52 13.28C18.52 13.28 18.51 13.28 18.5 13.27C18.42 13.2 18.24 13.11 18.17 13.1C18.07 13.1 18.15 13.1 18.08 13.08C18.04 13.08 18 13.08 17.97 13.08C17.94 13.08 17.87 13.1 17.81 13.12C17.7 13.16 17.48 13.21 17.27 13.38C16.94 13.64 16.87 13.92 16.87 13.92C17.05 13.92 17.25 13.91 17.46 13.91C17.47 13.89 17.49 13.88 17.51 13.86L17.47 13.82Z" fill="#E8EAEA"/>
<path id="Vector_26" d="M16.82 14.29C16.82 14.29 16.86 14.42 16.88 14.45C16.9 14.48 17.03 14.73 17.25 14.82C17.31 14.85 17.33 14.85 17.36 14.86C17.4 14.87 17.57 14.91 17.71 14.89C17.77 14.89 17.77 14.87 17.83 14.87C17.85 14.87 17.86 14.87 17.88 14.86C17.9 14.86 17.91 14.86 17.92 14.86C17.93 14.86 17.94 14.86 17.95 14.85C17.96 14.85 17.97 14.85 17.99 14.85C18.01 14.85 18.02 14.84 18.04 14.83C18.06 14.83 18.08 14.83 18.09 14.83C18.11 14.83 18.12 14.81 18.14 14.81C18.15 14.81 18.16 14.81 18.17 14.8C18.17 14.8 18.18 14.79 18.19 14.78C18.2 14.78 18.22 14.78 18.23 14.76C18.25 14.74 18.27 14.73 18.3 14.72C18.33 14.7 18.37 14.69 18.39 14.67C18.39 14.67 18.4 14.64 18.42 14.63C18.42 14.63 18.44 14.63 18.45 14.62C18.46 14.62 18.47 14.6 18.49 14.59C18.51 14.59 18.53 14.57 18.53 14.54C18.53 14.54 18.54 14.54 18.55 14.52C18.52 14.52 18.49 14.54 18.47 14.54C18.45 14.54 18.43 14.55 18.41 14.56C18.39 14.56 18.35 14.58 18.34 14.59C18.28 14.61 18.25 14.61 18.17 14.63C18.15 14.63 18.11 14.65 18.09 14.65C18.06 14.65 18.05 14.65 18.02 14.65C18 14.65 17.98 14.65 17.97 14.65C17.96 14.65 17.94 14.65 17.93 14.65C17.9 14.65 17.87 14.65 17.84 14.65C17.82 14.65 17.8 14.65 17.78 14.65C17.78 14.65 17.76 14.65 17.75 14.65C17.73 14.65 17.72 14.65 17.71 14.65C17.69 14.65 17.66 14.63 17.64 14.63C17.6 14.63 17.58 14.63 17.55 14.6C17.55 14.6 17.53 14.59 17.52 14.58C17.52 14.58 17.5 14.58 17.49 14.57C17.47 14.57 17.48 14.55 17.46 14.54C17.44 14.53 17.43 14.52 17.41 14.5C17.4 14.5 17.39 14.48 17.38 14.47C17.38 14.47 17.36 14.45 17.35 14.44C17.35 14.44 17.34 14.42 17.33 14.41C17.33 14.4 17.33 14.38 17.31 14.37C17.31 14.36 17.29 14.34 17.29 14.33C17.29 14.31 17.29 14.3 17.29 14.29C17.29 14.29 17.29 14.28 17.29 14.27C17.29 14.25 17.29 14.23 17.29 14.21C17.14 14.21 16.99 14.21 16.86 14.2C16.86 14.24 16.86 14.27 16.87 14.3L16.82 14.29Z" fill="#E8EAEA"/>
<path id="Vector_27" d="M17.44 13.87C17.44 13.87 17.43 13.87 17.42 13.87C17.42 13.87 17.28 14.03 17.24 14.19C17.31 14.19 17.37 14.19 17.44 14.19C18.27 14.19 18.95 14.11 18.95 14.02C18.95 13.93 18.27 13.85 17.44 13.85V13.87Z" fill="#E8EAEA"/>
<path id="Vector_28" d="M16.84 13.88C16.31 13.91 15.93 13.96 15.93 14.03C15.93 14.1 16.29 14.15 16.81 14.18C16.81 14.18 16.81 14.17 16.81 14.16C16.81 14.06 16.81 13.97 16.84 13.88Z" fill="#E8EAEA"/>
<path id="Vector_29" d="M17.24 14.19C17.28 14.03 17.42 13.87 17.42 13.87C17.21 13.87 17.01 13.87 16.83 13.88C16.8 13.97 16.79 14.07 16.8 14.16C16.8 14.16 16.8 14.17 16.8 14.18C16.93 14.18 17.08 14.19 17.23 14.19H17.24Z" fill="#E8EAEA"/>
<path id="Vector_30" d="M18.71 14.46C18.7763 14.46 18.83 14.4062 18.83 14.34C18.83 14.2737 18.7763 14.22 18.71 14.22C18.6437 14.22 18.59 14.2737 18.59 14.34C18.59 14.4062 18.6437 14.46 18.71 14.46Z" fill="#E8EAEA"/>
<path id="Vector_31" d="M8.82999 24.01H19.74L20.11 23H8.82999V24.01Z" fill="#E8EAEA"/>
</g>
</g>
<defs>
<clipPath id="clip0_40003776_761">
<rect width="32" height="32" fill="white"/>
</clipPath>
</defs>
</svg>
