<svg width="32" height="32" viewBox="0 0 32 32" fill="none" xmlns="http://www.w3.org/2000/svg">
<rect width="32" height="32" fill="#1E1E1E"/>
<g id="Pictograms">
<rect x="-675" y="-451" width="1144" height="1538" rx="20" fill="white"/>
<g id="eb-picto_illu-people" clip-path="url(#clip0_40003776_761)">
<path id="Vector" d="M23.94 15.02C25.87 15.02 27.45 13.45 27.45 11.51C27.45 9.57 25.88 8 23.94 8C22 8 20.43 9.57 20.43 11.51C20.43 13.45 22 15.02 23.94 15.02Z" fill="#0168FF"/>
<path id="Vector_2" d="M12.28 12C15.0414 12 17.28 9.76142 17.28 7C17.28 4.23858 15.0414 2 12.28 2C9.51857 2 7.28 4.23858 7.28 7C7.28 9.76142 9.51857 12 12.28 12Z" fill="#FF4747"/>
<path id="Vector_3" d="M20 30H20.24L20 29.99V30Z" fill="#FF4747"/>
<path id="Vector_4" d="M20.79 22.93L19.51 17.36C19.17 17.54 18.87 17.78 18.63 18.06C18.6 18.1 18.57 18.13 18.54 18.17C18.48 18.25 18.42 18.33 18.36 18.41C18.28 18.53 18.21 18.66 18.15 18.79C18.13 18.84 18.11 18.9 18.09 18.95C18.05 19.07 18.01 19.18 17.98 19.31C17.97 19.36 17.96 19.42 17.94 19.47C17.91 19.64 17.89 19.82 17.89 20V26C17.89 26 17.89 26.01 17.89 26.02C17.89 26.7 18.24 27.3 18.77 27.66C19.09 27.88 19.47 28 19.89 28H21.95L20.79 22.93Z" fill="black"/>
<path id="Vector_5" d="M26.99 17.01H20.9C20.4 17.01 19.93 17.14 19.52 17.36L20.8 22.93L21.96 28H28C29.1 28 30 27.1 30 26V20.01C30 18.35 28.66 17.01 27 17.01H26.99Z" fill="#0168FF"/>
<path id="Vector_6" d="M21.95 28.01H19.89C19.48 28.01 19.09 27.88 18.77 27.67C18.24 27.31 17.9 26.71 17.89 26.03C17.89 26.03 17.89 26.02 17.89 26.01V20.01C17.89 19.83 17.91 19.65 17.94 19.48C17.94 19.43 17.96 19.37 17.98 19.32C18.01 19.2 18.05 19.08 18.09 18.96C18.11 18.91 18.13 18.85 18.15 18.8C18.21 18.67 18.28 18.54 18.36 18.42C18.41 18.33 18.47 18.26 18.54 18.18C18.57 18.14 18.6 18.11 18.63 18.07C18.88 17.78 19.18 17.54 19.51 17.37L19.38 16.8C19.05 15.18 17.6 14.01 15.95 14.01H8.03C6.38 14.01 4.93 15.19 4.6 16.81L2.02 28.05C1.82 29.07 2.6 30.01 3.87 30.01H19.99H20.23L20.34 30.02C21.38 30.02 22.15 29.07 21.95 28.06V28.03V28.01Z" fill="#FF4747"/>
</g>
</g>
<defs>
<clipPath id="clip0_40003776_761">
<rect width="32" height="32" fill="white"/>
</clipPath>
</defs>
</svg>
