<svg width="32" height="32" viewBox="0 0 32 32" fill="none" xmlns="http://www.w3.org/2000/svg">
<rect width="32" height="32" fill="#1E1E1E"/>
<g id="Pictograms">
<rect x="-169" y="-496" width="1144" height="1538" rx="20" fill="white"/>
<g id="eb-picto_illu-briefcase" clip-path="url(#clip0_40003776_761)">
<path id="Vector" d="M15.4 5H16.57C18.32 5 19.76 6.31 20 8H22.02C21.78 5.2 19.43 3 16.57 3H15.4C12.54 3 10.19 5.2 9.95001 8H11.97C12.2 6.31 13.64 5 15.4 5Z" fill="black"/>
<path id="Vector_2" d="M26.97 8H4.98999C3.88999 8 2.98999 8.9 2.98999 10V10.49C2.98999 13.13 4.29999 15.31 6.30999 16.61C7.01999 16.09 7.80999 15.7 8.64999 15.44C8.67999 15.44 8.69999 15.42 8.72999 15.42C9.12999 15.3 9.52999 15.21 9.94999 15.14C9.99999 15.14 10.05 15.13 10.1 15.12C10.51 15.06 10.93 15.03 11.36 15.03H20.63C21.05 15.03 21.47 15.07 21.88 15.12C21.94 15.12 22.01 15.13 22.07 15.14C22.47 15.2 22.86 15.29 23.24 15.4C23.29 15.42 23.34 15.43 23.4 15.45C24.21 15.71 24.96 16.08 25.65 16.57C25.66 16.57 25.68 16.59 25.69 16.6C27.68 15.3 28.99 13.13 28.99 10.49V10C28.99 8.9 28.09 8 26.99 8H26.97Z" fill="#FF4747"/>
<path id="Vector_3" d="M8.71997 15.42C9.11997 15.3 9.51997 15.21 9.93997 15.14C9.52997 15.2 9.11997 15.3 8.71997 15.42Z" fill="#FF4848"/>
<path id="Vector_4" d="M23.38 15.46C24.19 15.72 24.94 16.09 25.63 16.58C24.94 16.09 24.19 15.71 23.38 15.46Z" fill="#FF4848"/>
<path id="Vector_5" d="M20.62 15.03C21.04 15.03 21.45 15.07 21.86 15.12C21.45 15.06 21.03 15.03 20.61 15.03H11.34C10.92 15.03 10.5 15.07 10.08 15.12C10.5 15.06 10.92 15.03 11.34 15.03H20.61H20.62Z" fill="#FF4848"/>
<path id="Vector_6" d="M25.68 16.61V16.6H25.67L25.68 16.61Z" fill="black"/>
<path id="Vector_7" d="M25.65 16.62C25.65 16.62 25.67 16.62 25.67 16.61C25.67 16.61 25.66 16.62 25.65 16.63V16.62Z" fill="black"/>
<path id="Vector_8" d="M25.67 16.6C25.66 16.6 25.64 16.58 25.63 16.57C25.64 16.57 25.66 16.59 25.67 16.6Z" fill="black"/>
<path id="Vector_9" d="M23.23 15.41C23.28 15.43 23.33 15.44 23.39 15.46C23.34 15.44 23.29 15.43 23.23 15.41Z" fill="#FF4848"/>
<path id="Vector_10" d="M8.65002 15.44C8.65002 15.44 8.70002 15.42 8.73002 15.42C8.70002 15.42 8.68002 15.44 8.65002 15.44Z" fill="#FF4848"/>
<path id="Vector_11" d="M21.87 15.12C21.93 15.12 22 15.13 22.06 15.14C22 15.14 21.93 15.12 21.87 15.12Z" fill="#FF4848"/>
<path id="Vector_12" d="M9.94 15.14C9.94 15.14 10.04 15.13 10.09 15.12C10.04 15.12 9.99 15.13 9.94 15.14Z" fill="#FF4848"/>
<path id="Vector_13" d="M15.08 16.04V17.44V17.92V20.67L16.93 19.74V17.92V17.44V16.04H15.08Z" fill="#E8EAEA"/>
<path id="Vector_14" d="M25.63 16.58C24.94 16.09 24.19 15.72 23.38 15.46C23.33 15.44 23.28 15.43 23.22 15.41C22.84 15.3 22.45 15.21 22.05 15.15C21.99 15.15 21.92 15.13 21.86 15.13C21.45 15.07 21.04 15.04 20.62 15.04H11.35C10.93 15.04 10.5 15.08 10.09 15.13C10.04 15.13 9.98999 15.14 9.93999 15.15C9.52999 15.21 9.11999 15.31 8.71999 15.43C8.69999 15.43 8.66999 15.45 8.63999 15.45C7.79999 15.71 7.00999 16.1 6.29999 16.62C6.61999 16.83 6.95999 17.01 7.31999 17.17C7.99999 17.48 8.73999 17.69 9.50999 17.81C9.57999 17.82 9.64999 17.83 9.71999 17.84C10.09 17.89 10.46 17.92 10.84 17.92H15.05V16.04H16.9V17.92H21.12C21.12 17.92 21.14 17.92 21.15 17.92C21.51 17.92 21.87 17.89 22.22 17.84C22.3 17.83 22.39 17.82 22.47 17.81C22.82 17.75 23.17 17.68 23.51 17.58C23.54 17.58 23.57 17.56 23.61 17.55C23.94 17.45 24.26 17.33 24.57 17.19C24.61 17.17 24.65 17.16 24.69 17.14C25.02 16.99 25.33 16.81 25.63 16.62C25.63 16.62 25.64 16.61 25.65 16.6C25.64 16.6 25.62 16.58 25.61 16.57L25.63 16.58Z" fill="black"/>
<path id="Vector_15" d="M25.68 16.61C25.68 16.61 25.66 16.61 25.66 16.62C25.36 16.81 25.05 16.99 24.72 17.14C24.68 17.16 24.64 17.17 24.6 17.19C24.29 17.33 23.97 17.45 23.64 17.55C23.61 17.55 23.58 17.57 23.54 17.58C23.2 17.68 22.86 17.75 22.5 17.81C22.42 17.82 22.33 17.83 22.25 17.84C21.9 17.88 21.54 17.91 21.18 17.92C21.17 17.92 21.16 17.92 21.15 17.92H16.93V19.75L15.08 20.68V17.92H10.87C10.49 17.92 10.12 17.89 9.75003 17.84C9.68003 17.84 9.61003 17.82 9.54003 17.81C8.76003 17.69 8.03003 17.47 7.35003 17.17C6.99003 17.01 6.65003 16.82 6.33003 16.62C4.37003 18.06 3.03003 20.47 3.03003 23.9V26.99C3.03003 28.09 3.93003 28.99 5.03003 28.99H27.01C28.11 28.99 29.01 28.09 29.01 26.99V23.9C29.01 20.47 27.67 18.05 25.69 16.61H25.68Z" fill="#0168FF"/>
</g>
</g>
<defs>
<clipPath id="clip0_40003776_761">
<rect width="32" height="32" fill="white"/>
</clipPath>
</defs>
</svg>
