<svg width="24" height="25" viewBox="0 0 24 25" fill="currentColor" xmlns="http://www.w3.org/2000/svg">
<path d="M19.021 17.03H17.375V15.385C17.375 15.178 17.207 15.01 17 15.01C16.793 15.01 16.625 15.178 16.625 15.385V17.03H14.98C14.773 17.03 14.605 17.198 14.605 17.405C14.605 17.612 14.773 17.78 14.98 17.78H16.625V19.426C16.625 19.633 16.793 19.801 17 19.801C17.207 19.801 17.375 19.633 17.375 19.426V17.78H19.021C19.228 17.78 19.396 17.612 19.396 17.405C19.396 17.198 19.228 17.03 19.021 17.03Z" fill="currentColor"/>
<path d="M10.214 9.997C8.14699 9.997 6.46599 8.315 6.46599 6.248C6.46599 4.181 8.14699 2.5 10.214 2.5C12.281 2.5 13.963 4.181 13.963 6.248C13.963 8.315 12.281 9.997 10.214 9.997ZM10.214 3.5C8.69899 3.5 7.46599 4.733 7.46599 6.248C7.46599 7.763 8.69899 8.997 10.214 8.997C11.729 8.997 12.963 7.764 12.963 6.248C12.963 4.732 11.73 3.5 10.214 3.5Z" fill="currentColor"/>
<path d="M17 12.405C16.538 12.405 16.099 12.488 15.674 12.606C14.169 11.328 12.244 10.621 10.214 10.621C6.54699 10.621 3.29499 12.962 2.30499 16.315C2.12899 16.914 2.23599 17.518 2.60999 18.018C3.03599 18.588 3.74299 18.929 4.49999 18.929H12.263C12.912 20.938 14.778 22.405 17 22.405C19.757 22.405 22 20.162 22 17.405C22 14.648 19.757 12.405 17 12.405ZM4.49799 17.929C4.06099 17.929 3.64399 17.733 3.40899 17.419C3.28299 17.248 3.15399 16.968 3.26299 16.598C4.12799 13.667 6.98599 11.621 10.213 11.621C11.823 11.621 13.358 12.122 14.615 13.038C13.065 13.888 12 15.516 12 17.405C12 17.584 12.034 17.754 12.053 17.929H4.49799ZM17 21.405C14.794 21.405 13 19.611 13 17.405C13 15.199 14.794 13.405 17 13.405C19.206 13.405 21 15.199 21 17.405C21 19.611 19.206 21.405 17 21.405Z" fill="currentColor"/>
</svg>
