<svg width="24" height="24" viewBox="0 0 24 24" fill="currentColor" xmlns="http://www.w3.org/2000/svg">
<path d="M19 2H6.5C5.397 2 4.5 2.897 4.5 4V7.5H3.5C3.224 7.5 3 7.724 3 8C3 8.276 3.224 8.5 3.5 8.5H4.5V11.5H3.5C3.224 11.5 3 11.724 3 12C3 12.276 3.224 12.5 3.5 12.5H4.5V15.5H3.5C3.224 15.5 3 15.724 3 16C3 16.276 3.224 16.5 3.5 16.5H4.5V20C4.5 21.103 5.397 22 6.5 22H19C20.103 22 21 21.103 21 20V4C21 2.897 20.103 2 19 2ZM20 20C20 20.552 19.552 21 19 21H6.5C5.949 21 5.5 20.552 5.5 20V16.5H6.5C6.776 16.5 7 16.276 7 16C7 15.724 6.776 15.5 6.5 15.5H5.5V12.5H6.5C6.776 12.5 7 12.276 7 12C7 11.724 6.776 11.5 6.5 11.5H5.5V8.5H6.5C6.776 8.5 7 8.276 7 8C7 7.724 6.776 7.5 6.5 7.5H5.5V4C5.5 3.449 5.949 3 6.5 3H19C19.552 3 20 3.449 20 4V20Z" fill="currentColor"/>
<path d="M17 17.75H9.5C9.056 17.75 8.632 17.55 8.367 17.215C8.126 16.911 8.04 16.521 8.129 16.144C8.672 13.851 10.778 12.25 13.25 12.25C15.722 12.25 17.827 13.851 18.371 16.144C18.46 16.521 18.373 16.912 18.133 17.216C17.868 17.55 17.445 17.75 17 17.75ZM13.25 13.25C11.276 13.25 9.532 14.563 9.102 16.374C9.083 16.456 9.099 16.528 9.152 16.595C9.228 16.691 9.361 16.75 9.5 16.75H17C17.14 16.75 17.272 16.69 17.349 16.596C17.402 16.529 17.418 16.456 17.399 16.374C16.969 14.563 15.225 13.25 13.251 13.25H13.25Z" fill="currentColor"/>
<path d="M13.25 11.25C11.872 11.25 10.75 10.128 10.75 8.75C10.75 7.372 11.871 6.25 13.25 6.25C14.629 6.25 15.75 7.371 15.75 8.75C15.75 10.129 14.629 11.25 13.25 11.25ZM13.25 7.251C12.423 7.251 11.75 7.924 11.75 8.751C11.75 9.578 12.423 10.251 13.25 10.251C14.077 10.251 14.75 9.578 14.75 8.751C14.75 7.924 14.077 7.251 13.25 7.251Z" fill="currentColor"/>
</svg>
