<svg width="25" height="25" viewBox="0 0 25 25" fill="currentColor" xmlns="http://www.w3.org/2000/svg">
<path d="M17.3332 18.249C17.2202 18.249 17.1052 18.211 17.0122 18.132C16.8002 17.954 16.7732 17.639 16.9502 17.428L20.8762 12.75H2.94824C2.67224 12.75 2.44824 12.526 2.44824 12.25C2.44824 11.974 2.67224 11.75 2.94824 11.75H20.8752L16.9492 7.07102C16.7712 6.86002 16.7992 6.54402 17.0112 6.36702C17.2222 6.18802 17.5372 6.21602 17.7152 6.42902L22.3252 11.923C22.3542 11.957 22.3792 11.995 22.3982 12.034C22.4082 12.054 22.4162 12.075 22.4222 12.096C22.4222 12.096 22.4222 12.097 22.4222 12.098C22.4272 12.115 22.4322 12.133 22.4362 12.151V12.153V12.155C22.4422 12.187 22.4452 12.22 22.4452 12.253C22.4452 12.282 22.4422 12.311 22.4372 12.339C22.4322 12.366 22.4252 12.391 22.4172 12.415V12.417C22.4122 12.433 22.4052 12.448 22.3982 12.464C22.3782 12.504 22.3542 12.542 22.3242 12.577L17.7142 18.07C17.6152 18.188 17.4742 18.249 17.3312 18.249H17.3332Z" fill="currentColor"/>
</svg>
