<svg width="25" height="25" viewBox="0 0 25 25" fill="currentColor" xmlns="http://www.w3.org/2000/svg">
<path d="M7.55978 18.249C7.41678 18.249 7.27478 18.188 7.17678 18.07L2.56678 12.577C2.53678 12.542 2.51178 12.505 2.49278 12.465C2.48478 12.447 2.47678 12.429 2.47078 12.41C2.47078 12.41 2.47078 12.41 2.47078 12.409C2.46478 12.389 2.45978 12.37 2.45578 12.351V12.349C2.45578 12.349 2.45578 12.349 2.45578 12.347C2.44978 12.315 2.44678 12.282 2.44678 12.249C2.44678 12.218 2.44978 12.187 2.45578 12.156V12.153V12.151C2.45878 12.133 2.46378 12.115 2.46978 12.098V12.097C2.47578 12.076 2.48378 12.057 2.49278 12.037C2.51178 11.996 2.53678 11.958 2.56778 11.923L7.17778 6.43003C7.35578 6.21803 7.66978 6.19103 7.88178 6.36803C8.09278 6.54503 8.12078 6.86103 7.94378 7.07203L4.01778 11.751H21.9448C22.2208 11.751 22.4448 11.975 22.4448 12.251C22.4448 12.527 22.2208 12.751 21.9448 12.751H4.01678L7.94278 17.429C8.12078 17.64 8.09278 17.955 7.88078 18.133C7.78678 18.212 7.67278 18.249 7.55978 18.249Z" fill="currentColor"/>
</svg>
