<svg width="25" height="24" viewBox="0 0 25 24" fill="currentColor" xmlns="http://www.w3.org/2000/svg">
<path d="M21.573 2.43949C21.29 2.15649 20.913 2.00049 20.512 2.00049H3.51196C3.11196 2.00049 2.73496 2.15649 2.45096 2.43949C2.16696 2.72249 2.01196 3.09949 2.01196 3.50049V20.5005C2.01196 20.9005 2.16796 21.2775 2.45096 21.5615C2.73396 21.8455 3.11096 22.0005 3.51196 22.0005H20.512C20.912 22.0005 21.289 21.8445 21.573 21.5615C21.857 21.2785 22.012 20.9015 22.012 20.5005V3.50049C22.012 3.10049 21.856 2.72349 21.573 2.43949ZM21.012 20.5005C21.012 20.6345 20.96 20.7595 20.866 20.8545C20.772 20.9495 20.646 21.0005 20.512 21.0005H3.51196C3.38096 21.0005 3.25196 20.9465 3.15796 20.8545C3.06396 20.7595 3.01196 20.6345 3.01196 20.5005V3.50049C3.01196 3.36949 3.06496 3.24049 3.15796 3.14649C3.25096 3.05249 3.37996 3.00049 3.51196 3.00049H20.512C20.646 3.00049 20.771 3.05249 20.866 3.14649C20.959 3.23949 21.012 3.36849 21.012 3.50049V20.5005Z" fill="currentColor"/>
<path d="M18.366 14.1465C18.171 13.9515 17.854 13.9515 17.659 14.1465L16.013 15.7925L14.367 14.1465C14.172 13.9515 13.855 13.9515 13.66 14.1465C13.465 14.3415 13.465 14.6585 13.66 14.8535L15.306 16.4995L13.66 18.1455C13.465 18.3405 13.465 18.6575 13.66 18.8525C13.855 19.0475 14.172 19.0475 14.367 18.8525L16.013 17.2065L17.659 18.8525C17.757 18.9505 17.885 18.9985 18.013 18.9985C18.141 18.9985 18.269 18.9495 18.367 18.8525C18.562 18.6575 18.562 18.3405 18.367 18.1455L16.721 16.4995L18.367 14.8535C18.562 14.6585 18.561 14.3415 18.366 14.1465Z" fill="currentColor"/>
<path d="M10.012 17.5005H6.01196C5.73596 17.5005 5.51196 17.7245 5.51196 18.0005C5.51196 18.2765 5.73596 18.5005 6.01196 18.5005H10.012C10.288 18.5005 10.512 18.2765 10.512 18.0005C10.512 17.7245 10.288 17.5005 10.012 17.5005Z" fill="currentColor"/>
<path d="M10.012 14.5005H6.01196C5.73596 14.5005 5.51196 14.7245 5.51196 15.0005C5.51196 15.2765 5.73596 15.5005 6.01196 15.5005H10.012C10.288 15.5005 10.512 15.2765 10.512 15.0005C10.512 14.7245 10.288 14.5005 10.012 14.5005Z" fill="currentColor"/>
<path d="M18.012 7.00049H14.012C13.736 7.00049 13.512 7.22449 13.512 7.50049C13.512 7.77649 13.736 8.00049 14.012 8.00049H18.012C18.288 8.00049 18.512 7.77649 18.512 7.50049C18.512 7.22449 18.288 7.00049 18.012 7.00049Z" fill="currentColor"/>
<path d="M10.012 7.00049H8.51196V5.50049C8.51196 5.22449 8.28796 5.00049 8.01196 5.00049C7.73596 5.00049 7.51196 5.22449 7.51196 5.50049V7.00049H6.01196C5.73596 7.00049 5.51196 7.22449 5.51196 7.50049C5.51196 7.77649 5.73596 8.00049 6.01196 8.00049H7.51196V9.50049C7.51196 9.77649 7.73596 10.0005 8.01196 10.0005C8.28796 10.0005 8.51196 9.77649 8.51196 9.50049V8.00049H10.012C10.288 8.00049 10.512 7.77649 10.512 7.50049C10.512 7.22449 10.288 7.00049 10.012 7.00049Z" fill="currentColor"/>
</svg>
