<svg width="25" height="25" viewBox="0 0 25 25" fill="currentColor" xmlns="http://www.w3.org/2000/svg">
<path d="M21.9543 21.48H2.95435C2.67835 21.48 2.45435 21.256 2.45435 20.98C2.45435 20.704 2.67835 20.48 2.95435 20.48H21.9543C22.2303 20.48 22.4543 20.704 22.4543 20.98C22.4543 21.256 22.2303 21.48 21.9543 21.48Z" fill="currentColor"/>
<path d="M8.45435 15.504C6.22735 15.504 4.41635 13.692 4.41635 11.466C4.41635 11.169 4.65735 10.928 4.95435 10.928C5.25135 10.928 5.49235 11.169 5.49235 11.466C5.49235 13.099 6.82135 14.427 8.45435 14.427C8.75135 14.427 8.99235 14.668 8.99235 14.965C8.99235 15.262 8.75135 15.503 8.45435 15.503V15.504Z" fill="currentColor"/>
<path d="M8.45435 17.48C5.14535 17.48 2.45435 14.789 2.45435 11.48C2.45435 11.204 2.67835 10.98 2.95435 10.98C3.23035 10.98 3.45435 11.204 3.45435 11.48C3.45435 14.237 5.69735 16.48 8.45435 16.48C8.73035 16.48 8.95435 16.704 8.95435 16.98C8.95435 17.256 8.73035 17.48 8.45435 17.48Z" fill="currentColor"/>
<path d="M21.5313 7.82403L16.9913 4.01503C16.3323 3.46303 15.4133 3.36303 14.6533 3.75703L11.8523 5.20803L11.7233 5.09903C10.9293 4.43403 9.74235 4.53703 9.07635 5.33003L6.12235 8.85003C5.76735 9.27403 5.82335 9.90803 6.24635 10.263L6.72935 10.668C6.50235 11.012 6.42135 11.423 6.50035 11.835C6.57535 12.232 6.78935 12.595 7.10235 12.858C7.19435 12.935 7.29735 13.005 7.41035 13.067C8.05435 13.415 8.83035 13.326 9.33335 12.853L14.1583 16.901C13.9323 17.244 13.8503 17.654 13.9293 18.068C14.0053 18.465 14.2193 18.829 14.5323 19.09C14.6253 19.169 14.7253 19.237 14.8403 19.3C15.4823 19.648 16.2603 19.557 16.7643 19.086L17.2453 19.49C17.4283 19.643 17.6523 19.724 17.8883 19.724C17.9173 19.724 17.9483 19.724 17.9783 19.72C18.2453 19.697 18.4873 19.571 18.6583 19.366L21.6123 15.846C21.9343 15.461 22.0883 14.974 22.0443 14.474C22.0023 13.99 21.7793 13.549 21.4163 13.23L21.2513 13.089L22.1933 10.08C22.4493 9.26003 22.1903 8.37303 21.5333 7.82203L21.5313 7.82403ZM15.9693 18.421C15.7823 18.533 15.5373 18.532 15.3183 18.413C15.1063 18.299 14.9623 18.104 14.9213 17.88C14.9003 17.773 14.9103 17.668 14.9513 17.567L15.9693 18.421ZM8.54035 12.188C8.35335 12.299 8.10935 12.299 7.88935 12.18C7.67735 12.062 7.53235 11.868 7.49035 11.647C7.47035 11.54 7.48035 11.434 7.52235 11.333L8.54035 12.188ZM16.3433 4.78803L20.8823 8.59703C21.2273 8.88703 21.3633 9.35103 21.2293 9.78103L20.4133 12.39L12.6893 5.90903L15.1173 4.65203C15.5183 4.44403 16.0003 4.49903 16.3443 4.78803H16.3433ZM10.5173 5.66803C10.7213 5.66803 10.9163 5.73903 11.0743 5.87103L20.7303 13.973C20.9083 14.122 21.0163 14.332 21.0373 14.565C21.0583 14.796 20.9863 15.022 20.8383 15.2L17.8883 18.717L6.89435 9.49803L9.84835 5.97803C9.99735 5.80003 10.2073 5.69103 10.4393 5.67103C10.4653 5.66903 10.4913 5.66803 10.5173 5.66803Z" fill="currentColor"/>
<path d="M17.7873 16.609C17.8343 16.609 17.8813 16.607 17.9293 16.603C18.3523 16.566 18.7363 16.367 19.0093 16.041C19.5713 15.368 19.4833 14.363 18.8123 13.801C18.1423 13.236 17.1353 13.324 16.5733 13.996C16.0093 14.668 16.0963 15.674 16.7683 16.236C17.0563 16.478 17.4143 16.608 17.7883 16.608L17.7873 16.609ZM17.2103 15.07C17.1963 14.915 17.2443 14.764 17.3443 14.645C17.4593 14.508 17.6243 14.438 17.7903 14.438C17.9233 14.438 18.0563 14.482 18.1643 14.573C18.4093 14.78 18.4413 15.148 18.2363 15.393C18.1353 15.512 17.9953 15.585 17.8393 15.599C17.6843 15.609 17.5343 15.564 17.4163 15.464C17.2973 15.365 17.2243 15.225 17.2103 15.069V15.07Z" fill="currentColor"/>
<path d="M9.33835 10.004C9.63535 10.254 9.99835 10.375 10.3593 10.375C10.8133 10.375 11.2643 10.182 11.5783 9.80803C12.1413 9.13603 12.0543 8.13103 11.3823 7.56703C10.7103 7.00403 9.70635 7.09203 9.14235 7.76303C8.57935 8.43503 8.66635 9.44003 9.33735 10.003L9.33835 10.004ZM9.91535 8.41203C10.0153 8.29303 10.1553 8.22003 10.3103 8.20603C10.3283 8.20503 10.3453 8.20403 10.3633 8.20403C10.4993 8.20403 10.6303 8.25103 10.7353 8.34003C10.9813 8.54603 11.0133 8.91403 10.8073 9.16003C10.7073 9.27903 10.5673 9.35203 10.4123 9.36503C10.2593 9.38303 10.1063 9.33103 9.98835 9.23203C9.74235 9.02603 9.71035 8.65803 9.91735 8.41303L9.91535 8.41203Z" fill="currentColor"/>
</svg>
