<svg width="25" height="25" viewBox="0 0 25 25" fill="currentColor" xmlns="http://www.w3.org/2000/svg">
<path d="M6.45532 15.749H12.4553C12.7313 15.749 12.9553 15.525 12.9553 15.249C12.9553 14.973 12.7313 14.749 12.4553 14.749H6.45532C6.17932 14.749 5.95532 14.973 5.95532 15.249C5.95532 15.525 6.17932 15.749 6.45532 15.749Z" fill="currentColor"/>
<path d="M14.4553 15.749H18.4553C18.7313 15.749 18.9553 15.525 18.9553 15.249C18.9553 14.973 18.7313 14.749 18.4553 14.749H14.4553C14.1793 14.749 13.9553 14.973 13.9553 15.249C13.9553 15.525 14.1793 15.749 14.4553 15.749Z" fill="currentColor"/>
<path d="M19.9553 4.74902H4.95532C3.57732 4.74902 2.45532 5.87102 2.45532 7.24902V18.249C2.45532 19.628 3.57732 20.749 4.95532 20.749H19.9553C21.3343 20.749 22.4553 19.628 22.4553 18.249V7.24902C22.4553 5.87102 21.3343 4.74902 19.9553 4.74902ZM21.4553 18.249C21.4553 19.076 20.7823 19.749 19.9553 19.749H4.95532C4.12832 19.749 3.45532 19.076 3.45532 18.249V10.749H21.4553V18.249ZM3.45532 9.74902V7.24902C3.45532 6.42202 4.12832 5.74902 4.95532 5.74902H19.9553C20.7823 5.74902 21.4553 6.42202 21.4553 7.24902V9.74902H3.45532Z" fill="currentColor"/>
</svg>
