<svg width="24" height="24" viewBox="0 0 24 24" fill="currentColor" xmlns="http://www.w3.org/2000/svg">
<rect width="24" height="24" fill="currentColor"/>
<g id="Icons - SET 2 Trazados - definitivo">
<rect x="-400" y="-688" width="1144" height="907" rx="20" fill="currentColor"/>
<g id="table">
<g id="row-8">
<g id="eb-icon-chevron_left">
<path id="Vector" fill-rule="evenodd" clip-rule="evenodd" d="M9.76307 12.6902L15.3658 18.6665C15.5546 18.868 15.5444 19.1844 15.343 19.3733C15.1415 19.5621 14.8251 19.5519 14.6362 19.3505L9.03331 13.3739C8.68931 13.0065 8.50101 12.5148 8.50101 12.0085C8.50101 11.5022 8.6891 11.0107 9.0331 10.6433L14.6362 4.66649C14.8251 4.46509 15.1415 4.45489 15.343 4.64369C15.5444 4.83259 15.5546 5.14898 15.3658 5.35048L9.76307 11.3268C9.59857 11.5025 9.50101 11.7472 9.50101 12.0085C9.50101 12.2698 9.59857 12.5145 9.76307 12.6902Z" fill="currentColor"/>
</g>
</g>
</g>
</g>
</svg>
