<svg width="24" height="24" viewBox="0 0 24 24" fill="currentColor" xmlns="http://www.w3.org/2000/svg">
<rect width="24" height="24" fill="currentColor"/>
<g id="Icons - SET 2 Trazados - definitivo">
<rect x="-960" y="-540" width="1144" height="1538" rx="20" fill="currentColor"/>
<g id="table">
<g id="row-8">
<g id="eb-icon-close_small">
<path id="Vector" d="M6.23618 5.2121C5.95339 4.9293 5.49489 4.9293 5.2121 5.2121C4.9293 5.49489 4.9293 5.95339 5.2121 6.23618L10.9759 12L5.2121 17.7638C4.9293 18.0466 4.9293 18.5051 5.2121 18.7879C5.49489 19.0707 5.95339 19.0707 6.23618 18.7879L12 13.0241L17.7638 18.7879C18.0466 19.0707 18.5051 19.0707 18.7879 18.7879C19.0707 18.5051 19.0707 18.0466 18.7879 17.7638L13.0241 12L18.7879 6.23618C19.0707 5.95339 19.0707 5.49489 18.7879 5.2121C18.5051 4.9293 18.0466 4.9293 17.7638 5.2121L12 10.9759L6.23618 5.2121Z" fill="currentColor"/>
</g>
</g>
</g>
</g>
</svg>
