<svg width="24" height="24" viewBox="0 0 24 24" fill="currentColor" xmlns="http://www.w3.org/2000/svg">
<path d="M21.9591 9.04201C21.9681 8.97001 21.9951 8.90301 21.9981 8.83101C22.0191 8.33101 21.8941 7.82901 21.6451 7.41401L18.9911 3.04801C18.8121 2.74201 18.5691 2.48501 18.2891 2.30401C17.9981 2.11701 17.6671 2.01201 17.3331 2.00201C17.3281 2.00201 17.3221 2.00201 17.3171 2.00201H6.66808C6.33408 2.01301 6.00308 2.11701 5.71208 2.30401C5.43208 2.48501 5.18908 2.74201 5.01508 3.04001L2.35208 7.41801C2.10708 7.83001 1.98208 8.33201 2.00208 8.83101C2.02208 9.33201 2.18608 9.82001 2.46608 10.207L10.4271 21.102C10.6051 21.376 10.8401 21.602 11.1071 21.757C11.3821 21.916 11.6911 22.001 12.0011 22.001C12.3111 22.001 12.6201 21.916 12.8951 21.757C13.1621 21.602 13.3971 21.376 13.5591 21.124L21.5381 10.204C21.7351 9.93001 21.8501 9.59801 21.9211 9.25401C21.9471 9.19301 21.9621 9.12601 21.9621 9.05601C21.9621 9.05101 21.9591 9.04701 21.9591 9.04301V9.04201ZM17.7481 3.14501C17.8971 3.24001 18.0281 3.38101 18.1321 3.55901L20.7891 7.93001C20.8981 8.11301 20.9521 8.33101 20.9751 8.55501H17.4411L13.8701 3.00001H17.3081C17.4581 3.00601 17.6111 3.05601 17.7471 3.14401L17.7481 3.14501ZM12.0021 20.15L7.61608 9.55501H16.4181L12.0021 20.15ZM12.6821 3.00001L16.2521 8.55501H7.78608L11.3711 3.00001H12.6811H12.6821ZM5.87408 3.55101C5.97408 3.38101 6.10508 3.24001 6.25308 3.14501C6.39408 3.05401 6.54508 3.00601 6.68408 3.00101H10.1811L6.59508 8.55601H3.02408C3.04808 8.33201 3.10108 8.11401 3.20908 7.93301L5.87408 3.55101ZM3.27508 9.61901C3.26108 9.60001 3.25608 9.57501 3.24308 9.55601H6.53408L10.8551 19.995L3.27508 9.61901ZM13.1561 19.982L17.5011 9.55501H20.7581C20.7461 9.57401 20.7401 9.59801 20.7271 9.61701L13.1551 19.982H13.1561Z" fill="currentColor"/>
</svg>
