<svg width="24" height="24" viewBox="0 0 24 24" fill="currentColor" xmlns="http://www.w3.org/2000/svg">
<path d="M21.797 19.463C21.167 16.288 19.089 13.57 16.238 12.192C15.302 11.739 14.409 12.439 13.623 13.058C13.065 13.497 12.489 13.952 12.001 13.952C11.513 13.952 10.937 13.498 10.379 13.058C9.594 12.437 8.702 11.735 7.764 12.192C4.913 13.57 2.835 16.289 2.205 19.463C2.081 20.085 2.236 20.698 2.64 21.191C3.081 21.728 3.777 22.048 4.501 22.048H19.501C20.226 22.048 20.921 21.728 21.361 21.191C21.765 20.699 21.92 20.086 21.797 19.463ZM15.631 16.364C15.807 16.364 15.983 16.43 16.116 16.564C16.245 16.693 16.316 16.865 16.316 17.048C16.316 17.231 16.245 17.403 16.116 17.532C15.848 17.8 15.413 17.8 15.145 17.532C15.015 17.403 14.944 17.23 14.944 17.048C14.944 16.866 15.015 16.693 15.146 16.564C15.279 16.43 15.455 16.364 15.63 16.364H15.631ZM20.589 20.556C20.336 20.865 19.929 21.048 19.501 21.048H4.502C4.074 21.048 3.667 20.864 3.414 20.556C3.265 20.374 3.104 20.072 3.186 19.659C3.754 16.801 5.616 14.356 8.171 13.109L8.109 14.754C7.772 14.83 7.464 15.01 7.233 15.275L6.876 15.682C6.423 16.2 6.173 16.864 6.173 17.552V17.841C6.173 18.227 6.486 18.539 6.871 18.539H7.317C7.524 18.539 7.692 18.371 7.692 18.164C7.692 17.957 7.524 17.789 7.317 17.789H6.923V17.551C6.923 17.045 7.107 16.556 7.44 16.175L7.796 15.768C7.966 15.573 8.212 15.462 8.471 15.462C8.73 15.462 8.975 15.574 9.146 15.768L9.503 16.175C9.836 16.556 10.02 17.045 10.02 17.551V17.789H9.626C9.419 17.789 9.251 17.957 9.251 18.164C9.251 18.371 9.419 18.539 9.626 18.539H10.072C10.458 18.539 10.77 18.226 10.77 17.841V17.552C10.77 16.864 10.52 16.2 10.067 15.682L9.71 15.275C9.484 15.017 9.185 14.842 8.858 14.763L8.915 13.24C9.157 13.381 9.433 13.588 9.76 13.845C10.419 14.365 11.166 14.953 12.001 14.953C12.836 14.953 13.583 14.364 14.242 13.845C14.648 13.525 14.977 13.285 15.256 13.157V15.688C15.023 15.751 14.799 15.852 14.616 16.035C14.345 16.306 14.194 16.667 14.194 17.051C14.194 17.435 14.344 17.795 14.615 18.067C14.895 18.346 15.262 18.486 15.631 18.486C16 18.486 16.366 18.346 16.647 18.067C16.918 17.796 17.067 17.435 17.067 17.051C17.067 16.667 16.918 16.307 16.647 16.035C16.464 15.853 16.24 15.752 16.007 15.689V13.209C18.469 14.481 20.264 16.871 20.818 19.662C20.9 20.075 20.74 20.378 20.59 20.559L20.589 20.556Z" fill="currentColor"/>
<path d="M12.049 11.048C14.556 11.048 16.596 9.008 16.596 6.501C16.596 3.994 14.556 1.953 12.049 1.953C9.542 1.953 7.502 3.993 7.502 6.501C7.502 9.009 9.542 11.048 12.049 11.048ZM12.049 2.953C14.005 2.953 15.596 4.545 15.596 6.501C15.596 8.457 14.004 10.048 12.049 10.048C10.094 10.048 8.502 8.457 8.502 6.501C8.502 4.545 10.093 2.953 12.049 2.953Z" fill="currentColor"/>
</svg>
