<svg width="24" height="24" viewBox="0 0 24 24" fill="currentColor" xmlns="http://www.w3.org/2000/svg">
<rect width="24" height="24" fill="currentColor"/>
<g id="Icons - SET 2 Trazados - definitivo">
<rect x="-528" y="-688" width="1144" height="907" rx="20" fill="currentColor"/>
<g id="table">
<g id="row-8">
<g id="eb-icon-download">
<g id="Vector">
<path fill-rule="evenodd" clip-rule="evenodd" d="M12.001 18.5084C12.1364 18.5084 12.2659 18.4535 12.3601 18.3563L16.3601 14.2274C16.5523 14.0291 16.5472 13.7125 16.3489 13.5204C16.1506 13.3283 15.834 13.3333 15.6419 13.5316L12.501 16.7737V2.50922C12.501 2.23308 12.2771 2.00922 12.001 2.00922C11.7249 2.00922 11.501 2.23308 11.501 2.50922V16.7737L8.36012 13.5316C8.16798 13.3333 7.85144 13.3283 7.65311 13.5204C7.45477 13.7125 7.44975 14.0291 7.6419 14.2274L11.6419 18.3563C11.7361 18.4535 11.8656 18.5084 12.001 18.5084Z" fill="currentColor"/>
<path fill-rule="evenodd" clip-rule="evenodd" d="M2.50101 15.0084C2.77715 15.0084 3.00101 15.2323 3.00101 15.5084V19.5084C3.00101 20.3368 3.67258 21.0084 4.50101 21.0084H19.501C20.3294 21.0084 21.001 20.3368 21.001 19.5084V15.5084C21.001 15.2323 21.2249 15.0084 21.501 15.0084C21.7771 15.0084 22.001 15.2323 22.001 15.5084V19.5084C22.001 20.8891 20.8817 22.0084 19.501 22.0084H4.50101C3.1203 22.0084 2.00101 20.8891 2.00101 19.5084V15.5084C2.00101 15.2323 2.22487 15.0084 2.50101 15.0084Z" fill="currentColor"/>
</g>
</g>
</g>
</g>
</g>
</svg>
