<svg width="24" height="24" viewBox="0 0 24 24" fill="currentColor" xmlns="http://www.w3.org/2000/svg">
<path d="M19.5029 22H4.50293C3.12493 22 2.00293 20.879 2.00293 19.5V4.5C2.00293 3.122 3.12493 2 4.50293 2H12.0029C12.2789 2 12.5029 2.224 12.5029 2.5C12.5029 2.776 12.2789 3 12.0029 3H4.50293C3.67593 3 3.00293 3.673 3.00293 4.5V19.5C3.00293 20.327 3.67593 21 4.50293 21H19.5029C20.3299 21 21.0029 20.327 21.0029 19.5V12C21.0029 11.724 21.2269 11.5 21.5029 11.5C21.7789 11.5 22.0029 11.724 22.0029 12V19.5C22.0029 20.879 20.8819 22 19.5029 22Z" fill="currentColor"/>
<path d="M21.1939 2.81C20.1239 1.74 18.3889 1.732 17.3289 2.793L8.08193 12.04C8.02193 12.098 7.97493 12.172 7.94993 12.258C7.94693 12.271 7.94293 12.283 7.94093 12.296L7.01693 16.391C6.97893 16.559 7.02993 16.734 7.15093 16.855C7.24593 16.95 7.37293 17.001 7.50493 17.001C7.54193 17.001 7.57893 16.997 7.61493 16.988L11.7129 16.063C11.7229 16.061 11.7329 16.059 11.7419 16.056C11.8309 16.031 11.9069 15.984 11.9669 15.922L20.4579 7.431C20.4579 7.431 20.4679 7.421 20.4729 7.416L21.2139 6.675C22.2749 5.614 22.2669 3.88 21.1959 2.809L21.1939 2.81ZM8.16593 15.838L8.78193 13.106C9.46593 13.494 10.4519 14.289 10.9269 15.215L8.16593 15.838ZM11.7809 14.691C11.1879 13.579 10.0929 12.71 9.28593 12.249L17.0049 4.53C17.6959 4.854 19.0569 5.777 19.5349 6.937L11.7809 14.691ZM20.5039 5.968L20.2839 6.188C19.6859 5.089 18.5749 4.238 17.7479 3.786L18.0349 3.499C18.7059 2.828 19.8059 2.837 20.4859 3.516C21.1669 4.197 21.1739 5.296 20.5039 5.968Z" fill="currentColor"/>
</svg>
