<svg width="24" height="24" viewBox="0 0 24 24" fill="currentColor" xmlns="http://www.w3.org/2000/svg">
<path d="M21.7688 12.362C21.5138 11.841 21.0678 11.533 20.3268 11.025C19.6778 10.58 19.1988 10.074 18.7228 9.32798C17.9778 8.15998 17.6038 7.57398 16.9688 7.21498C16.3258 6.85098 15.6158 6.85098 14.3258 6.85098H13.9298C13.9218 5.72698 13.8618 5.05898 13.3668 4.56598C12.8038 4.00098 12.0138 4.00098 10.5818 4.00098H5.35684C3.92284 4.00098 3.13284 4.00098 2.57184 4.56498C2.00684 5.12798 2.00684 5.91798 2.00684 7.35098V14.001C2.00684 15.435 2.00684 16.225 2.57084 16.786C3.05184 17.268 3.70184 17.338 4.77184 17.348C4.76884 17.4 4.75684 17.448 4.75684 17.501C4.75684 18.88 5.87884 20.001 7.25684 20.001C8.63484 20.001 9.75684 18.88 9.75684 17.501C9.75684 17.449 9.74484 17.401 9.74184 17.351H14.2718C14.2688 17.402 14.2568 17.45 14.2568 17.501C14.2568 18.88 15.3778 20.001 16.7568 20.001C18.1358 20.001 19.2568 18.88 19.2568 17.501C19.2568 17.449 19.2448 17.401 19.2418 17.349C20.3658 17.349 21.0118 17.331 21.5488 16.779C22.0068 16.262 22.0068 15.566 22.0068 14.301V13.98C22.0038 13.238 21.9788 12.786 21.7708 12.362H21.7688ZM7.25484 19C6.42784 19 5.75484 18.327 5.75484 17.5C5.75484 16.673 6.42784 16 7.25484 16C8.08184 16 8.75484 16.673 8.75484 17.5C8.75484 18.327 8.08184 19 7.25484 19ZM12.9298 16.35H9.46184C9.04384 15.552 8.21684 15 7.25584 15C6.29484 15 5.46784 15.551 5.04984 16.349C4.01284 16.346 3.51484 16.316 3.27684 16.077C3.01684 15.818 3.00584 15.254 3.00584 14V7.34998C3.00584 6.09698 3.01684 5.53098 3.27784 5.26998C3.53584 5.00998 4.10184 4.99898 5.35584 4.99898H10.5808C11.8338 4.99898 12.3988 5.00998 12.6598 5.27098C12.9198 5.52998 12.9308 6.09598 12.9308 7.34898V16.349L12.9298 16.35ZM16.7548 19C15.9278 19 15.2548 18.327 15.2548 17.5C15.2548 16.673 15.9278 16 16.7548 16C17.5818 16 18.2548 16.673 18.2548 17.5C18.2548 18.327 17.5818 19 16.7548 19ZM20.7728 16.144C20.5798 16.341 20.1298 16.35 19.1328 16.35H18.9618C18.5438 15.552 17.7168 15 16.7548 15C15.7928 15 14.9658 15.552 14.5478 16.35H13.9288V7.85098H14.3248C15.4808 7.85098 16.0608 7.85098 16.4738 8.08598C16.8928 8.32198 17.2218 8.83798 17.8818 9.87298C18.4308 10.733 18.9918 11.325 19.7598 11.851C20.4498 12.325 20.7358 12.528 20.8688 12.803C20.9498 12.968 20.9818 13.181 20.9948 13.502H20.5538C20.2778 13.502 20.0538 13.726 20.0538 14.002C20.0538 14.278 20.2778 14.502 20.5538 14.502H21.0038C21.0038 15.397 20.9878 15.902 20.7718 16.146L20.7728 16.144Z" fill="currentColor"/>
<path d="M10.1568 9.64598H8.51084V7.99998C8.51084 7.79298 8.34284 7.62498 8.13584 7.62498C7.92884 7.62498 7.76084 7.79298 7.76084 7.99998V9.64598H6.11584C5.90884 9.64598 5.74084 9.81398 5.74084 10.021C5.74084 10.228 5.90884 10.396 6.11584 10.396H7.76084V12.041C7.76084 12.248 7.92884 12.416 8.13584 12.416C8.34284 12.416 8.51084 12.248 8.51084 12.041V10.396H10.1568C10.3638 10.396 10.5318 10.228 10.5318 10.021C10.5318 9.81398 10.3638 9.64598 10.1568 9.64598Z" fill="currentColor"/>
</svg>
