<svg width="24" height="25" viewBox="0 0 24 25" fill="currentColor" xmlns="http://www.w3.org/2000/svg">
<path d="M12 22.5045C11.854 22.5045 11.715 22.4415 11.62 22.3295L5.526 15.2045C4.424 13.8125 4 12.5275 4 10.6045C4 8.44149 4.832 6.40849 6.341 4.87949C7.852 3.34749 9.862 2.50449 12 2.50449C14.138 2.50449 16.147 3.34749 17.659 4.87949C19.169 6.40949 20 8.44249 20 10.6045C20 12.5265 19.575 13.8125 18.486 15.1895L12.38 22.3295C12.285 22.4405 12.146 22.5045 12 22.5045ZM12 3.50449C10.131 3.50449 8.375 4.24249 7.053 5.58149C5.729 6.92249 5 8.70649 5 10.6045C5 12.2985 5.352 13.3725 6.298 14.5685L12 21.2345L17.714 14.5535C18.649 13.3725 19 12.2985 19 10.6045C19 8.70649 18.271 6.92249 16.948 5.58149C15.625 4.24249 13.868 3.50449 12 3.50449Z" fill="currentColor"/>
<path d="M13 14.3795H11C10.793 14.3795 10.625 14.2115 10.625 14.0045V12.3795H9C8.793 12.3795 8.625 12.2115 8.625 12.0045V10.0045C8.625 9.79749 8.793 9.62949 9 9.62949H10.625V8.00449C10.625 7.79749 10.793 7.62949 11 7.62949H13C13.207 7.62949 13.375 7.79749 13.375 8.00449V9.62949H15C15.207 9.62949 15.375 9.79749 15.375 10.0045V12.0045C15.375 12.2115 15.207 12.3795 15 12.3795H13.375V14.0045C13.375 14.2115 13.207 14.3795 13 14.3795ZM11.375 13.6295H12.625V12.0045C12.625 11.7975 12.793 11.6295 13 11.6295H14.625V10.3795H13C12.793 10.3795 12.625 10.2115 12.625 10.0045V8.37949H11.375V10.0045C11.375 10.2115 11.207 10.3795 11 10.3795H9.375V11.6295H11C11.207 11.6295 11.375 11.7975 11.375 12.0045V13.6295Z" fill="currentColor"/>
</svg>
