<svg width="24" height="24" viewBox="0 0 24 24" fill="currentColor" xmlns="http://www.w3.org/2000/svg">
<rect width="24" height="24" fill="currentColor"/>
<g id="Icons - SET 2 Trazados - definitivo">
<rect x="-720" y="-304" width="1144" height="907" rx="20" fill="currentColor"/>
<g id="table">
<g id="row-3">
<g id="eb-icon-error-solid">
<path id="Vector" fill-rule="evenodd" clip-rule="evenodd" d="M18.367 5.63854C14.8523 2.12382 9.1538 2.12382 5.63909 5.63854C2.12437 9.15325 2.12437 14.8518 5.63909 18.3664C9.1538 21.8812 14.8523 21.8812 18.367 18.3664C21.8817 14.8518 21.8817 9.15325 18.367 5.63854ZM14.3567 10.3561C14.5519 10.1608 14.5519 9.84421 14.3567 9.64896C14.1614 9.45368 13.8448 9.45368 13.6495 9.64896L12.0031 11.2953L10.3567 9.64896C10.1614 9.45368 9.84476 9.45368 9.6495 9.64896C9.45423 9.84421 9.45423 10.1608 9.6495 10.3561L11.2959 12.0025L9.6495 13.6489C9.45423 13.8442 9.45423 14.1608 9.6495 14.3561C9.84476 14.5513 10.1614 14.5513 10.3567 14.3561L12.0031 12.7097L13.6495 14.3561C13.8448 14.5513 14.1614 14.5513 14.3567 14.3561C14.5519 14.1608 14.5519 13.8442 14.3567 13.6489L12.7102 12.0025L14.3567 10.3561Z" fill="currentColor"/>
</g>
</g>
</g>
</g>
</svg>
