<svg width="24" height="24" viewBox="0 0 24 24" fill="currentColor" xmlns="http://www.w3.org/2000/svg">
<rect width="24" height="24" fill="currentColor"/>
<g id="Icons - SET 2 Trazados - definitivo">
<rect x="-848" y="-304" width="1144" height="907" rx="20" fill="currentColor"/>
<g id="table">
<g id="row-3">
<g id="eb-icon-exclamation-solid">
<path id="Vector" fill-rule="evenodd" clip-rule="evenodd" d="M3.00305 12.0025C3.00305 7.03194 7.03249 3.0025 12.0031 3.0025C16.9736 3.0025 21.0031 7.03194 21.0031 12.0025C21.0031 16.973 16.9736 21.0025 12.0031 21.0025C7.03249 21.0025 3.00305 16.973 3.00305 12.0025ZM12.0031 13.5025C12.2792 13.5025 12.5031 13.2786 12.5031 13.0025V8.0025C12.5031 7.7264 12.2792 7.5025 12.0031 7.5025C11.727 7.5025 11.5031 7.7264 11.5031 8.0025V13.0025C11.5031 13.2786 11.727 13.5025 12.0031 13.5025ZM12.0031 16.5025C12.2792 16.5025 12.5031 16.2786 12.5031 16.0025V15.9025C12.5031 15.6264 12.2792 15.4025 12.0031 15.4025C11.727 15.4025 11.5031 15.6264 11.5031 15.9025V16.0025C11.5031 16.2786 11.727 16.5025 12.0031 16.5025Z" fill="currentColor"/>
</g>
</g>
</g>
</g>
</svg>
