<svg width="24" height="24" viewBox="0 0 24 24" fill="currentColor" xmlns="http://www.w3.org/2000/svg">
<rect width="24" height="24" fill="currentColor"/>
<g id="Icons - SET 2 Trazados - definitivo">
<rect x="-688" y="-1021" width="1144" height="1538" rx="20" fill="currentColor"/>
<g id="eb-icon-exit">
<g id="Vector">
<path fill-rule="evenodd" clip-rule="evenodd" d="M14.6316 4.5C14.6316 3.67157 13.9247 3 13.0526 3H4.63158C3.75955 3 3.05263 3.67157 3.05263 4.5V19.5C3.05263 20.3284 3.75955 21 4.63158 21H13.0526C13.9247 21 14.6316 20.3284 14.6316 19.5V16.2222C14.6316 15.9461 14.8672 15.7222 15.1579 15.7222C15.4486 15.7222 15.6842 15.9461 15.6842 16.2222V19.5C15.6842 20.8807 14.506 22 13.0526 22H4.63158C3.1782 22 2 20.8807 2 19.5V4.5C2 3.11929 3.1782 2 4.63158 2H13.0526C14.506 2 15.6842 3.11929 15.6842 4.5V7.77778C15.6842 8.05392 15.4486 8.27778 15.1579 8.27778C14.8672 8.27778 14.6316 8.05392 14.6316 7.77778V4.5Z" fill="currentColor"/>
<path fill-rule="evenodd" clip-rule="evenodd" d="M21.8458 11.6464C22.0514 11.8417 22.0514 12.1583 21.8458 12.3536L19.7406 14.3536C19.535 14.5488 19.2018 14.5488 18.9963 14.3536C18.7907 14.1583 18.7907 13.8417 18.9963 13.6464L20.203 12.5H12C11.7093 12.5 11.4737 12.2761 11.4737 12C11.4737 11.7239 11.7093 11.5 12 11.5H20.203L18.9963 10.3536C18.7907 10.1583 18.7907 9.84171 18.9963 9.64645C19.2018 9.45118 19.535 9.45118 19.7406 9.64645L21.8458 11.6464Z" fill="currentColor"/>
</g>
</g>
</g>
</svg>
