<svg width="24" height="24" viewBox="0 0 24 24" fill="currentColor" xmlns="http://www.w3.org/2000/svg">
<path d="M21.503 11.5025C21.227 11.5025 21.003 11.7265 21.003 12.0025V19.5025C21.003 20.3295 20.33 21.0025 19.503 21.0025H4.50299C3.67599 21.0025 3.00299 20.3295 3.00299 19.5025V4.5025C3.00299 3.6755 3.67599 3.0025 4.50299 3.0025H12.003C12.279 3.0025 12.503 2.7785 12.503 2.5025C12.503 2.2265 12.279 2.0025 12.003 2.0025H4.50299C3.12499 2.0025 2.00299 3.1245 2.00299 4.5025V19.5025C2.00299 20.8815 3.12499 22.0025 4.50299 22.0025H19.503C20.882 22.0025 22.003 20.8815 22.003 19.5025V12.0025C22.003 11.7265 21.779 11.5025 21.503 11.5025Z" fill="currentColor"/>
<path d="M21.965 2.3115C21.914 2.1895 21.817 2.0915 21.694 2.0405C21.633 2.0155 21.568 2.0025 21.503 2.0025H17.503C17.227 2.0025 17.003 2.2265 17.003 2.5025C17.003 2.7785 17.227 3.0025 17.503 3.0025H20.296L14.15 9.1485C13.955 9.3435 13.955 9.6605 14.15 9.8555C14.248 9.9535 14.376 10.0015 14.504 10.0015C14.632 10.0015 14.76 9.9525 14.858 9.8555L21.004 3.7095V6.5025C21.004 6.7785 21.228 7.0025 21.504 7.0025C21.78 7.0025 22.004 6.7785 22.004 6.5025V2.5025C22.004 2.4375 21.99 2.3725 21.965 2.3115Z" fill="currentColor"/>
</svg>
