<svg width="24" height="24" viewBox="0 0 24 24" fill="currentColor" xmlns="http://www.w3.org/2000/svg">
<rect width="24" height="24" fill="currentColor"/>
<g id="Icons - SET 2 Trazados - definitivo">
<rect x="-600" y="-1154" width="1144" height="1538" rx="20" fill="currentColor"/>
<g id="eb-icon-external_link_comp">
<g id="Vector">
<path fill-rule="evenodd" clip-rule="evenodd" d="M3 5.82857C3 4.26639 4.26639 3 5.82857 3H12C12.426 3 12.7714 3.34538 12.7714 3.77143C12.7714 4.19748 12.426 4.54286 12 4.54286H5.82857C5.11849 4.54286 4.54286 5.11849 4.54286 5.82857V18.1714C4.54286 18.8815 5.11849 19.4571 5.82857 19.4571H18.1714C18.8815 19.4571 19.4571 18.8815 19.4571 18.1714V12C19.4571 11.574 19.8025 11.2286 20.2286 11.2286C20.6546 11.2286 21 11.574 21 12V18.1714C21 19.7336 19.7336 21 18.1714 21H5.82857C4.26639 21 3 19.7336 3 18.1714V5.82857Z" fill="currentColor"/>
<path fill-rule="evenodd" clip-rule="evenodd" d="M16.25 4.5C15.8358 4.5 15.5 4.16421 15.5 3.75C15.5 3.33579 15.8358 3 16.25 3H20.25C20.4563 3 20.6431 3.08329 20.7787 3.21808L20.7803 3.21967L20.7819 3.22126C20.853 3.2928 20.9068 3.37511 20.9431 3.46291C20.9798 3.55134 21 3.64831 21 3.75V7.75C21 8.16421 20.6642 8.5 20.25 8.5C19.8358 8.5 19.5 8.16421 19.5 7.75V5.56066L13.7803 11.2803C13.4874 11.5732 13.0126 11.5732 12.7197 11.2803C12.4268 10.9874 12.4268 10.5126 12.7197 10.2197L18.4393 4.5H16.25Z" fill="currentColor"/>
</g>
</g>
</g>
</svg>
