<svg width="24" height="24" viewBox="0 0 24 24" fill="currentColor" xmlns="http://www.w3.org/2000/svg">
<path d="M12.036 21C11.408 21 10.819 20.747 10.376 20.287L3.738 13.406C3.186 12.838 2.75401 12.173 2.45401 11.43C2.154 10.687 2.00101 9.90301 2.00001 9.09701C1.99901 8.29201 2.14801 7.50701 2.44401 6.76201C2.74101 6.01601 3.17 5.35001 3.718 4.78201C4.267 4.21201 4.91 3.76801 5.628 3.46101C6.341 3.15501 7.09501 3.00101 7.868 3.00101H7.88C8.656 3.00201 9.414 3.16101 10.13 3.47201C10.846 3.78201 11.486 4.22901 12.034 4.80201C13.146 3.67701 14.581 3.06501 16.167 3.07401C17.721 3.08401 19.182 3.71701 20.279 4.85601C21.378 5.99501 21.988 7.50901 21.998 9.11901C22.009 10.728 21.418 12.249 20.335 13.402L13.694 20.288C13.251 20.748 12.661 21.001 12.033 21.001L12.036 21ZM7.869 4.00001C7.232 4.00001 6.611 4.12801 6.022 4.38001C5.427 4.63401 4.89501 5.00301 4.43901 5.47601C3.98101 5.95101 3.62301 6.50801 3.37401 7.13201C3.12501 7.75701 2.999 8.41801 3.001 9.09501C3.003 9.77201 3.131 10.432 3.383 11.056C3.633 11.678 3.994 12.233 4.455 12.707L4.45801 12.709L11.097 19.592C11.602 20.115 12.472 20.115 12.975 19.592L19.613 12.71C20.515 11.75 21.009 10.475 21.001 9.12301C20.993 7.77001 20.482 6.50101 19.563 5.54801C18.654 4.60501 17.446 4.08001 16.165 4.07201C14.868 4.09901 13.67 4.57201 12.749 5.50301C12.561 5.69401 12.262 5.82501 12.03 5.80001C11.762 5.79801 11.501 5.68601 11.315 5.49201C10.86 5.01501 10.329 4.64401 9.736 4.38801C9.145 4.13101 8.52 4.00101 7.881 3.99901H7.871L7.869 4.00001Z" fill="currentColor"/>
</svg>
