<svg width="24" height="24" viewBox="0 0 24 24" fill="currentColor" xmlns="http://www.w3.org/2000/svg">
<path d="M17.5081 20C17.3821 20 17.2551 19.952 17.1581 19.857L10.6211 13.454C10.2311 13.071 10.0081 12.542 10.0081 12C10.0081 11.458 10.2321 10.928 10.6211 10.546L17.1581 4.142C17.3541 3.95 17.6711 3.954 17.8651 4.149C18.0581 4.346 18.0541 4.663 17.8571 4.857L11.3211 11.26C11.1191 11.458 11.0081 11.72 11.0081 11.999C11.0081 12.278 11.1191 12.541 11.3211 12.738L17.8571 19.141C18.0541 19.334 18.0581 19.651 17.8651 19.848C17.7661 19.949 17.6371 19.998 17.5081 19.998V20Z" fill="currentColor"/>
<path d="M6.50806 20C6.23206 20 6.00806 19.776 6.00806 19.5V4.5C6.00806 4.224 6.23206 4 6.50806 4C6.78406 4 7.00806 4.224 7.00806 4.5V19.5C7.00806 19.776 6.78406 20 6.50806 20Z" fill="currentColor"/>
</svg>
