<svg width="24" height="24" viewBox="0 0 24 24" fill="currentColor" xmlns="http://www.w3.org/2000/svg">
<path d="M21.371 18.2845L16.919 13.8325C17.47 13.7795 18.011 13.6295 18.506 13.3815L18.729 13.2695C19.906 12.6815 20.763 11.6125 21.083 10.3365L21.994 6.69252C22.044 6.49052 21.964 6.27752 21.793 6.15952C21.621 6.04152 21.395 6.04052 21.223 6.16052L17.503 8.75052L15.361 6.51452L17.853 2.77652C17.962 2.61152 17.965 2.39852 17.859 2.23152C17.754 2.06452 17.558 1.97452 17.364 2.00452L14.191 2.47552C12.66 2.70352 11.329 3.72752 10.718 5.14952L10.516 5.61652C10.274 6.18052 10.151 6.77852 10.151 7.39352V9.43552L5.15102 4.43552V3.03552C5.15102 2.82052 5.01302 2.62952 4.80902 2.56152L3.20202 2.02552C3.02302 1.96552 2.82402 2.01252 2.69002 2.14652L2.15402 2.68252C2.02002 2.81652 1.97302 3.01452 2.03302 3.19452L2.56902 4.80152C2.63702 5.00552 2.82802 5.14352 3.04302 5.14352H4.44302L9.65602 10.3565L2.73002 18.4355C2.22402 19.0285 2.25802 19.9225 2.80902 20.4725L3.53502 21.1985C3.82602 21.4885 4.21102 21.6365 4.59702 21.6365C4.94402 21.6365 5.29202 21.5175 5.57202 21.2785L12.375 15.4465L18.292 21.3635C18.703 21.7745 19.25 22.0015 19.831 22.0015C20.412 22.0015 20.96 21.7745 21.37 21.3635C21.781 20.9535 22.008 20.4065 22.008 19.8245C22.008 19.2425 21.781 18.6965 21.37 18.2855L21.371 18.2845ZM4.15302 4.14452H3.40602L3.08202 3.17152L3.18102 3.07252L4.15402 3.39652V4.14352L4.15302 4.14452ZM4.92302 20.5185C4.72602 20.6875 4.42702 20.6745 4.24402 20.4925L3.51802 19.7665C3.33402 19.5825 3.32302 19.2845 3.49202 19.0865L10.792 10.5705C11.025 10.2995 11.153 9.95252 11.153 9.59452V7.39452C11.153 6.91552 11.249 6.45152 11.437 6.01252L11.639 5.54552C12.114 4.43952 13.149 3.64252 14.34 3.46552L16.399 3.15952L14.309 6.29352C14.179 6.48852 14.202 6.74752 14.364 6.91652L17.079 9.75052C17.251 9.93052 17.524 9.95552 17.726 9.81452L20.703 7.74152L20.115 10.0925C19.867 11.0845 19.2 11.9165 18.284 12.3745L18.061 12.4865C17.578 12.7285 17.037 12.8565 16.496 12.8565H14.417C14.06 12.8565 13.714 12.9845 13.441 13.2165L4.92502 20.5165L4.92302 20.5185ZM20.664 20.6555C20.22 21.0995 19.445 21.1015 19 20.6555L13.138 14.7935L14.089 13.9785C14.18 13.9015 14.295 13.8585 14.414 13.8585H15.53L20.664 18.9925C20.887 19.2155 21.009 19.5115 21.009 19.8245C21.009 20.1375 20.887 20.4325 20.664 20.6555Z" fill="currentColor"/>
</svg>
