<svg width="24" height="24" viewBox="0 0 24 24" fill="currentColor" xmlns="http://www.w3.org/2000/svg">
<rect width="24" height="24" fill="currentColor"/>
<g id="Iconos no tokenizados">
<rect width="1884" height="2080" transform="translate(-85 -229)" fill="currentColor"/>
<g id="eb-icon-hide">
<g id="Vector">
<path fill-rule="evenodd" clip-rule="evenodd" d="M6.45962 7.43945C4.92691 8.83791 3.78353 10.5577 3.1451 11.8148C3.08536 11.9324 3.08536 12.0676 3.1451 12.1852C3.78353 13.4423 4.92691 15.1621 6.45962 16.5605C7.99339 17.96 9.87382 19 12 19C14.1262 19 16.0066 17.96 17.5404 16.5605C19.0731 15.1621 20.2165 13.4423 20.8549 12.1852C20.9146 12.0676 20.9146 11.9324 20.8549 11.8148C20.2165 10.5577 19.0731 8.83791 17.5404 7.43945C16.0066 6.04004 14.1262 5 12 5C9.87382 5 7.99339 6.04004 6.45962 7.43945ZM5.78561 6.70073C7.42456 5.20535 9.53488 4 12 4C14.4651 4 16.5754 5.20535 18.2144 6.70073C19.8544 8.19708 21.0657 10.0215 21.7465 11.362C21.9508 11.7642 21.9508 12.2358 21.7465 12.638C21.0657 13.9785 19.8544 15.8029 18.2144 17.2993C16.5754 18.7947 14.4651 20 12 20C9.53488 20 7.42456 18.7947 5.78561 17.2993C4.1456 15.8029 2.93428 13.9785 2.25349 12.638C2.04923 12.2358 2.04923 11.7642 2.25349 11.362C2.93428 10.0215 4.1456 8.19708 5.78561 6.70073Z" fill="currentColor"/>
<path fill-rule="evenodd" clip-rule="evenodd" d="M12 9C11.1622 9 10.4054 9.34277 9.86052 9.897L9.1474 9.19595C9.87251 8.45836 10.8832 8 12 8C14.2091 8 16 9.79086 16 12C16 13.1311 15.5298 14.1533 14.7756 14.8803L14.0816 14.1603C14.6484 13.614 15 12.8485 15 12C15 10.3431 13.6569 9 12 9Z" fill="currentColor"/>
<path fill-rule="evenodd" clip-rule="evenodd" d="M2.14645 2.14645C2.34171 1.95118 2.65829 1.95118 2.85355 2.14645L21.8536 21.1464C22.0488 21.3417 22.0488 21.6583 21.8536 21.8536C21.6583 22.0488 21.3417 22.0488 21.1464 21.8536L2.14645 2.85355C1.95118 2.65829 1.95118 2.34171 2.14645 2.14645Z" fill="currentColor"/>
</g>
</g>
</g>
</svg>
