<svg width="24" height="24" viewBox="0 0 24 24" fill="currentColor" xmlns="http://www.w3.org/2000/svg">
<rect width="24" height="24" fill="currentColor"/>
<g id="Icons - SET 2 Trazados - definitivo">
<rect x="-464" y="-688" width="1144" height="907" rx="20" fill="currentColor"/>
<g id="table">
<g id="row-8">
<g id="eb-icon-icon">
<g id="Vector">
<path d="M21.562 2.44748C21.279 2.16448 20.902 2.00848 20.501 2.00848H3.50101C3.10101 2.00848 2.72401 2.16448 2.44001 2.44748C2.15601 2.73048 2.00101 3.10748 2.00101 3.50848V20.5085C2.00101 20.9085 2.15701 21.2855 2.44001 21.5695C2.72301 21.8535 3.10001 22.0085 3.50101 22.0085H20.501C20.901 22.0085 21.278 21.8525 21.562 21.5695C21.846 21.2865 22.001 20.9095 22.001 20.5085V3.50848C22.001 3.10848 21.845 2.73148 21.562 2.44748ZM21.001 20.5085C21.001 20.6425 20.949 20.7675 20.855 20.8625C20.761 20.9575 20.635 21.0085 20.501 21.0085H3.50101C3.37001 21.0085 3.24101 20.9545 3.14701 20.8625C3.05301 20.7675 3.00101 20.6425 3.00101 20.5085V3.50848C3.00101 3.37748 3.05401 3.24848 3.14701 3.15448C3.24001 3.06048 3.36901 3.00848 3.50101 3.00848H20.501C20.635 3.00848 20.76 3.06048 20.855 3.15448C20.948 3.24748 21.001 3.37648 21.001 3.50848V20.5085Z" fill="currentColor"/>
<path d="M18.355 14.1545C18.16 13.9595 17.843 13.9595 17.648 14.1545L16.002 15.8005L14.356 14.1545C14.161 13.9595 13.844 13.9595 13.649 14.1545C13.454 14.3495 13.454 14.6665 13.649 14.8615L15.295 16.5075L13.649 18.1535C13.454 18.3485 13.454 18.6655 13.649 18.8605C13.844 19.0555 14.161 19.0555 14.356 18.8605L16.002 17.2145L17.648 18.8605C17.746 18.9585 17.874 19.0065 18.002 19.0065C18.13 19.0065 18.258 18.9575 18.356 18.8605C18.551 18.6655 18.551 18.3485 18.356 18.1535L16.71 16.5075L18.356 14.8615C18.551 14.6665 18.55 14.3495 18.355 14.1545Z" fill="currentColor"/>
<path d="M10.001 17.5085H6.00101C5.72501 17.5085 5.50101 17.7325 5.50101 18.0085C5.50101 18.2845 5.72501 18.5085 6.00101 18.5085H10.001C10.277 18.5085 10.501 18.2845 10.501 18.0085C10.501 17.7325 10.277 17.5085 10.001 17.5085Z" fill="currentColor"/>
<path d="M10.001 14.5085H6.00101C5.72501 14.5085 5.50101 14.7325 5.50101 15.0085C5.50101 15.2845 5.72501 15.5085 6.00101 15.5085H10.001C10.277 15.5085 10.501 15.2845 10.501 15.0085C10.501 14.7325 10.277 14.5085 10.001 14.5085Z" fill="currentColor"/>
<path d="M18.001 7.00848H14.001C13.725 7.00848 13.501 7.23248 13.501 7.50848C13.501 7.78448 13.725 8.00848 14.001 8.00848H18.001C18.277 8.00848 18.501 7.78448 18.501 7.50848C18.501 7.23248 18.277 7.00848 18.001 7.00848Z" fill="currentColor"/>
<path d="M10.001 7.00848H8.50101V5.50848C8.50101 5.23248 8.27701 5.00848 8.00101 5.00848C7.72501 5.00848 7.50101 5.23248 7.50101 5.50848V7.00848H6.00101C5.72501 7.00848 5.50101 7.23248 5.50101 7.50848C5.50101 7.78448 5.72501 8.00848 6.00101 8.00848H7.50101V9.50848C7.50101 9.78448 7.72501 10.0085 8.00101 10.0085C8.27701 10.0085 8.50101 9.78448 8.50101 9.50848V8.00848H10.001C10.277 8.00848 10.501 7.78448 10.501 7.50848C10.501 7.23248 10.277 7.00848 10.001 7.00848Z" fill="currentColor"/>
</g>
</g>
</g>
</g>
</g>
</svg>
