<svg width="24" height="24" viewBox="0 0 24 24" fill="currentColor" xmlns="http://www.w3.org/2000/svg">
<path fill-rule="evenodd" clip-rule="evenodd" d="M12 21C16.9706 21 21 16.9706 21 12C21 7.02944 16.9706 3 12 3C7.02944 3 3 7.02944 3 12C3 16.9706 7.02944 21 12 21ZM12 22C17.5228 22 22 17.5228 22 12C22 6.47715 17.5228 2 12 2C6.47715 2 2 6.47715 2 12C2 17.5228 6.47715 22 12 22Z" fill="currentColor"/>
<path fill-rule="evenodd" clip-rule="evenodd" d="M12 10.25C12.2761 10.25 12.5 10.4739 12.5 10.75V17C12.5 17.2761 12.2761 17.5 12 17.5C11.7239 17.5 11.5 17.2761 11.5 17V10.75C11.5 10.4739 11.7239 10.25 12 10.25Z" fill="currentColor"/>
<path fill-rule="evenodd" clip-rule="evenodd" d="M12 6.5C12.2761 6.5 12.5 6.72386 12.5 7V7.1C12.5 7.37614 12.2761 7.6 12 7.6C11.7239 7.6 11.5 7.37614 11.5 7.1V7C11.5 6.72386 11.7239 6.5 12 6.5Z" fill="currentColor"/>
<path fill-rule="evenodd" clip-rule="evenodd" d="M10.25 10.75C10.25 10.4739 10.4739 10.25 10.75 10.25H12C12.2761 10.25 12.5 10.4739 12.5 10.75C12.5 11.0261 12.2761 11.25 12 11.25H10.75C10.4739 11.25 10.25 11.0261 10.25 10.75Z" fill="currentColor"/>
</svg>
