<svg width="24" height="24" viewBox="0 0 24 24" fill="currentColor" xmlns="http://www.w3.org/2000/svg">
<rect width="24" height="24" fill="currentColor"/>
<g id="Icons - SET 2 Trazados - definitivo">
<rect x="-464" y="-304" width="1144" height="907" rx="20" fill="currentColor"/>
<g id="table">
<g id="row-3">
<g id="eb-icon-info-solid">
<path id="Vector" fill-rule="evenodd" clip-rule="evenodd" d="M12 3C7.02944 3 3 7.02944 3 12C3 16.9705 7.02944 21 12 21C16.9705 21 21 16.9705 21 12C21 7.02944 16.9705 3 12 3ZM12.5169 8.46777C12.5169 8.19163 12.293 7.96777 12.0169 7.96777C11.7408 7.96777 11.5169 8.19163 11.5169 8.46777V8.56777C11.5169 8.84391 11.7408 9.06777 12.0169 9.06777C12.293 9.06777 12.5169 8.84391 12.5169 8.56777V8.46777ZM12.5169 11.4678C12.5169 11.1917 12.293 10.9678 12.0169 10.9678H11.0169C10.7408 10.9678 10.5169 11.1917 10.5169 11.4678C10.5169 11.7439 10.7408 11.9678 11.0169 11.9678H11.5169V16.4678C11.5169 16.7439 11.7408 16.9678 12.0169 16.9678C12.293 16.9678 12.5169 16.7439 12.5169 16.4678V11.4678Z" fill="currentColor"/>
</g>
</g>
</g>
</g>
</svg>
