<svg width="24" height="24" viewBox="0 0 24 24" fill="currentColor" xmlns="http://www.w3.org/2000/svg">
<rect width="24" height="24" fill="currentColor"/>
<g id="Icons - SET 2 Trazados - definitivo">
<rect x="-644" y="-1021" width="1144" height="1538" rx="20" fill="currentColor"/>
<g id="eb-icon-insurance">
<g id="Vector">
<path fill-rule="evenodd" clip-rule="evenodd" d="M12 21C16.9706 21 21 16.9706 21 12C21 7.02944 16.9706 3 12 3C7.02944 3 3 7.02944 3 12C3 16.9706 7.02944 21 12 21ZM12 22C17.5228 22 22 17.5228 22 12C22 6.47715 17.5228 2 12 2C6.47715 2 2 6.47715 2 12C2 17.5228 6.47715 22 12 22Z" fill="currentColor"/>
<path fill-rule="evenodd" clip-rule="evenodd" d="M8.30663 8.17683C7.30507 9.14464 6.68422 10.4989 6.68422 12C6.68422 13.4557 7.26806 14.7731 8.21666 15.7341C9.18164 16.7117 10.5194 17.3158 12 17.3158C13.4807 17.3158 14.8184 16.7117 15.7834 15.7341C16.732 14.7731 17.3158 13.4557 17.3158 12C17.3158 10.4989 16.695 9.14464 15.6934 8.17683C14.7361 7.25176 13.4353 6.68421 12 6.68421C10.5647 6.68421 9.26397 7.25176 8.30663 8.17683ZM16.4951 16.4366C17.6209 15.2961 18.3158 13.7292 18.3158 12C18.3158 10.2168 17.5768 8.60614 16.3883 7.45771C15.252 6.35973 13.7049 5.68421 12 5.68421C10.2951 5.68421 8.74802 6.35973 7.61175 7.45771C6.42326 8.60614 5.68422 10.2168 5.68422 12C5.68422 13.7292 6.37915 15.2961 7.50497 16.4366C8.65013 17.5968 10.2411 18.3158 12 18.3158C13.7589 18.3158 15.3499 17.5968 16.4951 16.4366Z" fill="currentColor"/>
<path fill-rule="evenodd" clip-rule="evenodd" d="M15.5271 7.63024L18.156 5.1372L18.8441 5.8628L16.2152 8.35585L15.5271 7.63024ZM7.7849 8.35585L5.15598 5.8628L5.84408 5.1372L8.47301 7.63024L7.7849 8.35585ZM5.14294 18.15L7.67767 15.5638L8.39185 16.2637L5.85712 18.85L5.14294 18.15ZM16.3224 15.5638L18.8571 18.15L18.1429 18.85L15.6082 16.2637L16.3224 15.5638Z" fill="currentColor"/>
</g>
</g>
</g>
</svg>
