<svg width="24" height="24" viewBox="0 0 24 24" fill="currentColor" xmlns="http://www.w3.org/2000/svg">
<rect width="24" height="24" fill="currentColor"/>
<g id="Icons - SET 2 Trazados - definitivo">
<rect x="-80" y="-688" width="1144" height="907" rx="20" fill="currentColor"/>
<g id="table">
<g id="row-8">
<g id="eb-icon-invalidity">
<g id="Vector">
<path d="M17 7.008C18.379 7.008 19.5 5.886 19.5 4.508C19.5 3.13 18.379 2.008 17 2.008C15.621 2.008 14.5 3.13 14.5 4.508C14.5 5.886 15.621 7.008 17 7.008ZM17 3.008C17.827 3.008 18.5 3.681 18.5 4.508C18.5 5.335 17.827 6.008 17 6.008C16.173 6.008 15.5 5.335 15.5 4.508C15.5 3.681 16.173 3.008 17 3.008Z" fill="currentColor"/>
<path d="M19.5 19.508H17.981V13.931C17.981 13.545 17.668 13.231 17.282 13.231H15.313C14.879 12.404 14.257 11.693 13.505 11.149L15.607 7.913C15.721 7.736 15.75 7.52 15.686 7.32C15.622 7.12 15.474 6.961 15.279 6.882L10.855 5.111C10.518 4.977 10.139 5.119 9.97298 5.441L8.05598 9.168C7.92998 9.414 8.02698 9.715 8.27198 9.841C8.51798 9.969 8.81898 9.87 8.94498 9.625L10.737 6.141L14.568 7.674L12.648 10.631C11.848 10.235 10.952 10.007 10.001 10.007C6.69198 10.007 4.00098 12.698 4.00098 16.007C4.00098 19.316 6.69198 22.007 10.001 22.007C13.31 22.007 16.001 19.316 16.001 16.007C16.001 15.388 15.907 14.792 15.732 14.23H16.982V20.007C16.982 20.283 17.206 20.507 17.482 20.507C17.485 20.507 17.488 20.505 17.491 20.505C17.494 20.505 17.497 20.507 17.5 20.507H19.5C19.776 20.507 20 20.283 20 20.007C20 19.731 19.776 19.508 19.5 19.508ZM9.99998 21.008C7.24298 21.008 4.99998 18.765 4.99998 16.008C4.99998 13.251 7.24298 11.008 9.99998 11.008C12.757 11.008 15 13.251 15 16.008C15 18.765 12.757 21.008 9.99998 21.008Z" fill="currentColor"/>
</g>
</g>
</g>
</g>
</g>
</svg>
