<svg width="24" height="24" viewBox="0 0 24 24" fill="currentColor" xmlns="http://www.w3.org/2000/svg">
<rect width="24" height="24" fill="currentColor"/>
<g id="Icons - SET 2 Trazados - definitivo">
<rect x="-204" y="-1066" width="1144" height="1538" rx="20" fill="currentColor"/>
<g id="eb-icon-jpg_file">
<g id="Vector">
<path fill-rule="evenodd" clip-rule="evenodd" d="M10.1213 3.29289L5.29289 8.12132L4.58579 7.41421L9.41421 2.58579C9.78929 2.21071 10.298 2 10.8284 2H18C19.1046 2 20 2.89543 20 4V20C20 21.1046 19.1046 22 18 22H6C4.89543 22 4 21.1046 4 20V8.82843C4 8.29799 4.21071 7.78929 4.58579 7.41421L5.29289 8.12132C5.10536 8.30886 5 8.56321 5 8.82843V20C5 20.5523 5.44772 21 6 21H18C18.5523 21 19 20.5523 19 20V4C19 3.44772 18.5523 3 18 3H10.8284C10.5632 3 10.3089 3.10536 10.1213 3.29289Z" fill="currentColor"/>
<path fill-rule="evenodd" clip-rule="evenodd" d="M11 2.5V7.5C11 8.32843 10.3284 9 9.5 9H4.5V8H9.5C9.77614 8 10 7.77614 10 7.5V2.5H11Z" fill="currentColor"/>
<path d="M15.0885 14.515V13.96H16.6935V16H16.1785V15.455C16.0085 15.845 15.6185 16.06 15.0385 16.06C14.0085 16.06 13.3885 15.405 13.3885 14.315C13.3885 13.175 14.1385 12.44 15.3385 12.44C15.8035 12.44 16.1935 12.525 16.5085 12.705V13.335C16.2135 13.165 15.7885 13.065 15.3635 13.065C14.5585 13.065 14.1035 13.53 14.1035 14.315C14.1035 15.04 14.4885 15.435 15.2035 15.435C15.7585 15.435 16.0885 15.135 16.0885 14.635V14.515H15.0885Z" fill="currentColor"/>
<path d="M10.8987 16H10.1987V12.5H11.6237C12.4837 12.5 12.9387 12.905 12.9387 13.67C12.9387 14.44 12.4787 14.86 11.6237 14.86H10.8987V16ZM10.8987 13.085V14.27H11.5637C12.0137 14.27 12.2387 14.085 12.2387 13.67C12.2387 13.265 12.0237 13.085 11.5637 13.085H10.8987Z" fill="currentColor"/>
<path d="M9.3857 12.5V14.81C9.3857 15.66 9.0057 16.05 8.1957 16.05C7.8207 16.05 7.4657 15.97 7.1907 15.825V15.2C7.4207 15.33 7.7757 15.425 8.0407 15.425C8.5007 15.425 8.6857 15.225 8.6857 14.725V13.115H7.8007V12.5H9.3857Z" fill="currentColor"/>
</g>
</g>
</g>
</svg>
