<svg width="24" height="24" viewBox="0 0 24 24" fill="currentColor" xmlns="http://www.w3.org/2000/svg">
<path d="M18.0029 22.0015H6.00293C4.89993 22.0015 4.00293 21.1045 4.00293 20.0015V4.0015C4.00293 2.8985 4.89993 2.0015 6.00293 2.0015H18.0029C19.1059 2.0015 20.0029 2.8985 20.0029 4.0015V20.0015C20.0029 21.1045 19.1059 22.0015 18.0029 22.0015ZM6.00293 3.0015C5.45193 3.0015 5.00293 3.4505 5.00293 4.0015V20.0015C5.00293 20.5535 5.45193 21.0015 6.00293 21.0015H18.0029C18.5549 21.0015 19.0029 20.5535 19.0029 20.0015V4.0015C19.0029 3.4505 18.5549 3.0015 18.0029 3.0015H6.00293Z" fill="currentColor"/>
<path d="M16.5029 17.0015H9.50293C9.22693 17.0015 9.00293 16.7775 9.00293 16.5015C9.00293 16.2255 9.22693 16.0015 9.50293 16.0015H16.5029C16.7789 16.0015 17.0029 16.2255 17.0029 16.5015C17.0029 16.7775 16.7789 17.0015 16.5029 17.0015ZM16.5029 14.0015H9.50293C9.22693 14.0015 9.00293 13.7775 9.00293 13.5015C9.00293 13.2255 9.22693 13.0015 9.50293 13.0015H16.5029C16.7789 13.0015 17.0029 13.2255 17.0029 13.5015C17.0029 13.7775 16.7789 14.0015 16.5029 14.0015ZM16.5029 11.0015H9.50293C9.22693 11.0015 9.00293 10.7775 9.00293 10.5015C9.00293 10.2255 9.22693 10.0015 9.50293 10.0015H16.5029C16.7789 10.0015 17.0029 10.2255 17.0029 10.5015C17.0029 10.7775 16.7789 11.0015 16.5029 11.0015Z" fill="currentColor"/>
<path d="M16.5029 8.0015H9.50293C9.22693 8.0015 9.00293 7.7775 9.00293 7.5015C9.00293 7.2255 9.22693 7.0015 9.50293 7.0015H16.5029C16.7789 7.0015 17.0029 7.2255 17.0029 7.5015C17.0029 7.7775 16.7789 8.0015 16.5029 8.0015Z" fill="currentColor"/>
<path d="M7.52293 7.9945C7.79465 7.9945 8.01493 7.77422 8.01493 7.5025C8.01493 7.23077 7.79465 7.0105 7.52293 7.0105C7.25121 7.0105 7.03093 7.23077 7.03093 7.5025C7.03093 7.77422 7.25121 7.9945 7.52293 7.9945Z" fill="currentColor"/>
<path d="M7.52293 10.9935C7.79465 10.9935 8.01493 10.7732 8.01493 10.5015C8.01493 10.2298 7.79465 10.0095 7.52293 10.0095C7.25121 10.0095 7.03093 10.2298 7.03093 10.5015C7.03093 10.7732 7.25121 10.9935 7.52293 10.9935Z" fill="currentColor"/>
<path d="M7.52293 13.9935C7.79465 13.9935 8.01493 13.7732 8.01493 13.5015C8.01493 13.2298 7.79465 13.0095 7.52293 13.0095C7.25121 13.0095 7.03093 13.2298 7.03093 13.5015C7.03093 13.7732 7.25121 13.9935 7.52293 13.9935Z" fill="currentColor"/>
<path d="M7.52293 16.9935C7.79465 16.9935 8.01493 16.7732 8.01493 16.5015C8.01493 16.2298 7.79465 16.0095 7.52293 16.0095C7.25121 16.0095 7.03093 16.2298 7.03093 16.5015C7.03093 16.7732 7.25121 16.9935 7.52293 16.9935Z" fill="currentColor"/>
</svg>
