<svg width="24" height="24" viewBox="0 0 24 24" fill="currentColor" xmlns="http://www.w3.org/2000/svg">
<path d="M21.003 13.032V7.92097C21.003 6.54297 19.882 5.42097 18.503 5.42097H13.207C12.88 5.42097 12.557 5.31197 12.297 5.11297L10.205 3.51497C9.77095 3.18397 9.23195 3.00197 8.68695 3.00197H4.50195C3.12395 3.00197 2.00195 4.12397 2.00195 5.50197V16.502C2.00195 17.881 3.12395 19.002 4.50195 19.002H13.028C13.942 20.209 15.376 21.002 17.002 21.002C19.759 21.002 22.002 18.759 22.002 16.002C22.002 14.886 21.622 13.866 21.002 13.033L21.003 13.032ZM4.50295 18.001C3.67595 18.001 3.00295 17.328 3.00295 16.501V5.50097C3.00295 4.67397 3.67595 4.00097 4.50295 4.00097H8.68795C9.01495 4.00097 9.33795 4.10997 9.59895 4.30897L11.691 5.90697C12.125 6.23797 12.663 6.41997 13.208 6.41997H18.504C19.331 6.41997 20.004 7.09297 20.004 7.91997V12.026C19.166 11.392 18.134 11.001 17.004 11.001C14.247 11.001 12.004 13.244 12.004 16.001C12.004 16.713 12.158 17.387 12.428 18.001H4.50295ZM17.003 20.001C14.797 20.001 13.003 18.207 13.003 16.001C13.003 13.795 14.797 12.001 17.003 12.001C19.209 12.001 21.003 13.795 21.003 16.001C21.003 18.207 19.209 20.001 17.003 20.001Z" fill="currentColor"/>
<path d="M19.226 16.182H16.823V13.78C16.823 13.573 16.655 13.405 16.448 13.405C16.241 13.405 16.073 13.573 16.073 13.78V16.557C16.073 16.764 16.241 16.932 16.448 16.932H19.226C19.433 16.932 19.601 16.764 19.601 16.557C19.601 16.35 19.433 16.182 19.226 16.182Z" fill="currentColor"/>
</svg>
