<svg width="24" height="24" viewBox="0 0 24 24" fill="currentColor" xmlns="http://www.w3.org/2000/svg">
<path fill-rule="evenodd" clip-rule="evenodd" d="M12 8.5C10.9017 8.5 10 9.40409 10 10.5333C10 11.6626 10.9017 12.5667 12 12.5667C13.0983 12.5667 14 11.6626 14 10.5333C14 9.40409 13.0983 8.5 12 8.5ZM9 10.5333C9 8.86433 10.3369 7.5 12 7.5C13.6631 7.5 15 8.86433 15 10.5333C15 12.2023 13.6631 13.5667 12 13.5667C10.3369 13.5667 9 12.2023 9 10.5333Z" fill="currentColor"/>
<path fill-rule="evenodd" clip-rule="evenodd" d="M6.34081 4.37478C7.84058 2.85502 9.87611 2 12 2C14.1239 2 16.1594 2.85502 17.6592 4.37478C19.1587 5.89432 20 7.95387 20 10.1C20 11.9966 19.593 13.2854 18.4859 14.6852C18.4819 14.6902 18.4779 14.6951 18.4737 14.7L12.38 21.825C12.285 21.9361 12.1462 22 12 22C11.8538 22 11.715 21.9361 11.62 21.825L5.52627 14.7C5.52211 14.6951 5.51805 14.6902 5.51408 14.6852C4.40701 13.2854 4 11.9966 4 10.1C4 7.95387 4.84127 5.89432 6.34081 4.37478ZM12 3C10.1456 3 8.36587 3.7464 7.05259 5.07719C5.73908 6.40821 5 8.21484 5 10.1C5 11.7947 5.34532 12.8572 6.29255 14.0574L12 20.7307L17.7075 14.0574C18.6547 12.8572 19 11.7947 19 10.1C19 8.21484 18.2609 6.40821 16.9474 5.07719C15.6341 3.7464 13.8544 3 12 3Z" fill="currentColor"/>
</svg>
