<svg width="24" height="24" viewBox="0 0 24 24" fill="currentColor" xmlns="http://www.w3.org/2000/svg">
<path d="M12.0049 12.9185C11.7289 12.9185 11.5049 13.1425 11.5049 13.4185V16.5845C11.5049 16.8605 11.7289 17.0845 12.0049 17.0845C12.2809 17.0845 12.5049 16.8605 12.5049 16.5845V13.4185C12.5049 13.1425 12.2809 12.9185 12.0049 12.9185Z" fill="currentColor"/>
<path d="M19.0049 8.00146H16.0049V6.00146C16.0049 3.79546 14.2109 2.00146 12.0049 2.00146C9.79888 2.00146 8.00488 3.79546 8.00488 6.00146V8.00146H5.00488C3.35088 8.00146 2.00488 9.34746 2.00488 11.0015V19.0015C2.00488 20.6555 3.35088 22.0015 5.00488 22.0015H19.0049C20.6589 22.0015 22.0049 20.6555 22.0049 19.0015V11.0015C22.0049 9.34746 20.6589 8.00146 19.0049 8.00146ZM9.00488 6.00146C9.00488 4.34746 10.3509 3.00146 12.0049 3.00146C13.6589 3.00146 15.0049 4.34746 15.0049 6.00146V8.00146H9.00488V6.00146ZM21.0049 19.0015C21.0049 20.1045 20.1079 21.0015 19.0049 21.0015H5.00488C3.90188 21.0015 3.00488 20.1045 3.00488 19.0015V11.0015C3.00488 9.89846 3.90188 9.00146 5.00488 9.00146H19.0049C20.1079 9.00146 21.0049 9.89846 21.0049 11.0015V19.0015Z" fill="currentColor"/>
</svg>
