<svg width="24" height="25" viewBox="0 0 24 25" fill="currentColor" xmlns="http://www.w3.org/2000/svg">
<rect width="24" height="25" fill="currentColor"/>
<g id="Icons - SET 2 Trazados - definitivo">
<rect x="-204" y="-1154" width="1144" height="1538" rx="20" fill="currentColor"/>
<g id="eb-icon-make_appointment">
<path id="Vector" d="M7.95 3.5C7.95 3.25147 7.74853 3.05 7.5 3.05C7.25147 3.05 7.05 3.25147 7.05 3.5H7.95ZM7.05 8.5C7.05 8.74853 7.25147 8.95 7.5 8.95C7.74853 8.95 7.95 8.74853 7.95 8.5H7.05ZM15.95 3.5C15.95 3.25147 15.7485 3.05 15.5 3.05C15.2515 3.05 15.05 3.25147 15.05 3.5H15.95ZM15.05 8.5C15.05 8.74853 15.2515 8.95 15.5 8.95C15.7485 8.95 15.95 8.74853 15.95 8.5H15.05ZM2.5 10.05H2.05V10.95H2.5V10.05ZM20.5 10.95H20.95V10.05H20.5V10.95ZM19.0203 17.45C19.2688 17.45 19.4703 17.2485 19.4703 17C19.4703 16.7515 19.2688 16.55 19.0203 16.55V17.45ZM14.9797 16.55C14.7312 16.55 14.5297 16.7515 14.5297 17C14.5297 17.2485 14.7312 17.45 14.9797 17.45V16.55ZM17.45 14.9797C17.45 14.7312 17.2485 14.5297 17 14.5297C16.7515 14.5297 16.55 14.7312 16.55 14.9797H17.45ZM16.55 19.0203C16.55 19.2688 16.7515 19.4703 17 19.4703C17.2485 19.4703 17.45 19.2688 17.45 19.0203H16.55ZM7.05 3.5V8.5H7.95V3.5H7.05ZM15.05 3.5V8.5H15.95V3.5H15.05ZM2.5 10.95H20.5V10.05H2.5V10.95ZM20.95 14.2601V7.5H20.05V14.2601H20.95ZM20.95 7.5C20.95 6.14691 19.8531 5.05 18.5 5.05V5.95C19.3561 5.95 20.05 6.64395 20.05 7.5H20.95ZM18.5 5.05H4.5V5.95H18.5V5.05ZM4.5 5.05C3.1469 5.05 2.05 6.1469 2.05 7.5H2.95C2.95 6.64396 3.64396 5.95 4.5 5.95V5.05ZM2.05 7.5V17.5H2.95V7.5H2.05ZM2.05 17.5C2.05 18.8531 3.14691 19.95 4.5 19.95V19.05C3.64395 19.05 2.95 18.3561 2.95 17.5H2.05ZM4.5 19.95H13.3251V19.05H4.5V19.95ZM21.05 17C21.05 19.2368 19.2368 21.05 17 21.05V21.95C19.7338 21.95 21.95 19.7338 21.95 17H21.05ZM17 21.05C14.7632 21.05 12.95 19.2368 12.95 17H12.05C12.05 19.7338 14.2662 21.95 17 21.95V21.05ZM12.95 17C12.95 14.7632 14.7632 12.95 17 12.95V12.05C14.2662 12.05 12.05 14.2662 12.05 17H12.95ZM17 12.95C19.2368 12.95 21.05 14.7632 21.05 17H21.95C21.95 14.2662 19.7338 12.05 17 12.05V12.95ZM19.0203 16.55H14.9797V17.45H19.0203V16.55ZM16.55 14.9797V19.0203H17.45V14.9797H16.55Z" fill="currentColor"/>
</g>
</g>
</svg>
