<svg width="24" height="24" viewBox="0 0 24 24" fill="currentColor" xmlns="http://www.w3.org/2000/svg">
<rect width="24" height="24" fill="currentColor"/>
<g id="Icons - SET 2 Trazados - definitivo">
<rect x="-952" y="-1021" width="1144" height="1538" rx="20" fill="currentColor"/>
<g id="eb-icon-mark">
<path id="Vector" fill-rule="evenodd" clip-rule="evenodd" d="M5 20.877V4C5 3.44772 5.44772 3 6 3H18C18.5523 3 19 3.44772 19 4V20.877L13.3357 15.2946C12.5883 14.5329 11.4116 14.5329 10.6642 15.2946L5 20.877ZM11.3732 16L5.56802 21.7212C4.96152 22.3477 4 21.8497 4 20.909V4C4 2.89543 4.89543 2 6 2H18C19.1046 2 20 2.89543 20 4V20.909C20 21.8497 19.0385 22.3477 18.432 21.7212L12.6268 16C12.2698 15.6311 11.7302 15.6311 11.3732 16Z" fill="currentColor"/>
</g>
</g>
</svg>
