<svg width="24" height="24" viewBox="0 0 24 24" fill="currentColor" xmlns="http://www.w3.org/2000/svg">
<rect width="24" height="24" fill="currentColor"/>
<g id="Icons - SET 2 Trazados - definitivo">
<rect x="-116" y="-1244" width="1144" height="1538" rx="20" fill="currentColor"/>
<g id="eb-icon-medical_directory">
<g id="Vector">
<path fill-rule="evenodd" clip-rule="evenodd" d="M2 8.5C2 7.11929 3.11929 6 4.5 6H19.5C20.8807 6 22 7.11929 22 8.5V19.5C22 20.8807 20.8807 22 19.5 22H4.5C3.11929 22 2 20.8807 2 19.5V8.5ZM4.5 7C3.67157 7 3 7.67157 3 8.5V19.5C3 20.3285 3.67157 21 4.5 21H19.5C20.3285 21 21 20.3285 21 19.5V8.5C21 7.67157 20.3285 7 19.5 7H4.5Z" fill="currentColor"/>
<path fill-rule="evenodd" clip-rule="evenodd" d="M12 3C10.067 3 8.5 4.567 8.5 6.5C8.5 6.77614 8.27614 7 8 7C7.72386 7 7.5 6.77614 7.5 6.5C7.5 4.01472 9.51472 2 12 2C14.4852 2 16.5 4.01471 16.5 6.5C16.5 6.77614 16.2761 7 16 7C15.7239 7 15.5 6.77614 15.5 6.5C15.5 4.56701 13.933 3 12 3Z" fill="currentColor"/>
<path fill-rule="evenodd" clip-rule="evenodd" d="M10.125 9.5C10.125 9.29289 10.2929 9.125 10.5 9.125H13.5C13.7071 9.125 13.875 9.29289 13.875 9.5V12.125H16.5C16.7071 12.125 16.875 12.2929 16.875 12.5V15.5C16.875 15.7071 16.7071 15.875 16.5 15.875H13.875V18.5C13.875 18.7071 13.7071 18.875 13.5 18.875H10.5C10.2929 18.875 10.125 18.7071 10.125 18.5V15.875H7.5C7.29289 15.875 7.125 15.7071 7.125 15.5V12.5C7.125 12.2929 7.29289 12.125 7.5 12.125H10.125V9.5ZM10.875 9.875V12.5C10.875 12.7071 10.7071 12.875 10.5 12.875H7.875V15.125H10.5C10.7071 15.125 10.875 15.2929 10.875 15.5V18.125H13.125V15.5C13.125 15.2929 13.2929 15.125 13.5 15.125H16.125V12.875H13.5C13.2929 12.875 13.125 12.7071 13.125 12.5V9.875H10.875Z" fill="currentColor"/>
</g>
</g>
</g>
</svg>
