<svg width="25" height="24" viewBox="0 0 25 24" fill="currentColor" xmlns="http://www.w3.org/2000/svg">
<path fill-rule="evenodd" clip-rule="evenodd" d="M12.1228 3C7.15224 3 3.1228 7.02944 3.1228 12C3.1228 16.9728 7.12214 21 12.0905 21H20.4295L19.1998 19.7501C18.6156 19.1562 18.6502 18.2435 19.1329 17.6448C19.5783 17.0925 19.9596 16.4866 20.2657 15.8384C20.8153 14.6747 21.1228 13.374 21.1228 12C21.1228 7.02944 17.0934 3 12.1228 3ZM2.1228 12C2.1228 6.47715 6.59995 2 12.1228 2C17.6456 2 22.1228 6.47715 22.1228 12C22.1228 13.5247 21.7812 14.971 21.1699 16.2654C20.8297 16.986 20.406 17.6591 19.9114 18.2725C19.7065 18.5266 19.7286 18.8617 19.9127 19.0488L21.9792 21.1493C22.1205 21.293 22.1618 21.5074 22.084 21.6932C22.0061 21.8791 21.8243 22 21.6228 22H12.0905C6.56541 22 2.1228 17.5206 2.1228 12Z" fill="currentColor"/>
</svg>
