<svg width="24" height="24" viewBox="0 0 24 24" fill="currentColor" xmlns="http://www.w3.org/2000/svg">
<rect width="24" height="24" fill="currentColor"/>
<g id="Icons - SET 2 Trazados - definitivo">
<rect x="-424" y="-1111" width="1144" height="1538" rx="20" fill="currentColor"/>
<g id="eb-icon-microfone_on">
<path id="Vector" d="M19.5 10.4375C19.5 11.4583 19.306 12.4691 18.9291 13.4122C18.5522 14.3553 17.9997 15.2122 17.3033 15.9341C16.6069 16.6558 15.7801 17.2284 14.8701 17.6191C13.9602 18.0097 12.9849 18.2107 12 18.2107M12 18.2107C11.0151 18.2107 10.0398 18.0097 9.12987 17.6191C8.21993 17.2284 7.39314 16.6558 6.6967 15.9341C6.00026 15.2122 5.44781 14.3553 5.0709 13.4122C4.69399 12.4691 4.5 11.4583 4.5 10.4375M12 18.2107V21.8958M15.1667 5.40278C15.1667 3.581 13.7489 2.10416 12 2.10416C10.2511 2.10416 8.83334 3.581 8.83334 5.40278V10.9004C8.83334 12.7222 10.2511 14.1991 12 14.1991C13.7489 14.1991 15.1667 12.7222 15.1667 10.9004V5.40278Z" fill="currentColor" stroke-linecap="round" stroke-linejoin="round"/>
</g>
</g>
</svg>
