<svg width="24" height="24" viewBox="0 0 24 24" fill="currentColor" xmlns="http://www.w3.org/2000/svg">
<rect width="24" height="24" fill="currentColor"/>
<g id="Icons - SET 2 Trazados - definitivo">
<rect x="-248" y="-1154" width="1144" height="1538" rx="20" fill="currentColor"/>
<g id="eb-icon-note">
<path id="Vector" d="M20.5 20.2536V4.5C20.5 3.39543 19.6046 2.5 18.5 2.5H7.5C6.39543 2.5 5.5 3.39543 5.5 4.5V18.4913M9 8H17M9 11H17M9 14H17M20.5 20C20.5 20.8284 19.8284 21.5 19 21.5C18.1716 21.5 17.5 20.8284 17.5 20C17.5 19.1716 16.8284 18.5 16 18.5C15.3913 18.5 14.8674 18.8625 14.6322 19.3834M3.5 21.0155V20.9715C3.5 20.1097 3.81579 19.135 4.35706 18.601C4.42334 18.5356 4.50532 18.5 4.58977 18.5H15.85C15.409 18.5477 14.9779 18.7342 14.7614 19.1213C14.4552 19.6692 14.2843 20.3715 14.2843 21.0155C14.2843 21.2831 14.1108 21.5 13.8967 21.5H3.88766C3.67356 21.5 3.5 21.2831 3.5 21.0155Z" fill="currentColor" stroke-linecap="round"/>
</g>
</g>
</svg>
