<svg width="24" height="24" viewBox="0 0 24 24" fill="currentColor" xmlns="http://www.w3.org/2000/svg">
<rect width="24" height="24" fill="currentColor"/>
<g id="Icons - SET 2 Trazados - definitivo">
<rect x="-554" y="-1020" width="1144" height="1538" rx="20" fill="currentColor"/>
<g id="eb-icon-notification">
<g id="Vector">
<path fill-rule="evenodd" clip-rule="evenodd" d="M16.8064 6.51633C18.1511 7.54796 19.0485 9.10456 19.0485 11.1521V14.9429C19.0485 15.5313 19.281 16.1075 19.7157 16.5637L20.5863 17.4774C21.5243 18.4618 20.7692 20 19.4639 20H4.53598C3.23067 20 2.47567 18.4618 3.41362 17.4774L4.28421 16.5637C4.71889 16.1075 4.9514 15.5313 4.9514 14.9429V11.1521C4.9514 9.10455 5.84881 7.54796 7.19348 6.51632C8.52438 5.49525 10.2744 5 12 5C13.7255 5 15.4755 5.49525 16.8064 6.51633ZM7.80218 7.30972C6.69113 8.16213 5.9514 9.43158 5.9514 11.1521V14.9429C5.9514 15.7997 5.6119 16.6199 5.00819 17.2536L4.1376 18.1673C3.85448 18.4644 4.03937 19 4.53598 19H19.4639C19.9605 19 20.1454 18.4644 19.8623 18.1673L18.9917 17.2536C18.388 16.6199 18.0485 15.7997 18.0485 14.9429V11.1521C18.0485 9.43158 17.3088 8.16213 16.1977 7.30973C15.0729 6.44677 13.5487 6 12 6C10.4512 6 8.92698 6.44677 7.80218 7.30972Z" fill="currentColor"/>
<path fill-rule="evenodd" clip-rule="evenodd" d="M8.66663 19.0099C8.7066 19.377 8.79206 19.7103 8.91464 20.0099C10.0006 22.6634 13.9994 22.6634 15.0853 20.0099C15.2079 19.7103 15.2933 19.377 15.3333 19.0099H8.66663ZM13.9483 20.0099C13.0561 21.33 10.9438 21.33 10.0517 20.0099H13.9483Z" fill="currentColor"/>
<path fill-rule="evenodd" clip-rule="evenodd" d="M13.5862 3.53741C12.6501 2.82086 11.3498 2.82086 10.4137 3.53741C10.1529 3.73702 9.99996 4.04669 9.99996 4.37509V5.85482C9.99996 6.13097 9.7761 6.35482 9.49996 6.35482C9.22381 6.35482 8.99996 6.13097 8.99996 5.85482V4.37509C8.99996 3.73538 9.29788 3.13216 9.80586 2.74333C11.1007 1.75222 12.8992 1.75222 14.1941 2.74333C14.702 3.13216 15 3.73538 15 4.37509V5.85482C15 6.13097 14.7761 6.35482 14.5 6.35482C14.2238 6.35482 14 6.13097 14 5.85482V4.37509C14 4.04669 13.847 3.73702 13.5862 3.53741Z" fill="currentColor"/>
</g>
</g>
</g>
</svg>
