<svg width="24" height="24" viewBox="0 0 24 24" fill="currentColor" xmlns="http://www.w3.org/2000/svg">
<rect width="24" height="24" fill="currentColor"/>
<g id="Icons - SET 2 Trazados - definitivo">
<rect x="-116" y="-1155" width="1144" height="1538" rx="20" fill="currentColor"/>
<g id="eb-icon-nutrition">
<path id="Vector" d="M11.9998 9.65692V4.64832M10.1717 9.5C11.3903 10.1098 12.6098 10.1098 13.8284 9.5M4.5 14.25C4.5 15.2021 4.69399 16.1448 5.0709 17.0245C5.44781 17.9041 6.00026 18.7033 6.6967 19.3765C7.39314 20.0497 8.21993 20.5838 9.12987 20.9481C10.0398 21.3125 11.0151 21.5 12 21.5C12.9849 21.5 13.9602 21.3125 14.8701 20.9481C15.7801 20.5838 16.6069 20.0497 17.3033 19.3765C17.9997 18.7033 18.5522 17.9041 18.9291 17.0245C19.306 16.1448 19.5 15.2021 19.5 14.25C19.5 13.2979 19.306 12.3552 18.9291 11.4755C18.5522 10.5959 17.9997 9.7967 17.3033 9.12348C16.6069 8.45025 15.7801 7.91622 14.8701 7.55187C13.9602 7.18753 12.9849 7 12 7C11.0151 7 10.0398 7.18753 9.12987 7.55187C8.21993 7.91622 7.39314 8.45025 6.6967 9.12348C6.00026 9.7967 5.44781 10.5959 5.0709 11.4755C4.69399 12.3552 4.5 13.2979 4.5 14.25ZM12.0838 4.27232C12.0037 4.39067 11.9797 4.53221 12.017 4.66592C12.0543 4.79962 12.1499 4.91457 12.2829 4.98558C13.2164 5.48034 14.3343 5.62555 15.391 5.38929C16.4477 5.15302 17.3567 4.55462 17.9183 3.7256C18.0859 3.47794 17.9941 3.15996 17.7168 3.01287C16.7839 2.51933 15.6672 2.37471 14.6117 2.61071C13.5561 2.84672 12.6479 3.44409 12.0861 4.2718L12.0838 4.27232Z" fill="currentColor" stroke-linecap="round"/>
</g>
</g>
</svg>
