<svg width="24" height="24" viewBox="0 0 24 24" fill="currentColor" xmlns="http://www.w3.org/2000/svg">
<rect width="24" height="24" fill="currentColor"/>
<g id="Icons - SET 2 Trazados - definitivo">
<rect x="-996" y="-1021" width="1144" height="1538" rx="20" fill="currentColor"/>
<g id="eb-icon-off">
<path id="Vector" fill-rule="evenodd" clip-rule="evenodd" d="M12 2C12.2762 2 12.5 2.22386 12.5 2.5V12C12.5 12.2762 12.2762 12.5 12 12.5C11.7239 12.5 11.5 12.2762 11.5 12V2.5C11.5 2.22386 11.7239 2 12 2ZM6.09129 4.54428C6.27394 4.75139 6.25412 5.06735 6.04701 5.25C4.67595 6.45918 3.70563 8.05722 3.26516 9.83145C2.82469 11.6057 2.93495 13.472 3.58129 15.182C4.22762 16.892 5.37938 18.3647 6.88329 19.404C8.38719 20.4433 10.1719 21 12 21C13.8281 21 15.6129 20.4433 17.1168 19.404C18.6207 18.3647 19.7724 16.892 20.4188 15.182C21.0651 13.472 21.1754 11.6057 20.7349 9.83145C20.2944 8.05722 19.3241 6.45918 17.953 5.25C17.7459 5.06735 17.7261 4.75139 17.9088 4.54428C18.0914 4.33718 18.4074 4.31736 18.6145 4.50001C20.1379 5.84354 21.216 7.61913 21.7054 9.5905C22.1949 11.5619 22.0723 13.6355 21.3542 15.5356C20.636 17.4356 19.3563 19.0719 17.6853 20.2267C16.0143 21.3814 14.0312 22 12 22C9.96882 22 7.98577 21.3814 6.31476 20.2267C4.64375 19.0719 3.36403 17.4356 2.64588 15.5356C1.92773 13.6355 1.80521 11.5619 2.29462 9.5905C2.78403 7.61913 3.86217 5.84354 5.38557 4.50001C5.59267 4.31736 5.90863 4.33718 6.09129 4.54428Z" fill="currentColor"/>
</g>
</g>
</svg>
