<svg width="24" height="24" viewBox="0 0 24 24" fill="currentColor" xmlns="http://www.w3.org/2000/svg">
<rect width="24" height="24" fill="currentColor"/>
<g id="Icons - SET 2 Trazados - definitivo">
<rect x="-160" y="-1111" width="1144" height="1538" rx="20" fill="currentColor"/>
<g id="eb-icon-pay_back">
<path id="Vector" d="M19.5 19.829L17.635 19.829L15.903 21.561C15.62 21.844 15.243 22 14.842 22H9.15602C8.75602 22 8.37902 21.844 8.09502 21.561L6.36302 19.829H4.49902C3.67102 19.829 2.99902 19.157 2.99902 18.329L2.99902 12.329C2.99902 11.501 3.67102 10.829 4.49902 10.829H5.52702V9.31797C5.52702 9.02097 5.61402 8.73297 5.77902 8.48597L6.52902 7.36097C6.58402 7.27897 6.61302 7.18197 6.61302 7.08397V2.50097C6.61302 2.22497 6.83702 2.00097 7.11302 2.00097H15.884C16.712 2.00097 17.384 2.67297 17.384 3.50097V5.73797L17.803 10.83H19.498C20.326 10.83 20.998 11.502 20.998 12.33V18.33C20.998 19.158 20.326 19.83 19.498 19.83L19.5 19.829ZM8.80402 20.854C8.89702 20.947 9.02602 21 9.15802 21H14.844C14.978 21 15.103 20.948 15.198 20.854L16.223 19.829H7.77902L8.80402 20.854ZM15.886 3.00097H7.61402L7.61402 5.25797H16.385V3.50097C16.385 3.22497 16.162 3.00097 15.886 3.00097ZM16.425 6.25797L7.61402 6.25797V7.08397C7.61402 7.38097 7.52702 7.66897 7.36202 7.91597L6.61202 9.04097C6.55702 9.12297 6.52802 9.21997 6.52802 9.31797L6.52802 14.529C6.52802 14.805 6.75202 15.029 7.02802 15.029H7.35302C7.59802 15.029 7.80602 14.853 7.84602 14.612L8.17802 12.617C8.24702 12.21 8.48302 11.845 8.82602 11.617L10.088 10.763L11.647 9.20397C11.842 9.00897 12.159 9.00897 12.354 9.20397C12.549 9.39897 12.549 9.71597 12.354 9.91097L11.436 10.829H16.803L16.426 6.25697L16.425 6.25797ZM19.5 11.829H10.308L9.38102 12.448C9.26602 12.524 9.18802 12.646 9.16502 12.781L8.83302 14.776C8.71202 15.502 8.08902 16.029 7.35402 16.029H7.02902C6.20202 16.029 5.52902 15.356 5.52902 14.529L5.52902 11.829H4.50102C4.22502 11.829 4.00102 12.053 4.00102 12.329L4.00102 18.329C4.00102 18.605 4.22502 18.829 4.50102 18.829L19.501 18.829C19.777 18.829 20.001 18.605 20.001 18.329V12.329C20.001 12.053 19.776 11.829 19.5 11.829Z" fill="currentColor"/>
</g>
</g>
</svg>
