<svg width="24" height="24" viewBox="0 0 24 24" fill="currentColor" xmlns="http://www.w3.org/2000/svg">
<rect width="24" height="24" fill="currentColor"/>
<g id="Icons - SET 2 Trazados - definitivo">
<rect x="-72" y="-1021" width="1144" height="1538" rx="20" fill="currentColor"/>
<g id="eb-icon-pension">
<g id="Vector">
<path fill-rule="evenodd" clip-rule="evenodd" d="M3.49774 8.18C3.20217 8.18 2.99774 8.40499 2.99774 8.64V15.36C2.99774 15.595 3.20217 15.82 3.49774 15.82H4.49774C4.79332 15.82 4.99774 15.595 4.99774 15.36V8.64C4.99774 8.40499 4.79332 8.18 4.49774 8.18H3.49774ZM1.99774 8.64C1.99774 7.81462 2.68875 7.18 3.49774 7.18H4.49774C5.30674 7.18 5.99774 7.81462 5.99774 8.64V15.36C5.99774 16.1854 5.30674 16.82 4.49774 16.82H3.49774C2.68875 16.82 1.99774 16.1854 1.99774 15.36V8.64Z" fill="currentColor"/>
<path d="M20.1231 9.15371L20.0033 8.68768L19.976 8.69416L19.9495 8.70355L20.1231 9.15371ZM9.87504 11.1439C9.60694 11.0803 9.33597 11.2375 9.26981 11.4948C9.20365 11.7522 9.36736 12.0124 9.63546 12.0759L9.87504 11.1439ZM5.41791 14.5099L10.1957 16.3964L10.5761 15.5086L5.79828 13.6221L5.41791 14.5099ZM20.2226 8.63574L20.0033 8.68768L20.2429 9.61972L20.4622 9.56778L20.2226 8.63574ZM19.9495 8.70355L16.0497 10.0894L16.3969 10.9897L20.2967 9.60385L19.9495 8.70355ZM16.0497 10.0894L11.9575 11.5435L12.3047 12.4438L16.3969 10.9897L16.0497 10.0894ZM11.6354 11.5609L9.87504 11.1439L9.63546 12.0759L11.3958 12.493L11.6354 11.5609ZM10.0908 8.96975L16.0568 10.9921L16.3898 10.0869L10.4237 8.06453L10.0908 8.96975ZM11.9575 11.5435C11.8547 11.5801 11.7422 11.5862 11.6354 11.5609L11.3958 12.493C11.6969 12.5643 12.0138 12.5472 12.3047 12.4438L11.9575 11.5435ZM21.5588 10.9293C22.6126 9.97133 21.6361 8.30087 20.2226 8.63574L20.4622 9.56778C20.9098 9.46173 21.156 9.97334 20.8712 10.2322L21.5588 10.9293ZM8.6695 8.09672L5.42372 9.33283L5.79247 10.2252L9.03825 8.98907L8.6695 8.09672ZM12.4367 16.2326L21.3552 11.0748L20.8392 10.2525L11.9206 15.4103L12.4367 16.2326ZM10.4237 8.06453C9.85416 7.87144 9.231 7.88288 8.6695 8.09672L9.03825 8.98907C9.37515 8.86076 9.74904 8.8539 10.0908 8.96975L10.4237 8.06453ZM20.8712 10.2322C20.8728 10.2307 20.8718 10.2319 20.8663 10.2357C20.8607 10.2396 20.8523 10.2449 20.8392 10.2525L21.3552 11.0748C21.411 11.0426 21.4861 10.9954 21.5588 10.9293L20.8712 10.2322ZM10.1957 16.3964C10.9276 16.6854 11.7588 16.6246 12.4367 16.2326L11.9206 15.4103C11.5139 15.6455 11.0152 15.682 10.5761 15.5086L10.1957 16.3964Z" fill="currentColor"/>
</g>
</g>
</g>
</svg>
