<svg width="24" height="24" viewBox="0 0 24 24" fill="currentColor" xmlns="http://www.w3.org/2000/svg">
<rect width="24" height="24" fill="currentColor"/>
<g id="Icons - SET 2 Trazados - definitivo">
<rect x="-448" y="-1020" width="1144" height="1538" rx="20" fill="currentColor"/>
<g id="eb-icon-phone">
<path id="Vector" d="M10.5471 13.7687L12.3696 15.3461C13.0115 15.9016 13.9675 15.9213 14.6325 15.3939L16.075 14.25C16.3332 14.0452 16.7021 14.0277 16.9804 14.209L21.1696 16.9379C21.3843 17.0777 21.5053 17.3103 21.4998 17.5514L21.4242 20.8767C21.4223 20.9608 21.3619 21.0461 21.2578 21.0721C16.5001 22.2603 11.4538 20.9347 7.95546 17.5838L7.20123 16.8614L6.53063 16.1967C2.94069 12.6384 1.62414 7.46324 3.08714 2.68815C3.11252 2.60533 3.19568 2.53638 3.3039 2.53519L6.49873 2.50005C6.76821 2.49708 7.01404 2.63147 7.15082 2.84523L10.0706 7.40809C10.2506 7.6894 10.2097 8.05422 9.96538 8.29238L8.80155 9.42672C8.13645 10.075 8.10717 11.1229 8.73703 11.8059L10.5471 13.7687Z" fill="currentColor"/>
</g>
</g>
</svg>
