<svg width="24" height="24" viewBox="0 0 24 24" fill="currentColor" xmlns="http://www.w3.org/2000/svg">
<rect width="24" height="24" fill="currentColor"/>
<g id="Icons - SET 2 Trazados - definitivo">
<rect x="-336" y="-1066" width="1144" height="1538" rx="20" fill="currentColor"/>
<g id="eb-icon-phone_call">
<path id="Vector" d="M14 4L14.424 4.08479C17.195 4.639 19.361 6.80501 19.9152 9.576L20 10M14 6L14.1539 6.05132C15.9456 6.64853 17.3515 8.05442 17.9487 9.8461L18 10M10.5471 13.7687L8.73706 11.8059C8.1072 11.1229 8.13648 10.075 8.80158 9.42672L9.96541 8.29238C10.2097 8.05422 10.2506 7.6894 10.0706 7.40809L7.15085 2.84523C7.01407 2.63147 6.76824 2.49708 6.49876 2.50005L3.30393 2.53519C3.19571 2.53638 3.11255 2.60533 3.08717 2.68815C1.62417 7.46324 2.94072 12.6384 6.53066 16.1967L7.20126 16.8614L7.95549 17.5838C11.4538 20.9347 16.5001 22.2603 21.2578 21.0721C21.3619 21.0461 21.4223 20.9608 21.4242 20.8767L21.4998 17.5514C21.5053 17.3103 21.3843 17.0777 21.1696 16.9379L16.9804 14.209C16.7021 14.0277 16.3332 14.0452 16.075 14.25L14.6325 15.3939C13.9675 15.9213 13.0115 15.9016 12.3696 15.3461L10.5471 13.7687Z" fill="currentColor" stroke-linecap="round"/>
</g>
</g>
</svg>
