<svg width="24" height="24" viewBox="0 0 24 24" fill="currentColor" xmlns="http://www.w3.org/2000/svg">
<rect width="24" height="24" fill="currentColor"/>
<g id="Icons - SET 2 Trazados - definitivo">
<rect x="-248" y="-1066" width="1144" height="1538" rx="20" fill="currentColor"/>
<g id="eb-icon-ppt_file">
<g id="Vector">
<path fill-rule="evenodd" clip-rule="evenodd" d="M10.1213 3.29289L5.29289 8.12132L4.58579 7.41421L9.41421 2.58579C9.78929 2.21071 10.298 2 10.8284 2H18C19.1046 2 20 2.89543 20 4V20C20 21.1046 19.1046 22 18 22H6C4.89543 22 4 21.1046 4 20V8.82843C4 8.29799 4.21071 7.78929 4.58579 7.41421L5.29289 8.12132C5.10536 8.30886 5 8.56321 5 8.82843V20C5 20.5523 5.44772 21 6 21H18C18.5523 21 19 20.5523 19 20V4C19 3.44772 18.5523 3 18 3H10.8284C10.5632 3 10.3089 3.10536 10.1213 3.29289Z" fill="currentColor"/>
<path fill-rule="evenodd" clip-rule="evenodd" d="M11 2.5V7.5C11 8.32843 10.3284 9 9.5 9H4.5V8H9.5C9.77614 8 10 7.77614 10 7.5V2.5H11Z" fill="currentColor"/>
<path d="M15.1155 16H14.4155V13.115H13.3305V12.5H16.1955V13.115H15.1155V16Z" fill="currentColor"/>
<path d="M11.092 16H10.392V12.5H11.817C12.677 12.5 13.132 12.905 13.132 13.67C13.132 14.44 12.672 14.86 11.817 14.86H11.092V16ZM11.092 13.085V14.27H11.757C12.207 14.27 12.432 14.085 12.432 13.67C12.432 13.265 12.217 13.085 11.757 13.085H11.092Z" fill="currentColor"/>
<path d="M7.75219 16H7.05219V12.5H8.47719C9.33719 12.5 9.79219 12.905 9.79219 13.67C9.79219 14.44 9.33219 14.86 8.47719 14.86H7.75219V16ZM7.75219 13.085V14.27H8.41719C8.86719 14.27 9.09219 14.085 9.09219 13.67C9.09219 13.265 8.87719 13.085 8.41719 13.085H7.75219Z" fill="currentColor"/>
</g>
</g>
</g>
</svg>
