<svg width="25" height="25" viewBox="0 0 25 25" fill="currentColor" xmlns="http://www.w3.org/2000/svg">
<rect width="25" height="25" fill="currentColor"/>
<g id="Icons - SET 2 Trazados - definitivo">
<rect x="-510" y="-1016" width="1144" height="1538" rx="20" fill="currentColor"/>
<g id="eb-icon-printer">
<g id="Vector">
<path fill-rule="evenodd" clip-rule="evenodd" d="M4.0614 15.055C3.78525 15.055 3.5614 15.2788 3.5614 15.555V20.68C3.5614 20.9561 3.78526 21.18 4.0614 21.18H21.0614C21.3376 21.18 21.5614 20.9562 21.5614 20.68V15.555C21.5614 15.2788 21.3376 15.055 21.0614 15.055H4.0614ZM2.5614 15.555C2.5614 14.7265 3.23297 14.055 4.0614 14.055H21.0614C21.8898 14.055 22.5614 14.7266 22.5614 15.555V20.68C22.5614 21.5084 21.8898 22.18 21.0614 22.18H4.0614C3.23299 22.18 2.5614 21.5084 2.5614 20.68V15.555Z" fill="currentColor"/>
<path fill-rule="evenodd" clip-rule="evenodd" d="M8.5614 19.18C8.5614 18.3515 9.23299 17.68 10.0614 17.68H15.0614C15.8898 17.68 16.5614 18.3516 16.5614 19.18V21.68H15.5614V19.18C15.5614 18.9038 15.3376 18.68 15.0614 18.68H10.0614C9.78526 18.68 9.5614 18.9038 9.5614 19.18V21.68H8.5614V19.18Z" fill="currentColor"/>
<path fill-rule="evenodd" clip-rule="evenodd" d="M17.9989 16.93C17.9989 16.6539 18.2228 16.43 18.4989 16.43H19.6864C19.9625 16.43 20.1864 16.6539 20.1864 16.93C20.1864 17.2061 19.9625 17.43 19.6864 17.43H18.4989C18.2228 17.43 17.9989 17.2061 17.9989 16.93Z" fill="currentColor"/>
<path fill-rule="evenodd" clip-rule="evenodd" d="M8.4989 10.9925C8.4989 10.7164 8.72276 10.4925 8.9989 10.4925H16.1239C16.4 10.4925 16.6239 10.7164 16.6239 10.9925C16.6239 11.2686 16.4 11.4925 16.1239 11.4925H8.9989C8.72276 11.4925 8.4989 11.2686 8.4989 10.9925Z" fill="currentColor"/>
<path fill-rule="evenodd" clip-rule="evenodd" d="M8.4989 8.61749C8.4989 8.34135 8.72276 8.11749 8.9989 8.11749H16.1239C16.4 8.11749 16.6239 8.34135 16.6239 8.61749C16.6239 8.89364 16.4 9.11749 16.1239 9.11749H8.9989C8.72276 9.11749 8.4989 8.89364 8.4989 8.61749Z" fill="currentColor"/>
<path fill-rule="evenodd" clip-rule="evenodd" d="M8.4989 6.24249C8.4989 5.96635 8.72276 5.74249 8.9989 5.74249H16.1239C16.4 5.74249 16.6239 5.96635 16.6239 6.24249C16.6239 6.51864 16.4 6.74249 16.1239 6.74249H8.9989C8.72276 6.74249 8.4989 6.51864 8.4989 6.24249Z" fill="currentColor"/>
<path fill-rule="evenodd" clip-rule="evenodd" d="M7.6239 3.17999C7.34776 3.17999 7.1239 3.40386 7.1239 3.67999V14.18C7.1239 14.4561 6.90004 14.68 6.6239 14.68C6.34776 14.68 6.1239 14.4561 6.1239 14.18V3.67999C6.1239 2.85157 6.79548 2.17999 7.6239 2.17999H17.4989C18.3274 2.17999 18.9989 2.85158 18.9989 3.67999V14.18C18.9989 14.4561 18.775 14.68 18.4989 14.68C18.2228 14.68 17.9989 14.4561 17.9989 14.18V3.67999C17.9989 3.40385 17.7751 3.17999 17.4989 3.17999H7.6239Z" fill="currentColor"/>
</g>
</g>
</g>
</svg>
