<svg width="24" height="24" viewBox="0 0 24 24" fill="currentColor" xmlns="http://www.w3.org/2000/svg">
<rect width="24" height="24" fill="currentColor"/>
<g id="Icons - SET 2 Trazados - definitivo">
<rect x="-776" y="-1110" width="1144" height="1538" rx="20" fill="currentColor"/>
<g id="eb-icon-question_cloud">
<path id="Vector" d="M21.5 21.5V22C21.7015 22 21.8833 21.8791 21.9612 21.6932C22.039 21.5074 21.9977 21.293 21.8564 21.1494L21.5 21.5ZM19.4335 19.3994L19.7899 19.0488L19.7899 19.0487L19.4335 19.3994ZM19.3994 17.9586L19.7886 18.2724L19.7886 18.2724L19.3994 17.9586ZM20.595 16.0519L20.1429 15.8384L20.1429 15.8384L20.595 16.0519ZM9.02855 9.83345C8.93657 10.0938 9.07308 10.3795 9.33345 10.4714C9.59383 10.5634 9.87947 10.4269 9.97145 10.1665L9.02855 9.83345ZM9.8715 8.94838L9.40007 8.78179L9.40005 8.78183L9.8715 8.94838ZM10.7643 7.8111L10.4899 7.3931L10.4899 7.39312L10.7643 7.8111ZM13.2297 7.80717L13.5042 7.38927L13.5041 7.38917L13.2297 7.80717ZM13.297 7.85138L13.0225 8.26928L13.0226 8.26937L13.297 7.85138ZM14.0967 8.88563L14.5703 8.72527L14.5703 8.72525L14.0967 8.88563ZM13.6038 10.9593L13.253 10.603L13.253 10.603L13.6038 10.9593ZM12.8815 11.6705L12.5307 11.3142L12.5307 11.3142L12.8815 11.6705ZM12.4232 12.2211L12.0092 11.9408L12.0092 11.9408L12.4232 12.2211ZM12.1475 12.6283L11.7335 12.348L11.7334 12.3481L12.1475 12.6283ZM11.5 15C11.5 15.2761 11.7239 15.5 12 15.5C12.2761 15.5 12.5 15.2761 12.5 15H11.5ZM12.5 17C12.5 16.7239 12.2761 16.5 12 16.5C11.7239 16.5 11.5 16.7239 11.5 17H12.5ZM11.5 17.1C11.5 17.3761 11.7239 17.6 12 17.6C12.2761 17.6 12.5 17.3761 12.5 17.1H11.5ZM2 12C2 17.5206 6.44261 22 11.9677 22V21C6.99933 21 3 16.9728 3 12H2ZM11.9677 22H21.5V21H11.9677V22ZM21.8564 21.1494L19.7899 19.0488L19.0771 19.75L21.1436 21.8506L21.8564 21.1494ZM19.7899 19.0487C19.6058 18.8616 19.5837 18.5267 19.7886 18.2724L19.0102 17.6448C18.5273 18.2435 18.4928 19.1562 19.0771 19.7501L19.7899 19.0487ZM19.7886 18.2724C20.2831 17.6591 20.7068 16.986 21.0471 16.2654L20.1429 15.8384C19.8368 16.4866 19.4555 17.0925 19.0102 17.6448L19.7886 18.2724ZM21.0471 16.2654C21.6584 14.9711 22 13.5248 22 12H21C21 13.374 20.6924 14.6747 20.1429 15.8384L21.0471 16.2654ZM22 12C22 6.47715 17.5228 2 12 2V3C16.9706 3 21 7.02943 21 12H22ZM12 2C6.47715 2 2 6.47715 2 12H3C3 7.02943 7.02943 3 12 3V2ZM9.97145 10.1665L10.3429 9.11493L9.40005 8.78183L9.02855 9.83345L9.97145 10.1665ZM10.3429 9.11497C10.4707 8.75329 10.7167 8.44045 11.0387 8.22908L10.4899 7.39312C9.98649 7.72361 9.60126 8.21241 9.40007 8.78179L10.3429 9.11497ZM11.0387 8.2291C11.6202 7.84739 12.3768 7.84546 12.9553 8.22517L13.5041 7.38917C12.5894 6.7888 11.4016 6.79473 10.4899 7.3931L11.0387 8.2291ZM12.9552 8.22507L13.0225 8.26928L13.5715 7.43348L13.5042 7.38927L12.9552 8.22507ZM13.0226 8.26937C13.3038 8.45396 13.5152 8.72734 13.6231 9.04601L14.5703 8.72525C14.3908 8.19523 14.0392 7.74048 13.5714 7.43339L13.0226 8.26937ZM13.6231 9.04599C13.8083 9.59303 13.6646 10.1978 13.253 10.603L13.9546 11.3156C14.6392 10.6416 14.8785 9.63539 14.5703 8.72527L13.6231 9.04599ZM13.253 10.603L12.5307 11.3142L13.2323 12.0268L13.9546 11.3156L13.253 10.603ZM12.5307 11.3142C12.3366 11.5054 12.1619 11.7152 12.0092 11.9408L12.8372 12.5014C12.9529 12.3306 13.0852 12.1716 13.2323 12.0268L12.5307 11.3142ZM12.0092 11.9408L11.7335 12.348L12.5615 12.9086L12.8372 12.5014L12.0092 11.9408ZM11.7334 12.3481C11.5814 12.5727 11.5 12.8378 11.5 13.1092H12.5C12.5 13.0378 12.5214 12.9679 12.5616 12.9085L11.7334 12.3481ZM11.5 13.1092V15H12.5V13.1092H11.5ZM11.5 17V17.1H12.5V17H11.5Z" fill="currentColor"/>
</g>
</g>
</svg>
