<svg width="24" height="24" viewBox="0 0 24 24" fill="currentColor" xmlns="http://www.w3.org/2000/svg">
<rect width="24" height="24" fill="currentColor"/>
<g id="Icons - SET 2 Trazados - definitivo">
<rect x="-116" y="-1111" width="1144" height="1538" rx="20" fill="currentColor"/>
<g id="eb-icon-receipt_files">
<g id="Vector">
<path fill-rule="evenodd" clip-rule="evenodd" d="M17 12C14.7909 12 13 13.7909 13 16C13 18.2091 14.7909 20 17 20C19.2091 20 21 18.2091 21 16C21 13.7909 19.2091 12 17 12ZM12 16C12 13.2386 14.2386 11 17 11C19.7614 11 22 13.2386 22 16C22 18.7614 19.7614 21 17 21C14.2386 21 12 18.7614 12 16Z" fill="currentColor"/>
<path fill-rule="evenodd" clip-rule="evenodd" d="M16.4939 14.4828C16.6415 14.6281 16.6433 14.8655 16.498 15.0131L15.8955 15.625H19C19.2071 15.625 19.375 15.7929 19.375 16C19.375 16.2071 19.2071 16.375 19 16.375H15.8955L16.498 16.9869C16.6433 17.1345 16.6415 17.3719 16.4939 17.5172C16.3463 17.6625 16.1089 17.6607 15.9636 17.5131L14.7328 16.2631C14.5891 16.1171 14.5891 15.8829 14.7328 15.7369L15.9636 14.4869C16.1089 14.3393 16.3463 14.3375 16.4939 14.4828Z" fill="currentColor"/>
<path fill-rule="evenodd" clip-rule="evenodd" d="M2 5.5C2 4.11929 3.11929 3 4.5 3H8.68454C9.23308 3 9.7664 3.18041 10.2023 3.51344L12.2937 5.11129C12.5553 5.3111 12.8752 5.41935 13.2044 5.41935H18.5C19.8807 5.41935 21 6.53865 21 7.91935V13.2709H20V7.91935C20 7.09093 19.3285 6.41935 18.5 6.41935H13.2044C12.6558 6.41935 12.1225 6.23893 11.6867 5.90593L9.59519 4.30807C9.33366 4.10825 9.01366 4 8.68454 4H4.5C3.67157 4 3 4.67157 3 5.5V16.5C3 17.3285 3.67157 18 4.5 18H13.1561V19H4.5C3.11929 19 2 17.8807 2 16.5V5.5Z" fill="currentColor"/>
</g>
</g>
</g>
</svg>
