<svg width="24" height="24" viewBox="0 0 24 24" fill="currentColor" xmlns="http://www.w3.org/2000/svg">
<rect width="24" height="24" fill="currentColor"/>
<g id="Icons - SET 2 Trazados - definitivo">
<rect x="-644" y="-1066" width="1144" height="1538" rx="20" fill="currentColor"/>
<g id="eb-icon-regulation">
<g id="Vector">
<path fill-rule="evenodd" clip-rule="evenodd" d="M10.1213 3.29289C10.3089 3.10534 10.5632 3 10.8284 3L10.1213 3.29289ZM7.7071 5.7071L10.1213 3.29289L7.7071 5.7071ZM7.7071 5.7071L5.29289 8.12132C5.10536 8.30886 5 8.56321 5 8.82843V20C5 20.5523 5.44772 21 6 21H18C18.5523 21 19 20.5523 19 20V4C19 3.44772 18.5523 3 18 3H10.8284M9.41424 2.58577C9.78931 2.21073 10.298 2 10.8284 2H18C19.1045 2 20 2.89542 20 4V20C20 21.1045 19.1045 22 18 22H6C4.89542 22 4 21.1045 4 20V8.82843C4 8.29799 4.21072 7.78928 4.58579 7.41422L9.41424 2.58577Z" fill="currentColor"/>
<path fill-rule="evenodd" clip-rule="evenodd" d="M11 2.5V7.5C11 8.32843 10.3284 9 9.5 9H4.5V8H9.5C9.77615 8 10 7.77615 10 7.5V2.5H11Z" fill="currentColor"/>
<path fill-rule="evenodd" clip-rule="evenodd" d="M12 10C12 9.72386 12.2239 9.5 12.5 9.5H16.5C16.7761 9.5 17 9.72386 17 10C17 10.2761 16.7761 10.5 16.5 10.5H12.5C12.2239 10.5 12 10.2761 12 10ZM7 13C7 12.7239 7.22386 12.5 7.5 12.5H16.5C16.7761 12.5 17 12.7239 17 13C17 13.2761 16.7761 13.5 16.5 13.5H7.5C7.22386 13.5 7 13.2761 7 13ZM7 16C7 15.7239 7.22386 15.5 7.5 15.5H16.5C16.7761 15.5 17 15.7239 17 16C17 16.2761 16.7761 16.5 16.5 16.5H7.5C7.22386 16.5 7 16.2761 7 16Z" fill="currentColor"/>
</g>
</g>
</g>
</svg>
