<svg width="24" height="24" viewBox="0 0 24 24" fill="currentColor" xmlns="http://www.w3.org/2000/svg">
<rect width="24" height="24" fill="currentColor"/>
<g id="Icons - SET 2 Trazados - definitivo">
<rect x="-336" y="-1155" width="1144" height="1538" rx="20" fill="currentColor"/>
<g id="eb-icon-regular_information">
<g id="Vector">
<path fill-rule="evenodd" clip-rule="evenodd" d="M7.49999 2.55C7.74852 2.55 7.94999 2.75147 7.94999 3V4.55H15.05V3C15.05 2.75147 15.2515 2.55 15.5 2.55C15.7485 2.55 15.95 2.75147 15.95 3V4.55H18.5C19.8531 4.55 20.95 5.64691 20.95 7V13.5162C21.5777 14.3459 21.95 15.3795 21.95 16.5C21.95 19.2338 19.7338 21.45 17 21.45C15.3716 21.45 13.9268 20.6637 13.0247 19.45H4.49999C3.14689 19.45 2.04999 18.3531 2.04999 17V7C2.04999 5.6469 3.14689 4.55 4.49999 4.55H7.04999V3C7.04999 2.75147 7.25146 2.55 7.49999 2.55ZM7.04999 5.45H4.49999C3.64395 5.45 2.94999 6.14396 2.94999 7V9.55H20.05V7C20.05 6.14396 19.3561 5.45 18.5 5.45H15.95V8C15.95 8.24853 15.7485 8.45 15.5 8.45C15.2515 8.45 15.05 8.24853 15.05 8V5.45H7.94999V8C7.94999 8.24853 7.74852 8.45 7.49999 8.45C7.25146 8.45 7.04999 8.24853 7.04999 8V5.45ZM20.05 10.45H2.94999V17C2.94999 17.8561 3.64394 18.55 4.49999 18.55H12.4931C12.2085 17.9254 12.05 17.2312 12.05 16.5C12.05 13.7662 14.2662 11.55 17 11.55C18.1505 11.55 19.2094 11.9425 20.05 12.601V10.45ZM17 12.45C14.7632 12.45 12.95 14.2632 12.95 16.5C12.95 18.7368 14.7632 20.55 17 20.55C19.2368 20.55 21.05 18.7368 21.05 16.5C21.05 14.2632 19.2368 12.45 17 12.45Z" fill="currentColor"/>
<path fill-rule="evenodd" clip-rule="evenodd" d="M17.0883 15.5957C17.3157 15.5957 17.5 15.7624 17.5 15.9681V18.6277C17.5 18.8333 17.3157 19 17.0883 19C16.8609 19 16.6765 18.8333 16.6765 18.6277V15.9681C16.6765 15.7624 16.8609 15.5957 17.0883 15.5957Z" fill="currentColor"/>
<path fill-rule="evenodd" clip-rule="evenodd" d="M17.0883 14C17.3157 14 17.5 14.1667 17.5 14.3723V14.4148C17.5 14.6205 17.3157 14.7872 17.0883 14.7872C16.8609 14.7872 16.6765 14.6205 16.6765 14.4148V14.3723C16.6765 14.1667 16.8609 14 17.0883 14Z" fill="currentColor"/>
</g>
</g>
</g>
</svg>
