<svg width="24" height="24" viewBox="0 0 24 24" fill="currentColor" xmlns="http://www.w3.org/2000/svg">
<rect width="24" height="24" fill="currentColor"/>
<g id="Icons - SET 2 Trazados - definitivo">
<rect x="-72" y="-1244" width="1144" height="1538" rx="20" fill="currentColor"/>
<g id="eb-icon-reload">
<g id="Vector">
<path fill-rule="evenodd" clip-rule="evenodd" d="M2 12C2 6.47715 6.47716 2 12 2C16.2229 2 19.8334 4.61745 21.2997 8.3167C21.4014 8.57341 21.2758 8.864 21.0191 8.96576C20.7624 9.06751 20.4718 8.94189 20.37 8.68518C19.0497 5.35419 15.7991 3 12 3C7.02944 3 3 7.02943 3 12C3 16.9706 7.02944 21 12 21C15.6058 21 18.7173 18.8795 20.1538 15.8153C20.271 15.5652 20.5687 15.4576 20.8188 15.5748C21.0688 15.692 21.1765 15.9897 21.0593 16.2397C19.4643 19.6419 16.0081 22 12 22C6.47716 22 2 17.5228 2 12Z" fill="currentColor"/>
<path fill-rule="evenodd" clip-rule="evenodd" d="M21.5001 5C21.7763 5 22.0001 5.22386 22.0001 5.5V9C22.0001 9.27614 21.7763 9.5 21.5001 9.5H18.0001C17.724 9.5 17.5001 9.27614 17.5001 9C17.5001 8.72386 17.724 8.5 18.0001 8.5H21.0001V5.5C21.0001 5.22386 21.224 5 21.5001 5Z" fill="currentColor"/>
</g>
</g>
</g>
</svg>
