<svg width="24" height="24" viewBox="0 0 24 24" fill="currentColor" xmlns="http://www.w3.org/2000/svg">
<rect width="24" height="24" fill="currentColor"/>
<g id="Icons - SET 2 Trazados - definitivo">
<rect x="-732" y="-1066" width="1144" height="1538" rx="20" fill="currentColor"/>
<g id="eb-icon-remove_card">
<g id="Vector">
<path fill-rule="evenodd" clip-rule="evenodd" d="M2 8H21V9H2V8Z" fill="currentColor"/>
<path fill-rule="evenodd" clip-rule="evenodd" d="M2 5.5C2 4.11929 3.11929 3 4.5 3H18.5C19.8807 3 21 4.11929 21 5.5V12.8858H20V5.5C20 4.67157 19.3285 4 18.5 4H4.5C3.67157 4 3 4.67157 3 5.5V16.5C3 17.3285 3.67157 18 4.5 18H13.3251V19H4.5C3.11929 19 2 17.8807 2 16.5V5.5Z" fill="currentColor"/>
<path fill-rule="evenodd" clip-rule="evenodd" d="M17 12C14.7908 12 13 13.7908 13 16C13 18.2092 14.7908 20 17 20C19.2092 20 21 18.2092 21 16C21 13.7908 19.2092 12 17 12ZM12 16C12 13.2386 14.2386 11 17 11C19.7614 11 22 13.2386 22 16C22 18.7614 19.7614 21 17 21C14.2386 21 12 18.7614 12 16Z" fill="currentColor"/>
<path fill-rule="evenodd" clip-rule="evenodd" d="M14.6047 16C14.6047 15.7929 14.7726 15.625 14.9797 15.625H19.0203C19.2274 15.625 19.3953 15.7929 19.3953 16C19.3953 16.2071 19.2274 16.375 19.0203 16.375H14.9797C14.7726 16.375 14.6047 16.2071 14.6047 16Z" fill="currentColor"/>
<path fill-rule="evenodd" clip-rule="evenodd" d="M4.625 13.5C4.625 13.2929 4.79289 13.125 5 13.125H11C11.2071 13.125 11.375 13.2929 11.375 13.5C11.375 13.7071 11.2071 13.875 11 13.875H5C4.79289 13.875 4.625 13.7071 4.625 13.5Z" fill="currentColor"/>
</g>
</g>
</g>
</svg>
