<svg width="24" height="24" viewBox="0 0 24 24" fill="currentColor" xmlns="http://www.w3.org/2000/svg">
<rect width="24" height="24" fill="currentColor"/>
<g id="Icons - SET 2 Trazados - definitivo">
<rect x="-116" y="-1290" width="1144" height="1538" rx="20" fill="currentColor"/>
<g id="eb-icon-sanitary">
<path id="Vector" d="M9.5 11.5662V15.706C9.5 15.9953 9.54436 16.2829 9.63158 16.5591C10.4767 19.2352 14.3044 19.2352 15.1496 16.5591C15.2368 16.2829 15.2812 15.9953 15.2812 15.706V14.1655C15.2812 13.9597 15.3186 13.7556 15.3916 13.5629C15.9543 12.0782 18.0767 12.0782 18.6394 13.5629C18.7125 13.7556 18.7499 13.9597 18.7499 14.1655V18.4306M5.9 2.5H4.50896C3.95173 2.5 3.5 2.9235 3.5 3.4459V4.29152C3.5 6.03758 4.17601 7.72429 5.40245 9.03834L6.51469 10.23C7.26794 11.0371 8.35613 11.5 9.5 11.5C10.6439 11.5 11.7321 11.0371 12.4853 10.23L13.5976 9.03834C14.824 7.72429 15.5 6.03758 15.5 4.29152V3.4459C15.5 2.9235 15.0483 2.5 14.491 2.5H13.1M20.0607 18.9393C20.6464 19.5251 20.6464 20.4749 20.0607 21.0607C19.4749 21.6464 18.5251 21.6464 17.9393 21.0607C17.3536 20.4749 17.3536 19.5251 17.9393 18.9393C18.5251 18.3536 19.4749 18.3536 20.0607 18.9393Z" fill="currentColor" stroke-linecap="round" stroke-linejoin="round"/>
</g>
</g>
</svg>
