<svg width="24" height="24" viewBox="0 0 24 24" fill="currentColor" xmlns="http://www.w3.org/2000/svg">
<path fill-rule="evenodd" clip-rule="evenodd" d="M12 2C12.2761 2 12.5 2.22386 12.5 2.5V3.97953C16.5565 4.22852 19.7992 7.48694 20.0234 11.55H21.5C21.7761 11.55 22 11.7739 22 12.05C22 12.3262 21.7761 12.55 21.5 12.55H20.0173C19.747 16.5471 16.554 19.7425 12.5581 20.0166V21.5C12.5581 21.7761 12.3342 22 12.0581 22C11.782 22 11.5581 21.7761 11.5581 21.5V20.0237C7.50808 19.8042 4.25573 16.5857 3.98289 12.55H2.5C2.22386 12.55 2 12.3262 2 12.05C2 11.7739 2.22386 11.55 2.5 11.55H3.97674C4.20096 7.48699 7.44361 4.2286 11.5 3.97954V2.5C11.5 2.22386 11.7239 2 12 2ZM5.03579 11.9999C5.03579 8.15368 8.1538 5.03566 12.0001 5.03566C15.8463 5.03566 18.9644 8.15368 18.9644 11.9999C18.9644 15.8462 15.8463 18.9642 12.0001 18.9642C8.1538 18.9642 5.03579 15.8462 5.03579 11.9999ZM9.06486 11.9477C9.06486 10.3369 10.3707 9.03105 11.9815 9.03105C13.5924 9.03105 14.8982 10.3369 14.8982 11.9477C14.8982 13.5585 13.5924 14.8644 11.9815 14.8644C10.3707 14.8644 9.06486 13.5585 9.06486 11.9477ZM11.9815 7.86438C9.72636 7.86438 7.89819 9.69255 7.89819 11.9477C7.89819 14.2029 9.72636 16.031 11.9815 16.031C14.2367 16.031 16.0649 14.2029 16.0649 11.9477C16.0649 9.69255 14.2367 7.86438 11.9815 7.86438Z" fill="currentColor"/>
</svg>
