<svg width="24" height="24" viewBox="0 0 24 24" fill="currentColor" xmlns="http://www.w3.org/2000/svg">
<rect width="24" height="24" fill="currentColor"/>
<g id="Icons - SET 2 Trazados - definitivo">
<rect x="-556" y="-1109" width="1144" height="1538" rx="20" fill="currentColor"/>
<g id="eb-icon-send_external_files">
<path id="Vector" d="M15.0933 14.8409L14.7403 15.0776L14.7403 15.0776L15.0933 14.8409ZM15.799 14.0513L15.6282 14.4405L15.6283 14.4405L15.799 14.0513ZM19.1144 15.5055L18.9437 15.8947L18.9438 15.8948L19.1144 15.5055ZM19.1144 16.4945L18.9438 16.1052L18.9437 16.1053L19.1144 16.4945ZM15.799 17.9487L15.6283 17.5595L15.6283 17.5595L15.799 17.9487ZM15.0933 17.1591L14.7403 16.9224L14.7403 16.9224L15.0933 17.1591ZM17.3277 16.425C17.5624 16.425 17.7527 16.2347 17.7527 16C17.7527 15.7653 17.5624 15.575 17.3277 15.575V16.425ZM11.9902 5.50861L12.2482 5.17089L12.2482 5.17089L11.9902 5.50861ZM9.89874 3.91075L9.64072 4.24846L9.64073 4.24847L9.89874 3.91075ZM21.075 16C21.075 18.2506 19.2506 20.075 17 20.075V20.925C19.72 20.925 21.925 18.72 21.925 16H21.075ZM17 20.075C14.7494 20.075 12.925 18.2506 12.925 16H12.075C12.075 18.72 14.28 20.925 17 20.925V20.075ZM12.925 16C12.925 13.7494 14.7494 11.925 17 11.925V11.075C14.28 11.075 12.075 13.28 12.075 16H12.925ZM17 11.925C19.2506 11.925 21.075 13.7494 21.075 16H21.925C21.925 13.28 19.72 11.075 17 11.075V11.925ZM16.2236 15.7633L15.4463 14.6042L14.7403 15.0776L15.5176 16.2367L16.2236 15.7633ZM15.4463 14.6042C15.4249 14.5722 15.424 14.5512 15.4254 14.5381C15.4272 14.5209 15.4359 14.4974 15.4566 14.4743C15.4772 14.4512 15.5039 14.4353 15.5309 14.4287C15.5548 14.4228 15.5864 14.4221 15.6282 14.4405L15.9698 13.6621C15.529 13.4687 15.0835 13.6161 14.8228 13.9079C14.56 14.2019 14.4658 14.6681 14.7403 15.0776L15.4463 14.6042ZM15.6283 14.4405L18.9437 15.8947L19.2851 15.1163L15.9697 13.6621L15.6283 14.4405ZM18.9438 15.8948C18.977 15.9093 18.9937 15.9272 19.0031 15.942C19.0135 15.9584 19.0195 15.9784 19.0195 16C19.0195 16.0216 19.0135 16.0416 19.0031 16.058C18.9937 16.0728 18.977 16.0907 18.9438 16.1052L19.285 16.8837C20.0643 16.5422 20.0643 15.4578 19.285 15.1163L18.9438 15.8948ZM18.9437 16.1053L15.6283 17.5595L15.9697 18.3379L19.2851 16.8837L18.9437 16.1053ZM15.6283 17.5595C15.5864 17.5779 15.5547 17.5772 15.5308 17.5713C15.5038 17.5647 15.4772 17.5488 15.4565 17.5258C15.4359 17.5026 15.4272 17.4791 15.4254 17.4619C15.424 17.4488 15.4249 17.4278 15.4463 17.3958L14.7403 16.9224C14.4658 17.3319 14.56 17.7981 14.8227 18.0921C15.0835 18.3839 15.529 18.5312 15.9697 18.3379L15.6283 17.5595ZM15.4463 17.3958L16.2236 16.2367L15.5176 15.7633L14.7403 16.9224L15.4463 17.3958ZM15.8706 16.425H17.3277V15.575H15.8706V16.425ZM20.925 13.2709V7.91935H20.075V13.2709H20.925ZM20.925 7.91935C20.925 6.58007 19.8393 5.49435 18.5 5.49435V6.34435C19.3699 6.34435 20.075 7.04951 20.075 7.91935H20.925ZM18.5 5.49435H13.2044V6.34435H18.5V5.49435ZM13.2044 5.49435C12.8588 5.49435 12.5228 5.38069 12.2482 5.17089L11.7322 5.84633C12.155 6.16935 12.6722 6.34435 13.2044 6.34435V5.49435ZM12.2482 5.17089L10.1568 3.57303L9.64073 4.24847L11.7322 5.84633L12.2482 5.17089ZM10.1568 3.57304C9.73395 3.25 9.21662 3.075 8.68454 3.075V3.925C9.03012 3.925 9.36611 4.03866 9.64072 4.24846L10.1568 3.57304ZM8.68454 3.075H4.5V3.925H8.68454V3.075ZM4.5 3.075C3.16071 3.075 2.075 4.16071 2.075 5.5H2.925C2.925 4.63015 3.63015 3.925 4.5 3.925V3.075ZM2.075 16.5C2.075 17.8393 3.16071 18.925 4.5 18.925V18.075C3.63015 18.075 2.925 17.3699 2.925 16.5H2.075ZM4.5 18.925H13.1561V18.075H4.5V18.925ZM2.075 5.5V16.5H2.925V5.5H2.075Z" fill="currentColor"/>
</g>
</g>
</svg>
