<svg width="24" height="24" viewBox="0 0 24 24" fill="currentColor" xmlns="http://www.w3.org/2000/svg">
<rect width="24" height="24" fill="currentColor"/>
<g id="Iconos no tokenizados">
<rect width="1884" height="2080" transform="translate(-149 -229)" fill="currentColor"/>
<g id="eb-icon-show">
<g id="Vector">
<path fill-rule="evenodd" clip-rule="evenodd" d="M6.45966 7.43945C4.92695 8.83791 3.78357 10.5577 3.14515 11.8148C3.08541 11.9324 3.08541 12.0676 3.14515 12.1852C3.78357 13.4423 4.92695 15.1621 6.45966 16.5605C7.99343 17.96 9.87386 19 12 19C14.1262 19 16.0067 17.96 17.5404 16.5605C19.0731 15.1621 20.2165 13.4423 20.8549 12.1852C20.9147 12.0676 20.9147 11.9324 20.8549 11.8148C20.2165 10.5577 19.0731 8.83791 17.5404 7.43945C16.0067 6.04004 14.1262 5 12 5C9.87386 5 7.99343 6.04004 6.45966 7.43945ZM5.78565 6.70073C7.42461 5.20535 9.53492 4 12 4C14.4652 4 16.5755 5.20535 18.2144 6.70073C19.8544 8.19708 21.0658 10.0215 21.7465 11.362C21.9508 11.7642 21.9508 12.2358 21.7465 12.638C21.0658 13.9785 19.8544 15.8029 18.2144 17.2993C16.5755 18.7947 14.4652 20 12 20C9.53492 20 7.42461 18.7947 5.78565 17.2993C4.14565 15.8029 2.93433 13.9785 2.25354 12.638C2.04928 12.2358 2.04928 11.7642 2.25354 11.362C2.93433 10.0215 4.14565 8.19708 5.78565 6.70073Z" fill="currentColor"/>
<path fill-rule="evenodd" clip-rule="evenodd" d="M12 9C10.3432 9 9.00004 10.3431 9.00004 12C9.00004 13.6569 10.3432 15 12 15C13.6569 15 15 13.6569 15 12C15 10.3431 13.6569 9 12 9ZM8.00004 12C8.00004 9.79086 9.7909 8 12 8C14.2092 8 16 9.79086 16 12C16 14.2091 14.2092 16 12 16C9.7909 16 8.00004 14.2091 8.00004 12Z" fill="currentColor"/>
</g>
</g>
</g>
</svg>
