<svg width="24" height="24" viewBox="0 0 24 24" fill="currentColor" xmlns="http://www.w3.org/2000/svg">
<rect width="24" height="24" fill="currentColor"/>
<g id="Icons - SET 2 Trazados - definitivo">
<rect x="-556" y="-1155" width="1144" height="1538" rx="20" fill="currentColor"/>
<g id="eb-icon-signature">
<g id="Vector">
<path d="M4.5 17.75L4.00618 17.6716C3.98111 17.8296 4.03315 17.9901 4.14618 18.1033C4.25921 18.2165 4.41958 18.2688 4.57761 18.2439L4.5 17.75ZM5.76255 6.60167L4.00618 17.6716L4.99382 17.8284L6.7502 6.75837L5.76255 6.60167ZM4.57761 18.2439L15.6675 16.5014L15.5123 15.5135L4.42239 17.2561L4.57761 18.2439ZM16.9673 15.0946L17.3239 10.3029L16.3267 10.2287L15.97 15.0203L16.9673 15.0946ZM17.178 9.91141L12.1643 4.92194L11.4589 5.63076L16.4726 10.6202L17.178 9.91141ZM11.7546 4.77962L7.11135 5.31279L7.22542 6.30626L11.8687 5.77309L11.7546 4.77962ZM12.227 5.55463L13.6093 3.49122L12.7785 2.93466L11.3962 4.99807L12.227 5.55463ZM14.4489 3.40892L18.8413 7.78008L19.5467 7.07127L15.1543 2.70011L14.4489 3.40892ZM18.7232 8.63038L16.5811 9.82951L17.0695 10.7021L19.2117 9.50296L18.7232 8.63038ZM18.8413 7.78008C19.0943 8.03194 19.0371 8.45465 18.7232 8.63038L19.2117 9.50296C20.1034 9.00378 20.2717 7.79283 19.5467 7.07127L18.8413 7.78008ZM15.6675 16.5014C16.3743 16.3903 16.9141 15.809 16.9673 15.0946L15.97 15.0203C15.9515 15.2685 15.7634 15.474 15.5123 15.5135L15.6675 16.5014ZM13.6093 3.49122C13.7995 3.20727 14.2054 3.16657 14.4489 3.40892L15.1543 2.70011C14.4656 2.0148 13.3195 2.12703 12.7785 2.93466L13.6093 3.49122ZM6.7502 6.75837C6.78794 6.52051 6.98105 6.33432 7.22542 6.30626L7.11135 5.31279C6.42391 5.39172 5.87111 5.91749 5.76255 6.60167L6.7502 6.75837ZM13.1472 11.5132C13.1472 10.2014 12.0793 9.14212 10.7671 9.14212V10.1421C11.5316 10.1421 12.1472 10.7582 12.1472 11.5132H13.1472ZM10.7671 13.8842C12.0793 13.8842 13.1472 12.8249 13.1472 11.5132H12.1472C12.1472 12.2681 11.5316 12.8842 10.7671 12.8842V13.8842ZM8.38697 11.5132C8.38697 12.8249 9.45489 13.8842 10.7671 13.8842V12.8842C10.0026 12.8842 9.38697 12.2681 9.38697 11.5132H8.38697ZM9.38697 11.5132C9.38697 10.7582 10.0026 10.1421 10.7671 10.1421V9.14212C9.45489 9.14212 8.38697 10.2014 8.38697 11.5132H9.38697Z" fill="currentColor"/>
<path fill-rule="evenodd" clip-rule="evenodd" d="M2 21.25C2 20.9739 2.22386 20.75 2.5 20.75H21.5C21.7761 20.75 22 20.9739 22 21.25C22 21.5261 21.7761 21.75 21.5 21.75H2.5C2.22386 21.75 2 21.5261 2 21.25Z" fill="currentColor"/>
</g>
</g>
</g>
</svg>
