<svg width="24" height="24" viewBox="0 0 24 24" fill="currentColor" xmlns="http://www.w3.org/2000/svg">
<rect width="24" height="24" fill="currentColor"/>
<g id="Icons - SET 2 Trazados - definitivo">
<rect x="-468" y="-1110" width="1144" height="1538" rx="20" fill="currentColor"/>
<g id="eb-icon-total-refund">
<g id="Vector">
<path fill-rule="evenodd" clip-rule="evenodd" d="M21.8407 2.94123C22.0416 3.13068 22.0509 3.44713 21.8615 3.64803L16.2036 9.64803C16.1091 9.74821 15.9775 9.805 15.8398 9.805C15.7021 9.805 15.5705 9.74821 15.476 9.64803L14.4222 8.53052C14.2328 8.32962 14.2421 8.01317 14.443 7.82372C14.6439 7.63427 14.9603 7.64356 15.1498 7.84446L15.8398 8.57621L21.1339 2.96197C21.3234 2.76107 21.6398 2.75178 21.8407 2.94123Z" fill="currentColor"/>
<path fill-rule="evenodd" clip-rule="evenodd" d="M17.3407 2.94128C17.5416 3.13073 17.5509 3.44718 17.3615 3.64808L11.7036 9.64803C11.6091 9.74821 11.4775 9.805 11.3398 9.805C11.2021 9.805 11.0705 9.74822 10.976 9.64804L7.63395 6.10401C7.44449 5.90311 7.45377 5.58666 7.65467 5.39721C7.85557 5.20775 8.17202 5.21703 8.36148 5.41793L11.3398 8.57621L16.6339 2.96202C16.8234 2.76111 17.1398 2.75183 17.3407 2.94128Z" fill="currentColor"/>
<path fill-rule="evenodd" clip-rule="evenodd" d="M3.49771 12.555C3.20214 12.555 2.99771 12.78 2.99771 13.015V19.735C2.99771 19.97 3.20214 20.195 3.49771 20.195H4.49771C4.79329 20.195 4.99771 19.97 4.99771 19.735V13.015C4.99771 12.78 4.79329 12.555 4.49771 12.555H3.49771ZM1.99771 13.015C1.99771 12.1896 2.68872 11.555 3.49771 11.555H4.49771C5.3067 11.555 5.99771 12.1896 5.99771 13.015V19.735C5.99771 20.5604 5.3067 21.195 4.49771 21.195H3.49771C2.68872 21.195 1.99771 20.5604 1.99771 19.735V13.015Z" fill="currentColor"/>
<path d="M20.1231 13.5287L20.0033 13.0627L19.976 13.0692L19.9495 13.0786L20.1231 13.5287ZM9.87501 15.5189C9.60691 15.4553 9.33594 15.6125 9.26978 15.8698C9.20362 16.1272 9.36733 16.3874 9.63543 16.4509L9.87501 15.5189ZM5.41788 18.8849L10.1957 20.7714L10.5761 19.8836L5.79825 17.9971L5.41788 18.8849ZM20.2226 13.0107L20.0033 13.0627L20.2429 13.9947L20.4622 13.9428L20.2226 13.0107ZM19.9495 13.0786L16.0497 14.4644L16.3969 15.3647L20.2967 13.9789L19.9495 13.0786ZM16.0497 14.4644L11.9575 15.9185L12.3047 16.8188L16.3969 15.3647L16.0497 14.4644ZM11.6354 15.9359L9.87501 15.5189L9.63543 16.4509L11.3958 16.868L11.6354 15.9359ZM10.0908 13.3448L16.0568 15.3671L16.3898 14.4619L10.4237 12.4395L10.0908 13.3448ZM11.9575 15.9185C11.8547 15.9551 11.7422 15.9612 11.6354 15.9359L11.3958 16.868C11.6969 16.9393 12.0138 16.9222 12.3047 16.8188L11.9575 15.9185ZM21.5588 15.3043C22.6126 14.3463 21.6361 12.6759 20.2226 13.0107L20.4622 13.9428C20.9098 13.8367 21.156 14.3483 20.8712 14.6072L21.5588 15.3043ZM8.66947 12.4717L5.42369 13.7078L5.79244 14.6002L9.03822 13.3641L8.66947 12.4717ZM12.4367 20.6076L21.3552 15.4498L20.8392 14.6275L11.9206 19.7853L12.4367 20.6076ZM10.4237 12.4395C9.85413 12.2464 9.23097 12.2579 8.66947 12.4717L9.03822 13.3641C9.37512 13.2358 9.74901 13.2289 10.0908 13.3448L10.4237 12.4395ZM20.8712 14.6072C20.8728 14.6057 20.8718 14.6069 20.8663 14.6107C20.8607 14.6146 20.8523 14.6199 20.8392 14.6275L21.3552 15.4498C21.411 15.4176 21.4861 15.3704 21.5588 15.3043L20.8712 14.6072ZM10.1957 20.7714C10.9276 21.0604 11.7588 20.9996 12.4367 20.6076L11.9206 19.7853C11.5139 20.0205 11.0152 20.057 10.5761 19.8836L10.1957 20.7714Z" fill="currentColor"/>
</g>
</g>
</g>
</svg>
