<svg width="24" height="24" viewBox="0 0 24 24" fill="currentColor" xmlns="http://www.w3.org/2000/svg">
<rect width="24" height="24" fill="currentColor"/>
<g id="Icons - SET 2 Trazados - definitivo">
<rect x="-160" y="-1245" width="1144" height="1538" rx="20" fill="currentColor"/>
<g id="eb-icon-transfers">
<g id="Vector">
<path fill-rule="evenodd" clip-rule="evenodd" d="M6.85355 12.1464C7.04882 12.3417 7.04882 12.6583 6.85355 12.8536L3.70711 16H21.5C21.7761 16 22 16.2239 22 16.5C22 16.7761 21.7761 17 21.5 17H3.70711L6.85355 20.1464C7.04882 20.3417 7.04882 20.6583 6.85355 20.8536C6.65829 21.0488 6.34171 21.0488 6.14645 20.8536L2.14645 16.8536C1.95118 16.6583 1.95118 16.3417 2.14645 16.1464L6.14645 12.1464C6.34171 11.9512 6.65829 11.9512 6.85355 12.1464Z" fill="currentColor"/>
<path fill-rule="evenodd" clip-rule="evenodd" d="M17.1464 3.14645C17.3417 2.95118 17.6583 2.95118 17.8536 3.14645L21.8536 7.14645C22.0488 7.34171 22.0488 7.65829 21.8536 7.85355L17.8536 11.8536C17.6583 12.0488 17.3417 12.0488 17.1464 11.8536C16.9512 11.6583 16.9512 11.3417 17.1464 11.1464L20.2929 8H2.5C2.22386 8 2 7.77614 2 7.5C2 7.22386 2.22386 7 2.5 7H20.2929L17.1464 3.85355C16.9512 3.65829 16.9512 3.34171 17.1464 3.14645Z" fill="currentColor"/>
</g>
</g>
</g>
</svg>
