<svg width="24" height="25" viewBox="0 0 24 25" fill="currentColor" xmlns="http://www.w3.org/2000/svg">
<rect width="24" height="25" fill="currentColor"/>
<g id="Icons - SET 2 Trazados - definitivo">
<rect x="-336" y="-1206" width="1144" height="1538" rx="20" fill="currentColor"/>
<g id="eb-icon-txt_file">
<g id="Vector">
<path fill-rule="evenodd" clip-rule="evenodd" d="M10.1213 4.21818L5.29289 9.04661L4.58579 8.3395L9.41421 3.51108C9.78929 3.136 10.298 2.92529 10.8284 2.92529H18C19.1046 2.92529 20 3.82072 20 4.92529V20.9253C20 22.0299 19.1046 22.9253 18 22.9253H6C4.89543 22.9253 4 22.0299 4 20.9253V9.75372C4 9.22328 4.21071 8.71458 4.58579 8.3395L5.29289 9.04661C5.10536 9.23415 5 9.4885 5 9.75372V20.9253C5 21.4776 5.44772 21.9253 6 21.9253H18C18.5523 21.9253 19 21.4776 19 20.9253V4.92529C19 4.37301 18.5523 3.92529 18 3.92529H10.8284C10.5632 3.92529 10.3089 4.03065 10.1213 4.21818Z" fill="currentColor"/>
<path fill-rule="evenodd" clip-rule="evenodd" d="M11 3.42529V8.42529C11 9.25372 10.3284 9.92529 9.5 9.92529H4.5V8.92529H9.5C9.77614 8.92529 10 8.70143 10 8.42529V3.42529H11Z" fill="currentColor"/>
<path d="M16.2815 16.9253H15.5815V14.0403H14.4965V13.4253H17.3615V14.0403H16.2815V16.9253Z" fill="currentColor"/>
<path d="M11.6235 16.9253H10.8485L12.0835 15.1403L10.8985 13.4253H11.6835L12.5085 14.6103L13.3335 13.4253H14.1035L12.9285 15.1353L14.1535 16.9253H13.3735L12.4985 15.6653L11.6235 16.9253Z" fill="currentColor"/>
<path d="M9.42117 16.9253H8.72117V14.0403H7.63617V13.4253H10.5012V14.0403H9.42117V16.9253Z" fill="currentColor"/>
</g>
</g>
</g>
</svg>
