<svg width="24" height="24" viewBox="0 0 24 24" fill="currentColor" xmlns="http://www.w3.org/2000/svg">
<rect width="24" height="24" fill="currentColor"/>
<g id="Icons - SET 2 Trazados - definitivo">
<rect x="-72" y="-1200" width="1144" height="1538" rx="20" fill="currentColor"/>
<g id="eb-icon-ubication">
<path id="Vector" d="M8.67739 15.5L3.87115 19.6375C3.11959 20.2844 3.58586 21.5 4.58559 21.5H19.4144C20.4141 21.5 20.8804 20.2844 20.1289 19.6375L15.3226 15.5M12 11.9544C13.2354 11.9544 14.2369 10.9396 14.2369 9.68775C14.2369 8.4359 13.2354 7.42108 12 7.42108C10.7646 7.42108 9.76317 8.4359 9.76317 9.68775C9.76317 10.9396 10.7646 11.9544 12 11.9544ZM12 2.5C10.2761 2.5 8.6228 3.21643 7.40382 4.49167C6.18483 5.76692 5.50001 7.49653 5.50001 9.3C5.50001 10.9082 5.82664 11.9605 6.71876 13.125L12 19.5L17.2813 13.125C18.1734 11.9605 18.5 10.9082 18.5 9.3C18.5 7.49653 17.8152 5.76692 16.5962 4.49167C15.3772 3.21643 13.7239 2.5 12 2.5Z" fill="currentColor"/>
</g>
</g>
</svg>
