<svg width="24" height="24" viewBox="0 0 24 24" fill="currentColor" xmlns="http://www.w3.org/2000/svg">
<rect width="24" height="24" fill="currentColor"/>
<g id="Icons - SET 2 Trazados - definitivo">
<rect x="-592" y="-688" width="1144" height="907" rx="20" fill="currentColor"/>
<g id="table">
<g id="row-8">
<g id="eb-icon-upload">
<g id="Vector">
<path fill-rule="evenodd" clip-rule="evenodd" d="M12.001 2.00922C12.1364 2.00922 12.2659 2.0641 12.3601 2.16132L16.3601 6.29021C16.5523 6.48854 16.5472 6.80509 16.3489 6.99723C16.1506 7.18937 15.834 7.18435 15.6419 6.98602L12.501 3.74392V18.0084C12.501 18.2845 12.2771 18.5084 12.001 18.5084C11.7249 18.5084 11.501 18.2845 11.501 18.0084V3.74392L8.36009 6.98602C8.16795 7.18435 7.85141 7.18937 7.65308 6.99723C7.45474 6.80509 7.44972 6.48854 7.64187 6.29021L11.6419 2.16132C11.7361 2.0641 11.8656 2.00922 12.001 2.00922Z" fill="currentColor"/>
<path fill-rule="evenodd" clip-rule="evenodd" d="M2.50098 15.0084C2.77712 15.0084 3.00098 15.2323 3.00098 15.5084V19.5084C3.00098 20.3368 3.67255 21.0084 4.50098 21.0084H19.501C20.3294 21.0084 21.001 20.3368 21.001 19.5084V15.5084C21.001 15.2323 21.2249 15.0084 21.501 15.0084C21.7771 15.0084 22.001 15.2323 22.001 15.5084V19.5084C22.001 20.8891 20.8817 22.0084 19.501 22.0084H4.50098C3.12027 22.0084 2.00098 20.8891 2.00098 19.5084V15.5084C2.00098 15.2323 2.22484 15.0084 2.50098 15.0084Z" fill="currentColor"/>
</g>
</g>
</g>
</g>
</g>
</svg>
