<svg width="24" height="24" viewBox="0 0 24 24" fill="currentColor" xmlns="http://www.w3.org/2000/svg">
<rect width="24" height="24" fill="currentColor"/>
<g id="Icons - SET 2 Trazados - definitivo">
<rect x="-512" y="-1066" width="1144" height="1538" rx="20" fill="currentColor"/>
<g id="eb-icon-xlsx_file">
<g id="Vector">
<path fill-rule="evenodd" clip-rule="evenodd" d="M10.1213 3.29289L5.29289 8.12132L4.58579 7.41421L9.41421 2.58579C9.78929 2.21071 10.298 2 10.8284 2H18C19.1046 2 20 2.89543 20 4V20C20 21.1046 19.1046 22 18 22H6C4.89543 22 4 21.1046 4 20V8.82843C4 8.29799 4.21071 7.78929 4.58579 7.41421L5.29289 8.12132C5.10536 8.30886 5 8.56321 5 8.82843V20C5 20.5523 5.44772 21 6 21H18C18.5523 21 19 20.5523 19 20V4C19 3.44772 18.5523 3 18 3H10.8284C10.5632 3 10.3089 3.10536 10.1213 3.29289Z" fill="currentColor"/>
<path fill-rule="evenodd" clip-rule="evenodd" d="M11 2.5V7.5C11 8.32843 10.3284 9 9.5 9H4.5V8H9.5C9.77614 8 10 7.77614 10 7.5V2.5H11Z" fill="currentColor"/>
<path d="M15.2011 16H14.5811L15.5691 14.572L14.6211 13.2H15.2491L15.9091 14.148L16.5691 13.2H17.1851L16.2451 14.568L17.2251 16H16.6011L15.9011 14.992L15.2011 16Z" fill="currentColor"/>
<path d="M13.3358 16.048C12.9118 16.048 12.5758 15.98 12.2518 15.84V15.352C12.5558 15.508 12.9478 15.604 13.2718 15.604C13.6398 15.604 13.8438 15.48 13.8438 15.26C13.8438 15.04 13.7238 14.952 13.1718 14.824C12.4918 14.664 12.2518 14.432 12.2518 13.964C12.2518 13.472 12.6558 13.156 13.2918 13.156C13.6478 13.156 13.9438 13.224 14.2358 13.364V13.852C14.0318 13.712 13.6318 13.6 13.3158 13.6C12.9758 13.6 12.7878 13.716 12.7878 13.92C12.7878 14.136 12.9438 14.232 13.5118 14.368C14.1758 14.528 14.3798 14.736 14.3798 15.208C14.3798 15.72 13.9758 16.048 13.3358 16.048Z" fill="currentColor"/>
<path d="M11.8669 16H9.89487V13.2H10.4549V15.508H11.8669V16Z" fill="currentColor"/>
<path d="M7.39644 16H6.77644L7.76444 14.572L6.81644 13.2H7.44444L8.10444 14.148L8.76444 13.2H9.38044L8.44044 14.568L9.42044 16H8.79644L8.09644 14.992L7.39644 16Z" fill="currentColor"/>
</g>
</g>
</g>
</svg>
