<svg width="24" height="24" viewBox="0 0 24 24" fill="currentColor" xmlns="http://www.w3.org/2000/svg">
<rect width="24" height="24" fill="currentColor"/>
<g id="Icons - SET 2 Trazados - definitivo">
<rect x="-204" y="-1110" width="1144" height="1538" rx="20" fill="currentColor"/>
<g id="eb-icon-jpg_file">
<g id="Vector">
<path fill-rule="evenodd" clip-rule="evenodd" d="M10.1213 3.29289L5.29289 8.12132L4.58579 7.41421L9.41421 2.58579C9.78929 2.21071 10.298 2 10.8284 2H18C19.1046 2 20 2.89543 20 4V20C20 21.1046 19.1046 22 18 22H6C4.89543 22 4 21.1046 4 20V8.82843C4 8.29799 4.21071 7.78929 4.58579 7.41421L5.29289 8.12132C5.10536 8.30886 5 8.56321 5 8.82843V20C5 20.5523 5.44772 21 6 21H18C18.5523 21 19 20.5523 19 20V4C19 3.44772 18.5523 3 18 3H10.8284C10.5632 3 10.3089 3.10536 10.1213 3.29289Z" fill="currentColor"/>
<path fill-rule="evenodd" clip-rule="evenodd" d="M11 2.5V7.5C11 8.32843 10.3284 9 9.5 9H4.5V8H9.5C9.77614 8 10 7.77614 10 7.5V2.5H11Z" fill="currentColor"/>
<path d="M14.009 16H13.309V12.5H14.734C15.594 12.5 16.049 12.905 16.049 13.67C16.049 14.44 15.589 14.86 14.734 14.86H14.009V16ZM14.009 13.085V14.27H14.674C15.124 14.27 15.349 14.085 15.349 13.67C15.349 13.265 15.134 13.085 14.674 13.085H14.009Z" fill="currentColor"/>
<path d="M12.4368 16H11.7368V12.5H12.4368V16Z" fill="currentColor"/>
<path d="M10.9811 13.04L8.97613 15.415H10.9911V16H8.09613V15.46L10.0961 13.085H8.15613V12.5H10.9811V13.04Z" fill="currentColor"/>
</g>
</g>
</g>
</svg>
